<svg width="600" height="392" xmlns="http://www.w3.org/2000/svg"> <rect width="100%" height="100%" fill="#FEFEFE" />
<line x1="70" y1="252" x2="530" y2="252" stroke="#9f9f9f" stroke-width="1" />
<rect x="70" y="87" width="460" height="165" fill="#FEFEFE" />
<text text-anchor="middle" x="300.0" y="20" font-family="'Helvetica Neue', Arial, sans-serif" font-weight="bold" font-size="22" fill="#000000">GMO use in corn grown in Iowa</text>
<text text-anchor="middle" x="300.0" y="42" font-family="'Helvetica Neue', Arial, sans-serif" font-size="14" fill="#000000">correlates with</text>
<text text-anchor="middle" x="300.0" y="68" font-family="'Helvetica Neue', Arial, sans-serif" font-weight="bold" font-size="22" fill="#ba0f27">Google searches for &apos;black holes&apos;</text>
<text text-anchor="start" x="23" y="297.3333333333333" font-family="'Helvetica Neue', Arial, sans-serif" font-size="14" fill="#9f9f9f">Percent of all corn planted in Iowa that is genetically modified to be</text>
<text text-anchor="start" x="23" y="313.3333333333333" font-family="'Helvetica Neue', Arial, sans-serif" font-size="14" fill="#9f9f9f">insect-resistant (Bt), but not herbicide-tolerant (HT) &#183; Source: USDA</text>
<text text-anchor="start" x="23" y="336.66666666666663" font-family="'Helvetica Neue', Arial, sans-serif" font-size="14" fill="#9f9f9f">Relative volume of Google searches for &apos;black holes&apos; (Worldwide,</text>
<text text-anchor="start" x="23" y="352.66666666666663" font-family="'Helvetica Neue', Arial, sans-serif" font-size="14" fill="#9f9f9f">without quotes) &#183; Source: Google Trends</text>
<text text-anchor="start" x="23" y="375.99999999999994" font-family="'Helvetica Neue', Arial, sans-serif" font-size="14" fill="#9f9f9f">2004-2023, r=0.960, r&#178;=0.921, p&lt;0.01  &#183;  tylervigen.com/spurious/correlation/1302</text>
<polyline points="5,292.66666666666663 20,292.66666666666663" style="fill:none;stroke:#000000;stroke-width:2.7" stroke-dasharray="3,1" />
<polygon points="2.12,292.66666666666663 5,289.78666666666663 7.88,292.66666666666663 5,295.5466666666666" stroke="#F7F7F7" stroke-width="2.4" fill="#F7F7F7"  />
<polygon points="2.12,292.66666666666663 5,289.78666666666663 7.88,292.66666666666663 5,295.5466666666666" stroke="#000000" stroke-width="2.4" fill="#000000"  />
<polyline points="5,331.99999999999994 20,331.99999999999994" style="fill:none;stroke:#ba0f27;stroke-width:2.7" />
<circle cx="5" cy="331.99999999999994" r="2.4" stroke="#F7F7F7" stroke-width="2.4" fill="#F7F7F7" />
<circle cx="5" cy="331.99999999999994" r="2.4" stroke="#ba0f27" stroke-width="2.4" fill="#ba0f27"  />
<text x="5" y="174.5" transform="rotate(270 5 169.5)" text-anchor="middle" fill="#000000" font-family="'Helvetica Neue', Arial, sans-serif" font-size="14" dominant-baseline="central">GMO corn %</text>
<text x="169.5" y="-389" transform="rotate(90 100 100)" text-anchor="middle" fill="#ba0f27" font-family="'Helvetica Neue', Arial, sans-serif" font-size="14" dominant-baseline="central">Rel. search volume</text>
<line x1="71" y1="94.4" x2="528" y2="94.4" stroke="#F3F3F3" stroke-width="1" fill="#FEFEFE" />
<text text-anchor="end" x="62" y="99.06666666666668" font-family="'Helvetica Neue', Arial, sans-serif" font-size="12" fill="#000000">36%</text>
<text text-anchor="start" x="538" y="99.06666666666668" font-family="'Helvetica Neue', Arial, sans-serif" font-size="12" fill="#ba0f27">73</text>
<line x1="71" y1="131.95" x2="528" y2="131.95" stroke="#F3F3F3" stroke-width="1" fill="#FEFEFE" />
<text text-anchor="end" x="62" y="136.61666666666665" font-family="'Helvetica Neue', Arial, sans-serif" font-size="12">28%</text>
<text text-anchor="start" x="538" y="136.61666666666665" font-family="'Helvetica Neue', Arial, sans-serif" font-size="12" fill="#ba0f27">59</text>
<line x1="71" y1="169.5" x2="528" y2="169.5" stroke="#F3F3F3" stroke-width="1" fill="#FEFEFE" />
<text text-anchor="end" x="62" y="174.16666666666666" font-family="'Helvetica Neue', Arial, sans-serif" font-size="12">20%</text>
<text text-anchor="start" x="538" y="174.16666666666666" font-family="'Helvetica Neue', Arial, sans-serif" font-size="12" fill="#ba0f27">45</text>
<line x1="71" y1="207.05" x2="528" y2="207.05" stroke="#F3F3F3" stroke-width="1" fill="#FEFEFE" />
<text text-anchor="end" x="62" y="211.71666666666667" font-family="'Helvetica Neue', Arial, sans-serif" font-size="12">11%</text>
<text text-anchor="start" x="538" y="211.71666666666667" font-family="'Helvetica Neue', Arial, sans-serif" font-size="12" fill="#ba0f27">32</text>
<line x1="71" y1="244.6" x2="528" y2="244.6" stroke="#F3F3F3" stroke-width="1" fill="#FEFEFE" />
<text text-anchor="end" x="62" y="249.26666666666665" font-family="'Helvetica Neue', Arial, sans-serif" font-size="12">3%</text>
<text text-anchor="start" x="538" y="249.26666666666665" font-family="'Helvetica Neue', Arial, sans-serif" font-size="12" fill="#ba0f27">18</text>
<polyline points="77.4,252 77.4,258" style="fill:none;stroke:#000000;stroke-width:1" />
<polyline points="147.69473684210527,252 147.69473684210527,258" style="fill:none;stroke:#000000;stroke-width:1" />
<polyline points="217.98947368421054,252 217.98947368421054,258" style="fill:none;stroke:#000000;stroke-width:1" />
<polyline points="288.2842105263158,252 288.2842105263158,258" style="fill:none;stroke:#000000;stroke-width:1" />
<polyline points="358.57894736842104,252 358.57894736842104,258" style="fill:none;stroke:#000000;stroke-width:1" />
<polyline points="428.87368421052633,252 428.87368421052633,258" style="fill:none;stroke:#000000;stroke-width:1" />
<polyline points="499.16842105263163,252 499.16842105263163,258" style="fill:none;stroke:#000000;stroke-width:1" />
<text text-anchor="middle" x="77.4" y="273" font-weight="bold" font-family="'Helvetica Neue', Arial, sans-serif" font-size="14">2004</text>
<text text-anchor="middle" x="147.69473684210527" y="273" font-weight="bold" font-family="'Helvetica Neue', Arial, sans-serif" font-size="14">2007</text>
<text text-anchor="middle" x="217.98947368421054" y="273" font-weight="bold" font-family="'Helvetica Neue', Arial, sans-serif" font-size="14">2010</text>
<text text-anchor="middle" x="288.2842105263158" y="273" font-weight="bold" font-family="'Helvetica Neue', Arial, sans-serif" font-size="14">2013</text>
<text text-anchor="middle" x="358.57894736842104" y="273" font-weight="bold" font-family="'Helvetica Neue', Arial, sans-serif" font-size="14">2016</text>
<text text-anchor="middle" x="428.87368421052633" y="273" font-weight="bold" font-family="'Helvetica Neue', Arial, sans-serif" font-size="14">2019</text>
<text text-anchor="middle" x="499.16842105263163" y="273" font-weight="bold" font-family="'Helvetica Neue', Arial, sans-serif" font-size="14">2022</text>
<polyline points="77.4,94.4 100.83157894736843,142.42784325791854" style="fill:none;stroke:#ba0f27;stroke-width:2.7"  />
<polyline points="100.83157894736843,142.42784325791854 124.26315789473685,132.45972850678731" style="fill:none;stroke:#ba0f27;stroke-width:2.7"  />
<polyline points="124.26315789473685,132.45972850678731 147.69473684210527,175.95656108597285" style="fill:none;stroke:#ba0f27;stroke-width:2.7"  />
<polyline points="147.69473684210527,175.95656108597285 171.1263157894737,183.65903457013576" style="fill:none;stroke:#ba0f27;stroke-width:2.7"  />
<polyline points="171.1263157894737,183.65903457013576 194.55789473684212,195.2128807239819" style="fill:none;stroke:#ba0f27;stroke-width:2.7"  />
<polyline points="194.55789473684212,195.2128807239819 217.98947368421054,206.54027149321266" style="fill:none;stroke:#ba0f27;stroke-width:2.7"  />
<polyline points="217.98947368421054,206.54027149321266 241.42105263157896,221.0391250678733" style="fill:none;stroke:#ba0f27;stroke-width:2.7"  />
<polyline points="241.42105263157896,221.0391250678733 264.85263157894735,227.38259438914025" style="fill:none;stroke:#ba0f27;stroke-width:2.7"  />
<polyline points="264.85263157894735,227.38259438914025 288.2842105263158,230.32760180995473" style="fill:none;stroke:#ba0f27;stroke-width:2.7"  />
<polyline points="288.2842105263158,230.32760180995473 311.71578947368425,225.57013574660633" style="fill:none;stroke:#ba0f27;stroke-width:2.7"  />
<polyline points="311.71578947368425,225.57013574660633 335.14736842105265,224.43731511312217" style="fill:none;stroke:#ba0f27;stroke-width:2.7"  />
<polyline points="335.14736842105265,224.43731511312217 358.57894736842104,225.11695312217194" style="fill:none;stroke:#ba0f27;stroke-width:2.7"  />
<polyline points="358.57894736842104,225.11695312217194 382.01052631578943,234.63188524886877" style="fill:none;stroke:#ba0f27;stroke-width:2.7"  />
<polyline points="382.01052631578943,234.63188524886877 405.44210526315794,236.8975265158371" style="fill:none;stroke:#ba0f27;stroke-width:2.7"  />
<polyline points="405.44210526315794,236.8975265158371 428.87368421052633,230.32760180995473" style="fill:none;stroke:#ba0f27;stroke-width:2.7"  />
<polyline points="428.87368421052633,230.32760180995473 452.30526315789473,241.8814479638009" style="fill:none;stroke:#ba0f27;stroke-width:2.7"  />
<polyline points="452.30526315789473,241.8814479638009 475.7368421052631,244.6" style="fill:none;stroke:#ba0f27;stroke-width:2.7"  />
<polyline points="475.7368421052631,244.6 499.16842105263163,233.7257918552036" style="fill:none;stroke:#ba0f27;stroke-width:2.7"  />
<polyline points="499.16842105263163,233.7257918552036 522.6,232.7441227149321" style="fill:none;stroke:#ba0f27;stroke-width:2.7"  />
<circle cx="77.4" cy="94.4" r="2.4" stroke="#F7F7F7" stroke-width="2.4" fill="#F7F7F7" />
<circle cx="77.4" cy="94.4" r="2.4" stroke="#ba0f27" stroke-width="2.4" fill="#ba0f27"  />
<circle cx="100.83157894736843" cy="142.42784325791854" r="2.4" stroke="#F7F7F7" stroke-width="2.4" fill="#F7F7F7" />
<circle cx="100.83157894736843" cy="142.42784325791854" r="2.4" stroke="#ba0f27" stroke-width="2.4" fill="#ba0f27"  />
<circle cx="124.26315789473685" cy="132.45972850678731" r="2.4" stroke="#F7F7F7" stroke-width="2.4" fill="#F7F7F7" />
<circle cx="124.26315789473685" cy="132.45972850678731" r="2.4" stroke="#ba0f27" stroke-width="2.4" fill="#ba0f27"  />
<circle cx="147.69473684210527" cy="175.95656108597285" r="2.4" stroke="#F7F7F7" stroke-width="2.4" fill="#F7F7F7" />
<circle cx="147.69473684210527" cy="175.95656108597285" r="2.4" stroke="#ba0f27" stroke-width="2.4" fill="#ba0f27"  />
<circle cx="171.1263157894737" cy="183.65903457013576" r="2.4" stroke="#F7F7F7" stroke-width="2.4" fill="#F7F7F7" />
<circle cx="171.1263157894737" cy="183.65903457013576" r="2.4" stroke="#ba0f27" stroke-width="2.4" fill="#ba0f27"  />
<circle cx="194.55789473684212" cy="195.2128807239819" r="2.4" stroke="#F7F7F7" stroke-width="2.4" fill="#F7F7F7" />
<circle cx="194.55789473684212" cy="195.2128807239819" r="2.4" stroke="#ba0f27" stroke-width="2.4" fill="#ba0f27"  />
<circle cx="217.98947368421054" cy="206.54027149321266" r="2.4" stroke="#F7F7F7" stroke-width="2.4" fill="#F7F7F7" />
<circle cx="217.98947368421054" cy="206.54027149321266" r="2.4" stroke="#ba0f27" stroke-width="2.4" fill="#ba0f27"  />
<circle cx="241.42105263157896" cy="221.0391250678733" r="2.4" stroke="#F7F7F7" stroke-width="2.4" fill="#F7F7F7" />
<circle cx="241.42105263157896" cy="221.0391250678733" r="2.4" stroke="#ba0f27" stroke-width="2.4" fill="#ba0f27"  />
<circle cx="264.85263157894735" cy="227.38259438914025" r="2.4" stroke="#F7F7F7" stroke-width="2.4" fill="#F7F7F7" />
<circle cx="264.85263157894735" cy="227.38259438914025" r="2.4" stroke="#ba0f27" stroke-width="2.4" fill="#ba0f27"  />
<circle cx="288.2842105263158" cy="230.32760180995473" r="2.4" stroke="#F7F7F7" stroke-width="2.4" fill="#F7F7F7" />
<circle cx="288.2842105263158" cy="230.32760180995473" r="2.4" stroke="#ba0f27" stroke-width="2.4" fill="#ba0f27"  />
<circle cx="311.71578947368425" cy="225.57013574660633" r="2.4" stroke="#F7F7F7" stroke-width="2.4" fill="#F7F7F7" />
<circle cx="311.71578947368425" cy="225.57013574660633" r="2.4" stroke="#ba0f27" stroke-width="2.4" fill="#ba0f27"  />
<circle cx="335.14736842105265" cy="224.43731511312217" r="2.4" stroke="#F7F7F7" stroke-width="2.4" fill="#F7F7F7" />
<circle cx="335.14736842105265" cy="224.43731511312217" r="2.4" stroke="#ba0f27" stroke-width="2.4" fill="#ba0f27"  />
<circle cx="358.57894736842104" cy="225.11695312217194" r="2.4" stroke="#F7F7F7" stroke-width="2.4" fill="#F7F7F7" />
<circle cx="358.57894736842104" cy="225.11695312217194" r="2.4" stroke="#ba0f27" stroke-width="2.4" fill="#ba0f27"  />
<circle cx="382.01052631578943" cy="234.63188524886877" r="2.4" stroke="#F7F7F7" stroke-width="2.4" fill="#F7F7F7" />
<circle cx="382.01052631578943" cy="234.63188524886877" r="2.4" stroke="#ba0f27" stroke-width="2.4" fill="#ba0f27"  />
<circle cx="405.44210526315794" cy="236.8975265158371" r="2.4" stroke="#F7F7F7" stroke-width="2.4" fill="#F7F7F7" />
<circle cx="405.44210526315794" cy="236.8975265158371" r="2.4" stroke="#ba0f27" stroke-width="2.4" fill="#ba0f27"  />
<circle cx="428.87368421052633" cy="230.32760180995473" r="2.4" stroke="#F7F7F7" stroke-width="2.4" fill="#F7F7F7" />
<circle cx="428.87368421052633" cy="230.32760180995473" r="2.4" stroke="#ba0f27" stroke-width="2.4" fill="#ba0f27"  />
<circle cx="452.30526315789473" cy="241.8814479638009" r="2.4" stroke="#F7F7F7" stroke-width="2.4" fill="#F7F7F7" />
<circle cx="452.30526315789473" cy="241.8814479638009" r="2.4" stroke="#ba0f27" stroke-width="2.4" fill="#ba0f27"  />
<circle cx="475.7368421052631" cy="244.6" r="2.4" stroke="#F7F7F7" stroke-width="2.4" fill="#F7F7F7" />
<circle cx="475.7368421052631" cy="244.6" r="2.4" stroke="#ba0f27" stroke-width="2.4" fill="#ba0f27"  />
<circle cx="499.16842105263163" cy="233.7257918552036" r="2.4" stroke="#F7F7F7" stroke-width="2.4" fill="#F7F7F7" />
<circle cx="499.16842105263163" cy="233.7257918552036" r="2.4" stroke="#ba0f27" stroke-width="2.4" fill="#ba0f27"  />
<circle cx="522.6" cy="232.7441227149321" r="2.4" stroke="#F7F7F7" stroke-width="2.4" fill="#F7F7F7" />
<circle cx="522.6" cy="232.7441227149321" r="2.4" stroke="#ba0f27" stroke-width="2.4" fill="#ba0f27"  />
<polyline points="77.4,94.4 100.83157894736843,98.95151515151515" style="fill:none;stroke:#000000;stroke-width:2.7" stroke-dasharray="3,1"  />
<polyline points="100.83157894736843,98.95151515151515 124.26315789473685,112.60606060606061" style="fill:none;stroke:#000000;stroke-width:2.7" stroke-dasharray="3,1"  />
<polyline points="124.26315789473685,112.60606060606061 147.69473684210527,158.12121212121212" style="fill:none;stroke:#000000;stroke-width:2.7" stroke-dasharray="3,1"  />
<polyline points="147.69473684210527,158.12121212121212 171.1263157894737,185.43030303030304" style="fill:none;stroke:#000000;stroke-width:2.7" stroke-dasharray="3,1"  />
<polyline points="171.1263157894737,185.43030303030304 194.55789473684212,194.53333333333333" style="fill:none;stroke:#000000;stroke-width:2.7" stroke-dasharray="3,1"  />
<polyline points="194.55789473684212,194.53333333333333 217.98947368421054,189.98181818181817" style="fill:none;stroke:#000000;stroke-width:2.7" stroke-dasharray="3,1"  />
<polyline points="217.98947368421054,189.98181818181817 241.42105263157896,199.08484848484846" style="fill:none;stroke:#000000;stroke-width:2.7" stroke-dasharray="3,1"  />
<polyline points="241.42105263157896,199.08484848484846 264.85263157894735,203.63636363636363" style="fill:none;stroke:#000000;stroke-width:2.7" stroke-dasharray="3,1"  />
<polyline points="264.85263157894735,203.63636363636363 288.2842105263158,235.49696969696967" style="fill:none;stroke:#000000;stroke-width:2.7" stroke-dasharray="3,1"  />
<polyline points="288.2842105263158,235.49696969696967 311.71578947368425,240.04848484848483" style="fill:none;stroke:#000000;stroke-width:2.7" stroke-dasharray="3,1"  />
<polyline points="311.71578947368425,240.04848484848483 335.14736842105265,235.49696969696967" style="fill:none;stroke:#000000;stroke-width:2.7" stroke-dasharray="3,1"  />
<polyline points="335.14736842105265,235.49696969696967 358.57894736842104,244.6" style="fill:none;stroke:#000000;stroke-width:2.7" stroke-dasharray="3,1"  />
<polyline points="358.57894736842104,244.6 382.01052631578943,235.49696969696967" style="fill:none;stroke:#000000;stroke-width:2.7" stroke-dasharray="3,1"  />
<polyline points="382.01052631578943,235.49696969696967 405.44210526315794,244.6" style="fill:none;stroke:#000000;stroke-width:2.7" stroke-dasharray="3,1"  />
<polyline points="405.44210526315794,244.6 428.87368421052633,240.04848484848483" style="fill:none;stroke:#000000;stroke-width:2.7" stroke-dasharray="3,1"  />
<polyline points="428.87368421052633,240.04848484848483 452.30526315789473,244.6" style="fill:none;stroke:#000000;stroke-width:2.7" stroke-dasharray="3,1"  />
<polyline points="452.30526315789473,244.6 475.7368421052631,240.04848484848483" style="fill:none;stroke:#000000;stroke-width:2.7" stroke-dasharray="3,1"  />
<polyline points="475.7368421052631,240.04848484848483 499.16842105263163,244.6" style="fill:none;stroke:#000000;stroke-width:2.7" stroke-dasharray="3,1"  />
<polyline points="499.16842105263163,244.6 522.6,244.6" style="fill:none;stroke:#000000;stroke-width:2.7" stroke-dasharray="3,1"  />
<polygon points="74.52000000000001,94.4 77.4,91.52000000000001 80.28,94.4 77.4,97.28" stroke="#F7F7F7" stroke-width="2.4" fill="#F7F7F7"  />
<polygon points="74.52000000000001,94.4 77.4,91.52000000000001 80.28,94.4 77.4,97.28" stroke="#000000" stroke-width="2.4" fill="#000000"  />
<polygon points="97.95157894736843,98.95151515151515 100.83157894736843,96.07151515151516 103.71157894736842,98.95151515151515 100.83157894736843,101.83151515151515" stroke="#F7F7F7" stroke-width="2.4" fill="#F7F7F7"  />
<polygon points="97.95157894736843,98.95151515151515 100.83157894736843,96.07151515151516 103.71157894736842,98.95151515151515 100.83157894736843,101.83151515151515" stroke="#000000" stroke-width="2.4" fill="#000000"  />
<polygon points="121.38315789473685,112.60606060606061 124.26315789473685,109.72606060606061 127.14315789473685,112.60606060606061 124.26315789473685,115.4860606060606" stroke="#F7F7F7" stroke-width="2.4" fill="#F7F7F7"  />
<polygon points="121.38315789473685,112.60606060606061 124.26315789473685,109.72606060606061 127.14315789473685,112.60606060606061 124.26315789473685,115.4860606060606" stroke="#000000" stroke-width="2.4" fill="#000000"  />
<polygon points="144.81473684210528,158.12121212121212 147.69473684210527,155.24121212121213 150.57473684210527,158.12121212121212 147.69473684210527,161.00121212121212" stroke="#F7F7F7" stroke-width="2.4" fill="#F7F7F7"  />
<polygon points="144.81473684210528,158.12121212121212 147.69473684210527,155.24121212121213 150.57473684210527,158.12121212121212 147.69473684210527,161.00121212121212" stroke="#000000" stroke-width="2.4" fill="#000000"  />
<polygon points="168.2463157894737,185.43030303030304 171.1263157894737,182.55030303030304 174.0063157894737,185.43030303030304 171.1263157894737,188.31030303030303" stroke="#F7F7F7" stroke-width="2.4" fill="#F7F7F7"  />
<polygon points="168.2463157894737,185.43030303030304 171.1263157894737,182.55030303030304 174.0063157894737,185.43030303030304 171.1263157894737,188.31030303030303" stroke="#000000" stroke-width="2.4" fill="#000000"  />
<polygon points="191.67789473684212,194.53333333333333 194.55789473684212,191.65333333333334 197.4378947368421,194.53333333333333 194.55789473684212,197.41333333333333" stroke="#F7F7F7" stroke-width="2.4" fill="#F7F7F7"  />
<polygon points="191.67789473684212,194.53333333333333 194.55789473684212,191.65333333333334 197.4378947368421,194.53333333333333 194.55789473684212,197.41333333333333" stroke="#000000" stroke-width="2.4" fill="#000000"  />
<polygon points="215.10947368421054,189.98181818181817 217.98947368421054,187.10181818181817 220.86947368421053,189.98181818181817 217.98947368421054,192.86181818181817" stroke="#F7F7F7" stroke-width="2.4" fill="#F7F7F7"  />
<polygon points="215.10947368421054,189.98181818181817 217.98947368421054,187.10181818181817 220.86947368421053,189.98181818181817 217.98947368421054,192.86181818181817" stroke="#000000" stroke-width="2.4" fill="#000000"  />
<polygon points="238.54105263157896,199.08484848484846 241.42105263157896,196.20484848484847 244.30105263157895,199.08484848484846 241.42105263157896,201.96484848484846" stroke="#F7F7F7" stroke-width="2.4" fill="#F7F7F7"  />
<polygon points="238.54105263157896,199.08484848484846 241.42105263157896,196.20484848484847 244.30105263157895,199.08484848484846 241.42105263157896,201.96484848484846" stroke="#000000" stroke-width="2.4" fill="#000000"  />
<polygon points="261.97263157894736,203.63636363636363 264.85263157894735,200.75636363636363 267.73263157894735,203.63636363636363 264.85263157894735,206.51636363636362" stroke="#F7F7F7" stroke-width="2.4" fill="#F7F7F7"  />
<polygon points="261.97263157894736,203.63636363636363 264.85263157894735,200.75636363636363 267.73263157894735,203.63636363636363 264.85263157894735,206.51636363636362" stroke="#000000" stroke-width="2.4" fill="#000000"  />
<polygon points="285.4042105263158,235.49696969696967 288.2842105263158,232.61696969696968 291.1642105263158,235.49696969696967 288.2842105263158,238.37696969696967" stroke="#F7F7F7" stroke-width="2.4" fill="#F7F7F7"  />
<polygon points="285.4042105263158,235.49696969696967 288.2842105263158,232.61696969696968 291.1642105263158,235.49696969696967 288.2842105263158,238.37696969696967" stroke="#000000" stroke-width="2.4" fill="#000000"  />
<polygon points="308.83578947368426,240.04848484848483 311.71578947368425,237.16848484848484 314.59578947368425,240.04848484848483 311.71578947368425,242.92848484848483" stroke="#F7F7F7" stroke-width="2.4" fill="#F7F7F7"  />
<polygon points="308.83578947368426,240.04848484848483 311.71578947368425,237.16848484848484 314.59578947368425,240.04848484848483 311.71578947368425,242.92848484848483" stroke="#000000" stroke-width="2.4" fill="#000000"  />
<polygon points="332.26736842105265,235.49696969696967 335.14736842105265,232.61696969696968 338.02736842105264,235.49696969696967 335.14736842105265,238.37696969696967" stroke="#F7F7F7" stroke-width="2.4" fill="#F7F7F7"  />
<polygon points="332.26736842105265,235.49696969696967 335.14736842105265,232.61696969696968 338.02736842105264,235.49696969696967 335.14736842105265,238.37696969696967" stroke="#000000" stroke-width="2.4" fill="#000000"  />
<polygon points="355.69894736842105,244.6 358.57894736842104,241.72 361.45894736842104,244.6 358.57894736842104,247.48" stroke="#F7F7F7" stroke-width="2.4" fill="#F7F7F7"  />
<polygon points="355.69894736842105,244.6 358.57894736842104,241.72 361.45894736842104,244.6 358.57894736842104,247.48" stroke="#000000" stroke-width="2.4" fill="#000000"  />
<polygon points="379.13052631578944,235.49696969696967 382.01052631578943,232.61696969696968 384.89052631578943,235.49696969696967 382.01052631578943,238.37696969696967" stroke="#F7F7F7" stroke-width="2.4" fill="#F7F7F7"  />
<polygon points="379.13052631578944,235.49696969696967 382.01052631578943,232.61696969696968 384.89052631578943,235.49696969696967 382.01052631578943,238.37696969696967" stroke="#000000" stroke-width="2.4" fill="#000000"  />
<polygon points="402.56210526315795,244.6 405.44210526315794,241.72 408.32210526315794,244.6 405.44210526315794,247.48" stroke="#F7F7F7" stroke-width="2.4" fill="#F7F7F7"  />
<polygon points="402.56210526315795,244.6 405.44210526315794,241.72 408.32210526315794,244.6 405.44210526315794,247.48" stroke="#000000" stroke-width="2.4" fill="#000000"  />
<polygon points="425.99368421052634,240.04848484848483 428.87368421052633,237.16848484848484 431.75368421052633,240.04848484848483 428.87368421052633,242.92848484848483" stroke="#F7F7F7" stroke-width="2.4" fill="#F7F7F7"  />
<polygon points="425.99368421052634,240.04848484848483 428.87368421052633,237.16848484848484 431.75368421052633,240.04848484848483 428.87368421052633,242.92848484848483" stroke="#000000" stroke-width="2.4" fill="#000000"  />
<polygon points="449.42526315789473,244.6 452.30526315789473,241.72 455.1852631578947,244.6 452.30526315789473,247.48" stroke="#F7F7F7" stroke-width="2.4" fill="#F7F7F7"  />
<polygon points="449.42526315789473,244.6 452.30526315789473,241.72 455.1852631578947,244.6 452.30526315789473,247.48" stroke="#000000" stroke-width="2.4" fill="#000000"  />
<polygon points="472.8568421052631,240.04848484848483 475.7368421052631,237.16848484848484 478.6168421052631,240.04848484848483 475.7368421052631,242.92848484848483" stroke="#F7F7F7" stroke-width="2.4" fill="#F7F7F7"  />
<polygon points="472.8568421052631,240.04848484848483 475.7368421052631,237.16848484848484 478.6168421052631,240.04848484848483 475.7368421052631,242.92848484848483" stroke="#000000" stroke-width="2.4" fill="#000000"  />
<polygon points="496.28842105263163,244.6 499.16842105263163,241.72 502.0484210526316,244.6 499.16842105263163,247.48" stroke="#F7F7F7" stroke-width="2.4" fill="#F7F7F7"  />
<polygon points="496.28842105263163,244.6 499.16842105263163,241.72 502.0484210526316,244.6 499.16842105263163,247.48" stroke="#000000" stroke-width="2.4" fill="#000000"  />
<polygon points="519.72,244.6 522.6,241.72 525.48,244.6 522.6,247.48" stroke="#F7F7F7" stroke-width="2.4" fill="#F7F7F7"  />
<polygon points="519.72,244.6 522.6,241.72 525.48,244.6 522.6,247.48" stroke="#000000" stroke-width="2.4" fill="#000000"  />
</svg>