<svg width="380" height="424" xmlns="http://www.w3.org/2000/svg"> <rect width="100%" height="100%" fill="#FEFEFE" />
<line x1="60" y1="258" x2="320" y2="258" stroke="#9f9f9f" stroke-width="1" />
<rect x="60" y="106" width="260" height="152" fill="#FEFEFE" />
<text text-anchor="middle" x="190.0" y="18" font-family="'Helvetica Neue', Arial, sans-serif" font-weight="bold" font-size="18" fill="#000000">Viewership of &quot;The</text>
<text text-anchor="middle" x="190.0" y="36" font-family="'Helvetica Neue', Arial, sans-serif" font-weight="bold" font-size="18" fill="#000000">Big Bang Theory&quot;</text>
<text text-anchor="middle" x="190.0" y="54" font-family="'Helvetica Neue', Arial, sans-serif" font-size="14" fill="#000000">correlates with</text>
<text text-anchor="middle" x="190.0" y="76" font-family="'Helvetica Neue', Arial, sans-serif" font-weight="bold" font-size="18" fill="#ba0f27">Google searches for &apos;how</text>
<text text-anchor="middle" x="190.0" y="94" font-family="'Helvetica Neue', Arial, sans-serif" font-weight="bold" font-size="18" fill="#ba0f27">to make baby&apos;</text>
<text text-anchor="start" x="20" y="303.3333333333333" font-family="'Helvetica Neue', Arial, sans-serif" font-size="14" fill="#9f9f9f">Average viewership of &quot;The Big Bang Theory&quot;</text>
<text text-anchor="start" x="20" y="319.3333333333333" font-family="'Helvetica Neue', Arial, sans-serif" font-size="14" fill="#9f9f9f">by season &#183; Source: Wikipedia</text>
<text text-anchor="start" x="20" y="342.66666666666663" font-family="'Helvetica Neue', Arial, sans-serif" font-size="14" fill="#9f9f9f">Relative volume of Google searches for &apos;how to</text>
<text text-anchor="start" x="20" y="358.66666666666663" font-family="'Helvetica Neue', Arial, sans-serif" font-size="14" fill="#9f9f9f">make baby&apos; (Worldwide), with quotes) &#183;</text>
<text text-anchor="start" x="20" y="374.66666666666663" font-family="'Helvetica Neue', Arial, sans-serif" font-size="14" fill="#9f9f9f">Source: Google Trends</text>
<text text-anchor="start" x="20" y="397.99999999999994" font-family="'Helvetica Neue', Arial, sans-serif" font-size="14" fill="#9f9f9f">2008-2019, r=0.983, r&#178;=0.965, p&lt;0.01</text>
<text text-anchor="start" x="20" y="421.33333333333326" font-family="'Helvetica Neue', Arial, sans-serif" font-size="14" fill="#9f9f9f">tylervigen.com/spurious/correlation/1402</text>
<polyline points="5,298.66666666666663 17,298.66666666666663" style="fill:none;stroke:#000000;stroke-width:2.5" stroke-dasharray="3,1" />
<polygon points="2.6,298.66666666666663 5,296.26666666666665 7.4,298.66666666666663 5,301.0666666666666" stroke="#F7F7F7" stroke-width="2" fill="#F7F7F7"  />
<polygon points="2.6,298.66666666666663 5,296.26666666666665 7.4,298.66666666666663 5,301.0666666666666" stroke="#000000" stroke-width="2" fill="#000000"  />
<polyline points="5,337.99999999999994 17,337.99999999999994" style="fill:none;stroke:#ba0f27;stroke-width:2.5" />
<circle cx="5" cy="337.99999999999994" r="2" stroke="#F7F7F7" stroke-width="2" fill="#F7F7F7" />
<circle cx="5" cy="337.99999999999994" r="2" stroke="#ba0f27" stroke-width="2" fill="#ba0f27"  />
<text x="5" y="184.0" transform="rotate(270 5 182.0)" text-anchor="middle" fill="#000000" font-family="'Helvetica Neue', Arial, sans-serif" font-size="14" dominant-baseline="central">Viewers</text>
<text x="182.0" y="-174" transform="rotate(90 100 100)" text-anchor="middle" fill="#ba0f27" font-family="'Helvetica Neue', Arial, sans-serif" font-size="14" dominant-baseline="central">Rel. search volume</text>
<line x1="61" y1="113.0" x2="318" y2="113.0" stroke="#F3F3F3" stroke-width="1" fill="#FEFEFE" />
<text text-anchor="end" x="52" y="117.66666666666667" font-family="'Helvetica Neue', Arial, sans-serif" font-size="12" fill="#000000">20.4B</text>
<text text-anchor="start" x="328" y="117.66666666666667" font-family="'Helvetica Neue', Arial, sans-serif" font-size="12" fill="#ba0f27">85</text>
<line x1="61" y1="147.5" x2="318" y2="147.5" stroke="#F3F3F3" stroke-width="1" fill="#FEFEFE" />
<text text-anchor="end" x="52" y="152.16666666666666" font-family="'Helvetica Neue', Arial, sans-serif" font-size="12">17.3B</text>
<text text-anchor="start" x="328" y="152.16666666666666" font-family="'Helvetica Neue', Arial, sans-serif" font-size="12" fill="#ba0f27">73</text>
<line x1="61" y1="182.0" x2="318" y2="182.0" stroke="#F3F3F3" stroke-width="1" fill="#FEFEFE" />
<text text-anchor="end" x="52" y="186.66666666666666" font-family="'Helvetica Neue', Arial, sans-serif" font-size="12">14.3B</text>
<text text-anchor="start" x="328" y="186.66666666666666" font-family="'Helvetica Neue', Arial, sans-serif" font-size="12" fill="#ba0f27">60</text>
<line x1="61" y1="216.5" x2="318" y2="216.5" stroke="#F3F3F3" stroke-width="1" fill="#FEFEFE" />
<text text-anchor="end" x="52" y="221.16666666666666" font-family="'Helvetica Neue', Arial, sans-serif" font-size="12">11.3B</text>
<text text-anchor="start" x="328" y="221.16666666666666" font-family="'Helvetica Neue', Arial, sans-serif" font-size="12" fill="#ba0f27">47</text>
<line x1="61" y1="251.0" x2="318" y2="251.0" stroke="#F3F3F3" stroke-width="1" fill="#FEFEFE" />
<text text-anchor="end" x="52" y="255.66666666666666" font-family="'Helvetica Neue', Arial, sans-serif" font-size="12">8.3B</text>
<text text-anchor="start" x="328" y="255.66666666666666" font-family="'Helvetica Neue', Arial, sans-serif" font-size="12" fill="#ba0f27">35</text>
<polyline points="67.0,258 67.0,264" style="fill:none;stroke:#000000;stroke-width:1" />
<polyline points="134.0909090909091,258 134.0909090909091,264" style="fill:none;stroke:#000000;stroke-width:1" />
<polyline points="201.1818181818182,258 201.1818181818182,264" style="fill:none;stroke:#000000;stroke-width:1" />
<polyline points="268.27272727272725,258 268.27272727272725,264" style="fill:none;stroke:#000000;stroke-width:1" />
<text text-anchor="middle" x="67.0" y="279" font-weight="bold" font-family="'Helvetica Neue', Arial, sans-serif" font-size="14">2008</text>
<text text-anchor="middle" x="134.0909090909091" y="279" font-weight="bold" font-family="'Helvetica Neue', Arial, sans-serif" font-size="14">2011</text>
<text text-anchor="middle" x="201.1818181818182" y="279" font-weight="bold" font-family="'Helvetica Neue', Arial, sans-serif" font-size="14">2014</text>
<text text-anchor="middle" x="268.27272727272725" y="279" font-weight="bold" font-family="'Helvetica Neue', Arial, sans-serif" font-size="14">2017</text>
<polyline points="67.0,251.0 89.36363636363636,224.910447761194" style="fill:none;stroke:#ba0f27;stroke-width:2.5"  />
<polyline points="89.36363636363636,224.910447761194 111.72727272727272,195.616823880597" style="fill:none;stroke:#ba0f27;stroke-width:2.5"  />
<polyline points="111.72727272727272,195.616823880597 134.0909090909091,180.74111044776117" style="fill:none;stroke:#ba0f27;stroke-width:2.5"  />
<polyline points="134.0909090909091,180.74111044776117 156.45454545454544,146.18398805970148" style="fill:none;stroke:#ba0f27;stroke-width:2.5"  />
<polyline points="156.45454545454544,146.18398805970148 178.8181818181818,127.18887164179101" style="fill:none;stroke:#ba0f27;stroke-width:2.5"  />
<polyline points="178.8181818181818,127.18887164179101 201.1818181818182,116.66159999999998" style="fill:none;stroke:#ba0f27;stroke-width:2.5"  />
<polyline points="201.1818181818182,116.66159999999998 223.54545454545453,113.68656716417911" style="fill:none;stroke:#ba0f27;stroke-width:2.5"  />
<polyline points="223.54545454545453,113.68656716417911 245.9090909090909,113.0" style="fill:none;stroke:#ba0f27;stroke-width:2.5"  />
<polyline points="245.9090909090909,113.0 268.27272727272725,114.60189850746266" style="fill:none;stroke:#ba0f27;stroke-width:2.5"  />
<polyline points="268.27272727272725,114.60189850746266 290.6363636363636,134.97014925373134" style="fill:none;stroke:#ba0f27;stroke-width:2.5"  />
<polyline points="290.6363636363636,134.97014925373134 313.0,146.64179104477614" style="fill:none;stroke:#ba0f27;stroke-width:2.5"  />
<circle cx="67.0" cy="251.0" r="2" stroke="#F7F7F7" stroke-width="2" fill="#F7F7F7" />
<circle cx="67.0" cy="251.0" r="2" stroke="#ba0f27" stroke-width="2" fill="#ba0f27"  />
<circle cx="89.36363636363636" cy="224.910447761194" r="2" stroke="#F7F7F7" stroke-width="2" fill="#F7F7F7" />
<circle cx="89.36363636363636" cy="224.910447761194" r="2" stroke="#ba0f27" stroke-width="2" fill="#ba0f27"  />
<circle cx="111.72727272727272" cy="195.616823880597" r="2" stroke="#F7F7F7" stroke-width="2" fill="#F7F7F7" />
<circle cx="111.72727272727272" cy="195.616823880597" r="2" stroke="#ba0f27" stroke-width="2" fill="#ba0f27"  />
<circle cx="134.0909090909091" cy="180.74111044776117" r="2" stroke="#F7F7F7" stroke-width="2" fill="#F7F7F7" />
<circle cx="134.0909090909091" cy="180.74111044776117" r="2" stroke="#ba0f27" stroke-width="2" fill="#ba0f27"  />
<circle cx="156.45454545454544" cy="146.18398805970148" r="2" stroke="#F7F7F7" stroke-width="2" fill="#F7F7F7" />
<circle cx="156.45454545454544" cy="146.18398805970148" r="2" stroke="#ba0f27" stroke-width="2" fill="#ba0f27"  />
<circle cx="178.8181818181818" cy="127.18887164179101" r="2" stroke="#F7F7F7" stroke-width="2" fill="#F7F7F7" />
<circle cx="178.8181818181818" cy="127.18887164179101" r="2" stroke="#ba0f27" stroke-width="2" fill="#ba0f27"  />
<circle cx="201.1818181818182" cy="116.66159999999998" r="2" stroke="#F7F7F7" stroke-width="2" fill="#F7F7F7" />
<circle cx="201.1818181818182" cy="116.66159999999998" r="2" stroke="#ba0f27" stroke-width="2" fill="#ba0f27"  />
<circle cx="223.54545454545453" cy="113.68656716417911" r="2" stroke="#F7F7F7" stroke-width="2" fill="#F7F7F7" />
<circle cx="223.54545454545453" cy="113.68656716417911" r="2" stroke="#ba0f27" stroke-width="2" fill="#ba0f27"  />
<circle cx="245.9090909090909" cy="113.0" r="2" stroke="#F7F7F7" stroke-width="2" fill="#F7F7F7" />
<circle cx="245.9090909090909" cy="113.0" r="2" stroke="#ba0f27" stroke-width="2" fill="#ba0f27"  />
<circle cx="268.27272727272725" cy="114.60189850746266" r="2" stroke="#F7F7F7" stroke-width="2" fill="#F7F7F7" />
<circle cx="268.27272727272725" cy="114.60189850746266" r="2" stroke="#ba0f27" stroke-width="2" fill="#ba0f27"  />
<circle cx="290.6363636363636" cy="134.97014925373134" r="2" stroke="#F7F7F7" stroke-width="2" fill="#F7F7F7" />
<circle cx="290.6363636363636" cy="134.97014925373134" r="2" stroke="#ba0f27" stroke-width="2" fill="#ba0f27"  />
<circle cx="313.0" cy="146.64179104477614" r="2" stroke="#F7F7F7" stroke-width="2" fill="#F7F7F7" />
<circle cx="313.0" cy="146.64179104477614" r="2" stroke="#ba0f27" stroke-width="2" fill="#ba0f27"  />
<polyline points="67.0,251.0 89.36363636363636,231.64564315352698" style="fill:none;stroke:#000000;stroke-width:2.5" stroke-dasharray="3,1"  />
<polyline points="89.36363636363636,231.64564315352698 111.72727272727272,184.2331950207469" style="fill:none;stroke:#000000;stroke-width:2.5" stroke-dasharray="3,1"  />
<polyline points="111.72727272727272,184.2331950207469 134.0909090909091,194.8838174273859" style="fill:none;stroke:#000000;stroke-width:2.5" stroke-dasharray="3,1"  />
<polyline points="134.0909090909091,194.8838174273859 156.45454545454544,164.99336099585062" style="fill:none;stroke:#000000;stroke-width:2.5" stroke-dasharray="3,1"  />
<polyline points="156.45454545454544,164.99336099585062 178.8181818181818,132.23983402489625" style="fill:none;stroke:#000000;stroke-width:2.5" stroke-dasharray="3,1"  />
<polyline points="178.8181818181818,132.23983402489625 201.1818181818182,117.58091286307054" style="fill:none;stroke:#000000;stroke-width:2.5" stroke-dasharray="3,1"  />
<polyline points="201.1818181818182,117.58091286307054 223.54545454545453,128.002489626556" style="fill:none;stroke:#000000;stroke-width:2.5" stroke-dasharray="3,1"  />
<polyline points="223.54545454545453,128.002489626556 245.9090909090909,113.0" style="fill:none;stroke:#000000;stroke-width:2.5" stroke-dasharray="3,1"  />
<polyline points="245.9090909090909,113.0 268.27272727272725,128.6896265560166" style="fill:none;stroke:#000000;stroke-width:2.5" stroke-dasharray="3,1"  />
<polyline points="268.27272727272725,128.6896265560166 290.6363636363636,132.81244813278008" style="fill:none;stroke:#000000;stroke-width:2.5" stroke-dasharray="3,1"  />
<polyline points="290.6363636363636,132.81244813278008 313.0,147.92946058091286" style="fill:none;stroke:#000000;stroke-width:2.5" stroke-dasharray="3,1"  />
<polygon points="64.6,251.0 67.0,248.6 69.4,251.0 67.0,253.4" stroke="#F7F7F7" stroke-width="2" fill="#F7F7F7"  />
<polygon points="64.6,251.0 67.0,248.6 69.4,251.0 67.0,253.4" stroke="#000000" stroke-width="2" fill="#000000"  />
<polygon points="86.96363636363635,231.64564315352698 89.36363636363636,229.24564315352697 91.76363636363637,231.64564315352698 89.36363636363636,234.04564315352698" stroke="#F7F7F7" stroke-width="2" fill="#F7F7F7"  />
<polygon points="86.96363636363635,231.64564315352698 89.36363636363636,229.24564315352697 91.76363636363637,231.64564315352698 89.36363636363636,234.04564315352698" stroke="#000000" stroke-width="2" fill="#000000"  />
<polygon points="109.32727272727271,184.2331950207469 111.72727272727272,181.8331950207469 114.12727272727273,184.2331950207469 111.72727272727272,186.6331950207469" stroke="#F7F7F7" stroke-width="2" fill="#F7F7F7"  />
<polygon points="109.32727272727271,184.2331950207469 111.72727272727272,181.8331950207469 114.12727272727273,184.2331950207469 111.72727272727272,186.6331950207469" stroke="#000000" stroke-width="2" fill="#000000"  />
<polygon points="131.6909090909091,194.8838174273859 134.0909090909091,192.4838174273859 136.4909090909091,194.8838174273859 134.0909090909091,197.2838174273859" stroke="#F7F7F7" stroke-width="2" fill="#F7F7F7"  />
<polygon points="131.6909090909091,194.8838174273859 134.0909090909091,192.4838174273859 136.4909090909091,194.8838174273859 134.0909090909091,197.2838174273859" stroke="#000000" stroke-width="2" fill="#000000"  />
<polygon points="154.05454545454543,164.99336099585062 156.45454545454544,162.59336099585062 158.85454545454544,164.99336099585062 156.45454545454544,167.39336099585063" stroke="#F7F7F7" stroke-width="2" fill="#F7F7F7"  />
<polygon points="154.05454545454543,164.99336099585062 156.45454545454544,162.59336099585062 158.85454545454544,164.99336099585062 156.45454545454544,167.39336099585063" stroke="#000000" stroke-width="2" fill="#000000"  />
<polygon points="176.4181818181818,132.23983402489625 178.8181818181818,129.83983402489625 181.21818181818182,132.23983402489625 178.8181818181818,134.63983402489626" stroke="#F7F7F7" stroke-width="2" fill="#F7F7F7"  />
<polygon points="176.4181818181818,132.23983402489625 178.8181818181818,129.83983402489625 181.21818181818182,132.23983402489625 178.8181818181818,134.63983402489626" stroke="#000000" stroke-width="2" fill="#000000"  />
<polygon points="198.78181818181818,117.58091286307054 201.1818181818182,115.18091286307053 203.5818181818182,117.58091286307054 201.1818181818182,119.98091286307054" stroke="#F7F7F7" stroke-width="2" fill="#F7F7F7"  />
<polygon points="198.78181818181818,117.58091286307054 201.1818181818182,115.18091286307053 203.5818181818182,117.58091286307054 201.1818181818182,119.98091286307054" stroke="#000000" stroke-width="2" fill="#000000"  />
<polygon points="221.14545454545453,128.002489626556 223.54545454545453,125.60248962655601 225.94545454545454,128.002489626556 223.54545454545453,130.40248962655602" stroke="#F7F7F7" stroke-width="2" fill="#F7F7F7"  />
<polygon points="221.14545454545453,128.002489626556 223.54545454545453,125.60248962655601 225.94545454545454,128.002489626556 223.54545454545453,130.40248962655602" stroke="#000000" stroke-width="2" fill="#000000"  />
<polygon points="243.5090909090909,113.0 245.9090909090909,110.6 248.3090909090909,113.0 245.9090909090909,115.4" stroke="#F7F7F7" stroke-width="2" fill="#F7F7F7"  />
<polygon points="243.5090909090909,113.0 245.9090909090909,110.6 248.3090909090909,113.0 245.9090909090909,115.4" stroke="#000000" stroke-width="2" fill="#000000"  />
<polygon points="265.8727272727273,128.6896265560166 268.27272727272725,126.2896265560166 270.67272727272723,128.6896265560166 268.27272727272725,131.0896265560166" stroke="#F7F7F7" stroke-width="2" fill="#F7F7F7"  />
<polygon points="265.8727272727273,128.6896265560166 268.27272727272725,126.2896265560166 270.67272727272723,128.6896265560166 268.27272727272725,131.0896265560166" stroke="#000000" stroke-width="2" fill="#000000"  />
<polygon points="288.23636363636365,132.81244813278008 290.6363636363636,130.41244813278007 293.0363636363636,132.81244813278008 290.6363636363636,135.21244813278008" stroke="#F7F7F7" stroke-width="2" fill="#F7F7F7"  />
<polygon points="288.23636363636365,132.81244813278008 290.6363636363636,130.41244813278007 293.0363636363636,132.81244813278008 290.6363636363636,135.21244813278008" stroke="#000000" stroke-width="2" fill="#000000"  />
<polygon points="310.6,147.92946058091286 313.0,145.52946058091285 315.4,147.92946058091286 313.0,150.32946058091287" stroke="#F7F7F7" stroke-width="2" fill="#F7F7F7"  />
<polygon points="310.6,147.92946058091286 313.0,145.52946058091285 315.4,147.92946058091286 313.0,150.32946058091287" stroke="#000000" stroke-width="2" fill="#000000"  />
</svg>