<svg width="600" height="392" xmlns="http://www.w3.org/2000/svg"> <rect width="100%" height="100%" fill="#FEFEFE" />
<line x1="70" y1="252" x2="530" y2="252" stroke="#9f9f9f" stroke-width="1" />
<rect x="70" y="87" width="460" height="165" fill="#FEFEFE" />
<text text-anchor="middle" x="300.0" y="20" font-family="'Helvetica Neue', Arial, sans-serif" font-weight="bold" font-size="22" fill="#000000">Viewership of &quot;The Big Bang Theory&quot;</text>
<text text-anchor="middle" x="300.0" y="42" font-family="'Helvetica Neue', Arial, sans-serif" font-size="14" fill="#000000">correlates with</text>
<text text-anchor="middle" x="300.0" y="68" font-family="'Helvetica Neue', Arial, sans-serif" font-weight="bold" font-size="22" fill="#ba0f27">Google searches for &apos;how to make baby&apos;</text>
<text text-anchor="start" x="23" y="297.3333333333333" font-family="'Helvetica Neue', Arial, sans-serif" font-size="14" fill="#9f9f9f">Average viewership of &quot;The Big Bang Theory&quot; by season &#183; Source:</text>
<text text-anchor="start" x="23" y="313.3333333333333" font-family="'Helvetica Neue', Arial, sans-serif" font-size="14" fill="#9f9f9f">Wikipedia</text>
<text text-anchor="start" x="23" y="336.66666666666663" font-family="'Helvetica Neue', Arial, sans-serif" font-size="14" fill="#9f9f9f">Relative volume of Google searches for &apos;how to make baby&apos; (Worldwide),</text>
<text text-anchor="start" x="23" y="352.66666666666663" font-family="'Helvetica Neue', Arial, sans-serif" font-size="14" fill="#9f9f9f">with quotes) &#183; Source: Google Trends</text>
<text text-anchor="start" x="23" y="375.99999999999994" font-family="'Helvetica Neue', Arial, sans-serif" font-size="14" fill="#9f9f9f">2008-2019, r=0.983, r&#178;=0.965, p&lt;0.01  &#183;  tylervigen.com/spurious/correlation/1402</text>
<polyline points="5,292.66666666666663 20,292.66666666666663" style="fill:none;stroke:#000000;stroke-width:2.8" stroke-dasharray="3,1" />
<polygon points="1.7000000000000002,292.66666666666663 5,289.3666666666666 8.3,292.66666666666663 5,295.96666666666664" stroke="#F7F7F7" stroke-width="2.75" fill="#F7F7F7"  />
<polygon points="1.7000000000000002,292.66666666666663 5,289.3666666666666 8.3,292.66666666666663 5,295.96666666666664" stroke="#000000" stroke-width="2.75" fill="#000000"  />
<polyline points="5,331.99999999999994 20,331.99999999999994" style="fill:none;stroke:#ba0f27;stroke-width:2.8" />
<circle cx="5" cy="331.99999999999994" r="2.75" stroke="#F7F7F7" stroke-width="2.75" fill="#F7F7F7" />
<circle cx="5" cy="331.99999999999994" r="2.75" stroke="#ba0f27" stroke-width="2.75" fill="#ba0f27"  />
<text x="5" y="174.5" transform="rotate(270 5 169.5)" text-anchor="middle" fill="#000000" font-family="'Helvetica Neue', Arial, sans-serif" font-size="14" dominant-baseline="central">Viewers</text>
<text x="169.5" y="-389" transform="rotate(90 100 100)" text-anchor="middle" fill="#ba0f27" font-family="'Helvetica Neue', Arial, sans-serif" font-size="14" dominant-baseline="central">Rel. search volume</text>
<line x1="71" y1="94.75" x2="528" y2="94.75" stroke="#F3F3F3" stroke-width="1" fill="#FEFEFE" />
<text text-anchor="end" x="62" y="99.41666666666667" font-family="'Helvetica Neue', Arial, sans-serif" font-size="12" fill="#000000">20.4B</text>
<text text-anchor="start" x="538" y="99.41666666666667" font-family="'Helvetica Neue', Arial, sans-serif" font-size="12" fill="#ba0f27">85</text>
<line x1="71" y1="132.125" x2="528" y2="132.125" stroke="#F3F3F3" stroke-width="1" fill="#FEFEFE" />
<text text-anchor="end" x="62" y="136.79166666666666" font-family="'Helvetica Neue', Arial, sans-serif" font-size="12">17.3B</text>
<text text-anchor="start" x="538" y="136.79166666666666" font-family="'Helvetica Neue', Arial, sans-serif" font-size="12" fill="#ba0f27">73</text>
<line x1="71" y1="169.5" x2="528" y2="169.5" stroke="#F3F3F3" stroke-width="1" fill="#FEFEFE" />
<text text-anchor="end" x="62" y="174.16666666666666" font-family="'Helvetica Neue', Arial, sans-serif" font-size="12">14.3B</text>
<text text-anchor="start" x="538" y="174.16666666666666" font-family="'Helvetica Neue', Arial, sans-serif" font-size="12" fill="#ba0f27">60</text>
<line x1="71" y1="206.875" x2="528" y2="206.875" stroke="#F3F3F3" stroke-width="1" fill="#FEFEFE" />
<text text-anchor="end" x="62" y="211.54166666666666" font-family="'Helvetica Neue', Arial, sans-serif" font-size="12">11.3B</text>
<text text-anchor="start" x="538" y="211.54166666666666" font-family="'Helvetica Neue', Arial, sans-serif" font-size="12" fill="#ba0f27">47</text>
<line x1="71" y1="244.25" x2="528" y2="244.25" stroke="#F3F3F3" stroke-width="1" fill="#FEFEFE" />
<text text-anchor="end" x="62" y="248.91666666666666" font-family="'Helvetica Neue', Arial, sans-serif" font-size="12">8.3B</text>
<text text-anchor="start" x="538" y="248.91666666666666" font-family="'Helvetica Neue', Arial, sans-serif" font-size="12" fill="#ba0f27">35</text>
<polyline points="77.75,252 77.75,258" style="fill:none;stroke:#000000;stroke-width:1" />
<polyline points="158.5681818181818,252 158.5681818181818,258" style="fill:none;stroke:#000000;stroke-width:1" />
<polyline points="239.38636363636363,252 239.38636363636363,258" style="fill:none;stroke:#000000;stroke-width:1" />
<polyline points="320.20454545454544,252 320.20454545454544,258" style="fill:none;stroke:#000000;stroke-width:1" />
<polyline points="401.02272727272725,252 401.02272727272725,258" style="fill:none;stroke:#000000;stroke-width:1" />
<polyline points="481.84090909090907,252 481.84090909090907,258" style="fill:none;stroke:#000000;stroke-width:1" />
<text text-anchor="middle" x="77.75" y="273" font-weight="bold" font-family="'Helvetica Neue', Arial, sans-serif" font-size="14">2008</text>
<text text-anchor="middle" x="158.5681818181818" y="273" font-weight="bold" font-family="'Helvetica Neue', Arial, sans-serif" font-size="14">2010</text>
<text text-anchor="middle" x="239.38636363636363" y="273" font-weight="bold" font-family="'Helvetica Neue', Arial, sans-serif" font-size="14">2012</text>
<text text-anchor="middle" x="320.20454545454544" y="273" font-weight="bold" font-family="'Helvetica Neue', Arial, sans-serif" font-size="14">2014</text>
<text text-anchor="middle" x="401.02272727272725" y="273" font-weight="bold" font-family="'Helvetica Neue', Arial, sans-serif" font-size="14">2016</text>
<text text-anchor="middle" x="481.84090909090907" y="273" font-weight="bold" font-family="'Helvetica Neue', Arial, sans-serif" font-size="14">2018</text>
<polyline points="77.75,244.25 118.1590909090909,215.9863184079602" style="fill:none;stroke:#ba0f27;stroke-width:2.8"  />
<polyline points="118.1590909090909,215.9863184079602 158.5681818181818,184.2515592039801" style="fill:none;stroke:#ba0f27;stroke-width:2.8"  />
<polyline points="158.5681818181818,184.2515592039801 198.97727272727272,168.13620298507462" style="fill:none;stroke:#ba0f27;stroke-width:2.8"  />
<polyline points="198.97727272727272,168.13620298507462 239.38636363636363,130.69932039800995" style="fill:none;stroke:#ba0f27;stroke-width:2.8"  />
<polyline points="239.38636363636363,130.69932039800995 279.7954545454545,110.12127761194027" style="fill:none;stroke:#ba0f27;stroke-width:2.8"  />
<polyline points="279.7954545454545,110.12127761194027 320.20454545454544,98.71673333333332" style="fill:none;stroke:#ba0f27;stroke-width:2.8"  />
<polyline points="320.20454545454544,98.71673333333332 360.6136363636364,95.49378109452736" style="fill:none;stroke:#ba0f27;stroke-width:2.8"  />
<polyline points="360.6136363636364,95.49378109452736 401.02272727272725,94.75" style="fill:none;stroke:#ba0f27;stroke-width:2.8"  />
<polyline points="401.02272727272725,94.75 441.43181818181813,96.48539004975123" style="fill:none;stroke:#ba0f27;stroke-width:2.8"  />
<polyline points="441.43181818181813,96.48539004975123 481.84090909090907,118.55099502487562" style="fill:none;stroke:#ba0f27;stroke-width:2.8"  />
<polyline points="481.84090909090907,118.55099502487562 522.25,131.1952736318408" style="fill:none;stroke:#ba0f27;stroke-width:2.8"  />
<circle cx="77.75" cy="244.25" r="2.75" stroke="#F7F7F7" stroke-width="2.75" fill="#F7F7F7" />
<circle cx="77.75" cy="244.25" r="2.75" stroke="#ba0f27" stroke-width="2.75" fill="#ba0f27"  />
<circle cx="118.1590909090909" cy="215.9863184079602" r="2.75" stroke="#F7F7F7" stroke-width="2.75" fill="#F7F7F7" />
<circle cx="118.1590909090909" cy="215.9863184079602" r="2.75" stroke="#ba0f27" stroke-width="2.75" fill="#ba0f27"  />
<circle cx="158.5681818181818" cy="184.2515592039801" r="2.75" stroke="#F7F7F7" stroke-width="2.75" fill="#F7F7F7" />
<circle cx="158.5681818181818" cy="184.2515592039801" r="2.75" stroke="#ba0f27" stroke-width="2.75" fill="#ba0f27"  />
<circle cx="198.97727272727272" cy="168.13620298507462" r="2.75" stroke="#F7F7F7" stroke-width="2.75" fill="#F7F7F7" />
<circle cx="198.97727272727272" cy="168.13620298507462" r="2.75" stroke="#ba0f27" stroke-width="2.75" fill="#ba0f27"  />
<circle cx="239.38636363636363" cy="130.69932039800995" r="2.75" stroke="#F7F7F7" stroke-width="2.75" fill="#F7F7F7" />
<circle cx="239.38636363636363" cy="130.69932039800995" r="2.75" stroke="#ba0f27" stroke-width="2.75" fill="#ba0f27"  />
<circle cx="279.7954545454545" cy="110.12127761194027" r="2.75" stroke="#F7F7F7" stroke-width="2.75" fill="#F7F7F7" />
<circle cx="279.7954545454545" cy="110.12127761194027" r="2.75" stroke="#ba0f27" stroke-width="2.75" fill="#ba0f27"  />
<circle cx="320.20454545454544" cy="98.71673333333332" r="2.75" stroke="#F7F7F7" stroke-width="2.75" fill="#F7F7F7" />
<circle cx="320.20454545454544" cy="98.71673333333332" r="2.75" stroke="#ba0f27" stroke-width="2.75" fill="#ba0f27"  />
<circle cx="360.6136363636364" cy="95.49378109452736" r="2.75" stroke="#F7F7F7" stroke-width="2.75" fill="#F7F7F7" />
<circle cx="360.6136363636364" cy="95.49378109452736" r="2.75" stroke="#ba0f27" stroke-width="2.75" fill="#ba0f27"  />
<circle cx="401.02272727272725" cy="94.75" r="2.75" stroke="#F7F7F7" stroke-width="2.75" fill="#F7F7F7" />
<circle cx="401.02272727272725" cy="94.75" r="2.75" stroke="#ba0f27" stroke-width="2.75" fill="#ba0f27"  />
<circle cx="441.43181818181813" cy="96.48539004975123" r="2.75" stroke="#F7F7F7" stroke-width="2.75" fill="#F7F7F7" />
<circle cx="441.43181818181813" cy="96.48539004975123" r="2.75" stroke="#ba0f27" stroke-width="2.75" fill="#ba0f27"  />
<circle cx="481.84090909090907" cy="118.55099502487562" r="2.75" stroke="#F7F7F7" stroke-width="2.75" fill="#F7F7F7" />
<circle cx="481.84090909090907" cy="118.55099502487562" r="2.75" stroke="#ba0f27" stroke-width="2.75" fill="#ba0f27"  />
<circle cx="522.25" cy="131.1952736318408" r="2.75" stroke="#F7F7F7" stroke-width="2.75" fill="#F7F7F7" />
<circle cx="522.25" cy="131.1952736318408" r="2.75" stroke="#ba0f27" stroke-width="2.75" fill="#ba0f27"  />
<polyline points="77.75,244.25 118.1590909090909,223.28278008298756" style="fill:none;stroke:#000000;stroke-width:2.8" stroke-dasharray="3,1"  />
<polyline points="118.1590909090909,223.28278008298756 158.5681818181818,171.9192946058091" style="fill:none;stroke:#000000;stroke-width:2.8" stroke-dasharray="3,1"  />
<polyline points="158.5681818181818,171.9192946058091 198.97727272727272,183.45746887966806" style="fill:none;stroke:#000000;stroke-width:2.8" stroke-dasharray="3,1"  />
<polyline points="198.97727272727272,183.45746887966806 239.38636363636363,151.07614107883816" style="fill:none;stroke:#000000;stroke-width:2.8" stroke-dasharray="3,1"  />
<polyline points="239.38636363636363,151.07614107883816 279.7954545454545,115.59315352697095" style="fill:none;stroke:#000000;stroke-width:2.8" stroke-dasharray="3,1"  />
<polyline points="279.7954545454545,115.59315352697095 320.20454545454544,99.71265560165975" style="fill:none;stroke:#000000;stroke-width:2.8" stroke-dasharray="3,1"  />
<polyline points="320.20454545454544,99.71265560165975 360.6136363636364,111.00269709543568" style="fill:none;stroke:#000000;stroke-width:2.8" stroke-dasharray="3,1"  />
<polyline points="360.6136363636364,111.00269709543568 401.02272727272725,94.75" style="fill:none;stroke:#000000;stroke-width:2.8" stroke-dasharray="3,1"  />
<polyline points="401.02272727272725,94.75 441.43181818181813,111.74709543568464" style="fill:none;stroke:#000000;stroke-width:2.8" stroke-dasharray="3,1"  />
<polyline points="441.43181818181813,111.74709543568464 481.84090909090907,116.21348547717842" style="fill:none;stroke:#000000;stroke-width:2.8" stroke-dasharray="3,1"  />
<polyline points="481.84090909090907,116.21348547717842 522.25,132.5902489626556" style="fill:none;stroke:#000000;stroke-width:2.8" stroke-dasharray="3,1"  />
<polygon points="74.45,244.25 77.75,240.95 81.05,244.25 77.75,247.55" stroke="#F7F7F7" stroke-width="2.75" fill="#F7F7F7"  />
<polygon points="74.45,244.25 77.75,240.95 81.05,244.25 77.75,247.55" stroke="#000000" stroke-width="2.75" fill="#000000"  />
<polygon points="114.85909090909091,223.28278008298756 118.1590909090909,219.98278008298755 121.4590909090909,223.28278008298756 118.1590909090909,226.58278008298757" stroke="#F7F7F7" stroke-width="2.75" fill="#F7F7F7"  />
<polygon points="114.85909090909091,223.28278008298756 118.1590909090909,219.98278008298755 121.4590909090909,223.28278008298756 118.1590909090909,226.58278008298757" stroke="#000000" stroke-width="2.75" fill="#000000"  />
<polygon points="155.2681818181818,171.9192946058091 158.5681818181818,168.6192946058091 161.86818181818182,171.9192946058091 158.5681818181818,175.21929460580913" stroke="#F7F7F7" stroke-width="2.75" fill="#F7F7F7"  />
<polygon points="155.2681818181818,171.9192946058091 158.5681818181818,168.6192946058091 161.86818181818182,171.9192946058091 158.5681818181818,175.21929460580913" stroke="#000000" stroke-width="2.75" fill="#000000"  />
<polygon points="195.6772727272727,183.45746887966806 198.97727272727272,180.15746887966804 202.27727272727273,183.45746887966806 198.97727272727272,186.75746887966807" stroke="#F7F7F7" stroke-width="2.75" fill="#F7F7F7"  />
<polygon points="195.6772727272727,183.45746887966806 198.97727272727272,180.15746887966804 202.27727272727273,183.45746887966806 198.97727272727272,186.75746887966807" stroke="#000000" stroke-width="2.75" fill="#000000"  />
<polygon points="236.08636363636361,151.07614107883816 239.38636363636363,147.77614107883815 242.68636363636364,151.07614107883816 239.38636363636363,154.37614107883817" stroke="#F7F7F7" stroke-width="2.75" fill="#F7F7F7"  />
<polygon points="236.08636363636361,151.07614107883816 239.38636363636363,147.77614107883815 242.68636363636364,151.07614107883816 239.38636363636363,154.37614107883817" stroke="#000000" stroke-width="2.75" fill="#000000"  />
<polygon points="276.4954545454545,115.59315352697095 279.7954545454545,112.29315352697095 283.0954545454545,115.59315352697095 279.7954545454545,118.89315352697095" stroke="#F7F7F7" stroke-width="2.75" fill="#F7F7F7"  />
<polygon points="276.4954545454545,115.59315352697095 279.7954545454545,112.29315352697095 283.0954545454545,115.59315352697095 279.7954545454545,118.89315352697095" stroke="#000000" stroke-width="2.75" fill="#000000"  />
<polygon points="316.9045454545454,99.71265560165975 320.20454545454544,96.41265560165975 323.50454545454545,99.71265560165975 320.20454545454544,103.01265560165974" stroke="#F7F7F7" stroke-width="2.75" fill="#F7F7F7"  />
<polygon points="316.9045454545454,99.71265560165975 320.20454545454544,96.41265560165975 323.50454545454545,99.71265560165975 320.20454545454544,103.01265560165974" stroke="#000000" stroke-width="2.75" fill="#000000"  />
<polygon points="357.31363636363636,111.00269709543568 360.6136363636364,107.70269709543568 363.9136363636364,111.00269709543568 360.6136363636364,114.30269709543568" stroke="#F7F7F7" stroke-width="2.75" fill="#F7F7F7"  />
<polygon points="357.31363636363636,111.00269709543568 360.6136363636364,107.70269709543568 363.9136363636364,111.00269709543568 360.6136363636364,114.30269709543568" stroke="#000000" stroke-width="2.75" fill="#000000"  />
<polygon points="397.72272727272724,94.75 401.02272727272725,91.45 404.32272727272726,94.75 401.02272727272725,98.05" stroke="#F7F7F7" stroke-width="2.75" fill="#F7F7F7"  />
<polygon points="397.72272727272724,94.75 401.02272727272725,91.45 404.32272727272726,94.75 401.02272727272725,98.05" stroke="#000000" stroke-width="2.75" fill="#000000"  />
<polygon points="438.1318181818181,111.74709543568464 441.43181818181813,108.44709543568464 444.73181818181814,111.74709543568464 441.43181818181813,115.04709543568464" stroke="#F7F7F7" stroke-width="2.75" fill="#F7F7F7"  />
<polygon points="438.1318181818181,111.74709543568464 441.43181818181813,108.44709543568464 444.73181818181814,111.74709543568464 441.43181818181813,115.04709543568464" stroke="#000000" stroke-width="2.75" fill="#000000"  />
<polygon points="478.54090909090905,116.21348547717842 481.84090909090907,112.91348547717843 485.1409090909091,116.21348547717842 481.84090909090907,119.51348547717842" stroke="#F7F7F7" stroke-width="2.75" fill="#F7F7F7"  />
<polygon points="478.54090909090905,116.21348547717842 481.84090909090907,112.91348547717843 485.1409090909091,116.21348547717842 481.84090909090907,119.51348547717842" stroke="#000000" stroke-width="2.75" fill="#000000"  />
<polygon points="518.95,132.5902489626556 522.25,129.2902489626556 525.55,132.5902489626556 522.25,135.89024896265562" stroke="#F7F7F7" stroke-width="2.75" fill="#F7F7F7"  />
<polygon points="518.95,132.5902489626556 522.25,129.2902489626556 525.55,132.5902489626556 522.25,135.89024896265562" stroke="#000000" stroke-width="2.75" fill="#000000"  />
</svg>