<svg width="600" height="408" xmlns="http://www.w3.org/2000/svg"> <rect width="100%" height="100%" fill="#FEFEFE" />
<line x1="70" y1="252" x2="530" y2="252" stroke="#9f9f9f" stroke-width="1" />
<rect x="70" y="87" width="460" height="165" fill="#FEFEFE" />
<text text-anchor="middle" x="300.0" y="20" font-family="'Helvetica Neue', Arial, sans-serif" font-weight="bold" font-size="22" fill="#000000">Associates degrees awarded in Parks &amp; Recreation</text>
<text text-anchor="middle" x="300.0" y="42" font-family="'Helvetica Neue', Arial, sans-serif" font-size="14" fill="#000000">correlates with</text>
<text text-anchor="middle" x="300.0" y="68" font-family="'Helvetica Neue', Arial, sans-serif" font-weight="bold" font-size="22" fill="#ba0f27">Google searches for &apos;tummy ache&apos;</text>
<text text-anchor="start" x="23" y="297.3333333333333" font-family="'Helvetica Neue', Arial, sans-serif" font-size="14" fill="#9f9f9f">Associate&apos;s degrees conferred by postsecondary institutions with a field of</text>
<text text-anchor="start" x="23" y="313.3333333333333" font-family="'Helvetica Neue', Arial, sans-serif" font-size="14" fill="#9f9f9f">study of Parks, recreation, leisure, fitness, and kinesiology &#183; Source:</text>
<text text-anchor="start" x="23" y="329.3333333333333" font-family="'Helvetica Neue', Arial, sans-serif" font-size="14" fill="#9f9f9f">National Center for Education Statistics</text>
<text text-anchor="start" x="23" y="352.66666666666663" font-family="'Helvetica Neue', Arial, sans-serif" font-size="14" fill="#9f9f9f">Relative volume of Google searches for &apos;tummy ache&apos; (Worldwide, without</text>
<text text-anchor="start" x="23" y="368.66666666666663" font-family="'Helvetica Neue', Arial, sans-serif" font-size="14" fill="#9f9f9f">quotes) &#183; Source: Google Trends</text>
<text text-anchor="start" x="23" y="391.99999999999994" font-family="'Helvetica Neue', Arial, sans-serif" font-size="14" fill="#9f9f9f">2011-2021, r=0.980, r&#178;=0.960, p&lt;0.01  &#183;  tylervigen.com/spurious/correlation/1472</text>
<polyline points="5,292.66666666666663 20,292.66666666666663" style="fill:none;stroke:#000000;stroke-width:2.8" stroke-dasharray="3,1" />
<polygon points="1.7000000000000002,292.66666666666663 5,289.3666666666666 8.3,292.66666666666663 5,295.96666666666664" stroke="#F7F7F7" stroke-width="2.75" fill="#F7F7F7"  />
<polygon points="1.7000000000000002,292.66666666666663 5,289.3666666666666 8.3,292.66666666666663 5,295.96666666666664" stroke="#000000" stroke-width="2.75" fill="#000000"  />
<polyline points="5,347.99999999999994 20,347.99999999999994" style="fill:none;stroke:#ba0f27;stroke-width:2.8" />
<circle cx="5" cy="347.99999999999994" r="2.75" stroke="#F7F7F7" stroke-width="2.75" fill="#F7F7F7" />
<circle cx="5" cy="347.99999999999994" r="2.75" stroke="#ba0f27" stroke-width="2.75" fill="#ba0f27"  />
<text x="5" y="174.5" transform="rotate(270 5 169.5)" text-anchor="middle" fill="#000000" font-family="'Helvetica Neue', Arial, sans-serif" font-size="14" dominant-baseline="central">Degrees awarded</text>
<text x="169.5" y="-389" transform="rotate(90 100 100)" text-anchor="middle" fill="#ba0f27" font-family="'Helvetica Neue', Arial, sans-serif" font-size="14" dominant-baseline="central">Rel. search volume</text>
<line x1="71" y1="94.75" x2="528" y2="94.75" stroke="#F3F3F3" stroke-width="1" fill="#FEFEFE" />
<text text-anchor="end" x="62" y="99.41666666666667" font-family="'Helvetica Neue', Arial, sans-serif" font-size="12" fill="#000000">6.0K</text>
<text text-anchor="start" x="538" y="99.41666666666667" font-family="'Helvetica Neue', Arial, sans-serif" font-size="12" fill="#ba0f27">84</text>
<line x1="71" y1="132.125" x2="528" y2="132.125" stroke="#F3F3F3" stroke-width="1" fill="#FEFEFE" />
<text text-anchor="end" x="62" y="136.79166666666666" font-family="'Helvetica Neue', Arial, sans-serif" font-size="12">5.1K</text>
<text text-anchor="start" x="538" y="136.79166666666666" font-family="'Helvetica Neue', Arial, sans-serif" font-size="12" fill="#ba0f27">73</text>
<line x1="71" y1="169.5" x2="528" y2="169.5" stroke="#F3F3F3" stroke-width="1" fill="#FEFEFE" />
<text text-anchor="end" x="62" y="174.16666666666666" font-family="'Helvetica Neue', Arial, sans-serif" font-size="12">4.2K</text>
<text text-anchor="start" x="538" y="174.16666666666666" font-family="'Helvetica Neue', Arial, sans-serif" font-size="12" fill="#ba0f27">63</text>
<line x1="71" y1="206.875" x2="528" y2="206.875" stroke="#F3F3F3" stroke-width="1" fill="#FEFEFE" />
<text text-anchor="end" x="62" y="211.54166666666666" font-family="'Helvetica Neue', Arial, sans-serif" font-size="12">3.3K</text>
<text text-anchor="start" x="538" y="211.54166666666666" font-family="'Helvetica Neue', Arial, sans-serif" font-size="12" fill="#ba0f27">53</text>
<line x1="71" y1="244.25" x2="528" y2="244.25" stroke="#F3F3F3" stroke-width="1" fill="#FEFEFE" />
<text text-anchor="end" x="62" y="248.91666666666666" font-family="'Helvetica Neue', Arial, sans-serif" font-size="12">2.4K</text>
<text text-anchor="start" x="538" y="248.91666666666666" font-family="'Helvetica Neue', Arial, sans-serif" font-size="12" fill="#ba0f27">43</text>
<polyline points="77.75,252 77.75,258" style="fill:none;stroke:#000000;stroke-width:1" />
<polyline points="122.2,252 122.2,258" style="fill:none;stroke:#000000;stroke-width:1" />
<polyline points="166.65,252 166.65,258" style="fill:none;stroke:#000000;stroke-width:1" />
<polyline points="211.10000000000002,252 211.10000000000002,258" style="fill:none;stroke:#000000;stroke-width:1" />
<polyline points="255.55,252 255.55,258" style="fill:none;stroke:#000000;stroke-width:1" />
<polyline points="300.0,252 300.0,258" style="fill:none;stroke:#000000;stroke-width:1" />
<polyline points="344.45000000000005,252 344.45000000000005,258" style="fill:none;stroke:#000000;stroke-width:1" />
<polyline points="388.90000000000003,252 388.90000000000003,258" style="fill:none;stroke:#000000;stroke-width:1" />
<polyline points="433.35,252 433.35,258" style="fill:none;stroke:#000000;stroke-width:1" />
<polyline points="477.8,252 477.8,258" style="fill:none;stroke:#000000;stroke-width:1" />
<polyline points="522.25,252 522.25,258" style="fill:none;stroke:#000000;stroke-width:1" />
<text text-anchor="middle" x="77.75" y="273" font-weight="bold" font-family="'Helvetica Neue', Arial, sans-serif" font-size="14">2011</text>
<text text-anchor="middle" x="122.2" y="273" font-weight="bold" font-family="'Helvetica Neue', Arial, sans-serif" font-size="14">2012</text>
<text text-anchor="middle" x="166.65" y="273" font-weight="bold" font-family="'Helvetica Neue', Arial, sans-serif" font-size="14">2013</text>
<text text-anchor="middle" x="211.10000000000002" y="273" font-weight="bold" font-family="'Helvetica Neue', Arial, sans-serif" font-size="14">2014</text>
<text text-anchor="middle" x="255.55" y="273" font-weight="bold" font-family="'Helvetica Neue', Arial, sans-serif" font-size="14">2015</text>
<text text-anchor="middle" x="300.0" y="273" font-weight="bold" font-family="'Helvetica Neue', Arial, sans-serif" font-size="14">2016</text>
<text text-anchor="middle" x="344.45000000000005" y="273" font-weight="bold" font-family="'Helvetica Neue', Arial, sans-serif" font-size="14">2017</text>
<text text-anchor="middle" x="388.90000000000003" y="273" font-weight="bold" font-family="'Helvetica Neue', Arial, sans-serif" font-size="14">2018</text>
<text text-anchor="middle" x="433.35" y="273" font-weight="bold" font-family="'Helvetica Neue', Arial, sans-serif" font-size="14">2019</text>
<text text-anchor="middle" x="477.8" y="273" font-weight="bold" font-family="'Helvetica Neue', Arial, sans-serif" font-size="14">2020</text>
<text text-anchor="middle" x="522.25" y="273" font-weight="bold" font-family="'Helvetica Neue', Arial, sans-serif" font-size="14">2021</text>
<polyline points="77.75,244.25 122.2,213.80200700938005" style="fill:none;stroke:#ba0f27;stroke-width:2.8"  />
<polyline points="122.2,213.80200700938005 166.65,197.05566567114568" style="fill:none;stroke:#ba0f27;stroke-width:2.8"  />
<polyline points="166.65,197.05566567114568 211.10000000000002,180.91804304365462" style="fill:none;stroke:#ba0f27;stroke-width:2.8"  />
<polyline points="211.10000000000002,180.91804304365462 255.55,161.1266466421941" style="fill:none;stroke:#ba0f27;stroke-width:2.8"  />
<polyline points="255.55,161.1266466421941 300.0,147.7297197225576" style="fill:none;stroke:#ba0f27;stroke-width:2.8"  />
<polyline points="300.0,147.7297197225576 344.45000000000005,140.11744744186953" style="fill:none;stroke:#ba0f27;stroke-width:2.8"  />
<polyline points="344.45000000000005,140.11744744186953 388.90000000000003,115.45447446757547" style="fill:none;stroke:#ba0f27;stroke-width:2.8"  />
<polyline points="388.90000000000003,115.45447446757547 433.35,98.40377377396949" style="fill:none;stroke:#ba0f27;stroke-width:2.8"  />
<polyline points="433.35,98.40377377396949 477.8,95.05435935537163" style="fill:none;stroke:#ba0f27;stroke-width:2.8"  />
<polyline points="477.8,95.05435935537163 522.25,94.75" style="fill:none;stroke:#ba0f27;stroke-width:2.8"  />
<circle cx="77.75" cy="244.25" r="2.75" stroke="#F7F7F7" stroke-width="2.75" fill="#F7F7F7" />
<circle cx="77.75" cy="244.25" r="2.75" stroke="#ba0f27" stroke-width="2.75" fill="#ba0f27"  />
<circle cx="122.2" cy="213.80200700938005" r="2.75" stroke="#F7F7F7" stroke-width="2.75" fill="#F7F7F7" />
<circle cx="122.2" cy="213.80200700938005" r="2.75" stroke="#ba0f27" stroke-width="2.75" fill="#ba0f27"  />
<circle cx="166.65" cy="197.05566567114568" r="2.75" stroke="#F7F7F7" stroke-width="2.75" fill="#F7F7F7" />
<circle cx="166.65" cy="197.05566567114568" r="2.75" stroke="#ba0f27" stroke-width="2.75" fill="#ba0f27"  />
<circle cx="211.10000000000002" cy="180.91804304365462" r="2.75" stroke="#F7F7F7" stroke-width="2.75" fill="#F7F7F7" />
<circle cx="211.10000000000002" cy="180.91804304365462" r="2.75" stroke="#ba0f27" stroke-width="2.75" fill="#ba0f27"  />
<circle cx="255.55" cy="161.1266466421941" r="2.75" stroke="#F7F7F7" stroke-width="2.75" fill="#F7F7F7" />
<circle cx="255.55" cy="161.1266466421941" r="2.75" stroke="#ba0f27" stroke-width="2.75" fill="#ba0f27"  />
<circle cx="300.0" cy="147.7297197225576" r="2.75" stroke="#F7F7F7" stroke-width="2.75" fill="#F7F7F7" />
<circle cx="300.0" cy="147.7297197225576" r="2.75" stroke="#ba0f27" stroke-width="2.75" fill="#ba0f27"  />
<circle cx="344.45000000000005" cy="140.11744744186953" r="2.75" stroke="#F7F7F7" stroke-width="2.75" fill="#F7F7F7" />
<circle cx="344.45000000000005" cy="140.11744744186953" r="2.75" stroke="#ba0f27" stroke-width="2.75" fill="#ba0f27"  />
<circle cx="388.90000000000003" cy="115.45447446757547" r="2.75" stroke="#F7F7F7" stroke-width="2.75" fill="#F7F7F7" />
<circle cx="388.90000000000003" cy="115.45447446757547" r="2.75" stroke="#ba0f27" stroke-width="2.75" fill="#ba0f27"  />
<circle cx="433.35" cy="98.40377377396949" r="2.75" stroke="#F7F7F7" stroke-width="2.75" fill="#F7F7F7" />
<circle cx="433.35" cy="98.40377377396949" r="2.75" stroke="#ba0f27" stroke-width="2.75" fill="#ba0f27"  />
<circle cx="477.8" cy="95.05435935537163" r="2.75" stroke="#F7F7F7" stroke-width="2.75" fill="#F7F7F7" />
<circle cx="477.8" cy="95.05435935537163" r="2.75" stroke="#ba0f27" stroke-width="2.75" fill="#ba0f27"  />
<circle cx="522.25" cy="94.75" r="2.75" stroke="#F7F7F7" stroke-width="2.75" fill="#F7F7F7" />
<circle cx="522.25" cy="94.75" r="2.75" stroke="#ba0f27" stroke-width="2.75" fill="#ba0f27"  />
<polyline points="77.75,244.25 122.2,212.7259052924791" style="fill:none;stroke:#000000;stroke-width:2.8" stroke-dasharray="3,1"  />
<polyline points="122.2,212.7259052924791 166.65,198.90027855153204" style="fill:none;stroke:#000000;stroke-width:2.8" stroke-dasharray="3,1"  />
<polyline points="166.65,198.90027855153204 211.10000000000002,160.25515320334262" style="fill:none;stroke:#000000;stroke-width:2.8" stroke-dasharray="3,1"  />
<polyline points="211.10000000000002,160.25515320334262 255.55,148.3451253481894" style="fill:none;stroke:#000000;stroke-width:2.8" stroke-dasharray="3,1"  />
<polyline points="255.55,148.3451253481894 300.0,144.0974930362117" style="fill:none;stroke:#000000;stroke-width:2.8" stroke-dasharray="3,1"  />
<polyline points="300.0,144.0974930362117 344.45000000000005,133.02033426183843" style="fill:none;stroke:#000000;stroke-width:2.8" stroke-dasharray="3,1"  />
<polyline points="344.45000000000005,133.02033426183843 388.90000000000003,130.4800835654596" style="fill:none;stroke:#000000;stroke-width:2.8" stroke-dasharray="3,1"  />
<polyline points="388.90000000000003,130.4800835654596 433.35,108.1591922005571" style="fill:none;stroke:#000000;stroke-width:2.8" stroke-dasharray="3,1"  />
<polyline points="433.35,108.1591922005571 477.8,106.49345403899721" style="fill:none;stroke:#000000;stroke-width:2.8" stroke-dasharray="3,1"  />
<polyline points="477.8,106.49345403899721 522.25,94.75" style="fill:none;stroke:#000000;stroke-width:2.8" stroke-dasharray="3,1"  />
<polygon points="74.45,244.25 77.75,240.95 81.05,244.25 77.75,247.55" stroke="#F7F7F7" stroke-width="2.75" fill="#F7F7F7"  />
<polygon points="74.45,244.25 77.75,240.95 81.05,244.25 77.75,247.55" stroke="#000000" stroke-width="2.75" fill="#000000"  />
<polygon points="118.9,212.7259052924791 122.2,209.4259052924791 125.5,212.7259052924791 122.2,216.0259052924791" stroke="#F7F7F7" stroke-width="2.75" fill="#F7F7F7"  />
<polygon points="118.9,212.7259052924791 122.2,209.4259052924791 125.5,212.7259052924791 122.2,216.0259052924791" stroke="#000000" stroke-width="2.75" fill="#000000"  />
<polygon points="163.35,198.90027855153204 166.65,195.60027855153203 169.95000000000002,198.90027855153204 166.65,202.20027855153205" stroke="#F7F7F7" stroke-width="2.75" fill="#F7F7F7"  />
<polygon points="163.35,198.90027855153204 166.65,195.60027855153203 169.95000000000002,198.90027855153204 166.65,202.20027855153205" stroke="#000000" stroke-width="2.75" fill="#000000"  />
<polygon points="207.8,160.25515320334262 211.10000000000002,156.9551532033426 214.40000000000003,160.25515320334262 211.10000000000002,163.55515320334263" stroke="#F7F7F7" stroke-width="2.75" fill="#F7F7F7"  />
<polygon points="207.8,160.25515320334262 211.10000000000002,156.9551532033426 214.40000000000003,160.25515320334262 211.10000000000002,163.55515320334263" stroke="#000000" stroke-width="2.75" fill="#000000"  />
<polygon points="252.25,148.3451253481894 255.55,145.0451253481894 258.85,148.3451253481894 255.55,151.64512534818942" stroke="#F7F7F7" stroke-width="2.75" fill="#F7F7F7"  />
<polygon points="252.25,148.3451253481894 255.55,145.0451253481894 258.85,148.3451253481894 255.55,151.64512534818942" stroke="#000000" stroke-width="2.75" fill="#000000"  />
<polygon points="296.7,144.0974930362117 300.0,140.79749303621168 303.3,144.0974930362117 300.0,147.3974930362117" stroke="#F7F7F7" stroke-width="2.75" fill="#F7F7F7"  />
<polygon points="296.7,144.0974930362117 300.0,140.79749303621168 303.3,144.0974930362117 300.0,147.3974930362117" stroke="#000000" stroke-width="2.75" fill="#000000"  />
<polygon points="341.15000000000003,133.02033426183843 344.45000000000005,129.72033426183842 347.75000000000006,133.02033426183843 344.45000000000005,136.32033426183844" stroke="#F7F7F7" stroke-width="2.75" fill="#F7F7F7"  />
<polygon points="341.15000000000003,133.02033426183843 344.45000000000005,129.72033426183842 347.75000000000006,133.02033426183843 344.45000000000005,136.32033426183844" stroke="#000000" stroke-width="2.75" fill="#000000"  />
<polygon points="385.6,130.4800835654596 388.90000000000003,127.18008356545961 392.20000000000005,130.4800835654596 388.90000000000003,133.78008356545962" stroke="#F7F7F7" stroke-width="2.75" fill="#F7F7F7"  />
<polygon points="385.6,130.4800835654596 388.90000000000003,127.18008356545961 392.20000000000005,130.4800835654596 388.90000000000003,133.78008356545962" stroke="#000000" stroke-width="2.75" fill="#000000"  />
<polygon points="430.05,108.1591922005571 433.35,104.8591922005571 436.65000000000003,108.1591922005571 433.35,111.4591922005571" stroke="#F7F7F7" stroke-width="2.75" fill="#F7F7F7"  />
<polygon points="430.05,108.1591922005571 433.35,104.8591922005571 436.65000000000003,108.1591922005571 433.35,111.4591922005571" stroke="#000000" stroke-width="2.75" fill="#000000"  />
<polygon points="474.5,106.49345403899721 477.8,103.19345403899722 481.1,106.49345403899721 477.8,109.79345403899721" stroke="#F7F7F7" stroke-width="2.75" fill="#F7F7F7"  />
<polygon points="474.5,106.49345403899721 477.8,103.19345403899722 481.1,106.49345403899721 477.8,109.79345403899721" stroke="#000000" stroke-width="2.75" fill="#000000"  />
<polygon points="518.95,94.75 522.25,91.45 525.55,94.75 522.25,98.05" stroke="#F7F7F7" stroke-width="2.75" fill="#F7F7F7"  />
<polygon points="518.95,94.75 522.25,91.45 525.55,94.75 522.25,98.05" stroke="#000000" stroke-width="2.75" fill="#000000"  />
</svg>