<svg width="600" height="392" xmlns="http://www.w3.org/2000/svg"> <rect width="100%" height="100%" fill="#FEFEFE" />
<line x1="70" y1="252" x2="530" y2="252" stroke="#9f9f9f" stroke-width="1" />
<rect x="70" y="87" width="460" height="165" fill="#FEFEFE" />
<text text-anchor="middle" x="300.0" y="20" font-family="'Helvetica Neue', Arial, sans-serif" font-weight="bold" font-size="22" fill="#000000">The number of judges in Indiana</text>
<text text-anchor="middle" x="300.0" y="42" font-family="'Helvetica Neue', Arial, sans-serif" font-size="14" fill="#000000">correlates with</text>
<text text-anchor="middle" x="300.0" y="68" font-family="'Helvetica Neue', Arial, sans-serif" font-weight="bold" font-size="22" fill="#ba0f27">Viewership of &quot;The Big Bang Theory&quot;</text>
<text text-anchor="start" x="23" y="297.3333333333333" font-family="'Helvetica Neue', Arial, sans-serif" font-size="14" fill="#9f9f9f">BLS estimate of judges, magistrate judges, and magistrates in Indiana &#183;</text>
<text text-anchor="start" x="23" y="313.3333333333333" font-family="'Helvetica Neue', Arial, sans-serif" font-size="14" fill="#9f9f9f">Source: Bureau of Larbor Statistics</text>
<text text-anchor="start" x="23" y="336.66666666666663" font-family="'Helvetica Neue', Arial, sans-serif" font-size="14" fill="#9f9f9f">Average viewership of &quot;The Big Bang Theory&quot; by season &#183; Source:</text>
<text text-anchor="start" x="23" y="352.66666666666663" font-family="'Helvetica Neue', Arial, sans-serif" font-size="14" fill="#9f9f9f">Wikipedia</text>
<text text-anchor="start" x="23" y="375.99999999999994" font-family="'Helvetica Neue', Arial, sans-serif" font-size="14" fill="#9f9f9f">2008-2019, r=0.918, r&#178;=0.842, p&lt;0.01  &#183;  tylervigen.com/spurious/correlation/1859</text>
<polyline points="5,292.66666666666663 20,292.66666666666663" style="fill:none;stroke:#000000;stroke-width:2.8" stroke-dasharray="3,1" />
<polygon points="1.7000000000000002,292.66666666666663 5,289.3666666666666 8.3,292.66666666666663 5,295.96666666666664" stroke="#F7F7F7" stroke-width="2.75" fill="#F7F7F7"  />
<polygon points="1.7000000000000002,292.66666666666663 5,289.3666666666666 8.3,292.66666666666663 5,295.96666666666664" stroke="#000000" stroke-width="2.75" fill="#000000"  />
<polyline points="5,331.99999999999994 20,331.99999999999994" style="fill:none;stroke:#ba0f27;stroke-width:2.8" />
<circle cx="5" cy="331.99999999999994" r="2.75" stroke="#F7F7F7" stroke-width="2.75" fill="#F7F7F7" />
<circle cx="5" cy="331.99999999999994" r="2.75" stroke="#ba0f27" stroke-width="2.75" fill="#ba0f27"  />
<text x="5" y="174.5" transform="rotate(270 5 169.5)" text-anchor="middle" fill="#000000" font-family="'Helvetica Neue', Arial, sans-serif" font-size="14" dominant-baseline="central">Laborers</text>
<text x="169.5" y="-389" transform="rotate(90 100 100)" text-anchor="middle" fill="#ba0f27" font-family="'Helvetica Neue', Arial, sans-serif" font-size="14" dominant-baseline="central">Viewers</text>
<line x1="71" y1="94.75" x2="528" y2="94.75" stroke="#F3F3F3" stroke-width="1" fill="#FEFEFE" />
<text text-anchor="end" x="62" y="99.41666666666667" font-family="'Helvetica Neue', Arial, sans-serif" font-size="12" fill="#000000">790</text>
<text text-anchor="start" x="538" y="99.41666666666667" font-family="'Helvetica Neue', Arial, sans-serif" font-size="12" fill="#ba0f27">20.4M</text>
<line x1="71" y1="132.125" x2="528" y2="132.125" stroke="#F3F3F3" stroke-width="1" fill="#FEFEFE" />
<text text-anchor="end" x="62" y="136.79166666666666" font-family="'Helvetica Neue', Arial, sans-serif" font-size="12">750</text>
<text text-anchor="start" x="538" y="136.79166666666666" font-family="'Helvetica Neue', Arial, sans-serif" font-size="12" fill="#ba0f27">17.3M</text>
<line x1="71" y1="169.5" x2="528" y2="169.5" stroke="#F3F3F3" stroke-width="1" fill="#FEFEFE" />
<text text-anchor="end" x="62" y="174.16666666666666" font-family="'Helvetica Neue', Arial, sans-serif" font-size="12">710</text>
<text text-anchor="start" x="538" y="174.16666666666666" font-family="'Helvetica Neue', Arial, sans-serif" font-size="12" fill="#ba0f27">14.3M</text>
<line x1="71" y1="206.875" x2="528" y2="206.875" stroke="#F3F3F3" stroke-width="1" fill="#FEFEFE" />
<text text-anchor="end" x="62" y="211.54166666666666" font-family="'Helvetica Neue', Arial, sans-serif" font-size="12">670</text>
<text text-anchor="start" x="538" y="211.54166666666666" font-family="'Helvetica Neue', Arial, sans-serif" font-size="12" fill="#ba0f27">11.3M</text>
<line x1="71" y1="244.25" x2="528" y2="244.25" stroke="#F3F3F3" stroke-width="1" fill="#FEFEFE" />
<text text-anchor="end" x="62" y="248.91666666666666" font-family="'Helvetica Neue', Arial, sans-serif" font-size="12">630</text>
<text text-anchor="start" x="538" y="248.91666666666666" font-family="'Helvetica Neue', Arial, sans-serif" font-size="12" fill="#ba0f27">8.3M</text>
<polyline points="77.75,252 77.75,258" style="fill:none;stroke:#000000;stroke-width:1" />
<polyline points="158.5681818181818,252 158.5681818181818,258" style="fill:none;stroke:#000000;stroke-width:1" />
<polyline points="239.38636363636363,252 239.38636363636363,258" style="fill:none;stroke:#000000;stroke-width:1" />
<polyline points="320.20454545454544,252 320.20454545454544,258" style="fill:none;stroke:#000000;stroke-width:1" />
<polyline points="401.02272727272725,252 401.02272727272725,258" style="fill:none;stroke:#000000;stroke-width:1" />
<polyline points="481.84090909090907,252 481.84090909090907,258" style="fill:none;stroke:#000000;stroke-width:1" />
<text text-anchor="middle" x="77.75" y="273" font-weight="bold" font-family="'Helvetica Neue', Arial, sans-serif" font-size="14">2008</text>
<text text-anchor="middle" x="158.5681818181818" y="273" font-weight="bold" font-family="'Helvetica Neue', Arial, sans-serif" font-size="14">2010</text>
<text text-anchor="middle" x="239.38636363636363" y="273" font-weight="bold" font-family="'Helvetica Neue', Arial, sans-serif" font-size="14">2012</text>
<text text-anchor="middle" x="320.20454545454544" y="273" font-weight="bold" font-family="'Helvetica Neue', Arial, sans-serif" font-size="14">2014</text>
<text text-anchor="middle" x="401.02272727272725" y="273" font-weight="bold" font-family="'Helvetica Neue', Arial, sans-serif" font-size="14">2016</text>
<text text-anchor="middle" x="481.84090909090907" y="273" font-weight="bold" font-family="'Helvetica Neue', Arial, sans-serif" font-size="14">2018</text>
<polyline points="77.75,244.25 118.1590909090909,223.28278008298756" style="fill:none;stroke:#ba0f27;stroke-width:2.8"  />
<polyline points="118.1590909090909,223.28278008298756 158.5681818181818,171.9192946058091" style="fill:none;stroke:#ba0f27;stroke-width:2.8"  />
<polyline points="158.5681818181818,171.9192946058091 198.97727272727272,183.45746887966806" style="fill:none;stroke:#ba0f27;stroke-width:2.8"  />
<polyline points="198.97727272727272,183.45746887966806 239.38636363636363,151.0761410788382" style="fill:none;stroke:#ba0f27;stroke-width:2.8"  />
<polyline points="239.38636363636363,151.0761410788382 279.7954545454545,115.59315352697095" style="fill:none;stroke:#ba0f27;stroke-width:2.8"  />
<polyline points="279.7954545454545,115.59315352697095 320.20454545454544,99.71265560165975" style="fill:none;stroke:#ba0f27;stroke-width:2.8"  />
<polyline points="320.20454545454544,99.71265560165975 360.6136363636364,111.00269709543568" style="fill:none;stroke:#ba0f27;stroke-width:2.8"  />
<polyline points="360.6136363636364,111.00269709543568 401.02272727272725,94.75" style="fill:none;stroke:#ba0f27;stroke-width:2.8"  />
<polyline points="401.02272727272725,94.75 441.43181818181813,111.74709543568466" style="fill:none;stroke:#ba0f27;stroke-width:2.8"  />
<polyline points="441.43181818181813,111.74709543568466 481.84090909090907,116.21348547717842" style="fill:none;stroke:#ba0f27;stroke-width:2.8"  />
<polyline points="481.84090909090907,116.21348547717842 522.25,132.5902489626556" style="fill:none;stroke:#ba0f27;stroke-width:2.8"  />
<circle cx="77.75" cy="244.25" r="2.75" stroke="#F7F7F7" stroke-width="2.75" fill="#F7F7F7" />
<circle cx="77.75" cy="244.25" r="2.75" stroke="#ba0f27" stroke-width="2.75" fill="#ba0f27"  />
<circle cx="118.1590909090909" cy="223.28278008298756" r="2.75" stroke="#F7F7F7" stroke-width="2.75" fill="#F7F7F7" />
<circle cx="118.1590909090909" cy="223.28278008298756" r="2.75" stroke="#ba0f27" stroke-width="2.75" fill="#ba0f27"  />
<circle cx="158.5681818181818" cy="171.9192946058091" r="2.75" stroke="#F7F7F7" stroke-width="2.75" fill="#F7F7F7" />
<circle cx="158.5681818181818" cy="171.9192946058091" r="2.75" stroke="#ba0f27" stroke-width="2.75" fill="#ba0f27"  />
<circle cx="198.97727272727272" cy="183.45746887966806" r="2.75" stroke="#F7F7F7" stroke-width="2.75" fill="#F7F7F7" />
<circle cx="198.97727272727272" cy="183.45746887966806" r="2.75" stroke="#ba0f27" stroke-width="2.75" fill="#ba0f27"  />
<circle cx="239.38636363636363" cy="151.0761410788382" r="2.75" stroke="#F7F7F7" stroke-width="2.75" fill="#F7F7F7" />
<circle cx="239.38636363636363" cy="151.0761410788382" r="2.75" stroke="#ba0f27" stroke-width="2.75" fill="#ba0f27"  />
<circle cx="279.7954545454545" cy="115.59315352697095" r="2.75" stroke="#F7F7F7" stroke-width="2.75" fill="#F7F7F7" />
<circle cx="279.7954545454545" cy="115.59315352697095" r="2.75" stroke="#ba0f27" stroke-width="2.75" fill="#ba0f27"  />
<circle cx="320.20454545454544" cy="99.71265560165975" r="2.75" stroke="#F7F7F7" stroke-width="2.75" fill="#F7F7F7" />
<circle cx="320.20454545454544" cy="99.71265560165975" r="2.75" stroke="#ba0f27" stroke-width="2.75" fill="#ba0f27"  />
<circle cx="360.6136363636364" cy="111.00269709543568" r="2.75" stroke="#F7F7F7" stroke-width="2.75" fill="#F7F7F7" />
<circle cx="360.6136363636364" cy="111.00269709543568" r="2.75" stroke="#ba0f27" stroke-width="2.75" fill="#ba0f27"  />
<circle cx="401.02272727272725" cy="94.75" r="2.75" stroke="#F7F7F7" stroke-width="2.75" fill="#F7F7F7" />
<circle cx="401.02272727272725" cy="94.75" r="2.75" stroke="#ba0f27" stroke-width="2.75" fill="#ba0f27"  />
<circle cx="441.43181818181813" cy="111.74709543568466" r="2.75" stroke="#F7F7F7" stroke-width="2.75" fill="#F7F7F7" />
<circle cx="441.43181818181813" cy="111.74709543568466" r="2.75" stroke="#ba0f27" stroke-width="2.75" fill="#ba0f27"  />
<circle cx="481.84090909090907" cy="116.21348547717842" r="2.75" stroke="#F7F7F7" stroke-width="2.75" fill="#F7F7F7" />
<circle cx="481.84090909090907" cy="116.21348547717842" r="2.75" stroke="#ba0f27" stroke-width="2.75" fill="#ba0f27"  />
<circle cx="522.25" cy="132.5902489626556" r="2.75" stroke="#F7F7F7" stroke-width="2.75" fill="#F7F7F7" />
<circle cx="522.25" cy="132.5902489626556" r="2.75" stroke="#ba0f27" stroke-width="2.75" fill="#ba0f27"  />
<polyline points="77.75,225.5625 118.1590909090909,244.25" style="fill:none;stroke:#000000;stroke-width:2.8" stroke-dasharray="3,1"  />
<polyline points="118.1590909090909,244.25 158.5681818181818,169.5" style="fill:none;stroke:#000000;stroke-width:2.8" stroke-dasharray="3,1"  />
<polyline points="158.5681818181818,169.5 198.97727272727272,150.8125" style="fill:none;stroke:#000000;stroke-width:2.8" stroke-dasharray="3,1"  />
<polyline points="198.97727272727272,150.8125 239.38636363636363,122.78125" style="fill:none;stroke:#000000;stroke-width:2.8" stroke-dasharray="3,1"  />
<polyline points="239.38636363636363,122.78125 279.7954545454545,113.4375" style="fill:none;stroke:#000000;stroke-width:2.8" stroke-dasharray="3,1"  />
<polyline points="279.7954545454545,113.4375 320.20454545454544,113.4375" style="fill:none;stroke:#000000;stroke-width:2.8" stroke-dasharray="3,1"  />
<polyline points="320.20454545454544,113.4375 360.6136363636364,94.75" style="fill:none;stroke:#000000;stroke-width:2.8" stroke-dasharray="3,1"  />
<polyline points="360.6136363636364,94.75 401.02272727272725,113.4375" style="fill:none;stroke:#000000;stroke-width:2.8" stroke-dasharray="3,1"  />
<polyline points="401.02272727272725,113.4375 441.43181818181813,132.125" style="fill:none;stroke:#000000;stroke-width:2.8" stroke-dasharray="3,1"  />
<polyline points="441.43181818181813,132.125 481.84090909090907,122.78125" style="fill:none;stroke:#000000;stroke-width:2.8" stroke-dasharray="3,1"  />
<polyline points="481.84090909090907,122.78125 522.25,150.8125" style="fill:none;stroke:#000000;stroke-width:2.8" stroke-dasharray="3,1"  />
<polygon points="74.45,225.5625 77.75,222.2625 81.05,225.5625 77.75,228.8625" stroke="#F7F7F7" stroke-width="2.75" fill="#F7F7F7"  />
<polygon points="74.45,225.5625 77.75,222.2625 81.05,225.5625 77.75,228.8625" stroke="#000000" stroke-width="2.75" fill="#000000"  />
<polygon points="114.85909090909091,244.25 118.1590909090909,240.95 121.4590909090909,244.25 118.1590909090909,247.55" stroke="#F7F7F7" stroke-width="2.75" fill="#F7F7F7"  />
<polygon points="114.85909090909091,244.25 118.1590909090909,240.95 121.4590909090909,244.25 118.1590909090909,247.55" stroke="#000000" stroke-width="2.75" fill="#000000"  />
<polygon points="155.2681818181818,169.5 158.5681818181818,166.2 161.86818181818182,169.5 158.5681818181818,172.8" stroke="#F7F7F7" stroke-width="2.75" fill="#F7F7F7"  />
<polygon points="155.2681818181818,169.5 158.5681818181818,166.2 161.86818181818182,169.5 158.5681818181818,172.8" stroke="#000000" stroke-width="2.75" fill="#000000"  />
<polygon points="195.6772727272727,150.8125 198.97727272727272,147.5125 202.27727272727273,150.8125 198.97727272727272,154.1125" stroke="#F7F7F7" stroke-width="2.75" fill="#F7F7F7"  />
<polygon points="195.6772727272727,150.8125 198.97727272727272,147.5125 202.27727272727273,150.8125 198.97727272727272,154.1125" stroke="#000000" stroke-width="2.75" fill="#000000"  />
<polygon points="236.08636363636361,122.78125 239.38636363636363,119.48125 242.68636363636364,122.78125 239.38636363636363,126.08125" stroke="#F7F7F7" stroke-width="2.75" fill="#F7F7F7"  />
<polygon points="236.08636363636361,122.78125 239.38636363636363,119.48125 242.68636363636364,122.78125 239.38636363636363,126.08125" stroke="#000000" stroke-width="2.75" fill="#000000"  />
<polygon points="276.4954545454545,113.4375 279.7954545454545,110.1375 283.0954545454545,113.4375 279.7954545454545,116.7375" stroke="#F7F7F7" stroke-width="2.75" fill="#F7F7F7"  />
<polygon points="276.4954545454545,113.4375 279.7954545454545,110.1375 283.0954545454545,113.4375 279.7954545454545,116.7375" stroke="#000000" stroke-width="2.75" fill="#000000"  />
<polygon points="316.9045454545454,113.4375 320.20454545454544,110.1375 323.50454545454545,113.4375 320.20454545454544,116.7375" stroke="#F7F7F7" stroke-width="2.75" fill="#F7F7F7"  />
<polygon points="316.9045454545454,113.4375 320.20454545454544,110.1375 323.50454545454545,113.4375 320.20454545454544,116.7375" stroke="#000000" stroke-width="2.75" fill="#000000"  />
<polygon points="357.31363636363636,94.75 360.6136363636364,91.45 363.9136363636364,94.75 360.6136363636364,98.05" stroke="#F7F7F7" stroke-width="2.75" fill="#F7F7F7"  />
<polygon points="357.31363636363636,94.75 360.6136363636364,91.45 363.9136363636364,94.75 360.6136363636364,98.05" stroke="#000000" stroke-width="2.75" fill="#000000"  />
<polygon points="397.72272727272724,113.4375 401.02272727272725,110.1375 404.32272727272726,113.4375 401.02272727272725,116.7375" stroke="#F7F7F7" stroke-width="2.75" fill="#F7F7F7"  />
<polygon points="397.72272727272724,113.4375 401.02272727272725,110.1375 404.32272727272726,113.4375 401.02272727272725,116.7375" stroke="#000000" stroke-width="2.75" fill="#000000"  />
<polygon points="438.1318181818181,132.125 441.43181818181813,128.825 444.73181818181814,132.125 441.43181818181813,135.425" stroke="#F7F7F7" stroke-width="2.75" fill="#F7F7F7"  />
<polygon points="438.1318181818181,132.125 441.43181818181813,128.825 444.73181818181814,132.125 441.43181818181813,135.425" stroke="#000000" stroke-width="2.75" fill="#000000"  />
<polygon points="478.54090909090905,122.78125 481.84090909090907,119.48125 485.1409090909091,122.78125 481.84090909090907,126.08125" stroke="#F7F7F7" stroke-width="2.75" fill="#F7F7F7"  />
<polygon points="478.54090909090905,122.78125 481.84090909090907,119.48125 485.1409090909091,122.78125 481.84090909090907,126.08125" stroke="#000000" stroke-width="2.75" fill="#000000"  />
<polygon points="518.95,150.8125 522.25,147.5125 525.55,150.8125 522.25,154.1125" stroke="#F7F7F7" stroke-width="2.75" fill="#F7F7F7"  />
<polygon points="518.95,150.8125 522.25,147.5125 525.55,150.8125 522.25,154.1125" stroke="#000000" stroke-width="2.75" fill="#000000"  />
</svg>