<svg width="600" height="392" xmlns="http://www.w3.org/2000/svg"> <rect width="100%" height="100%" fill="#FEFEFE" />
<line x1="70" y1="252" x2="530" y2="252" stroke="#9f9f9f" stroke-width="1" />
<rect x="70" y="87" width="460" height="165" fill="#FEFEFE" />
<text text-anchor="middle" x="300.0" y="20" font-family="'Helvetica Neue', Arial, sans-serif" font-weight="bold" font-size="22" fill="#000000">Air pollution in Iowa City</text>
<text text-anchor="middle" x="300.0" y="42" font-family="'Helvetica Neue', Arial, sans-serif" font-size="14" fill="#000000">correlates with</text>
<text text-anchor="middle" x="300.0" y="68" font-family="'Helvetica Neue', Arial, sans-serif" font-weight="bold" font-size="22" fill="#ba0f27">The number of library technicians in Iowa</text>
<text text-anchor="start" x="23" y="297.3333333333333" font-family="'Helvetica Neue', Arial, sans-serif" font-size="14" fill="#9f9f9f">Percentage of days with moderate or worse air quality in Iowa City, IA &#183;</text>
<text text-anchor="start" x="23" y="313.3333333333333" font-family="'Helvetica Neue', Arial, sans-serif" font-size="14" fill="#9f9f9f">Source: Environmental Protection Agency</text>
<text text-anchor="start" x="23" y="336.66666666666663" font-family="'Helvetica Neue', Arial, sans-serif" font-size="14" fill="#9f9f9f">BLS estimate of library technicians in Iowa &#183; Source: Bureau of Larbor</text>
<text text-anchor="start" x="23" y="352.66666666666663" font-family="'Helvetica Neue', Arial, sans-serif" font-size="14" fill="#9f9f9f">Statistics</text>
<text text-anchor="start" x="23" y="375.99999999999994" font-family="'Helvetica Neue', Arial, sans-serif" font-size="14" fill="#9f9f9f">2003-2022, r=0.846, r&#178;=0.716, p&lt;0.01  &#183;  tylervigen.com/spurious/correlation/2184</text>
<polyline points="5,292.66666666666663 20,292.66666666666663" style="fill:none;stroke:#000000;stroke-width:2.7" stroke-dasharray="3,1" />
<polygon points="2.12,292.66666666666663 5,289.78666666666663 7.88,292.66666666666663 5,295.5466666666666" stroke="#F7F7F7" stroke-width="2.4" fill="#F7F7F7"  />
<polygon points="2.12,292.66666666666663 5,289.78666666666663 7.88,292.66666666666663 5,295.5466666666666" stroke="#000000" stroke-width="2.4" fill="#000000"  />
<polyline points="5,331.99999999999994 20,331.99999999999994" style="fill:none;stroke:#ba0f27;stroke-width:2.7" />
<circle cx="5" cy="331.99999999999994" r="2.4" stroke="#F7F7F7" stroke-width="2.4" fill="#F7F7F7" />
<circle cx="5" cy="331.99999999999994" r="2.4" stroke="#ba0f27" stroke-width="2.4" fill="#ba0f27"  />
<text x="5" y="174.5" transform="rotate(270 5 169.5)" text-anchor="middle" fill="#000000" font-family="'Helvetica Neue', Arial, sans-serif" font-size="14" dominant-baseline="central">Bad air quality days</text>
<text x="169.5" y="-389" transform="rotate(90 100 100)" text-anchor="middle" fill="#ba0f27" font-family="'Helvetica Neue', Arial, sans-serif" font-size="14" dominant-baseline="central">Library Technicians</text>
<line x1="71" y1="94.4" x2="528" y2="94.4" stroke="#F3F3F3" stroke-width="1" fill="#FEFEFE" />
<text text-anchor="end" x="62" y="99.06666666666668" font-family="'Helvetica Neue', Arial, sans-serif" font-size="12" fill="#000000">51%</text>
<text text-anchor="start" x="538" y="99.06666666666668" font-family="'Helvetica Neue', Arial, sans-serif" font-size="12" fill="#ba0f27">2.1K</text>
<line x1="71" y1="131.95" x2="528" y2="131.95" stroke="#F3F3F3" stroke-width="1" fill="#FEFEFE" />
<text text-anchor="end" x="62" y="136.61666666666665" font-family="'Helvetica Neue', Arial, sans-serif" font-size="12">42%</text>
<text text-anchor="start" x="538" y="136.61666666666665" font-family="'Helvetica Neue', Arial, sans-serif" font-size="12" fill="#ba0f27">1.8K</text>
<line x1="71" y1="169.5" x2="528" y2="169.5" stroke="#F3F3F3" stroke-width="1" fill="#FEFEFE" />
<text text-anchor="end" x="62" y="174.16666666666666" font-family="'Helvetica Neue', Arial, sans-serif" font-size="12">34%</text>
<text text-anchor="start" x="538" y="174.16666666666666" font-family="'Helvetica Neue', Arial, sans-serif" font-size="12" fill="#ba0f27">1.6K</text>
<line x1="71" y1="207.05" x2="528" y2="207.05" stroke="#F3F3F3" stroke-width="1" fill="#FEFEFE" />
<text text-anchor="end" x="62" y="211.71666666666667" font-family="'Helvetica Neue', Arial, sans-serif" font-size="12">25%</text>
<text text-anchor="start" x="538" y="211.71666666666667" font-family="'Helvetica Neue', Arial, sans-serif" font-size="12" fill="#ba0f27">1.3K</text>
<line x1="71" y1="244.6" x2="528" y2="244.6" stroke="#F3F3F3" stroke-width="1" fill="#FEFEFE" />
<text text-anchor="end" x="62" y="249.26666666666665" font-family="'Helvetica Neue', Arial, sans-serif" font-size="12">17%</text>
<text text-anchor="start" x="538" y="249.26666666666665" font-family="'Helvetica Neue', Arial, sans-serif" font-size="12" fill="#ba0f27">1.1K</text>
<polyline points="77.4,252 77.4,258" style="fill:none;stroke:#000000;stroke-width:1" />
<polyline points="147.69473684210527,252 147.69473684210527,258" style="fill:none;stroke:#000000;stroke-width:1" />
<polyline points="217.98947368421054,252 217.98947368421054,258" style="fill:none;stroke:#000000;stroke-width:1" />
<polyline points="288.2842105263158,252 288.2842105263158,258" style="fill:none;stroke:#000000;stroke-width:1" />
<polyline points="358.57894736842104,252 358.57894736842104,258" style="fill:none;stroke:#000000;stroke-width:1" />
<polyline points="428.87368421052633,252 428.87368421052633,258" style="fill:none;stroke:#000000;stroke-width:1" />
<polyline points="499.16842105263163,252 499.16842105263163,258" style="fill:none;stroke:#000000;stroke-width:1" />
<text text-anchor="middle" x="77.4" y="273" font-weight="bold" font-family="'Helvetica Neue', Arial, sans-serif" font-size="14">2003</text>
<text text-anchor="middle" x="147.69473684210527" y="273" font-weight="bold" font-family="'Helvetica Neue', Arial, sans-serif" font-size="14">2006</text>
<text text-anchor="middle" x="217.98947368421054" y="273" font-weight="bold" font-family="'Helvetica Neue', Arial, sans-serif" font-size="14">2009</text>
<text text-anchor="middle" x="288.2842105263158" y="273" font-weight="bold" font-family="'Helvetica Neue', Arial, sans-serif" font-size="14">2012</text>
<text text-anchor="middle" x="358.57894736842104" y="273" font-weight="bold" font-family="'Helvetica Neue', Arial, sans-serif" font-size="14">2015</text>
<text text-anchor="middle" x="428.87368421052633" y="273" font-weight="bold" font-family="'Helvetica Neue', Arial, sans-serif" font-size="14">2018</text>
<text text-anchor="middle" x="499.16842105263163" y="273" font-weight="bold" font-family="'Helvetica Neue', Arial, sans-serif" font-size="14">2021</text>
<polyline points="77.4,186.50377358490567 100.83157894736843,155.33018867924528" style="fill:none;stroke:#ba0f27;stroke-width:2.7"  />
<polyline points="100.83157894736843,155.33018867924528 124.26315789473685,102.90188679245284" style="fill:none;stroke:#ba0f27;stroke-width:2.7"  />
<polyline points="124.26315789473685,102.90188679245284 147.69473684210527,152.49622641509433" style="fill:none;stroke:#ba0f27;stroke-width:2.7"  />
<polyline points="147.69473684210527,152.49622641509433 171.1263157894737,135.49245283018868" style="fill:none;stroke:#ba0f27;stroke-width:2.7"  />
<polyline points="171.1263157894737,135.49245283018868 194.55789473684212,135.49245283018868" style="fill:none;stroke:#ba0f27;stroke-width:2.7"  />
<polyline points="194.55789473684212,135.49245283018868 217.98947368421054,95.81698113207548" style="fill:none;stroke:#ba0f27;stroke-width:2.7"  />
<polyline points="217.98947368421054,95.81698113207548 241.42105263157896,102.90188679245284" style="fill:none;stroke:#ba0f27;stroke-width:2.7"  />
<polyline points="241.42105263157896,102.90188679245284 264.85263157894735,94.4" style="fill:none;stroke:#ba0f27;stroke-width:2.7"  />
<polyline points="264.85263157894735,94.4 288.2842105263158,122.73962264150944" style="fill:none;stroke:#ba0f27;stroke-width:2.7"  />
<polyline points="288.2842105263158,122.73962264150944 311.71578947368425,162.41509433962264" style="fill:none;stroke:#ba0f27;stroke-width:2.7"  />
<polyline points="311.71578947368425,162.41509433962264 335.14736842105265,206.34150943396224" style="fill:none;stroke:#ba0f27;stroke-width:2.7"  />
<polyline points="335.14736842105265,206.34150943396224 358.57894736842104,221.92830188679244" style="fill:none;stroke:#ba0f27;stroke-width:2.7"  />
<polyline points="358.57894736842104,221.92830188679244 382.01052631578943,209.1754716981132" style="fill:none;stroke:#ba0f27;stroke-width:2.7"  />
<polyline points="382.01052631578943,209.1754716981132 405.44210526315794,203.50754716981132" style="fill:none;stroke:#ba0f27;stroke-width:2.7"  />
<polyline points="405.44210526315794,203.50754716981132 428.87368421052633,223.34528301886792" style="fill:none;stroke:#ba0f27;stroke-width:2.7"  />
<polyline points="428.87368421052633,223.34528301886792 452.30526315789473,209.1754716981132" style="fill:none;stroke:#ba0f27;stroke-width:2.7"  />
<polyline points="452.30526315789473,209.1754716981132 475.7368421052631,219.0943396226415" style="fill:none;stroke:#ba0f27;stroke-width:2.7"  />
<polyline points="475.7368421052631,219.0943396226415 499.16842105263163,244.6" style="fill:none;stroke:#ba0f27;stroke-width:2.7"  />
<polyline points="499.16842105263163,244.6 522.6,223.34528301886792" style="fill:none;stroke:#ba0f27;stroke-width:2.7"  />
<circle cx="77.4" cy="186.50377358490567" r="2.4" stroke="#F7F7F7" stroke-width="2.4" fill="#F7F7F7" />
<circle cx="77.4" cy="186.50377358490567" r="2.4" stroke="#ba0f27" stroke-width="2.4" fill="#ba0f27"  />
<circle cx="100.83157894736843" cy="155.33018867924528" r="2.4" stroke="#F7F7F7" stroke-width="2.4" fill="#F7F7F7" />
<circle cx="100.83157894736843" cy="155.33018867924528" r="2.4" stroke="#ba0f27" stroke-width="2.4" fill="#ba0f27"  />
<circle cx="124.26315789473685" cy="102.90188679245284" r="2.4" stroke="#F7F7F7" stroke-width="2.4" fill="#F7F7F7" />
<circle cx="124.26315789473685" cy="102.90188679245284" r="2.4" stroke="#ba0f27" stroke-width="2.4" fill="#ba0f27"  />
<circle cx="147.69473684210527" cy="152.49622641509433" r="2.4" stroke="#F7F7F7" stroke-width="2.4" fill="#F7F7F7" />
<circle cx="147.69473684210527" cy="152.49622641509433" r="2.4" stroke="#ba0f27" stroke-width="2.4" fill="#ba0f27"  />
<circle cx="171.1263157894737" cy="135.49245283018868" r="2.4" stroke="#F7F7F7" stroke-width="2.4" fill="#F7F7F7" />
<circle cx="171.1263157894737" cy="135.49245283018868" r="2.4" stroke="#ba0f27" stroke-width="2.4" fill="#ba0f27"  />
<circle cx="194.55789473684212" cy="135.49245283018868" r="2.4" stroke="#F7F7F7" stroke-width="2.4" fill="#F7F7F7" />
<circle cx="194.55789473684212" cy="135.49245283018868" r="2.4" stroke="#ba0f27" stroke-width="2.4" fill="#ba0f27"  />
<circle cx="217.98947368421054" cy="95.81698113207548" r="2.4" stroke="#F7F7F7" stroke-width="2.4" fill="#F7F7F7" />
<circle cx="217.98947368421054" cy="95.81698113207548" r="2.4" stroke="#ba0f27" stroke-width="2.4" fill="#ba0f27"  />
<circle cx="241.42105263157896" cy="102.90188679245284" r="2.4" stroke="#F7F7F7" stroke-width="2.4" fill="#F7F7F7" />
<circle cx="241.42105263157896" cy="102.90188679245284" r="2.4" stroke="#ba0f27" stroke-width="2.4" fill="#ba0f27"  />
<circle cx="264.85263157894735" cy="94.4" r="2.4" stroke="#F7F7F7" stroke-width="2.4" fill="#F7F7F7" />
<circle cx="264.85263157894735" cy="94.4" r="2.4" stroke="#ba0f27" stroke-width="2.4" fill="#ba0f27"  />
<circle cx="288.2842105263158" cy="122.73962264150944" r="2.4" stroke="#F7F7F7" stroke-width="2.4" fill="#F7F7F7" />
<circle cx="288.2842105263158" cy="122.73962264150944" r="2.4" stroke="#ba0f27" stroke-width="2.4" fill="#ba0f27"  />
<circle cx="311.71578947368425" cy="162.41509433962264" r="2.4" stroke="#F7F7F7" stroke-width="2.4" fill="#F7F7F7" />
<circle cx="311.71578947368425" cy="162.41509433962264" r="2.4" stroke="#ba0f27" stroke-width="2.4" fill="#ba0f27"  />
<circle cx="335.14736842105265" cy="206.34150943396224" r="2.4" stroke="#F7F7F7" stroke-width="2.4" fill="#F7F7F7" />
<circle cx="335.14736842105265" cy="206.34150943396224" r="2.4" stroke="#ba0f27" stroke-width="2.4" fill="#ba0f27"  />
<circle cx="358.57894736842104" cy="221.92830188679244" r="2.4" stroke="#F7F7F7" stroke-width="2.4" fill="#F7F7F7" />
<circle cx="358.57894736842104" cy="221.92830188679244" r="2.4" stroke="#ba0f27" stroke-width="2.4" fill="#ba0f27"  />
<circle cx="382.01052631578943" cy="209.1754716981132" r="2.4" stroke="#F7F7F7" stroke-width="2.4" fill="#F7F7F7" />
<circle cx="382.01052631578943" cy="209.1754716981132" r="2.4" stroke="#ba0f27" stroke-width="2.4" fill="#ba0f27"  />
<circle cx="405.44210526315794" cy="203.50754716981132" r="2.4" stroke="#F7F7F7" stroke-width="2.4" fill="#F7F7F7" />
<circle cx="405.44210526315794" cy="203.50754716981132" r="2.4" stroke="#ba0f27" stroke-width="2.4" fill="#ba0f27"  />
<circle cx="428.87368421052633" cy="223.34528301886792" r="2.4" stroke="#F7F7F7" stroke-width="2.4" fill="#F7F7F7" />
<circle cx="428.87368421052633" cy="223.34528301886792" r="2.4" stroke="#ba0f27" stroke-width="2.4" fill="#ba0f27"  />
<circle cx="452.30526315789473" cy="209.1754716981132" r="2.4" stroke="#F7F7F7" stroke-width="2.4" fill="#F7F7F7" />
<circle cx="452.30526315789473" cy="209.1754716981132" r="2.4" stroke="#ba0f27" stroke-width="2.4" fill="#ba0f27"  />
<circle cx="475.7368421052631" cy="219.0943396226415" r="2.4" stroke="#F7F7F7" stroke-width="2.4" fill="#F7F7F7" />
<circle cx="475.7368421052631" cy="219.0943396226415" r="2.4" stroke="#ba0f27" stroke-width="2.4" fill="#ba0f27"  />
<circle cx="499.16842105263163" cy="244.6" r="2.4" stroke="#F7F7F7" stroke-width="2.4" fill="#F7F7F7" />
<circle cx="499.16842105263163" cy="244.6" r="2.4" stroke="#ba0f27" stroke-width="2.4" fill="#ba0f27"  />
<circle cx="522.6" cy="223.34528301886792" r="2.4" stroke="#F7F7F7" stroke-width="2.4" fill="#F7F7F7" />
<circle cx="522.6" cy="223.34528301886792" r="2.4" stroke="#ba0f27" stroke-width="2.4" fill="#ba0f27"  />
<polyline points="77.4,150.33457854912956 100.83157894736843,184.28192790917802" style="fill:none;stroke:#000000;stroke-width:2.7" stroke-dasharray="3,1"  />
<polyline points="100.83157894736843,184.28192790917802 124.26315789473685,122.7576003433456" style="fill:none;stroke:#000000;stroke-width:2.7" stroke-dasharray="3,1"  />
<polyline points="124.26315789473685,122.7576003433456 147.69473684210527,178.37074624759686" style="fill:none;stroke:#000000;stroke-width:2.7" stroke-dasharray="3,1"  />
<polyline points="147.69473684210527,178.37074624759686 171.1263157894737,142.64094690489208" style="fill:none;stroke:#000000;stroke-width:2.7" stroke-dasharray="3,1"  />
<polyline points="171.1263157894737,142.64094690489208 194.55789473684212,173.54969810278027" style="fill:none;stroke:#000000;stroke-width:2.7" stroke-dasharray="3,1"  />
<polyline points="194.55789473684212,173.54969810278027 217.98947368421054,155.71548465233315" style="fill:none;stroke:#000000;stroke-width:2.7" stroke-dasharray="3,1"  />
<polyline points="217.98947368421054,155.71548465233315 241.42105263157896,94.4" style="fill:none;stroke:#000000;stroke-width:2.7" stroke-dasharray="3,1"  />
<polyline points="241.42105263157896,94.4 264.85263157894735,105.91505958575115" style="fill:none;stroke:#000000;stroke-width:2.7" stroke-dasharray="3,1"  />
<polyline points="264.85263157894735,105.91505958575115 288.2842105263158,122.7576003433456" style="fill:none;stroke:#000000;stroke-width:2.7" stroke-dasharray="3,1"  />
<polyline points="288.2842105263158,122.7576003433456 311.71578947368425,170.60867770781522" style="fill:none;stroke:#000000;stroke-width:2.7" stroke-dasharray="3,1"  />
<polyline points="311.71578947368425,170.60867770781522 335.14736842105265,194.46313032435577" style="fill:none;stroke:#000000;stroke-width:2.7" stroke-dasharray="3,1"  />
<polyline points="335.14736842105265,194.46313032435577 358.57894736842104,215.36640739368926" style="fill:none;stroke:#000000;stroke-width:2.7" stroke-dasharray="3,1"  />
<polyline points="358.57894736842104,215.36640739368926 382.01052631578943,244.6" style="fill:none;stroke:#000000;stroke-width:2.7" stroke-dasharray="3,1"  />
<polyline points="382.01052631578943,244.6 405.44210526315794,233.2787713635642" style="fill:none;stroke:#000000;stroke-width:2.7" stroke-dasharray="3,1"  />
<polyline points="405.44210526315794,233.2787713635642 428.87368421052633,226.7114785614759" style="fill:none;stroke:#000000;stroke-width:2.7" stroke-dasharray="3,1"  />
<polyline points="428.87368421052633,226.7114785614759 452.30526315789473,213.87095084395997" style="fill:none;stroke:#000000;stroke-width:2.7" stroke-dasharray="3,1"  />
<polyline points="452.30526315789473,213.87095084395997 475.7368421052631,205.97642379667354" style="fill:none;stroke:#000000;stroke-width:2.7" stroke-dasharray="3,1"  />
<polyline points="475.7368421052631,205.97642379667354 499.16842105263163,185.97209846493934" style="fill:none;stroke:#000000;stroke-width:2.7" stroke-dasharray="3,1"  />
<polyline points="499.16842105263163,185.97209846493934 522.6,243.18887536671545" style="fill:none;stroke:#000000;stroke-width:2.7" stroke-dasharray="3,1"  />
<polygon points="74.52000000000001,150.33457854912956 77.4,147.45457854912956 80.28,150.33457854912956 77.4,153.21457854912956" stroke="#F7F7F7" stroke-width="2.4" fill="#F7F7F7"  />
<polygon points="74.52000000000001,150.33457854912956 77.4,147.45457854912956 80.28,150.33457854912956 77.4,153.21457854912956" stroke="#000000" stroke-width="2.4" fill="#000000"  />
<polygon points="97.95157894736843,184.28192790917802 100.83157894736843,181.40192790917803 103.71157894736842,184.28192790917802 100.83157894736843,187.16192790917802" stroke="#F7F7F7" stroke-width="2.4" fill="#F7F7F7"  />
<polygon points="97.95157894736843,184.28192790917802 100.83157894736843,181.40192790917803 103.71157894736842,184.28192790917802 100.83157894736843,187.16192790917802" stroke="#000000" stroke-width="2.4" fill="#000000"  />
<polygon points="121.38315789473685,122.7576003433456 124.26315789473685,119.8776003433456 127.14315789473685,122.7576003433456 124.26315789473685,125.6376003433456" stroke="#F7F7F7" stroke-width="2.4" fill="#F7F7F7"  />
<polygon points="121.38315789473685,122.7576003433456 124.26315789473685,119.8776003433456 127.14315789473685,122.7576003433456 124.26315789473685,125.6376003433456" stroke="#000000" stroke-width="2.4" fill="#000000"  />
<polygon points="144.81473684210528,178.37074624759686 147.69473684210527,175.49074624759686 150.57473684210527,178.37074624759686 147.69473684210527,181.25074624759685" stroke="#F7F7F7" stroke-width="2.4" fill="#F7F7F7"  />
<polygon points="144.81473684210528,178.37074624759686 147.69473684210527,175.49074624759686 150.57473684210527,178.37074624759686 147.69473684210527,181.25074624759685" stroke="#000000" stroke-width="2.4" fill="#000000"  />
<polygon points="168.2463157894737,142.64094690489208 171.1263157894737,139.76094690489208 174.0063157894737,142.64094690489208 171.1263157894737,145.52094690489207" stroke="#F7F7F7" stroke-width="2.4" fill="#F7F7F7"  />
<polygon points="168.2463157894737,142.64094690489208 171.1263157894737,139.76094690489208 174.0063157894737,142.64094690489208 171.1263157894737,145.52094690489207" stroke="#000000" stroke-width="2.4" fill="#000000"  />
<polygon points="191.67789473684212,173.54969810278027 194.55789473684212,170.66969810278027 197.4378947368421,173.54969810278027 194.55789473684212,176.42969810278026" stroke="#F7F7F7" stroke-width="2.4" fill="#F7F7F7"  />
<polygon points="191.67789473684212,173.54969810278027 194.55789473684212,170.66969810278027 197.4378947368421,173.54969810278027 194.55789473684212,176.42969810278026" stroke="#000000" stroke-width="2.4" fill="#000000"  />
<polygon points="215.10947368421054,155.71548465233315 217.98947368421054,152.83548465233315 220.86947368421053,155.71548465233315 217.98947368421054,158.59548465233314" stroke="#F7F7F7" stroke-width="2.4" fill="#F7F7F7"  />
<polygon points="215.10947368421054,155.71548465233315 217.98947368421054,152.83548465233315 220.86947368421053,155.71548465233315 217.98947368421054,158.59548465233314" stroke="#000000" stroke-width="2.4" fill="#000000"  />
<polygon points="238.54105263157896,94.4 241.42105263157896,91.52000000000001 244.30105263157895,94.4 241.42105263157896,97.28" stroke="#F7F7F7" stroke-width="2.4" fill="#F7F7F7"  />
<polygon points="238.54105263157896,94.4 241.42105263157896,91.52000000000001 244.30105263157895,94.4 241.42105263157896,97.28" stroke="#000000" stroke-width="2.4" fill="#000000"  />
<polygon points="261.97263157894736,105.91505958575115 264.85263157894735,103.03505958575116 267.73263157894735,105.91505958575115 264.85263157894735,108.79505958575115" stroke="#F7F7F7" stroke-width="2.4" fill="#F7F7F7"  />
<polygon points="261.97263157894736,105.91505958575115 264.85263157894735,103.03505958575116 267.73263157894735,105.91505958575115 264.85263157894735,108.79505958575115" stroke="#000000" stroke-width="2.4" fill="#000000"  />
<polygon points="285.4042105263158,122.7576003433456 288.2842105263158,119.8776003433456 291.1642105263158,122.7576003433456 288.2842105263158,125.6376003433456" stroke="#F7F7F7" stroke-width="2.4" fill="#F7F7F7"  />
<polygon points="285.4042105263158,122.7576003433456 288.2842105263158,119.8776003433456 291.1642105263158,122.7576003433456 288.2842105263158,125.6376003433456" stroke="#000000" stroke-width="2.4" fill="#000000"  />
<polygon points="308.83578947368426,170.60867770781522 311.71578947368425,167.72867770781522 314.59578947368425,170.60867770781522 311.71578947368425,173.4886777078152" stroke="#F7F7F7" stroke-width="2.4" fill="#F7F7F7"  />
<polygon points="308.83578947368426,170.60867770781522 311.71578947368425,167.72867770781522 314.59578947368425,170.60867770781522 311.71578947368425,173.4886777078152" stroke="#000000" stroke-width="2.4" fill="#000000"  />
<polygon points="332.26736842105265,194.46313032435577 335.14736842105265,191.58313032435578 338.02736842105264,194.46313032435577 335.14736842105265,197.34313032435577" stroke="#F7F7F7" stroke-width="2.4" fill="#F7F7F7"  />
<polygon points="332.26736842105265,194.46313032435577 335.14736842105265,191.58313032435578 338.02736842105264,194.46313032435577 335.14736842105265,197.34313032435577" stroke="#000000" stroke-width="2.4" fill="#000000"  />
<polygon points="355.69894736842105,215.36640739368926 358.57894736842104,212.48640739368926 361.45894736842104,215.36640739368926 358.57894736842104,218.24640739368925" stroke="#F7F7F7" stroke-width="2.4" fill="#F7F7F7"  />
<polygon points="355.69894736842105,215.36640739368926 358.57894736842104,212.48640739368926 361.45894736842104,215.36640739368926 358.57894736842104,218.24640739368925" stroke="#000000" stroke-width="2.4" fill="#000000"  />
<polygon points="379.13052631578944,244.6 382.01052631578943,241.72 384.89052631578943,244.6 382.01052631578943,247.48" stroke="#F7F7F7" stroke-width="2.4" fill="#F7F7F7"  />
<polygon points="379.13052631578944,244.6 382.01052631578943,241.72 384.89052631578943,244.6 382.01052631578943,247.48" stroke="#000000" stroke-width="2.4" fill="#000000"  />
<polygon points="402.56210526315795,233.2787713635642 405.44210526315794,230.3987713635642 408.32210526315794,233.2787713635642 405.44210526315794,236.1587713635642" stroke="#F7F7F7" stroke-width="2.4" fill="#F7F7F7"  />
<polygon points="402.56210526315795,233.2787713635642 405.44210526315794,230.3987713635642 408.32210526315794,233.2787713635642 405.44210526315794,236.1587713635642" stroke="#000000" stroke-width="2.4" fill="#000000"  />
<polygon points="425.99368421052634,226.7114785614759 428.87368421052633,223.8314785614759 431.75368421052633,226.7114785614759 428.87368421052633,229.5914785614759" stroke="#F7F7F7" stroke-width="2.4" fill="#F7F7F7"  />
<polygon points="425.99368421052634,226.7114785614759 428.87368421052633,223.8314785614759 431.75368421052633,226.7114785614759 428.87368421052633,229.5914785614759" stroke="#000000" stroke-width="2.4" fill="#000000"  />
<polygon points="449.42526315789473,213.87095084395997 452.30526315789473,210.99095084395998 455.1852631578947,213.87095084395997 452.30526315789473,216.75095084395997" stroke="#F7F7F7" stroke-width="2.4" fill="#F7F7F7"  />
<polygon points="449.42526315789473,213.87095084395997 452.30526315789473,210.99095084395998 455.1852631578947,213.87095084395997 452.30526315789473,216.75095084395997" stroke="#000000" stroke-width="2.4" fill="#000000"  />
<polygon points="472.8568421052631,205.97642379667354 475.7368421052631,203.09642379667355 478.6168421052631,205.97642379667354 475.7368421052631,208.85642379667354" stroke="#F7F7F7" stroke-width="2.4" fill="#F7F7F7"  />
<polygon points="472.8568421052631,205.97642379667354 475.7368421052631,203.09642379667355 478.6168421052631,205.97642379667354 475.7368421052631,208.85642379667354" stroke="#000000" stroke-width="2.4" fill="#000000"  />
<polygon points="496.28842105263163,185.97209846493934 499.16842105263163,183.09209846493934 502.0484210526316,185.97209846493934 499.16842105263163,188.85209846493933" stroke="#F7F7F7" stroke-width="2.4" fill="#F7F7F7"  />
<polygon points="496.28842105263163,185.97209846493934 499.16842105263163,183.09209846493934 502.0484210526316,185.97209846493934 499.16842105263163,188.85209846493933" stroke="#000000" stroke-width="2.4" fill="#000000"  />
<polygon points="519.72,243.18887536671545 522.6,240.30887536671545 525.48,243.18887536671545 522.6,246.06887536671545" stroke="#F7F7F7" stroke-width="2.4" fill="#F7F7F7"  />
<polygon points="519.72,243.18887536671545 522.6,240.30887536671545 525.48,243.18887536671545 522.6,246.06887536671545" stroke="#000000" stroke-width="2.4" fill="#000000"  />
</svg>