<svg width="600" height="376" xmlns="http://www.w3.org/2000/svg"> <rect width="100%" height="100%" fill="#FEFEFE" />
<line x1="70" y1="256" x2="530" y2="256" stroke="#9f9f9f" stroke-width="1" />
<rect x="70" y="87" width="460" height="169" fill="#FEFEFE" />
<text text-anchor="middle" x="300.0" y="20" font-family="'Helvetica Neue', Arial, sans-serif" font-weight="bold" font-size="22" fill="#000000">Butter consumption</text>
<text text-anchor="middle" x="300.0" y="42" font-family="'Helvetica Neue', Arial, sans-serif" font-size="14" fill="#000000">correlates with</text>
<text text-anchor="middle" x="300.0" y="68" font-family="'Helvetica Neue', Arial, sans-serif" font-weight="bold" font-size="22" fill="#ba0f27">Wind power generated in United States</text>
<text text-anchor="start" x="23" y="301.3333333333333" font-family="'Helvetica Neue', Arial, sans-serif" font-size="14" fill="#9f9f9f">Per capita consumption of Butter  in the US &#183; Source: USDA</text>
<text text-anchor="start" x="23" y="324.66666666666663" font-family="'Helvetica Neue', Arial, sans-serif" font-size="14" fill="#9f9f9f">Total wind power generated in United States in billion kWh &#183; Source: Energy</text>
<text text-anchor="start" x="23" y="340.66666666666663" font-family="'Helvetica Neue', Arial, sans-serif" font-size="14" fill="#9f9f9f">Information Administration</text>
<text text-anchor="start" x="23" y="363.99999999999994" font-family="'Helvetica Neue', Arial, sans-serif" font-size="14" fill="#9f9f9f">1990-2021, r=0.976, r&#178;=0.952, p&lt;0.01  &#183;  tylervigen.com/spurious/correlation/2205</text>
<polyline points="5,296.66666666666663 20,296.66666666666663" style="fill:none;stroke:#000000;stroke-width:1.75" stroke-dasharray="3,1" />
<polygon points="3.14,296.66666666666663 5,294.8066666666666 6.859999999999999,296.66666666666663 5,298.52666666666664" stroke="#F7F7F7" stroke-width="1.55" fill="#F7F7F7"  />
<polygon points="3.14,296.66666666666663 5,294.8066666666666 6.859999999999999,296.66666666666663 5,298.52666666666664" stroke="#000000" stroke-width="1.55" fill="#000000"  />
<polyline points="5,319.99999999999994 20,319.99999999999994" style="fill:none;stroke:#ba0f27;stroke-width:1.75" />
<circle cx="5" cy="319.99999999999994" r="1.55" stroke="#F7F7F7" stroke-width="1.55" fill="#F7F7F7" />
<circle cx="5" cy="319.99999999999994" r="1.55" stroke="#ba0f27" stroke-width="1.55" fill="#ba0f27"  />
<text x="5" y="176.5" transform="rotate(270 5 171.5)" text-anchor="middle" fill="#000000" font-family="'Helvetica Neue', Arial, sans-serif" font-size="14" dominant-baseline="central">Pounds per person</text>
<text x="171.5" y="-389" transform="rotate(90 100 100)" text-anchor="middle" fill="#ba0f27" font-family="'Helvetica Neue', Arial, sans-serif" font-size="14" dominant-baseline="central">Billion kWh</text>
<line x1="71" y1="93.55" x2="528" y2="93.55" stroke="#F3F3F3" stroke-width="1" fill="#FEFEFE" />
<text text-anchor="end" x="62" y="98.21666666666667" font-family="'Helvetica Neue', Arial, sans-serif" font-size="12" fill="#000000">6.5</text>
<text text-anchor="start" x="538" y="98.21666666666667" font-family="'Helvetica Neue', Arial, sans-serif" font-size="12" fill="#ba0f27">380</text>
<line x1="71" y1="132.525" x2="528" y2="132.525" stroke="#F3F3F3" stroke-width="1" fill="#FEFEFE" />
<text text-anchor="end" x="62" y="137.19166666666666" font-family="'Helvetica Neue', Arial, sans-serif" font-size="12">5.9</text>
<text text-anchor="start" x="538" y="137.19166666666666" font-family="'Helvetica Neue', Arial, sans-serif" font-size="12" fill="#ba0f27">286</text>
<line x1="71" y1="171.5" x2="528" y2="171.5" stroke="#F3F3F3" stroke-width="1" fill="#FEFEFE" />
<text text-anchor="end" x="62" y="176.16666666666666" font-family="'Helvetica Neue', Arial, sans-serif" font-size="12">5.3</text>
<text text-anchor="start" x="538" y="176.16666666666666" font-family="'Helvetica Neue', Arial, sans-serif" font-size="12" fill="#ba0f27">191</text>
<line x1="71" y1="210.47500000000002" x2="528" y2="210.47500000000002" stroke="#F3F3F3" stroke-width="1" fill="#FEFEFE" />
<text text-anchor="end" x="62" y="215.14166666666668" font-family="'Helvetica Neue', Arial, sans-serif" font-size="12">4.8</text>
<text text-anchor="start" x="538" y="215.14166666666668" font-family="'Helvetica Neue', Arial, sans-serif" font-size="12" fill="#ba0f27">97</text>
<line x1="71" y1="249.45" x2="528" y2="249.45" stroke="#F3F3F3" stroke-width="1" fill="#FEFEFE" />
<text text-anchor="end" x="62" y="254.11666666666665" font-family="'Helvetica Neue', Arial, sans-serif" font-size="12">4.2</text>
<text text-anchor="start" x="538" y="254.11666666666665" font-family="'Helvetica Neue', Arial, sans-serif" font-size="12" fill="#ba0f27">3</text>
<polyline points="76.55000000000003,256 76.55000000000003,262" style="fill:none;stroke:#000000;stroke-width:1" />
<polyline points="148.63064516129035,256 148.63064516129035,262" style="fill:none;stroke:#000000;stroke-width:1" />
<polyline points="220.71129032258068,256 220.71129032258068,262" style="fill:none;stroke:#000000;stroke-width:1" />
<polyline points="292.791935483871,256 292.791935483871,262" style="fill:none;stroke:#000000;stroke-width:1" />
<polyline points="364.8725806451613,256 364.8725806451613,262" style="fill:none;stroke:#000000;stroke-width:1" />
<polyline points="436.9532258064516,256 436.9532258064516,262" style="fill:none;stroke:#000000;stroke-width:1" />
<polyline points="509.03387096774196,256 509.03387096774196,262" style="fill:none;stroke:#000000;stroke-width:1" />
<text text-anchor="middle" x="76.55000000000003" y="277" font-weight="bold" font-family="'Helvetica Neue', Arial, sans-serif" font-size="14">1990</text>
<text text-anchor="middle" x="148.63064516129035" y="277" font-weight="bold" font-family="'Helvetica Neue', Arial, sans-serif" font-size="14">1995</text>
<text text-anchor="middle" x="220.71129032258068" y="277" font-weight="bold" font-family="'Helvetica Neue', Arial, sans-serif" font-size="14">2000</text>
<text text-anchor="middle" x="292.791935483871" y="277" font-weight="bold" font-family="'Helvetica Neue', Arial, sans-serif" font-size="14">2005</text>
<text text-anchor="middle" x="364.8725806451613" y="277" font-weight="bold" font-family="'Helvetica Neue', Arial, sans-serif" font-size="14">2010</text>
<text text-anchor="middle" x="436.9532258064516" y="277" font-weight="bold" font-family="'Helvetica Neue', Arial, sans-serif" font-size="14">2015</text>
<text text-anchor="middle" x="509.03387096774196" y="277" font-weight="bold" font-family="'Helvetica Neue', Arial, sans-serif" font-size="14">2020</text>
<polyline points="76.55000000000003,249.45 90.9661290322581,249.38285990656226" style="fill:none;stroke:#ba0f27;stroke-width:1.75"  />
<polyline points="90.9661290322581,249.38285990656226 105.38225806451615,249.40909148110342" style="fill:none;stroke:#ba0f27;stroke-width:1.75"  />
<polyline points="105.38225806451615,249.40909148110342 119.79838709677422,249.36016419773648" style="fill:none;stroke:#ba0f27;stroke-width:1.75"  />
<polyline points="119.79838709677422,249.36016419773648 134.2145161290323,249.17767217166818" style="fill:none;stroke:#ba0f27;stroke-width:1.75"  />
<polyline points="134.2145161290323,249.17767217166818 148.63064516129035,249.29464936187327" style="fill:none;stroke:#ba0f27;stroke-width:1.75"  />
<polyline points="148.63064516129035,249.29464936187327 163.0467741935484,249.26577519295535" style="fill:none;stroke:#ba0f27;stroke-width:1.75"  />
<polyline points="163.0467741935484,249.26577519295535 177.46290322580649,249.24345995155159" style="fill:none;stroke:#ba0f27;stroke-width:1.75"  />
<polyline points="177.46290322580649,249.24345995155159 191.87903225806454,249.35194692852428" style="fill:none;stroke:#ba0f27;stroke-width:1.75"  />
<polyline points="191.87903225806454,249.35194692852428 206.2951612903226,248.74721050330731" style="fill:none;stroke:#ba0f27;stroke-width:1.75"  />
<polyline points="206.2951612903226,248.74721050330731 220.71129032258068,248.29012852195245" style="fill:none;stroke:#ba0f27;stroke-width:1.75"  />
<polyline points="220.71129032258068,248.29012852195245 235.1274193548387,247.81699660511055" style="fill:none;stroke:#ba0f27;stroke-width:1.75"  />
<polyline points="235.1274193548387,247.81699660511055 249.5435483870968,246.3211930710088" style="fill:none;stroke:#ba0f27;stroke-width:1.75"  />
<polyline points="249.5435483870968,246.3211930710088 263.9596774193549,245.97662192316585" style="fill:none;stroke:#ba0f27;stroke-width:1.75"  />
<polyline points="263.9596774193549,245.97662192316585 278.3758064516129,244.7540808438892" style="fill:none;stroke:#ba0f27;stroke-width:1.75"  />
<polyline points="278.3758064516129,244.7540808438892 292.791935483871,243.23767003626733" style="fill:none;stroke:#ba0f27;stroke-width:1.75"  />
<polyline points="292.791935483871,243.23767003626733 307.20806451612907,239.60726643754657" style="fill:none;stroke:#ba0f27;stroke-width:1.75"  />
<polyline points="307.20806451612907,239.60726643754657 321.6241935483871,236.35642044743145" style="fill:none;stroke:#ba0f27;stroke-width:1.75"  />
<polyline points="321.6241935483871,236.35642044743145 336.0403225806452,227.70773426275883" style="fill:none;stroke:#ba0f27;stroke-width:1.75"  />
<polyline points="336.0403225806452,227.70773426275883 350.4564516129032,220.04751898251993" style="fill:none;stroke:#ba0f27;stroke-width:1.75"  />
<polyline points="350.4564516129032,220.04751898251993 364.8725806451613,211.4596662302137" style="fill:none;stroke:#ba0f27;stroke-width:1.75"  />
<polyline points="364.8725806451613,211.4596662302137 379.2887096774194,200.9038457375807" style="fill:none;stroke:#ba0f27;stroke-width:1.75"  />
<polyline points="379.2887096774194,200.9038457375807 393.7048387096774,192.36607407745376" style="fill:none;stroke:#ba0f27;stroke-width:1.75"  />
<polyline points="393.7048387096774,192.36607407745376 408.1209677419355,181.19273841684299" style="fill:none;stroke:#ba0f27;stroke-width:1.75"  />
<polyline points="408.1209677419355,181.19273841684299 422.53709677419357,175.47952381356595" style="fill:none;stroke:#ba0f27;stroke-width:1.75"  />
<polyline points="422.53709677419357,175.47952381356595 436.9532258064516,171.73109260371416" style="fill:none;stroke:#ba0f27;stroke-width:1.75"  />
<polyline points="436.9532258064516,171.73109260371416 451.3693548387097,156.72992383648506" style="fill:none;stroke:#ba0f27;stroke-width:1.75"  />
<polyline points="451.3693548387097,156.72992383648506 465.78548387096777,145.4358311245419" style="fill:none;stroke:#ba0f27;stroke-width:1.75"  />
<polyline points="465.78548387096777,145.4358311245419 480.2016129032258,137.84137054006277" style="fill:none;stroke:#ba0f27;stroke-width:1.75"  />
<polyline points="480.2016129032258,137.84137054006277 494.6177419354839,128.24077140759258" style="fill:none;stroke:#ba0f27;stroke-width:1.75"  />
<polyline points="494.6177419354839,128.24077140759258 509.03387096774196,110.84844760336401" style="fill:none;stroke:#ba0f27;stroke-width:1.75"  />
<polyline points="509.03387096774196,110.84844760336401 523.45,93.55" style="fill:none;stroke:#ba0f27;stroke-width:1.75"  />
<circle cx="76.55000000000003" cy="249.45" r="1.55" stroke="#F7F7F7" stroke-width="1.55" fill="#F7F7F7" />
<circle cx="76.55000000000003" cy="249.45" r="1.55" stroke="#ba0f27" stroke-width="1.55" fill="#ba0f27"  />
<circle cx="90.9661290322581" cy="249.38285990656226" r="1.55" stroke="#F7F7F7" stroke-width="1.55" fill="#F7F7F7" />
<circle cx="90.9661290322581" cy="249.38285990656226" r="1.55" stroke="#ba0f27" stroke-width="1.55" fill="#ba0f27"  />
<circle cx="105.38225806451615" cy="249.40909148110342" r="1.55" stroke="#F7F7F7" stroke-width="1.55" fill="#F7F7F7" />
<circle cx="105.38225806451615" cy="249.40909148110342" r="1.55" stroke="#ba0f27" stroke-width="1.55" fill="#ba0f27"  />
<circle cx="119.79838709677422" cy="249.36016419773648" r="1.55" stroke="#F7F7F7" stroke-width="1.55" fill="#F7F7F7" />
<circle cx="119.79838709677422" cy="249.36016419773648" r="1.55" stroke="#ba0f27" stroke-width="1.55" fill="#ba0f27"  />
<circle cx="134.2145161290323" cy="249.17767217166818" r="1.55" stroke="#F7F7F7" stroke-width="1.55" fill="#F7F7F7" />
<circle cx="134.2145161290323" cy="249.17767217166818" r="1.55" stroke="#ba0f27" stroke-width="1.55" fill="#ba0f27"  />
<circle cx="148.63064516129035" cy="249.29464936187327" r="1.55" stroke="#F7F7F7" stroke-width="1.55" fill="#F7F7F7" />
<circle cx="148.63064516129035" cy="249.29464936187327" r="1.55" stroke="#ba0f27" stroke-width="1.55" fill="#ba0f27"  />
<circle cx="163.0467741935484" cy="249.26577519295535" r="1.55" stroke="#F7F7F7" stroke-width="1.55" fill="#F7F7F7" />
<circle cx="163.0467741935484" cy="249.26577519295535" r="1.55" stroke="#ba0f27" stroke-width="1.55" fill="#ba0f27"  />
<circle cx="177.46290322580649" cy="249.24345995155159" r="1.55" stroke="#F7F7F7" stroke-width="1.55" fill="#F7F7F7" />
<circle cx="177.46290322580649" cy="249.24345995155159" r="1.55" stroke="#ba0f27" stroke-width="1.55" fill="#ba0f27"  />
<circle cx="191.87903225806454" cy="249.35194692852428" r="1.55" stroke="#F7F7F7" stroke-width="1.55" fill="#F7F7F7" />
<circle cx="191.87903225806454" cy="249.35194692852428" r="1.55" stroke="#ba0f27" stroke-width="1.55" fill="#ba0f27"  />
<circle cx="206.2951612903226" cy="248.74721050330731" r="1.55" stroke="#F7F7F7" stroke-width="1.55" fill="#F7F7F7" />
<circle cx="206.2951612903226" cy="248.74721050330731" r="1.55" stroke="#ba0f27" stroke-width="1.55" fill="#ba0f27"  />
<circle cx="220.71129032258068" cy="248.29012852195245" r="1.55" stroke="#F7F7F7" stroke-width="1.55" fill="#F7F7F7" />
<circle cx="220.71129032258068" cy="248.29012852195245" r="1.55" stroke="#ba0f27" stroke-width="1.55" fill="#ba0f27"  />
<circle cx="235.1274193548387" cy="247.81699660511055" r="1.55" stroke="#F7F7F7" stroke-width="1.55" fill="#F7F7F7" />
<circle cx="235.1274193548387" cy="247.81699660511055" r="1.55" stroke="#ba0f27" stroke-width="1.55" fill="#ba0f27"  />
<circle cx="249.5435483870968" cy="246.3211930710088" r="1.55" stroke="#F7F7F7" stroke-width="1.55" fill="#F7F7F7" />
<circle cx="249.5435483870968" cy="246.3211930710088" r="1.55" stroke="#ba0f27" stroke-width="1.55" fill="#ba0f27"  />
<circle cx="263.9596774193549" cy="245.97662192316585" r="1.55" stroke="#F7F7F7" stroke-width="1.55" fill="#F7F7F7" />
<circle cx="263.9596774193549" cy="245.97662192316585" r="1.55" stroke="#ba0f27" stroke-width="1.55" fill="#ba0f27"  />
<circle cx="278.3758064516129" cy="244.7540808438892" r="1.55" stroke="#F7F7F7" stroke-width="1.55" fill="#F7F7F7" />
<circle cx="278.3758064516129" cy="244.7540808438892" r="1.55" stroke="#ba0f27" stroke-width="1.55" fill="#ba0f27"  />
<circle cx="292.791935483871" cy="243.23767003626733" r="1.55" stroke="#F7F7F7" stroke-width="1.55" fill="#F7F7F7" />
<circle cx="292.791935483871" cy="243.23767003626733" r="1.55" stroke="#ba0f27" stroke-width="1.55" fill="#ba0f27"  />
<circle cx="307.20806451612907" cy="239.60726643754657" r="1.55" stroke="#F7F7F7" stroke-width="1.55" fill="#F7F7F7" />
<circle cx="307.20806451612907" cy="239.60726643754657" r="1.55" stroke="#ba0f27" stroke-width="1.55" fill="#ba0f27"  />
<circle cx="321.6241935483871" cy="236.35642044743145" r="1.55" stroke="#F7F7F7" stroke-width="1.55" fill="#F7F7F7" />
<circle cx="321.6241935483871" cy="236.35642044743145" r="1.55" stroke="#ba0f27" stroke-width="1.55" fill="#ba0f27"  />
<circle cx="336.0403225806452" cy="227.70773426275883" r="1.55" stroke="#F7F7F7" stroke-width="1.55" fill="#F7F7F7" />
<circle cx="336.0403225806452" cy="227.70773426275883" r="1.55" stroke="#ba0f27" stroke-width="1.55" fill="#ba0f27"  />
<circle cx="350.4564516129032" cy="220.04751898251993" r="1.55" stroke="#F7F7F7" stroke-width="1.55" fill="#F7F7F7" />
<circle cx="350.4564516129032" cy="220.04751898251993" r="1.55" stroke="#ba0f27" stroke-width="1.55" fill="#ba0f27"  />
<circle cx="364.8725806451613" cy="211.4596662302137" r="1.55" stroke="#F7F7F7" stroke-width="1.55" fill="#F7F7F7" />
<circle cx="364.8725806451613" cy="211.4596662302137" r="1.55" stroke="#ba0f27" stroke-width="1.55" fill="#ba0f27"  />
<circle cx="379.2887096774194" cy="200.9038457375807" r="1.55" stroke="#F7F7F7" stroke-width="1.55" fill="#F7F7F7" />
<circle cx="379.2887096774194" cy="200.9038457375807" r="1.55" stroke="#ba0f27" stroke-width="1.55" fill="#ba0f27"  />
<circle cx="393.7048387096774" cy="192.36607407745376" r="1.55" stroke="#F7F7F7" stroke-width="1.55" fill="#F7F7F7" />
<circle cx="393.7048387096774" cy="192.36607407745376" r="1.55" stroke="#ba0f27" stroke-width="1.55" fill="#ba0f27"  />
<circle cx="408.1209677419355" cy="181.19273841684299" r="1.55" stroke="#F7F7F7" stroke-width="1.55" fill="#F7F7F7" />
<circle cx="408.1209677419355" cy="181.19273841684299" r="1.55" stroke="#ba0f27" stroke-width="1.55" fill="#ba0f27"  />
<circle cx="422.53709677419357" cy="175.47952381356595" r="1.55" stroke="#F7F7F7" stroke-width="1.55" fill="#F7F7F7" />
<circle cx="422.53709677419357" cy="175.47952381356595" r="1.55" stroke="#ba0f27" stroke-width="1.55" fill="#ba0f27"  />
<circle cx="436.9532258064516" cy="171.73109260371416" r="1.55" stroke="#F7F7F7" stroke-width="1.55" fill="#F7F7F7" />
<circle cx="436.9532258064516" cy="171.73109260371416" r="1.55" stroke="#ba0f27" stroke-width="1.55" fill="#ba0f27"  />
<circle cx="451.3693548387097" cy="156.72992383648506" r="1.55" stroke="#F7F7F7" stroke-width="1.55" fill="#F7F7F7" />
<circle cx="451.3693548387097" cy="156.72992383648506" r="1.55" stroke="#ba0f27" stroke-width="1.55" fill="#ba0f27"  />
<circle cx="465.78548387096777" cy="145.4358311245419" r="1.55" stroke="#F7F7F7" stroke-width="1.55" fill="#F7F7F7" />
<circle cx="465.78548387096777" cy="145.4358311245419" r="1.55" stroke="#ba0f27" stroke-width="1.55" fill="#ba0f27"  />
<circle cx="480.2016129032258" cy="137.84137054006277" r="1.55" stroke="#F7F7F7" stroke-width="1.55" fill="#F7F7F7" />
<circle cx="480.2016129032258" cy="137.84137054006277" r="1.55" stroke="#ba0f27" stroke-width="1.55" fill="#ba0f27"  />
<circle cx="494.6177419354839" cy="128.24077140759258" r="1.55" stroke="#F7F7F7" stroke-width="1.55" fill="#F7F7F7" />
<circle cx="494.6177419354839" cy="128.24077140759258" r="1.55" stroke="#ba0f27" stroke-width="1.55" fill="#ba0f27"  />
<circle cx="509.03387096774196" cy="110.84844760336401" r="1.55" stroke="#F7F7F7" stroke-width="1.55" fill="#F7F7F7" />
<circle cx="509.03387096774196" cy="110.84844760336401" r="1.55" stroke="#ba0f27" stroke-width="1.55" fill="#ba0f27"  />
<circle cx="523.45" cy="93.55" r="1.55" stroke="#F7F7F7" stroke-width="1.55" fill="#F7F7F7" />
<circle cx="523.45" cy="93.55" r="1.55" stroke="#ba0f27" stroke-width="1.55" fill="#ba0f27"  />
<polyline points="76.55000000000003,242.67173913043484 90.9661290322581,235.89347826086959" style="fill:none;stroke:#000000;stroke-width:1.75" stroke-dasharray="3,1"  />
<polyline points="90.9661290322581,235.89347826086959 105.38225806451615,242.67173913043484" style="fill:none;stroke:#000000;stroke-width:1.75" stroke-dasharray="3,1"  />
<polyline points="105.38225806451615,242.67173913043484 119.79838709677422,215.55869565217392" style="fill:none;stroke:#000000;stroke-width:1.75" stroke-dasharray="3,1"  />
<polyline points="119.79838709677422,215.55869565217392 134.2145161290323,215.55869565217392" style="fill:none;stroke:#000000;stroke-width:1.75" stroke-dasharray="3,1"  />
<polyline points="134.2145161290323,215.55869565217392 148.63064516129035,222.33695652173918" style="fill:none;stroke:#000000;stroke-width:1.75" stroke-dasharray="3,1"  />
<polyline points="148.63064516129035,222.33695652173918 163.0467741935484,242.67173913043484" style="fill:none;stroke:#000000;stroke-width:1.75" stroke-dasharray="3,1"  />
<polyline points="163.0467741935484,242.67173913043484 177.46290322580649,249.45" style="fill:none;stroke:#000000;stroke-width:1.75" stroke-dasharray="3,1"  />
<polyline points="177.46290322580649,249.45 191.87903225806454,242.67173913043484" style="fill:none;stroke:#000000;stroke-width:1.75" stroke-dasharray="3,1"  />
<polyline points="191.87903225806454,242.67173913043484 206.2951612903226,222.33695652173918" style="fill:none;stroke:#000000;stroke-width:1.75" stroke-dasharray="3,1"  />
<polyline points="206.2951612903226,222.33695652173918 220.71129032258068,229.11521739130438" style="fill:none;stroke:#000000;stroke-width:1.75" stroke-dasharray="3,1"  />
<polyline points="220.71129032258068,229.11521739130438 235.1274193548387,242.67173913043484" style="fill:none;stroke:#000000;stroke-width:1.75" stroke-dasharray="3,1"  />
<polyline points="235.1274193548387,242.67173913043484 249.5435483870968,235.89347826086959" style="fill:none;stroke:#000000;stroke-width:1.75" stroke-dasharray="3,1"  />
<polyline points="249.5435483870968,235.89347826086959 263.9596774193549,229.11521739130438" style="fill:none;stroke:#000000;stroke-width:1.75" stroke-dasharray="3,1"  />
<polyline points="263.9596774193549,229.11521739130438 278.3758064516129,229.11521739130438" style="fill:none;stroke:#000000;stroke-width:1.75" stroke-dasharray="3,1"  />
<polyline points="278.3758064516129,229.11521739130438 292.791935483871,229.11521739130438" style="fill:none;stroke:#000000;stroke-width:1.75" stroke-dasharray="3,1"  />
<polyline points="292.791935483871,229.11521739130438 307.20806451612907,215.55869565217392" style="fill:none;stroke:#000000;stroke-width:1.75" stroke-dasharray="3,1"  />
<polyline points="307.20806451612907,215.55869565217392 321.6241935483871,215.55869565217392" style="fill:none;stroke:#000000;stroke-width:1.75" stroke-dasharray="3,1"  />
<polyline points="321.6241935483871,215.55869565217392 336.0403225806452,195.22391304347826" style="fill:none;stroke:#000000;stroke-width:1.75" stroke-dasharray="3,1"  />
<polyline points="336.0403225806452,195.22391304347826 350.4564516129032,195.22391304347826" style="fill:none;stroke:#000000;stroke-width:1.75" stroke-dasharray="3,1"  />
<polyline points="350.4564516129032,195.22391304347826 364.8725806451613,202.00217391304346" style="fill:none;stroke:#000000;stroke-width:1.75" stroke-dasharray="3,1"  />
<polyline points="364.8725806451613,202.00217391304346 379.2887096774194,168.1108695652174" style="fill:none;stroke:#000000;stroke-width:1.75" stroke-dasharray="3,1"  />
<polyline points="379.2887096774194,168.1108695652174 393.7048387096774,161.3326086956522" style="fill:none;stroke:#000000;stroke-width:1.75" stroke-dasharray="3,1"  />
<polyline points="393.7048387096774,161.3326086956522 408.1209677419355,161.3326086956522" style="fill:none;stroke:#000000;stroke-width:1.75" stroke-dasharray="3,1"  />
<polyline points="408.1209677419355,161.3326086956522 422.53709677419357,161.3326086956522" style="fill:none;stroke:#000000;stroke-width:1.75" stroke-dasharray="3,1"  />
<polyline points="422.53709677419357,161.3326086956522 436.9532258064516,154.554347826087" style="fill:none;stroke:#000000;stroke-width:1.75" stroke-dasharray="3,1"  />
<polyline points="436.9532258064516,154.554347826087 451.3693548387097,147.77608695652174" style="fill:none;stroke:#000000;stroke-width:1.75" stroke-dasharray="3,1"  />
<polyline points="451.3693548387097,147.77608695652174 465.78548387096777,147.77608695652174" style="fill:none;stroke:#000000;stroke-width:1.75" stroke-dasharray="3,1"  />
<polyline points="465.78548387096777,147.77608695652174 480.2016129032258,127.44130434782609" style="fill:none;stroke:#000000;stroke-width:1.75" stroke-dasharray="3,1"  />
<polyline points="480.2016129032258,127.44130434782609 494.6177419354839,113.88478260869564" style="fill:none;stroke:#000000;stroke-width:1.75" stroke-dasharray="3,1"  />
<polyline points="494.6177419354839,113.88478260869564 509.03387096774196,107.10652173913044" style="fill:none;stroke:#000000;stroke-width:1.75" stroke-dasharray="3,1"  />
<polyline points="509.03387096774196,107.10652173913044 523.45,93.55" style="fill:none;stroke:#000000;stroke-width:1.75" stroke-dasharray="3,1"  />
<polygon points="74.69000000000003,242.67173913043484 76.55000000000003,240.81173913043483 78.41000000000003,242.67173913043484 76.55000000000003,244.53173913043486" stroke="#F7F7F7" stroke-width="1.55" fill="#F7F7F7"  />
<polygon points="74.69000000000003,242.67173913043484 76.55000000000003,240.81173913043483 78.41000000000003,242.67173913043484 76.55000000000003,244.53173913043486" stroke="#000000" stroke-width="1.55" fill="#000000"  />
<polygon points="89.1061290322581,235.89347826086959 90.9661290322581,234.03347826086957 92.8261290322581,235.89347826086959 90.9661290322581,237.7534782608696" stroke="#F7F7F7" stroke-width="1.55" fill="#F7F7F7"  />
<polygon points="89.1061290322581,235.89347826086959 90.9661290322581,234.03347826086957 92.8261290322581,235.89347826086959 90.9661290322581,237.7534782608696" stroke="#000000" stroke-width="1.55" fill="#000000"  />
<polygon points="103.52225806451615,242.67173913043484 105.38225806451615,240.81173913043483 107.24225806451615,242.67173913043484 105.38225806451615,244.53173913043486" stroke="#F7F7F7" stroke-width="1.55" fill="#F7F7F7"  />
<polygon points="103.52225806451615,242.67173913043484 105.38225806451615,240.81173913043483 107.24225806451615,242.67173913043484 105.38225806451615,244.53173913043486" stroke="#000000" stroke-width="1.55" fill="#000000"  />
<polygon points="117.93838709677422,215.55869565217392 119.79838709677422,213.6986956521739 121.65838709677422,215.55869565217392 119.79838709677422,217.41869565217394" stroke="#F7F7F7" stroke-width="1.55" fill="#F7F7F7"  />
<polygon points="117.93838709677422,215.55869565217392 119.79838709677422,213.6986956521739 121.65838709677422,215.55869565217392 119.79838709677422,217.41869565217394" stroke="#000000" stroke-width="1.55" fill="#000000"  />
<polygon points="132.35451612903228,215.55869565217392 134.2145161290323,213.6986956521739 136.0745161290323,215.55869565217392 134.2145161290323,217.41869565217394" stroke="#F7F7F7" stroke-width="1.55" fill="#F7F7F7"  />
<polygon points="132.35451612903228,215.55869565217392 134.2145161290323,213.6986956521739 136.0745161290323,215.55869565217392 134.2145161290323,217.41869565217394" stroke="#000000" stroke-width="1.55" fill="#000000"  />
<polygon points="146.77064516129033,222.33695652173918 148.63064516129035,220.47695652173917 150.49064516129036,222.33695652173918 148.63064516129035,224.1969565217392" stroke="#F7F7F7" stroke-width="1.55" fill="#F7F7F7"  />
<polygon points="146.77064516129033,222.33695652173918 148.63064516129035,220.47695652173917 150.49064516129036,222.33695652173918 148.63064516129035,224.1969565217392" stroke="#000000" stroke-width="1.55" fill="#000000"  />
<polygon points="161.1867741935484,242.67173913043484 163.0467741935484,240.81173913043483 164.90677419354842,242.67173913043484 163.0467741935484,244.53173913043486" stroke="#F7F7F7" stroke-width="1.55" fill="#F7F7F7"  />
<polygon points="161.1867741935484,242.67173913043484 163.0467741935484,240.81173913043483 164.90677419354842,242.67173913043484 163.0467741935484,244.53173913043486" stroke="#000000" stroke-width="1.55" fill="#000000"  />
<polygon points="175.60290322580647,249.45 177.46290322580649,247.58999999999997 179.3229032258065,249.45 177.46290322580649,251.31" stroke="#F7F7F7" stroke-width="1.55" fill="#F7F7F7"  />
<polygon points="175.60290322580647,249.45 177.46290322580649,247.58999999999997 179.3229032258065,249.45 177.46290322580649,251.31" stroke="#000000" stroke-width="1.55" fill="#000000"  />
<polygon points="190.01903225806453,242.67173913043484 191.87903225806454,240.81173913043483 193.73903225806455,242.67173913043484 191.87903225806454,244.53173913043486" stroke="#F7F7F7" stroke-width="1.55" fill="#F7F7F7"  />
<polygon points="190.01903225806453,242.67173913043484 191.87903225806454,240.81173913043483 193.73903225806455,242.67173913043484 191.87903225806454,244.53173913043486" stroke="#000000" stroke-width="1.55" fill="#000000"  />
<polygon points="204.43516129032258,222.33695652173918 206.2951612903226,220.47695652173917 208.1551612903226,222.33695652173918 206.2951612903226,224.1969565217392" stroke="#F7F7F7" stroke-width="1.55" fill="#F7F7F7"  />
<polygon points="204.43516129032258,222.33695652173918 206.2951612903226,220.47695652173917 208.1551612903226,222.33695652173918 206.2951612903226,224.1969565217392" stroke="#000000" stroke-width="1.55" fill="#000000"  />
<polygon points="218.85129032258067,229.11521739130438 220.71129032258068,227.25521739130437 222.5712903225807,229.11521739130438 220.71129032258068,230.9752173913044" stroke="#F7F7F7" stroke-width="1.55" fill="#F7F7F7"  />
<polygon points="218.85129032258067,229.11521739130438 220.71129032258068,227.25521739130437 222.5712903225807,229.11521739130438 220.71129032258068,230.9752173913044" stroke="#000000" stroke-width="1.55" fill="#000000"  />
<polygon points="233.2674193548387,242.67173913043484 235.1274193548387,240.81173913043483 236.98741935483872,242.67173913043484 235.1274193548387,244.53173913043486" stroke="#F7F7F7" stroke-width="1.55" fill="#F7F7F7"  />
<polygon points="233.2674193548387,242.67173913043484 235.1274193548387,240.81173913043483 236.98741935483872,242.67173913043484 235.1274193548387,244.53173913043486" stroke="#000000" stroke-width="1.55" fill="#000000"  />
<polygon points="247.68354838709678,235.89347826086959 249.5435483870968,234.03347826086957 251.4035483870968,235.89347826086959 249.5435483870968,237.7534782608696" stroke="#F7F7F7" stroke-width="1.55" fill="#F7F7F7"  />
<polygon points="247.68354838709678,235.89347826086959 249.5435483870968,234.03347826086957 251.4035483870968,235.89347826086959 249.5435483870968,237.7534782608696" stroke="#000000" stroke-width="1.55" fill="#000000"  />
<polygon points="262.09967741935486,229.11521739130438 263.9596774193549,227.25521739130437 265.8196774193549,229.11521739130438 263.9596774193549,230.9752173913044" stroke="#F7F7F7" stroke-width="1.55" fill="#F7F7F7"  />
<polygon points="262.09967741935486,229.11521739130438 263.9596774193549,227.25521739130437 265.8196774193549,229.11521739130438 263.9596774193549,230.9752173913044" stroke="#000000" stroke-width="1.55" fill="#000000"  />
<polygon points="276.5158064516129,229.11521739130438 278.3758064516129,227.25521739130437 280.2358064516129,229.11521739130438 278.3758064516129,230.9752173913044" stroke="#F7F7F7" stroke-width="1.55" fill="#F7F7F7"  />
<polygon points="276.5158064516129,229.11521739130438 278.3758064516129,227.25521739130437 280.2358064516129,229.11521739130438 278.3758064516129,230.9752173913044" stroke="#000000" stroke-width="1.55" fill="#000000"  />
<polygon points="290.931935483871,229.11521739130438 292.791935483871,227.25521739130437 294.651935483871,229.11521739130438 292.791935483871,230.9752173913044" stroke="#F7F7F7" stroke-width="1.55" fill="#F7F7F7"  />
<polygon points="290.931935483871,229.11521739130438 292.791935483871,227.25521739130437 294.651935483871,229.11521739130438 292.791935483871,230.9752173913044" stroke="#000000" stroke-width="1.55" fill="#000000"  />
<polygon points="305.34806451612906,215.55869565217392 307.20806451612907,213.6986956521739 309.0680645161291,215.55869565217392 307.20806451612907,217.41869565217394" stroke="#F7F7F7" stroke-width="1.55" fill="#F7F7F7"  />
<polygon points="305.34806451612906,215.55869565217392 307.20806451612907,213.6986956521739 309.0680645161291,215.55869565217392 307.20806451612907,217.41869565217394" stroke="#000000" stroke-width="1.55" fill="#000000"  />
<polygon points="319.7641935483871,215.55869565217392 321.6241935483871,213.6986956521739 323.4841935483871,215.55869565217392 321.6241935483871,217.41869565217394" stroke="#F7F7F7" stroke-width="1.55" fill="#F7F7F7"  />
<polygon points="319.7641935483871,215.55869565217392 321.6241935483871,213.6986956521739 323.4841935483871,215.55869565217392 321.6241935483871,217.41869565217394" stroke="#000000" stroke-width="1.55" fill="#000000"  />
<polygon points="334.18032258064517,195.22391304347826 336.0403225806452,193.36391304347825 337.9003225806452,195.22391304347826 336.0403225806452,197.08391304347828" stroke="#F7F7F7" stroke-width="1.55" fill="#F7F7F7"  />
<polygon points="334.18032258064517,195.22391304347826 336.0403225806452,193.36391304347825 337.9003225806452,195.22391304347826 336.0403225806452,197.08391304347828" stroke="#000000" stroke-width="1.55" fill="#000000"  />
<polygon points="348.5964516129032,195.22391304347826 350.4564516129032,193.36391304347825 352.3164516129032,195.22391304347826 350.4564516129032,197.08391304347828" stroke="#F7F7F7" stroke-width="1.55" fill="#F7F7F7"  />
<polygon points="348.5964516129032,195.22391304347826 350.4564516129032,193.36391304347825 352.3164516129032,195.22391304347826 350.4564516129032,197.08391304347828" stroke="#000000" stroke-width="1.55" fill="#000000"  />
<polygon points="363.0125806451613,202.00217391304346 364.8725806451613,200.14217391304345 366.7325806451613,202.00217391304346 364.8725806451613,203.86217391304348" stroke="#F7F7F7" stroke-width="1.55" fill="#F7F7F7"  />
<polygon points="363.0125806451613,202.00217391304346 364.8725806451613,200.14217391304345 366.7325806451613,202.00217391304346 364.8725806451613,203.86217391304348" stroke="#000000" stroke-width="1.55" fill="#000000"  />
<polygon points="377.42870967741936,168.1108695652174 379.2887096774194,166.25086956521739 381.1487096774194,168.1108695652174 379.2887096774194,169.9708695652174" stroke="#F7F7F7" stroke-width="1.55" fill="#F7F7F7"  />
<polygon points="377.42870967741936,168.1108695652174 379.2887096774194,166.25086956521739 381.1487096774194,168.1108695652174 379.2887096774194,169.9708695652174" stroke="#000000" stroke-width="1.55" fill="#000000"  />
<polygon points="391.8448387096774,161.3326086956522 393.7048387096774,159.47260869565218 395.5648387096774,161.3326086956522 393.7048387096774,163.1926086956522" stroke="#F7F7F7" stroke-width="1.55" fill="#F7F7F7"  />
<polygon points="391.8448387096774,161.3326086956522 393.7048387096774,159.47260869565218 395.5648387096774,161.3326086956522 393.7048387096774,163.1926086956522" stroke="#000000" stroke-width="1.55" fill="#000000"  />
<polygon points="406.2609677419355,161.3326086956522 408.1209677419355,159.47260869565218 409.9809677419355,161.3326086956522 408.1209677419355,163.1926086956522" stroke="#F7F7F7" stroke-width="1.55" fill="#F7F7F7"  />
<polygon points="406.2609677419355,161.3326086956522 408.1209677419355,159.47260869565218 409.9809677419355,161.3326086956522 408.1209677419355,163.1926086956522" stroke="#000000" stroke-width="1.55" fill="#000000"  />
<polygon points="420.67709677419356,161.3326086956522 422.53709677419357,159.47260869565218 424.3970967741936,161.3326086956522 422.53709677419357,163.1926086956522" stroke="#F7F7F7" stroke-width="1.55" fill="#F7F7F7"  />
<polygon points="420.67709677419356,161.3326086956522 422.53709677419357,159.47260869565218 424.3970967741936,161.3326086956522 422.53709677419357,163.1926086956522" stroke="#000000" stroke-width="1.55" fill="#000000"  />
<polygon points="435.0932258064516,154.554347826087 436.9532258064516,152.69434782608698 438.8132258064516,154.554347826087 436.9532258064516,156.414347826087" stroke="#F7F7F7" stroke-width="1.55" fill="#F7F7F7"  />
<polygon points="435.0932258064516,154.554347826087 436.9532258064516,152.69434782608698 438.8132258064516,154.554347826087 436.9532258064516,156.414347826087" stroke="#000000" stroke-width="1.55" fill="#000000"  />
<polygon points="449.50935483870967,147.77608695652174 451.3693548387097,145.91608695652172 453.2293548387097,147.77608695652174 451.3693548387097,149.63608695652175" stroke="#F7F7F7" stroke-width="1.55" fill="#F7F7F7"  />
<polygon points="449.50935483870967,147.77608695652174 451.3693548387097,145.91608695652172 453.2293548387097,147.77608695652174 451.3693548387097,149.63608695652175" stroke="#000000" stroke-width="1.55" fill="#000000"  />
<polygon points="463.92548387096775,147.77608695652174 465.78548387096777,145.91608695652172 467.6454838709678,147.77608695652174 465.78548387096777,149.63608695652175" stroke="#F7F7F7" stroke-width="1.55" fill="#F7F7F7"  />
<polygon points="463.92548387096775,147.77608695652174 465.78548387096777,145.91608695652172 467.6454838709678,147.77608695652174 465.78548387096777,149.63608695652175" stroke="#000000" stroke-width="1.55" fill="#000000"  />
<polygon points="478.3416129032258,127.44130434782609 480.2016129032258,125.58130434782609 482.0616129032258,127.44130434782609 480.2016129032258,129.3013043478261" stroke="#F7F7F7" stroke-width="1.55" fill="#F7F7F7"  />
<polygon points="478.3416129032258,127.44130434782609 480.2016129032258,125.58130434782609 482.0616129032258,127.44130434782609 480.2016129032258,129.3013043478261" stroke="#000000" stroke-width="1.55" fill="#000000"  />
<polygon points="492.75774193548386,113.88478260869564 494.6177419354839,112.02478260869565 496.4777419354839,113.88478260869564 494.6177419354839,115.74478260869564" stroke="#F7F7F7" stroke-width="1.55" fill="#F7F7F7"  />
<polygon points="492.75774193548386,113.88478260869564 494.6177419354839,112.02478260869565 496.4777419354839,113.88478260869564 494.6177419354839,115.74478260869564" stroke="#000000" stroke-width="1.55" fill="#000000"  />
<polygon points="507.17387096774195,107.10652173913044 509.03387096774196,105.24652173913044 510.893870967742,107.10652173913044 509.03387096774196,108.96652173913044" stroke="#F7F7F7" stroke-width="1.55" fill="#F7F7F7"  />
<polygon points="507.17387096774195,107.10652173913044 509.03387096774196,105.24652173913044 510.893870967742,107.10652173913044 509.03387096774196,108.96652173913044" stroke="#000000" stroke-width="1.55" fill="#000000"  />
<polygon points="521.59,93.55 523.45,91.69 525.3100000000001,93.55 523.45,95.41" stroke="#F7F7F7" stroke-width="1.55" fill="#F7F7F7"  />
<polygon points="521.59,93.55 523.45,91.69 525.3100000000001,93.55 523.45,95.41" stroke="#000000" stroke-width="1.55" fill="#000000"  />
</svg>