<svg width="380" height="372" xmlns="http://www.w3.org/2000/svg"> <rect width="100%" height="100%" fill="#FEFEFE" />
<line x1="60" y1="222" x2="320" y2="222" stroke="#9f9f9f" stroke-width="1" />
<rect x="60" y="70" width="260" height="152" fill="#FEFEFE" />
<text text-anchor="middle" x="190.0" y="18" font-family="'Helvetica Neue', Arial, sans-serif" font-weight="bold" font-size="18" fill="#000000">Butter consumption</text>
<text text-anchor="middle" x="190.0" y="36" font-family="'Helvetica Neue', Arial, sans-serif" font-size="14" fill="#000000">correlates with</text>
<text text-anchor="middle" x="190.0" y="58" font-family="'Helvetica Neue', Arial, sans-serif" font-weight="bold" font-size="18" fill="#ba0f27">Wind power generated in United States</text>
<text text-anchor="start" x="20" y="267.3333333333333" font-family="'Helvetica Neue', Arial, sans-serif" font-size="14" fill="#9f9f9f">Per capita consumption of Butter  in the US &#183;</text>
<text text-anchor="start" x="20" y="283.3333333333333" font-family="'Helvetica Neue', Arial, sans-serif" font-size="14" fill="#9f9f9f">Source: USDA</text>
<text text-anchor="start" x="20" y="306.66666666666663" font-family="'Helvetica Neue', Arial, sans-serif" font-size="14" fill="#9f9f9f">Total wind power generated in United States in billion</text>
<text text-anchor="start" x="20" y="322.66666666666663" font-family="'Helvetica Neue', Arial, sans-serif" font-size="14" fill="#9f9f9f">kWh &#183; Source: Energy Information Administration</text>
<text text-anchor="start" x="20" y="345.99999999999994" font-family="'Helvetica Neue', Arial, sans-serif" font-size="14" fill="#9f9f9f">1990-2021, r=0.976, r&#178;=0.952, p&lt;0.01</text>
<text text-anchor="start" x="20" y="369.33333333333326" font-family="'Helvetica Neue', Arial, sans-serif" font-size="14" fill="#9f9f9f">tylervigen.com/spurious/correlation/2205</text>
<polyline points="5,262.66666666666663 17,262.66666666666663" style="fill:none;stroke:#000000;stroke-width:2" stroke-dasharray="3,1" />
<polygon points="3.2,262.66666666666663 5,260.8666666666666 6.8,262.66666666666663 5,264.46666666666664" stroke="#F7F7F7" stroke-width="1.5" fill="#F7F7F7"  />
<polygon points="3.2,262.66666666666663 5,260.8666666666666 6.8,262.66666666666663 5,264.46666666666664" stroke="#000000" stroke-width="1.5" fill="#000000"  />
<polyline points="5,301.99999999999994 17,301.99999999999994" style="fill:none;stroke:#ba0f27;stroke-width:2" />
<circle cx="5" cy="301.99999999999994" r="1.5" stroke="#F7F7F7" stroke-width="1.5" fill="#F7F7F7" />
<circle cx="5" cy="301.99999999999994" r="1.5" stroke="#ba0f27" stroke-width="1.5" fill="#ba0f27"  />
<text x="5" y="148.0" transform="rotate(270 5 146.0)" text-anchor="middle" fill="#000000" font-family="'Helvetica Neue', Arial, sans-serif" font-size="14" dominant-baseline="central">Pounds per person</text>
<text x="146.0" y="-174" transform="rotate(90 100 100)" text-anchor="middle" fill="#ba0f27" font-family="'Helvetica Neue', Arial, sans-serif" font-size="14" dominant-baseline="central">Billion kWh</text>
<line x1="61" y1="76.5" x2="318" y2="76.5" stroke="#F3F3F3" stroke-width="1" fill="#FEFEFE" />
<text text-anchor="end" x="52" y="81.16666666666667" font-family="'Helvetica Neue', Arial, sans-serif" font-size="12" fill="#000000">6.5</text>
<text text-anchor="start" x="328" y="81.16666666666667" font-family="'Helvetica Neue', Arial, sans-serif" font-size="12" fill="#ba0f27">380</text>
<line x1="61" y1="111.25" x2="318" y2="111.25" stroke="#F3F3F3" stroke-width="1" fill="#FEFEFE" />
<text text-anchor="end" x="52" y="115.91666666666667" font-family="'Helvetica Neue', Arial, sans-serif" font-size="12">5.9</text>
<text text-anchor="start" x="328" y="115.91666666666667" font-family="'Helvetica Neue', Arial, sans-serif" font-size="12" fill="#ba0f27">286</text>
<line x1="61" y1="146.0" x2="318" y2="146.0" stroke="#F3F3F3" stroke-width="1" fill="#FEFEFE" />
<text text-anchor="end" x="52" y="150.66666666666666" font-family="'Helvetica Neue', Arial, sans-serif" font-size="12">5.3</text>
<text text-anchor="start" x="328" y="150.66666666666666" font-family="'Helvetica Neue', Arial, sans-serif" font-size="12" fill="#ba0f27">191</text>
<line x1="61" y1="180.75" x2="318" y2="180.75" stroke="#F3F3F3" stroke-width="1" fill="#FEFEFE" />
<text text-anchor="end" x="52" y="185.41666666666666" font-family="'Helvetica Neue', Arial, sans-serif" font-size="12">4.8</text>
<text text-anchor="start" x="328" y="185.41666666666666" font-family="'Helvetica Neue', Arial, sans-serif" font-size="12" fill="#ba0f27">97</text>
<line x1="61" y1="215.5" x2="318" y2="215.5" stroke="#F3F3F3" stroke-width="1" fill="#FEFEFE" />
<text text-anchor="end" x="52" y="220.16666666666666" font-family="'Helvetica Neue', Arial, sans-serif" font-size="12">4.2</text>
<text text-anchor="start" x="328" y="220.16666666666666" font-family="'Helvetica Neue', Arial, sans-serif" font-size="12" fill="#ba0f27">3</text>
<polyline points="66.5,222 66.5,228" style="fill:none;stroke:#000000;stroke-width:1" />
<polyline points="146.17741935483872,222 146.17741935483872,228" style="fill:none;stroke:#000000;stroke-width:1" />
<polyline points="225.8548387096774,222 225.8548387096774,228" style="fill:none;stroke:#000000;stroke-width:1" />
<polyline points="305.5322580645161,222 305.5322580645161,228" style="fill:none;stroke:#000000;stroke-width:1" />
<text text-anchor="middle" x="66.5" y="243" font-weight="bold" font-family="'Helvetica Neue', Arial, sans-serif" font-size="14">1990</text>
<text text-anchor="middle" x="146.17741935483872" y="243" font-weight="bold" font-family="'Helvetica Neue', Arial, sans-serif" font-size="14">2000</text>
<text text-anchor="middle" x="225.8548387096774" y="243" font-weight="bold" font-family="'Helvetica Neue', Arial, sans-serif" font-size="14">2010</text>
<text text-anchor="middle" x="305.5322580645161" y="243" font-weight="bold" font-family="'Helvetica Neue', Arial, sans-serif" font-size="14">2020</text>
<polyline points="66.5,215.5 74.46774193548387,215.4401380821819" style="fill:none;stroke:#ba0f27;stroke-width:2"  />
<polyline points="74.46774193548387,215.4401380821819 82.43548387096774,215.46352608000882" style="fill:none;stroke:#ba0f27;stroke-width:2"  />
<polyline points="82.43548387096774,215.46352608000882 90.40322580645162,215.41990265224743" style="fill:none;stroke:#ba0f27;stroke-width:2"  />
<polyline points="90.40322580645162,215.41990265224743 98.37096774193549,215.25719327685616" style="fill:none;stroke:#ba0f27;stroke-width:2"  />
<polyline points="98.37096774193549,215.25719327685616 106.33870967741936,215.3614898094957" style="fill:none;stroke:#ba0f27;stroke-width:2"  />
<polyline points="106.33870967741936,215.3614898094957 114.30645161290323,215.3357456819807" style="fill:none;stroke:#ba0f27;stroke-width:2"  />
<polyline points="114.30645161290323,215.3357456819807 122.2741935483871,215.3158494757259" style="fill:none;stroke:#ba0f27;stroke-width:2"  />
<polyline points="122.2741935483871,215.3158494757259 130.24193548387098,215.4125761582096" style="fill:none;stroke:#ba0f27;stroke-width:2"  />
<polyline points="130.24193548387098,215.4125761582096 138.20967741935482,214.8733948682471" style="fill:none;stroke:#ba0f27;stroke-width:2"  />
<polyline points="138.20967741935482,214.8733948682471 146.17741935483872,214.4658618637036" style="fill:none;stroke:#ba0f27;stroke-width:2"  />
<polyline points="146.17741935483872,214.4658618637036 154.14516129032256,214.04401878197794" style="fill:none;stroke:#ba0f27;stroke-width:2"  />
<polyline points="154.14516129032256,214.04401878197794 162.11290322580646,212.7103645726121" style="fill:none;stroke:#ba0f27;stroke-width:2"  />
<polyline points="162.11290322580646,212.7103645726121 170.0806451612903,212.40314590968606" style="fill:none;stroke:#ba0f27;stroke-width:2"  />
<polyline points="170.0806451612903,212.40314590968606 178.0483870967742,211.31313173380752" style="fill:none;stroke:#ba0f27;stroke-width:2"  />
<polyline points="178.0483870967742,211.31313173380752 186.01612903225805,209.96110413753146" style="fill:none;stroke:#ba0f27;stroke-width:2"  />
<polyline points="186.01612903225805,209.96110413753146 193.98387096774195,206.72424653508" style="fill:none;stroke:#ba0f27;stroke-width:2"  />
<polyline points="193.98387096774195,206.72424653508 201.9516129032258,203.82580142522752" style="fill:none;stroke:#ba0f27;stroke-width:2"  />
<polyline points="201.9516129032258,203.82580142522752 209.91935483870967,196.1146572323507" style="fill:none;stroke:#ba0f27;stroke-width:2"  />
<polyline points="209.91935483870967,196.1146572323507 217.88709677419354,189.28483090808385" style="fill:none;stroke:#ba0f27;stroke-width:2"  />
<polyline points="217.88709677419354,189.28483090808385 225.8548387096774,181.62792563181338" style="fill:none;stroke:#ba0f27;stroke-width:2"  />
<polyline points="225.8548387096774,181.62792563181338 233.82258064516128,172.2163858725062" style="fill:none;stroke:#ba0f27;stroke-width:2"  />
<polyline points="233.82258064516128,172.2163858725062 241.79032258064515,164.6041327566778" style="fill:none;stroke:#ba0f27;stroke-width:2"  />
<polyline points="241.79032258064515,164.6041327566778 249.75806451612902,154.6420182164283" style="fill:none;stroke:#ba0f27;stroke-width:2"  />
<polyline points="249.75806451612902,154.6420182164283 257.7258064516129,149.5481322006778" style="fill:none;stroke:#ba0f27;stroke-width:2"  />
<polyline points="257.7258064516129,149.5481322006778 265.69354838709677,146.2060415132538" style="fill:none;stroke:#ba0f27;stroke-width:2"  />
<polyline points="265.69354838709677,146.2060415132538 273.6612903225806,132.83104177852098" style="fill:none;stroke:#ba0f27;stroke-width:2"  />
<polyline points="273.6612903225806,132.83104177852098 281.6290322580645,122.7612605921188" style="fill:none;stroke:#ba0f27;stroke-width:2"  />
<polyline points="281.6290322580645,122.7612605921188 289.5967741935484,115.99006096901043" style="fill:none;stroke:#ba0f27;stroke-width:2"  />
<polyline points="289.5967741935484,115.99006096901043 297.56451612903226,107.43019387848216" style="fill:none;stroke:#ba0f27;stroke-width:2"  />
<polyline points="297.56451612903226,107.43019387848216 305.5322580645161,91.92324706137009" style="fill:none;stroke:#ba0f27;stroke-width:2"  />
<polyline points="305.5322580645161,91.92324706137009 313.5,76.5" style="fill:none;stroke:#ba0f27;stroke-width:2"  />
<circle cx="66.5" cy="215.5" r="1.5" stroke="#F7F7F7" stroke-width="1.5" fill="#F7F7F7" />
<circle cx="66.5" cy="215.5" r="1.5" stroke="#ba0f27" stroke-width="1.5" fill="#ba0f27"  />
<circle cx="74.46774193548387" cy="215.4401380821819" r="1.5" stroke="#F7F7F7" stroke-width="1.5" fill="#F7F7F7" />
<circle cx="74.46774193548387" cy="215.4401380821819" r="1.5" stroke="#ba0f27" stroke-width="1.5" fill="#ba0f27"  />
<circle cx="82.43548387096774" cy="215.46352608000882" r="1.5" stroke="#F7F7F7" stroke-width="1.5" fill="#F7F7F7" />
<circle cx="82.43548387096774" cy="215.46352608000882" r="1.5" stroke="#ba0f27" stroke-width="1.5" fill="#ba0f27"  />
<circle cx="90.40322580645162" cy="215.41990265224743" r="1.5" stroke="#F7F7F7" stroke-width="1.5" fill="#F7F7F7" />
<circle cx="90.40322580645162" cy="215.41990265224743" r="1.5" stroke="#ba0f27" stroke-width="1.5" fill="#ba0f27"  />
<circle cx="98.37096774193549" cy="215.25719327685616" r="1.5" stroke="#F7F7F7" stroke-width="1.5" fill="#F7F7F7" />
<circle cx="98.37096774193549" cy="215.25719327685616" r="1.5" stroke="#ba0f27" stroke-width="1.5" fill="#ba0f27"  />
<circle cx="106.33870967741936" cy="215.3614898094957" r="1.5" stroke="#F7F7F7" stroke-width="1.5" fill="#F7F7F7" />
<circle cx="106.33870967741936" cy="215.3614898094957" r="1.5" stroke="#ba0f27" stroke-width="1.5" fill="#ba0f27"  />
<circle cx="114.30645161290323" cy="215.3357456819807" r="1.5" stroke="#F7F7F7" stroke-width="1.5" fill="#F7F7F7" />
<circle cx="114.30645161290323" cy="215.3357456819807" r="1.5" stroke="#ba0f27" stroke-width="1.5" fill="#ba0f27"  />
<circle cx="122.2741935483871" cy="215.3158494757259" r="1.5" stroke="#F7F7F7" stroke-width="1.5" fill="#F7F7F7" />
<circle cx="122.2741935483871" cy="215.3158494757259" r="1.5" stroke="#ba0f27" stroke-width="1.5" fill="#ba0f27"  />
<circle cx="130.24193548387098" cy="215.4125761582096" r="1.5" stroke="#F7F7F7" stroke-width="1.5" fill="#F7F7F7" />
<circle cx="130.24193548387098" cy="215.4125761582096" r="1.5" stroke="#ba0f27" stroke-width="1.5" fill="#ba0f27"  />
<circle cx="138.20967741935482" cy="214.8733948682471" r="1.5" stroke="#F7F7F7" stroke-width="1.5" fill="#F7F7F7" />
<circle cx="138.20967741935482" cy="214.8733948682471" r="1.5" stroke="#ba0f27" stroke-width="1.5" fill="#ba0f27"  />
<circle cx="146.17741935483872" cy="214.4658618637036" r="1.5" stroke="#F7F7F7" stroke-width="1.5" fill="#F7F7F7" />
<circle cx="146.17741935483872" cy="214.4658618637036" r="1.5" stroke="#ba0f27" stroke-width="1.5" fill="#ba0f27"  />
<circle cx="154.14516129032256" cy="214.04401878197794" r="1.5" stroke="#F7F7F7" stroke-width="1.5" fill="#F7F7F7" />
<circle cx="154.14516129032256" cy="214.04401878197794" r="1.5" stroke="#ba0f27" stroke-width="1.5" fill="#ba0f27"  />
<circle cx="162.11290322580646" cy="212.7103645726121" r="1.5" stroke="#F7F7F7" stroke-width="1.5" fill="#F7F7F7" />
<circle cx="162.11290322580646" cy="212.7103645726121" r="1.5" stroke="#ba0f27" stroke-width="1.5" fill="#ba0f27"  />
<circle cx="170.0806451612903" cy="212.40314590968606" r="1.5" stroke="#F7F7F7" stroke-width="1.5" fill="#F7F7F7" />
<circle cx="170.0806451612903" cy="212.40314590968606" r="1.5" stroke="#ba0f27" stroke-width="1.5" fill="#ba0f27"  />
<circle cx="178.0483870967742" cy="211.31313173380752" r="1.5" stroke="#F7F7F7" stroke-width="1.5" fill="#F7F7F7" />
<circle cx="178.0483870967742" cy="211.31313173380752" r="1.5" stroke="#ba0f27" stroke-width="1.5" fill="#ba0f27"  />
<circle cx="186.01612903225805" cy="209.96110413753146" r="1.5" stroke="#F7F7F7" stroke-width="1.5" fill="#F7F7F7" />
<circle cx="186.01612903225805" cy="209.96110413753146" r="1.5" stroke="#ba0f27" stroke-width="1.5" fill="#ba0f27"  />
<circle cx="193.98387096774195" cy="206.72424653508" r="1.5" stroke="#F7F7F7" stroke-width="1.5" fill="#F7F7F7" />
<circle cx="193.98387096774195" cy="206.72424653508" r="1.5" stroke="#ba0f27" stroke-width="1.5" fill="#ba0f27"  />
<circle cx="201.9516129032258" cy="203.82580142522752" r="1.5" stroke="#F7F7F7" stroke-width="1.5" fill="#F7F7F7" />
<circle cx="201.9516129032258" cy="203.82580142522752" r="1.5" stroke="#ba0f27" stroke-width="1.5" fill="#ba0f27"  />
<circle cx="209.91935483870967" cy="196.1146572323507" r="1.5" stroke="#F7F7F7" stroke-width="1.5" fill="#F7F7F7" />
<circle cx="209.91935483870967" cy="196.1146572323507" r="1.5" stroke="#ba0f27" stroke-width="1.5" fill="#ba0f27"  />
<circle cx="217.88709677419354" cy="189.28483090808385" r="1.5" stroke="#F7F7F7" stroke-width="1.5" fill="#F7F7F7" />
<circle cx="217.88709677419354" cy="189.28483090808385" r="1.5" stroke="#ba0f27" stroke-width="1.5" fill="#ba0f27"  />
<circle cx="225.8548387096774" cy="181.62792563181338" r="1.5" stroke="#F7F7F7" stroke-width="1.5" fill="#F7F7F7" />
<circle cx="225.8548387096774" cy="181.62792563181338" r="1.5" stroke="#ba0f27" stroke-width="1.5" fill="#ba0f27"  />
<circle cx="233.82258064516128" cy="172.2163858725062" r="1.5" stroke="#F7F7F7" stroke-width="1.5" fill="#F7F7F7" />
<circle cx="233.82258064516128" cy="172.2163858725062" r="1.5" stroke="#ba0f27" stroke-width="1.5" fill="#ba0f27"  />
<circle cx="241.79032258064515" cy="164.6041327566778" r="1.5" stroke="#F7F7F7" stroke-width="1.5" fill="#F7F7F7" />
<circle cx="241.79032258064515" cy="164.6041327566778" r="1.5" stroke="#ba0f27" stroke-width="1.5" fill="#ba0f27"  />
<circle cx="249.75806451612902" cy="154.6420182164283" r="1.5" stroke="#F7F7F7" stroke-width="1.5" fill="#F7F7F7" />
<circle cx="249.75806451612902" cy="154.6420182164283" r="1.5" stroke="#ba0f27" stroke-width="1.5" fill="#ba0f27"  />
<circle cx="257.7258064516129" cy="149.5481322006778" r="1.5" stroke="#F7F7F7" stroke-width="1.5" fill="#F7F7F7" />
<circle cx="257.7258064516129" cy="149.5481322006778" r="1.5" stroke="#ba0f27" stroke-width="1.5" fill="#ba0f27"  />
<circle cx="265.69354838709677" cy="146.2060415132538" r="1.5" stroke="#F7F7F7" stroke-width="1.5" fill="#F7F7F7" />
<circle cx="265.69354838709677" cy="146.2060415132538" r="1.5" stroke="#ba0f27" stroke-width="1.5" fill="#ba0f27"  />
<circle cx="273.6612903225806" cy="132.83104177852098" r="1.5" stroke="#F7F7F7" stroke-width="1.5" fill="#F7F7F7" />
<circle cx="273.6612903225806" cy="132.83104177852098" r="1.5" stroke="#ba0f27" stroke-width="1.5" fill="#ba0f27"  />
<circle cx="281.6290322580645" cy="122.7612605921188" r="1.5" stroke="#F7F7F7" stroke-width="1.5" fill="#F7F7F7" />
<circle cx="281.6290322580645" cy="122.7612605921188" r="1.5" stroke="#ba0f27" stroke-width="1.5" fill="#ba0f27"  />
<circle cx="289.5967741935484" cy="115.99006096901043" r="1.5" stroke="#F7F7F7" stroke-width="1.5" fill="#F7F7F7" />
<circle cx="289.5967741935484" cy="115.99006096901043" r="1.5" stroke="#ba0f27" stroke-width="1.5" fill="#ba0f27"  />
<circle cx="297.56451612903226" cy="107.43019387848216" r="1.5" stroke="#F7F7F7" stroke-width="1.5" fill="#F7F7F7" />
<circle cx="297.56451612903226" cy="107.43019387848216" r="1.5" stroke="#ba0f27" stroke-width="1.5" fill="#ba0f27"  />
<circle cx="305.5322580645161" cy="91.92324706137009" r="1.5" stroke="#F7F7F7" stroke-width="1.5" fill="#F7F7F7" />
<circle cx="305.5322580645161" cy="91.92324706137009" r="1.5" stroke="#ba0f27" stroke-width="1.5" fill="#ba0f27"  />
<circle cx="313.5" cy="76.5" r="1.5" stroke="#F7F7F7" stroke-width="1.5" fill="#F7F7F7" />
<circle cx="313.5" cy="76.5" r="1.5" stroke="#ba0f27" stroke-width="1.5" fill="#ba0f27"  />
<polyline points="66.5,209.45652173913047 74.46774193548387,203.41304347826087" style="fill:none;stroke:#000000;stroke-width:2" stroke-dasharray="3,1"  />
<polyline points="74.46774193548387,203.41304347826087 82.43548387096774,209.45652173913047" style="fill:none;stroke:#000000;stroke-width:2" stroke-dasharray="3,1"  />
<polyline points="82.43548387096774,209.45652173913047 90.40322580645162,185.2826086956522" style="fill:none;stroke:#000000;stroke-width:2" stroke-dasharray="3,1"  />
<polyline points="90.40322580645162,185.2826086956522 98.37096774193549,185.2826086956522" style="fill:none;stroke:#000000;stroke-width:2" stroke-dasharray="3,1"  />
<polyline points="98.37096774193549,185.2826086956522 106.33870967741936,191.32608695652175" style="fill:none;stroke:#000000;stroke-width:2" stroke-dasharray="3,1"  />
<polyline points="106.33870967741936,191.32608695652175 114.30645161290323,209.45652173913047" style="fill:none;stroke:#000000;stroke-width:2" stroke-dasharray="3,1"  />
<polyline points="114.30645161290323,209.45652173913047 122.2741935483871,215.5" style="fill:none;stroke:#000000;stroke-width:2" stroke-dasharray="3,1"  />
<polyline points="122.2741935483871,215.5 130.24193548387098,209.45652173913047" style="fill:none;stroke:#000000;stroke-width:2" stroke-dasharray="3,1"  />
<polyline points="130.24193548387098,209.45652173913047 138.20967741935482,191.32608695652175" style="fill:none;stroke:#000000;stroke-width:2" stroke-dasharray="3,1"  />
<polyline points="138.20967741935482,191.32608695652175 146.17741935483872,197.3695652173913" style="fill:none;stroke:#000000;stroke-width:2" stroke-dasharray="3,1"  />
<polyline points="146.17741935483872,197.3695652173913 154.14516129032256,209.45652173913047" style="fill:none;stroke:#000000;stroke-width:2" stroke-dasharray="3,1"  />
<polyline points="154.14516129032256,209.45652173913047 162.11290322580646,203.41304347826087" style="fill:none;stroke:#000000;stroke-width:2" stroke-dasharray="3,1"  />
<polyline points="162.11290322580646,203.41304347826087 170.0806451612903,197.3695652173913" style="fill:none;stroke:#000000;stroke-width:2" stroke-dasharray="3,1"  />
<polyline points="170.0806451612903,197.3695652173913 178.0483870967742,197.3695652173913" style="fill:none;stroke:#000000;stroke-width:2" stroke-dasharray="3,1"  />
<polyline points="178.0483870967742,197.3695652173913 186.01612903225805,197.3695652173913" style="fill:none;stroke:#000000;stroke-width:2" stroke-dasharray="3,1"  />
<polyline points="186.01612903225805,197.3695652173913 193.98387096774195,185.2826086956522" style="fill:none;stroke:#000000;stroke-width:2" stroke-dasharray="3,1"  />
<polyline points="193.98387096774195,185.2826086956522 201.9516129032258,185.2826086956522" style="fill:none;stroke:#000000;stroke-width:2" stroke-dasharray="3,1"  />
<polyline points="201.9516129032258,185.2826086956522 209.91935483870967,167.1521739130435" style="fill:none;stroke:#000000;stroke-width:2" stroke-dasharray="3,1"  />
<polyline points="209.91935483870967,167.1521739130435 217.88709677419354,167.1521739130435" style="fill:none;stroke:#000000;stroke-width:2" stroke-dasharray="3,1"  />
<polyline points="217.88709677419354,167.1521739130435 225.8548387096774,173.19565217391303" style="fill:none;stroke:#000000;stroke-width:2" stroke-dasharray="3,1"  />
<polyline points="225.8548387096774,173.19565217391303 233.82258064516128,142.9782608695652" style="fill:none;stroke:#000000;stroke-width:2" stroke-dasharray="3,1"  />
<polyline points="233.82258064516128,142.9782608695652 241.79032258064515,136.93478260869566" style="fill:none;stroke:#000000;stroke-width:2" stroke-dasharray="3,1"  />
<polyline points="241.79032258064515,136.93478260869566 249.75806451612902,136.93478260869566" style="fill:none;stroke:#000000;stroke-width:2" stroke-dasharray="3,1"  />
<polyline points="249.75806451612902,136.93478260869566 257.7258064516129,136.93478260869566" style="fill:none;stroke:#000000;stroke-width:2" stroke-dasharray="3,1"  />
<polyline points="257.7258064516129,136.93478260869566 265.69354838709677,130.89130434782612" style="fill:none;stroke:#000000;stroke-width:2" stroke-dasharray="3,1"  />
<polyline points="265.69354838709677,130.89130434782612 273.6612903225806,124.84782608695652" style="fill:none;stroke:#000000;stroke-width:2" stroke-dasharray="3,1"  />
<polyline points="273.6612903225806,124.84782608695652 281.6290322580645,124.84782608695652" style="fill:none;stroke:#000000;stroke-width:2" stroke-dasharray="3,1"  />
<polyline points="281.6290322580645,124.84782608695652 289.5967741935484,106.71739130434783" style="fill:none;stroke:#000000;stroke-width:2" stroke-dasharray="3,1"  />
<polyline points="289.5967741935484,106.71739130434783 297.56451612903226,94.63043478260869" style="fill:none;stroke:#000000;stroke-width:2" stroke-dasharray="3,1"  />
<polyline points="297.56451612903226,94.63043478260869 305.5322580645161,88.58695652173914" style="fill:none;stroke:#000000;stroke-width:2" stroke-dasharray="3,1"  />
<polyline points="305.5322580645161,88.58695652173914 313.5,76.5" style="fill:none;stroke:#000000;stroke-width:2" stroke-dasharray="3,1"  />
<polygon points="64.7,209.45652173913047 66.5,207.65652173913045 68.3,209.45652173913047 66.5,211.25652173913048" stroke="#F7F7F7" stroke-width="1.5" fill="#F7F7F7"  />
<polygon points="64.7,209.45652173913047 66.5,207.65652173913045 68.3,209.45652173913047 66.5,211.25652173913048" stroke="#000000" stroke-width="1.5" fill="#000000"  />
<polygon points="72.66774193548387,203.41304347826087 74.46774193548387,201.61304347826086 76.26774193548387,203.41304347826087 74.46774193548387,205.2130434782609" stroke="#F7F7F7" stroke-width="1.5" fill="#F7F7F7"  />
<polygon points="72.66774193548387,203.41304347826087 74.46774193548387,201.61304347826086 76.26774193548387,203.41304347826087 74.46774193548387,205.2130434782609" stroke="#000000" stroke-width="1.5" fill="#000000"  />
<polygon points="80.63548387096775,209.45652173913047 82.43548387096774,207.65652173913045 84.23548387096774,209.45652173913047 82.43548387096774,211.25652173913048" stroke="#F7F7F7" stroke-width="1.5" fill="#F7F7F7"  />
<polygon points="80.63548387096775,209.45652173913047 82.43548387096774,207.65652173913045 84.23548387096774,209.45652173913047 82.43548387096774,211.25652173913048" stroke="#000000" stroke-width="1.5" fill="#000000"  />
<polygon points="88.60322580645162,185.2826086956522 90.40322580645162,183.48260869565217 92.20322580645161,185.2826086956522 90.40322580645162,187.0826086956522" stroke="#F7F7F7" stroke-width="1.5" fill="#F7F7F7"  />
<polygon points="88.60322580645162,185.2826086956522 90.40322580645162,183.48260869565217 92.20322580645161,185.2826086956522 90.40322580645162,187.0826086956522" stroke="#000000" stroke-width="1.5" fill="#000000"  />
<polygon points="96.57096774193549,185.2826086956522 98.37096774193549,183.48260869565217 100.17096774193548,185.2826086956522 98.37096774193549,187.0826086956522" stroke="#F7F7F7" stroke-width="1.5" fill="#F7F7F7"  />
<polygon points="96.57096774193549,185.2826086956522 98.37096774193549,183.48260869565217 100.17096774193548,185.2826086956522 98.37096774193549,187.0826086956522" stroke="#000000" stroke-width="1.5" fill="#000000"  />
<polygon points="104.53870967741936,191.32608695652175 106.33870967741936,189.52608695652174 108.13870967741936,191.32608695652175 106.33870967741936,193.12608695652176" stroke="#F7F7F7" stroke-width="1.5" fill="#F7F7F7"  />
<polygon points="104.53870967741936,191.32608695652175 106.33870967741936,189.52608695652174 108.13870967741936,191.32608695652175 106.33870967741936,193.12608695652176" stroke="#000000" stroke-width="1.5" fill="#000000"  />
<polygon points="112.50645161290323,209.45652173913047 114.30645161290323,207.65652173913045 116.10645161290323,209.45652173913047 114.30645161290323,211.25652173913048" stroke="#F7F7F7" stroke-width="1.5" fill="#F7F7F7"  />
<polygon points="112.50645161290323,209.45652173913047 114.30645161290323,207.65652173913045 116.10645161290323,209.45652173913047 114.30645161290323,211.25652173913048" stroke="#000000" stroke-width="1.5" fill="#000000"  />
<polygon points="120.4741935483871,215.5 122.2741935483871,213.7 124.0741935483871,215.5 122.2741935483871,217.3" stroke="#F7F7F7" stroke-width="1.5" fill="#F7F7F7"  />
<polygon points="120.4741935483871,215.5 122.2741935483871,213.7 124.0741935483871,215.5 122.2741935483871,217.3" stroke="#000000" stroke-width="1.5" fill="#000000"  />
<polygon points="128.44193548387096,209.45652173913047 130.24193548387098,207.65652173913045 132.041935483871,209.45652173913047 130.24193548387098,211.25652173913048" stroke="#F7F7F7" stroke-width="1.5" fill="#F7F7F7"  />
<polygon points="128.44193548387096,209.45652173913047 130.24193548387098,207.65652173913045 132.041935483871,209.45652173913047 130.24193548387098,211.25652173913048" stroke="#000000" stroke-width="1.5" fill="#000000"  />
<polygon points="136.4096774193548,191.32608695652175 138.20967741935482,189.52608695652174 140.00967741935483,191.32608695652175 138.20967741935482,193.12608695652176" stroke="#F7F7F7" stroke-width="1.5" fill="#F7F7F7"  />
<polygon points="136.4096774193548,191.32608695652175 138.20967741935482,189.52608695652174 140.00967741935483,191.32608695652175 138.20967741935482,193.12608695652176" stroke="#000000" stroke-width="1.5" fill="#000000"  />
<polygon points="144.3774193548387,197.3695652173913 146.17741935483872,195.5695652173913 147.97741935483873,197.3695652173913 146.17741935483872,199.16956521739132" stroke="#F7F7F7" stroke-width="1.5" fill="#F7F7F7"  />
<polygon points="144.3774193548387,197.3695652173913 146.17741935483872,195.5695652173913 147.97741935483873,197.3695652173913 146.17741935483872,199.16956521739132" stroke="#000000" stroke-width="1.5" fill="#000000"  />
<polygon points="152.34516129032255,209.45652173913047 154.14516129032256,207.65652173913045 155.94516129032257,209.45652173913047 154.14516129032256,211.25652173913048" stroke="#F7F7F7" stroke-width="1.5" fill="#F7F7F7"  />
<polygon points="152.34516129032255,209.45652173913047 154.14516129032256,207.65652173913045 155.94516129032257,209.45652173913047 154.14516129032256,211.25652173913048" stroke="#000000" stroke-width="1.5" fill="#000000"  />
<polygon points="160.31290322580645,203.41304347826087 162.11290322580646,201.61304347826086 163.91290322580647,203.41304347826087 162.11290322580646,205.2130434782609" stroke="#F7F7F7" stroke-width="1.5" fill="#F7F7F7"  />
<polygon points="160.31290322580645,203.41304347826087 162.11290322580646,201.61304347826086 163.91290322580647,203.41304347826087 162.11290322580646,205.2130434782609" stroke="#000000" stroke-width="1.5" fill="#000000"  />
<polygon points="168.2806451612903,197.3695652173913 170.0806451612903,195.5695652173913 171.88064516129032,197.3695652173913 170.0806451612903,199.16956521739132" stroke="#F7F7F7" stroke-width="1.5" fill="#F7F7F7"  />
<polygon points="168.2806451612903,197.3695652173913 170.0806451612903,195.5695652173913 171.88064516129032,197.3695652173913 170.0806451612903,199.16956521739132" stroke="#000000" stroke-width="1.5" fill="#000000"  />
<polygon points="176.2483870967742,197.3695652173913 178.0483870967742,195.5695652173913 179.84838709677422,197.3695652173913 178.0483870967742,199.16956521739132" stroke="#F7F7F7" stroke-width="1.5" fill="#F7F7F7"  />
<polygon points="176.2483870967742,197.3695652173913 178.0483870967742,195.5695652173913 179.84838709677422,197.3695652173913 178.0483870967742,199.16956521739132" stroke="#000000" stroke-width="1.5" fill="#000000"  />
<polygon points="184.21612903225804,197.3695652173913 186.01612903225805,195.5695652173913 187.81612903225806,197.3695652173913 186.01612903225805,199.16956521739132" stroke="#F7F7F7" stroke-width="1.5" fill="#F7F7F7"  />
<polygon points="184.21612903225804,197.3695652173913 186.01612903225805,195.5695652173913 187.81612903225806,197.3695652173913 186.01612903225805,199.16956521739132" stroke="#000000" stroke-width="1.5" fill="#000000"  />
<polygon points="192.18387096774194,185.2826086956522 193.98387096774195,183.48260869565217 195.78387096774196,185.2826086956522 193.98387096774195,187.0826086956522" stroke="#F7F7F7" stroke-width="1.5" fill="#F7F7F7"  />
<polygon points="192.18387096774194,185.2826086956522 193.98387096774195,183.48260869565217 195.78387096774196,185.2826086956522 193.98387096774195,187.0826086956522" stroke="#000000" stroke-width="1.5" fill="#000000"  />
<polygon points="200.15161290322578,185.2826086956522 201.9516129032258,183.48260869565217 203.7516129032258,185.2826086956522 201.9516129032258,187.0826086956522" stroke="#F7F7F7" stroke-width="1.5" fill="#F7F7F7"  />
<polygon points="200.15161290322578,185.2826086956522 201.9516129032258,183.48260869565217 203.7516129032258,185.2826086956522 201.9516129032258,187.0826086956522" stroke="#000000" stroke-width="1.5" fill="#000000"  />
<polygon points="208.11935483870965,167.1521739130435 209.91935483870967,165.3521739130435 211.71935483870968,167.1521739130435 209.91935483870967,168.9521739130435" stroke="#F7F7F7" stroke-width="1.5" fill="#F7F7F7"  />
<polygon points="208.11935483870965,167.1521739130435 209.91935483870967,165.3521739130435 211.71935483870968,167.1521739130435 209.91935483870967,168.9521739130435" stroke="#000000" stroke-width="1.5" fill="#000000"  />
<polygon points="216.08709677419353,167.1521739130435 217.88709677419354,165.3521739130435 219.68709677419355,167.1521739130435 217.88709677419354,168.9521739130435" stroke="#F7F7F7" stroke-width="1.5" fill="#F7F7F7"  />
<polygon points="216.08709677419353,167.1521739130435 217.88709677419354,165.3521739130435 219.68709677419355,167.1521739130435 217.88709677419354,168.9521739130435" stroke="#000000" stroke-width="1.5" fill="#000000"  />
<polygon points="224.0548387096774,173.19565217391303 225.8548387096774,171.39565217391302 227.65483870967742,173.19565217391303 225.8548387096774,174.99565217391304" stroke="#F7F7F7" stroke-width="1.5" fill="#F7F7F7"  />
<polygon points="224.0548387096774,173.19565217391303 225.8548387096774,171.39565217391302 227.65483870967742,173.19565217391303 225.8548387096774,174.99565217391304" stroke="#000000" stroke-width="1.5" fill="#000000"  />
<polygon points="232.02258064516127,142.9782608695652 233.82258064516128,141.17826086956518 235.6225806451613,142.9782608695652 233.82258064516128,144.7782608695652" stroke="#F7F7F7" stroke-width="1.5" fill="#F7F7F7"  />
<polygon points="232.02258064516127,142.9782608695652 233.82258064516128,141.17826086956518 235.6225806451613,142.9782608695652 233.82258064516128,144.7782608695652" stroke="#000000" stroke-width="1.5" fill="#000000"  />
<polygon points="239.99032258064514,136.93478260869566 241.79032258064515,135.13478260869564 243.59032258064516,136.93478260869566 241.79032258064515,138.73478260869567" stroke="#F7F7F7" stroke-width="1.5" fill="#F7F7F7"  />
<polygon points="239.99032258064514,136.93478260869566 241.79032258064515,135.13478260869564 243.59032258064516,136.93478260869566 241.79032258064515,138.73478260869567" stroke="#000000" stroke-width="1.5" fill="#000000"  />
<polygon points="247.958064516129,136.93478260869566 249.75806451612902,135.13478260869564 251.55806451612904,136.93478260869566 249.75806451612902,138.73478260869567" stroke="#F7F7F7" stroke-width="1.5" fill="#F7F7F7"  />
<polygon points="247.958064516129,136.93478260869566 249.75806451612902,135.13478260869564 251.55806451612904,136.93478260869566 249.75806451612902,138.73478260869567" stroke="#000000" stroke-width="1.5" fill="#000000"  />
<polygon points="255.9258064516129,136.93478260869566 257.7258064516129,135.13478260869564 259.52580645161294,136.93478260869566 257.7258064516129,138.73478260869567" stroke="#F7F7F7" stroke-width="1.5" fill="#F7F7F7"  />
<polygon points="255.9258064516129,136.93478260869566 257.7258064516129,135.13478260869564 259.52580645161294,136.93478260869566 257.7258064516129,138.73478260869567" stroke="#000000" stroke-width="1.5" fill="#000000"  />
<polygon points="263.89354838709676,130.89130434782612 265.69354838709677,129.0913043478261 267.4935483870968,130.89130434782612 265.69354838709677,132.69130434782613" stroke="#F7F7F7" stroke-width="1.5" fill="#F7F7F7"  />
<polygon points="263.89354838709676,130.89130434782612 265.69354838709677,129.0913043478261 267.4935483870968,130.89130434782612 265.69354838709677,132.69130434782613" stroke="#000000" stroke-width="1.5" fill="#000000"  />
<polygon points="271.8612903225806,124.84782608695652 273.6612903225806,123.04782608695652 275.4612903225806,124.84782608695652 273.6612903225806,126.64782608695651" stroke="#F7F7F7" stroke-width="1.5" fill="#F7F7F7"  />
<polygon points="271.8612903225806,124.84782608695652 273.6612903225806,123.04782608695652 275.4612903225806,124.84782608695652 273.6612903225806,126.64782608695651" stroke="#000000" stroke-width="1.5" fill="#000000"  />
<polygon points="279.8290322580645,124.84782608695652 281.6290322580645,123.04782608695652 283.4290322580645,124.84782608695652 281.6290322580645,126.64782608695651" stroke="#F7F7F7" stroke-width="1.5" fill="#F7F7F7"  />
<polygon points="279.8290322580645,124.84782608695652 281.6290322580645,123.04782608695652 283.4290322580645,124.84782608695652 281.6290322580645,126.64782608695651" stroke="#000000" stroke-width="1.5" fill="#000000"  />
<polygon points="287.7967741935484,106.71739130434783 289.5967741935484,104.91739130434783 291.3967741935484,106.71739130434783 289.5967741935484,108.51739130434783" stroke="#F7F7F7" stroke-width="1.5" fill="#F7F7F7"  />
<polygon points="287.7967741935484,106.71739130434783 289.5967741935484,104.91739130434783 291.3967741935484,106.71739130434783 289.5967741935484,108.51739130434783" stroke="#000000" stroke-width="1.5" fill="#000000"  />
<polygon points="295.76451612903224,94.63043478260869 297.56451612903226,92.83043478260869 299.36451612903227,94.63043478260869 297.56451612903226,96.43043478260869" stroke="#F7F7F7" stroke-width="1.5" fill="#F7F7F7"  />
<polygon points="295.76451612903224,94.63043478260869 297.56451612903226,92.83043478260869 299.36451612903227,94.63043478260869 297.56451612903226,96.43043478260869" stroke="#000000" stroke-width="1.5" fill="#000000"  />
<polygon points="303.7322580645161,88.58695652173914 305.5322580645161,86.78695652173914 307.3322580645161,88.58695652173914 305.5322580645161,90.38695652173914" stroke="#F7F7F7" stroke-width="1.5" fill="#F7F7F7"  />
<polygon points="303.7322580645161,88.58695652173914 305.5322580645161,86.78695652173914 307.3322580645161,88.58695652173914 305.5322580645161,90.38695652173914" stroke="#000000" stroke-width="1.5" fill="#000000"  />
<polygon points="311.7,76.5 313.5,74.7 315.3,76.5 313.5,78.3" stroke="#F7F7F7" stroke-width="1.5" fill="#F7F7F7"  />
<polygon points="311.7,76.5 313.5,74.7 315.3,76.5 313.5,78.3" stroke="#000000" stroke-width="1.5" fill="#000000"  />
</svg>