<svg width="600" height="392" xmlns="http://www.w3.org/2000/svg"> <rect width="100%" height="100%" fill="#FEFEFE" />
<line x1="70" y1="252" x2="530" y2="252" stroke="#9f9f9f" stroke-width="1" />
<rect x="70" y="87" width="460" height="165" fill="#FEFEFE" />
<text text-anchor="middle" x="300.0" y="20" font-family="'Helvetica Neue', Arial, sans-serif" font-weight="bold" font-size="22" fill="#000000">Master&apos;s degrees awarded in Psychology</text>
<text text-anchor="middle" x="300.0" y="42" font-family="'Helvetica Neue', Arial, sans-serif" font-size="14" fill="#000000">correlates with</text>
<text text-anchor="middle" x="300.0" y="68" font-family="'Helvetica Neue', Arial, sans-serif" font-weight="bold" font-size="22" fill="#ba0f27">Amazon.com&apos;s stock price (AMZN)</text>
<text text-anchor="start" x="23" y="297.3333333333333" font-family="'Helvetica Neue', Arial, sans-serif" font-size="14" fill="#9f9f9f">Master&apos;s degrees conferred by postsecondary institutions in Psychology</text>
<text text-anchor="start" x="23" y="313.3333333333333" font-family="'Helvetica Neue', Arial, sans-serif" font-size="14" fill="#9f9f9f">&#183; Source: National Center for Education Statistics</text>
<text text-anchor="start" x="23" y="336.66666666666663" font-family="'Helvetica Neue', Arial, sans-serif" font-size="14" fill="#9f9f9f">Opening price of Amazon.com (AMZN) on the first trading day of the year &#183;</text>
<text text-anchor="start" x="23" y="352.66666666666663" font-family="'Helvetica Neue', Arial, sans-serif" font-size="14" fill="#9f9f9f">Source: LSEG Analytics (Refinitiv)</text>
<text text-anchor="start" x="23" y="375.99999999999994" font-family="'Helvetica Neue', Arial, sans-serif" font-size="14" fill="#9f9f9f">2012-2021, r=0.962, r&#178;=0.925, p&lt;0.01  &#183;  tylervigen.com/spurious/correlation/2539</text>
<polyline points="5,292.66666666666663 20,292.66666666666663" style="fill:none;stroke:#000000;stroke-width:2.8" stroke-dasharray="3,1" />
<polygon points="1.7000000000000002,292.66666666666663 5,289.3666666666666 8.3,292.66666666666663 5,295.96666666666664" stroke="#F7F7F7" stroke-width="2.75" fill="#F7F7F7"  />
<polygon points="1.7000000000000002,292.66666666666663 5,289.3666666666666 8.3,292.66666666666663 5,295.96666666666664" stroke="#000000" stroke-width="2.75" fill="#000000"  />
<polyline points="5,331.99999999999994 20,331.99999999999994" style="fill:none;stroke:#ba0f27;stroke-width:2.8" />
<circle cx="5" cy="331.99999999999994" r="2.75" stroke="#F7F7F7" stroke-width="2.75" fill="#F7F7F7" />
<circle cx="5" cy="331.99999999999994" r="2.75" stroke="#ba0f27" stroke-width="2.75" fill="#ba0f27"  />
<text x="5" y="174.5" transform="rotate(270 5 169.5)" text-anchor="middle" fill="#000000" font-family="'Helvetica Neue', Arial, sans-serif" font-size="14" dominant-baseline="central">Degrees awarded</text>
<text x="169.5" y="-389" transform="rotate(90 100 100)" text-anchor="middle" fill="#ba0f27" font-family="'Helvetica Neue', Arial, sans-serif" font-size="14" dominant-baseline="central">Stock price</text>
<line x1="71" y1="94.75" x2="528" y2="94.75" stroke="#F3F3F3" stroke-width="1" fill="#FEFEFE" />
<text text-anchor="end" x="62" y="99.41666666666667" font-family="'Helvetica Neue', Arial, sans-serif" font-size="12" fill="#000000">31.8K</text>
<text text-anchor="start" x="538" y="99.41666666666667" font-family="'Helvetica Neue', Arial, sans-serif" font-size="12" fill="#ba0f27">$164</text>
<line x1="71" y1="132.125" x2="528" y2="132.125" stroke="#F3F3F3" stroke-width="1" fill="#FEFEFE" />
<text text-anchor="end" x="62" y="136.79166666666666" font-family="'Helvetica Neue', Arial, sans-serif" font-size="12">30.5K</text>
<text text-anchor="start" x="538" y="136.79166666666666" font-family="'Helvetica Neue', Arial, sans-serif" font-size="12" fill="#ba0f27">$125</text>
<line x1="71" y1="169.5" x2="528" y2="169.5" stroke="#F3F3F3" stroke-width="1" fill="#FEFEFE" />
<text text-anchor="end" x="62" y="174.16666666666666" font-family="'Helvetica Neue', Arial, sans-serif" font-size="12">29.3K</text>
<text text-anchor="start" x="538" y="174.16666666666666" font-family="'Helvetica Neue', Arial, sans-serif" font-size="12" fill="#ba0f27">$86</text>
<line x1="71" y1="206.875" x2="528" y2="206.875" stroke="#F3F3F3" stroke-width="1" fill="#FEFEFE" />
<text text-anchor="end" x="62" y="211.54166666666666" font-family="'Helvetica Neue', Arial, sans-serif" font-size="12">28.0K</text>
<text text-anchor="start" x="538" y="211.54166666666666" font-family="'Helvetica Neue', Arial, sans-serif" font-size="12" fill="#ba0f27">$47</text>
<line x1="71" y1="244.25" x2="528" y2="244.25" stroke="#F3F3F3" stroke-width="1" fill="#FEFEFE" />
<text text-anchor="end" x="62" y="248.91666666666666" font-family="'Helvetica Neue', Arial, sans-serif" font-size="12">26.8K</text>
<text text-anchor="start" x="538" y="248.91666666666666" font-family="'Helvetica Neue', Arial, sans-serif" font-size="12" fill="#ba0f27">$9</text>
<polyline points="77.75,252 77.75,258" style="fill:none;stroke:#000000;stroke-width:1" />
<polyline points="127.13888888888889,252 127.13888888888889,258" style="fill:none;stroke:#000000;stroke-width:1" />
<polyline points="176.52777777777777,252 176.52777777777777,258" style="fill:none;stroke:#000000;stroke-width:1" />
<polyline points="225.91666666666666,252 225.91666666666666,258" style="fill:none;stroke:#000000;stroke-width:1" />
<polyline points="275.30555555555554,252 275.30555555555554,258" style="fill:none;stroke:#000000;stroke-width:1" />
<polyline points="324.69444444444446,252 324.69444444444446,258" style="fill:none;stroke:#000000;stroke-width:1" />
<polyline points="374.0833333333333,252 374.0833333333333,258" style="fill:none;stroke:#000000;stroke-width:1" />
<polyline points="423.4722222222222,252 423.4722222222222,258" style="fill:none;stroke:#000000;stroke-width:1" />
<polyline points="472.8611111111111,252 472.8611111111111,258" style="fill:none;stroke:#000000;stroke-width:1" />
<polyline points="522.25,252 522.25,258" style="fill:none;stroke:#000000;stroke-width:1" />
<text text-anchor="middle" x="77.75" y="273" font-weight="bold" font-family="'Helvetica Neue', Arial, sans-serif" font-size="14">2012</text>
<text text-anchor="middle" x="127.13888888888889" y="273" font-weight="bold" font-family="'Helvetica Neue', Arial, sans-serif" font-size="14">2013</text>
<text text-anchor="middle" x="176.52777777777777" y="273" font-weight="bold" font-family="'Helvetica Neue', Arial, sans-serif" font-size="14">2014</text>
<text text-anchor="middle" x="225.91666666666666" y="273" font-weight="bold" font-family="'Helvetica Neue', Arial, sans-serif" font-size="14">2015</text>
<text text-anchor="middle" x="275.30555555555554" y="273" font-weight="bold" font-family="'Helvetica Neue', Arial, sans-serif" font-size="14">2016</text>
<text text-anchor="middle" x="324.69444444444446" y="273" font-weight="bold" font-family="'Helvetica Neue', Arial, sans-serif" font-size="14">2017</text>
<text text-anchor="middle" x="374.0833333333333" y="273" font-weight="bold" font-family="'Helvetica Neue', Arial, sans-serif" font-size="14">2018</text>
<text text-anchor="middle" x="423.4722222222222" y="273" font-weight="bold" font-family="'Helvetica Neue', Arial, sans-serif" font-size="14">2019</text>
<text text-anchor="middle" x="472.8611111111111" y="273" font-weight="bold" font-family="'Helvetica Neue', Arial, sans-serif" font-size="14">2020</text>
<text text-anchor="middle" x="522.25" y="273" font-weight="bold" font-family="'Helvetica Neue', Arial, sans-serif" font-size="14">2021</text>
<polyline points="77.75,244.25 127.13888888888889,240.3750403981643" style="fill:none;stroke:#ba0f27;stroke-width:2.8"  />
<polyline points="127.13888888888889,240.3750403981643 176.52777777777777,233.47548639389825" style="fill:none;stroke:#ba0f27;stroke-width:2.8"  />
<polyline points="176.52777777777777,233.47548639389825 225.91666666666666,237.64034322280395" style="fill:none;stroke:#ba0f27;stroke-width:2.8"  />
<polyline points="225.91666666666666,237.64034322280395 275.30555555555554,221.03889535259518" style="fill:none;stroke:#ba0f27;stroke-width:2.8"  />
<polyline points="275.30555555555554,221.03889535259518 324.69444444444446,216.12030573330748" style="fill:none;stroke:#ba0f27;stroke-width:2.8"  />
<polyline points="324.69444444444446,216.12030573330748 374.0833333333333,196.11739706547735" style="fill:none;stroke:#ba0f27;stroke-width:2.8"  />
<polyline points="374.0833333333333,196.11739706547735 423.4722222222222,181.9510859026566" style="fill:none;stroke:#ba0f27;stroke-width:2.8"  />
<polyline points="423.4722222222222,181.9510859026566 472.8611111111111,162.15110529377546" style="fill:none;stroke:#ba0f27;stroke-width:2.8"  />
<polyline points="472.8611111111111,162.15110529377546 522.25,94.75" style="fill:none;stroke:#ba0f27;stroke-width:2.8"  />
<circle cx="77.75" cy="244.25" r="2.75" stroke="#F7F7F7" stroke-width="2.75" fill="#F7F7F7" />
<circle cx="77.75" cy="244.25" r="2.75" stroke="#ba0f27" stroke-width="2.75" fill="#ba0f27"  />
<circle cx="127.13888888888889" cy="240.3750403981643" r="2.75" stroke="#F7F7F7" stroke-width="2.75" fill="#F7F7F7" />
<circle cx="127.13888888888889" cy="240.3750403981643" r="2.75" stroke="#ba0f27" stroke-width="2.75" fill="#ba0f27"  />
<circle cx="176.52777777777777" cy="233.47548639389825" r="2.75" stroke="#F7F7F7" stroke-width="2.75" fill="#F7F7F7" />
<circle cx="176.52777777777777" cy="233.47548639389825" r="2.75" stroke="#ba0f27" stroke-width="2.75" fill="#ba0f27"  />
<circle cx="225.91666666666666" cy="237.64034322280395" r="2.75" stroke="#F7F7F7" stroke-width="2.75" fill="#F7F7F7" />
<circle cx="225.91666666666666" cy="237.64034322280395" r="2.75" stroke="#ba0f27" stroke-width="2.75" fill="#ba0f27"  />
<circle cx="275.30555555555554" cy="221.03889535259518" r="2.75" stroke="#F7F7F7" stroke-width="2.75" fill="#F7F7F7" />
<circle cx="275.30555555555554" cy="221.03889535259518" r="2.75" stroke="#ba0f27" stroke-width="2.75" fill="#ba0f27"  />
<circle cx="324.69444444444446" cy="216.12030573330748" r="2.75" stroke="#F7F7F7" stroke-width="2.75" fill="#F7F7F7" />
<circle cx="324.69444444444446" cy="216.12030573330748" r="2.75" stroke="#ba0f27" stroke-width="2.75" fill="#ba0f27"  />
<circle cx="374.0833333333333" cy="196.11739706547735" r="2.75" stroke="#F7F7F7" stroke-width="2.75" fill="#F7F7F7" />
<circle cx="374.0833333333333" cy="196.11739706547735" r="2.75" stroke="#ba0f27" stroke-width="2.75" fill="#ba0f27"  />
<circle cx="423.4722222222222" cy="181.9510859026566" r="2.75" stroke="#F7F7F7" stroke-width="2.75" fill="#F7F7F7" />
<circle cx="423.4722222222222" cy="181.9510859026566" r="2.75" stroke="#ba0f27" stroke-width="2.75" fill="#ba0f27"  />
<circle cx="472.8611111111111" cy="162.15110529377546" r="2.75" stroke="#F7F7F7" stroke-width="2.75" fill="#F7F7F7" />
<circle cx="472.8611111111111" cy="162.15110529377546" r="2.75" stroke="#ba0f27" stroke-width="2.75" fill="#ba0f27"  />
<circle cx="522.25" cy="94.75" r="2.75" stroke="#F7F7F7" stroke-width="2.75" fill="#F7F7F7" />
<circle cx="522.25" cy="94.75" r="2.75" stroke="#ba0f27" stroke-width="2.75" fill="#ba0f27"  />
<polyline points="77.75,235.88469224620303 127.13888888888889,213.92575939248601" style="fill:none;stroke:#000000;stroke-width:2.8" stroke-dasharray="3,1"  />
<polyline points="127.13888888888889,213.92575939248601 176.52777777777777,209.77298161470821" style="fill:none;stroke:#000000;stroke-width:2.8" stroke-dasharray="3,1"  />
<polyline points="176.52777777777777,209.77298161470821 225.91666666666666,244.25" style="fill:none;stroke:#000000;stroke-width:2.8" stroke-dasharray="3,1"  />
<polyline points="225.91666666666666,244.25 275.30555555555554,218.1681654676259" style="fill:none;stroke:#000000;stroke-width:2.8" stroke-dasharray="3,1"  />
<polyline points="275.30555555555554,218.1681654676259 324.69444444444446,221.33503197442047" style="fill:none;stroke:#000000;stroke-width:2.8" stroke-dasharray="3,1"  />
<polyline points="324.69444444444446,221.33503197442047 374.0833333333333,210.01199040767386" style="fill:none;stroke:#000000;stroke-width:2.8" stroke-dasharray="3,1"  />
<polyline points="374.0833333333333,210.01199040767386 423.4722222222222,173.62290167865706" style="fill:none;stroke:#000000;stroke-width:2.8" stroke-dasharray="3,1"  />
<polyline points="423.4722222222222,173.62290167865706 472.8611111111111,155.27897681854517" style="fill:none;stroke:#000000;stroke-width:2.8" stroke-dasharray="3,1"  />
<polyline points="472.8611111111111,155.27897681854517 522.25,94.75" style="fill:none;stroke:#000000;stroke-width:2.8" stroke-dasharray="3,1"  />
<polygon points="74.45,235.88469224620303 77.75,232.58469224620302 81.05,235.88469224620303 77.75,239.18469224620304" stroke="#F7F7F7" stroke-width="2.75" fill="#F7F7F7"  />
<polygon points="74.45,235.88469224620303 77.75,232.58469224620302 81.05,235.88469224620303 77.75,239.18469224620304" stroke="#000000" stroke-width="2.75" fill="#000000"  />
<polygon points="123.83888888888889,213.92575939248601 127.13888888888889,210.625759392486 130.4388888888889,213.92575939248601 127.13888888888889,217.22575939248603" stroke="#F7F7F7" stroke-width="2.75" fill="#F7F7F7"  />
<polygon points="123.83888888888889,213.92575939248601 127.13888888888889,210.625759392486 130.4388888888889,213.92575939248601 127.13888888888889,217.22575939248603" stroke="#000000" stroke-width="2.75" fill="#000000"  />
<polygon points="173.22777777777776,209.77298161470821 176.52777777777777,206.4729816147082 179.82777777777778,209.77298161470821 176.52777777777777,213.07298161470823" stroke="#F7F7F7" stroke-width="2.75" fill="#F7F7F7"  />
<polygon points="173.22777777777776,209.77298161470821 176.52777777777777,206.4729816147082 179.82777777777778,209.77298161470821 176.52777777777777,213.07298161470823" stroke="#000000" stroke-width="2.75" fill="#000000"  />
<polygon points="222.61666666666665,244.25 225.91666666666666,240.95 229.21666666666667,244.25 225.91666666666666,247.55" stroke="#F7F7F7" stroke-width="2.75" fill="#F7F7F7"  />
<polygon points="222.61666666666665,244.25 225.91666666666666,240.95 229.21666666666667,244.25 225.91666666666666,247.55" stroke="#000000" stroke-width="2.75" fill="#000000"  />
<polygon points="272.00555555555553,218.1681654676259 275.30555555555554,214.8681654676259 278.60555555555555,218.1681654676259 275.30555555555554,221.4681654676259" stroke="#F7F7F7" stroke-width="2.75" fill="#F7F7F7"  />
<polygon points="272.00555555555553,218.1681654676259 275.30555555555554,214.8681654676259 278.60555555555555,218.1681654676259 275.30555555555554,221.4681654676259" stroke="#000000" stroke-width="2.75" fill="#000000"  />
<polygon points="321.39444444444445,221.33503197442047 324.69444444444446,218.03503197442046 327.99444444444447,221.33503197442047 324.69444444444446,224.63503197442049" stroke="#F7F7F7" stroke-width="2.75" fill="#F7F7F7"  />
<polygon points="321.39444444444445,221.33503197442047 324.69444444444446,218.03503197442046 327.99444444444447,221.33503197442047 324.69444444444446,224.63503197442049" stroke="#000000" stroke-width="2.75" fill="#000000"  />
<polygon points="370.7833333333333,210.01199040767386 374.0833333333333,206.71199040767385 377.3833333333333,210.01199040767386 374.0833333333333,213.31199040767387" stroke="#F7F7F7" stroke-width="2.75" fill="#F7F7F7"  />
<polygon points="370.7833333333333,210.01199040767386 374.0833333333333,206.71199040767385 377.3833333333333,210.01199040767386 374.0833333333333,213.31199040767387" stroke="#000000" stroke-width="2.75" fill="#000000"  />
<polygon points="420.17222222222216,173.62290167865706 423.4722222222222,170.32290167865705 426.7722222222222,173.62290167865706 423.4722222222222,176.92290167865707" stroke="#F7F7F7" stroke-width="2.75" fill="#F7F7F7"  />
<polygon points="420.17222222222216,173.62290167865706 423.4722222222222,170.32290167865705 426.7722222222222,173.62290167865706 423.4722222222222,176.92290167865707" stroke="#000000" stroke-width="2.75" fill="#000000"  />
<polygon points="469.5611111111111,155.27897681854517 472.8611111111111,151.97897681854516 476.1611111111111,155.27897681854517 472.8611111111111,158.5789768185452" stroke="#F7F7F7" stroke-width="2.75" fill="#F7F7F7"  />
<polygon points="469.5611111111111,155.27897681854517 472.8611111111111,151.97897681854516 476.1611111111111,155.27897681854517 472.8611111111111,158.5789768185452" stroke="#000000" stroke-width="2.75" fill="#000000"  />
<polygon points="518.95,94.75 522.25,91.45 525.55,94.75 522.25,98.05" stroke="#F7F7F7" stroke-width="2.75" fill="#F7F7F7"  />
<polygon points="518.95,94.75 522.25,91.45 525.55,94.75 522.25,98.05" stroke="#000000" stroke-width="2.75" fill="#000000"  />
</svg>