<svg width="380" height="372" xmlns="http://www.w3.org/2000/svg"> <rect width="100%" height="100%" fill="#FEFEFE" />
<line x1="60" y1="222" x2="320" y2="222" stroke="#9f9f9f" stroke-width="1" />
<rect x="60" y="70" width="260" height="152" fill="#FEFEFE" />
<text text-anchor="middle" x="190.0" y="18" font-family="'Helvetica Neue', Arial, sans-serif" font-weight="bold" font-size="18" fill="#000000">Popularity of the first name Waylon</text>
<text text-anchor="middle" x="190.0" y="36" font-family="'Helvetica Neue', Arial, sans-serif" font-size="14" fill="#000000">correlates with</text>
<text text-anchor="middle" x="190.0" y="58" font-family="'Helvetica Neue', Arial, sans-serif" font-weight="bold" font-size="18" fill="#ba0f27">Wind power generated in China</text>
<text text-anchor="start" x="20" y="267.3333333333333" font-family="'Helvetica Neue', Arial, sans-serif" font-size="14" fill="#9f9f9f">Babies of all sexes born in the US named Waylon &#183;</text>
<text text-anchor="start" x="20" y="283.3333333333333" font-family="'Helvetica Neue', Arial, sans-serif" font-size="14" fill="#9f9f9f">Source: US Social Security Administration</text>
<text text-anchor="start" x="20" y="306.66666666666663" font-family="'Helvetica Neue', Arial, sans-serif" font-size="14" fill="#9f9f9f">Total wind power generated in China in billion kWh</text>
<text text-anchor="start" x="20" y="322.66666666666663" font-family="'Helvetica Neue', Arial, sans-serif" font-size="14" fill="#9f9f9f">&#183; Source: Energy Information Administration</text>
<text text-anchor="start" x="20" y="345.99999999999994" font-family="'Helvetica Neue', Arial, sans-serif" font-size="14" fill="#9f9f9f">1990-2021, r=0.995, r&#178;=0.990, p&lt;0.01</text>
<text text-anchor="start" x="20" y="369.33333333333326" font-family="'Helvetica Neue', Arial, sans-serif" font-size="14" fill="#9f9f9f">tylervigen.com/spurious/correlation/3018</text>
<polyline points="5,262.66666666666663 17,262.66666666666663" style="fill:none;stroke:#000000;stroke-width:2" stroke-dasharray="3,1" />
<polygon points="3.2,262.66666666666663 5,260.8666666666666 6.8,262.66666666666663 5,264.46666666666664" stroke="#F7F7F7" stroke-width="1.5" fill="#F7F7F7"  />
<polygon points="3.2,262.66666666666663 5,260.8666666666666 6.8,262.66666666666663 5,264.46666666666664" stroke="#000000" stroke-width="1.5" fill="#000000"  />
<polyline points="5,301.99999999999994 17,301.99999999999994" style="fill:none;stroke:#ba0f27;stroke-width:2" />
<circle cx="5" cy="301.99999999999994" r="1.5" stroke="#F7F7F7" stroke-width="1.5" fill="#F7F7F7" />
<circle cx="5" cy="301.99999999999994" r="1.5" stroke="#ba0f27" stroke-width="1.5" fill="#ba0f27"  />
<text x="5" y="148.0" transform="rotate(270 5 146.0)" text-anchor="middle" fill="#000000" font-family="'Helvetica Neue', Arial, sans-serif" font-size="14" dominant-baseline="central">Babies born</text>
<text x="146.0" y="-174" transform="rotate(90 100 100)" text-anchor="middle" fill="#ba0f27" font-family="'Helvetica Neue', Arial, sans-serif" font-size="14" dominant-baseline="central">Billion kWh</text>
<line x1="61" y1="76.5" x2="318" y2="76.5" stroke="#F3F3F3" stroke-width="1" fill="#FEFEFE" />
<text text-anchor="end" x="52" y="81.16666666666667" font-family="'Helvetica Neue', Arial, sans-serif" font-size="12" fill="#000000">4.7K</text>
<text text-anchor="start" x="328" y="81.16666666666667" font-family="'Helvetica Neue', Arial, sans-serif" font-size="12" fill="#ba0f27">611</text>
<line x1="61" y1="111.25" x2="318" y2="111.25" stroke="#F3F3F3" stroke-width="1" fill="#FEFEFE" />
<text text-anchor="end" x="52" y="115.91666666666667" font-family="'Helvetica Neue', Arial, sans-serif" font-size="12">3.5K</text>
<text text-anchor="start" x="328" y="115.91666666666667" font-family="'Helvetica Neue', Arial, sans-serif" font-size="12" fill="#ba0f27">458</text>
<line x1="61" y1="146.0" x2="318" y2="146.0" stroke="#F3F3F3" stroke-width="1" fill="#FEFEFE" />
<text text-anchor="end" x="52" y="150.66666666666666" font-family="'Helvetica Neue', Arial, sans-serif" font-size="12">2.4K</text>
<text text-anchor="start" x="328" y="150.66666666666666" font-family="'Helvetica Neue', Arial, sans-serif" font-size="12" fill="#ba0f27">306</text>
<line x1="61" y1="180.75" x2="318" y2="180.75" stroke="#F3F3F3" stroke-width="1" fill="#FEFEFE" />
<text text-anchor="end" x="52" y="185.41666666666666" font-family="'Helvetica Neue', Arial, sans-serif" font-size="12">1.2K</text>
<text text-anchor="start" x="328" y="185.41666666666666" font-family="'Helvetica Neue', Arial, sans-serif" font-size="12" fill="#ba0f27">153</text>
<line x1="61" y1="215.5" x2="318" y2="215.5" stroke="#F3F3F3" stroke-width="1" fill="#FEFEFE" />
<text text-anchor="end" x="52" y="220.16666666666666" font-family="'Helvetica Neue', Arial, sans-serif" font-size="12">105</text>
<text text-anchor="start" x="328" y="220.16666666666666" font-family="'Helvetica Neue', Arial, sans-serif" font-size="12" fill="#ba0f27">0.0</text>
<polyline points="66.5,222 66.5,228" style="fill:none;stroke:#000000;stroke-width:1" />
<polyline points="146.17741935483872,222 146.17741935483872,228" style="fill:none;stroke:#000000;stroke-width:1" />
<polyline points="225.8548387096774,222 225.8548387096774,228" style="fill:none;stroke:#000000;stroke-width:1" />
<polyline points="305.5322580645161,222 305.5322580645161,228" style="fill:none;stroke:#000000;stroke-width:1" />
<text text-anchor="middle" x="66.5" y="243" font-weight="bold" font-family="'Helvetica Neue', Arial, sans-serif" font-size="14">1990</text>
<text text-anchor="middle" x="146.17741935483872" y="243" font-weight="bold" font-family="'Helvetica Neue', Arial, sans-serif" font-size="14">2000</text>
<text text-anchor="middle" x="225.8548387096774" y="243" font-weight="bold" font-family="'Helvetica Neue', Arial, sans-serif" font-size="14">2010</text>
<text text-anchor="middle" x="305.5322580645161" y="243" font-weight="bold" font-family="'Helvetica Neue', Arial, sans-serif" font-size="14">2020</text>
<polyline points="66.5,215.5 74.46774193548387,215.49840809922463" style="fill:none;stroke:#ba0f27;stroke-width:2"  />
<polyline points="74.46774193548387,215.49840809922463 82.43548387096774,215.49727102724225" style="fill:none;stroke:#ba0f27;stroke-width:2"  />
<polyline points="82.43548387096774,215.49727102724225 90.40322580645162,215.49545171207043" style="fill:none;stroke:#ba0f27;stroke-width:2"  />
<polyline points="90.40322580645162,215.49545171207043 98.37096774193549,215.49135825293388" style="fill:none;stroke:#ba0f27;stroke-width:2"  />
<polyline points="98.37096774193549,215.49135825293388 106.33870967741936,215.48590030741843" style="fill:none;stroke:#ba0f27;stroke-width:2"  />
<polyline points="106.33870967741936,215.48590030741843 114.30645161290323,215.47816821793825" style="fill:none;stroke:#ba0f27;stroke-width:2"  />
<polyline points="114.30645161290323,215.47816821793825 122.2741935483871,215.45360746311877" style="fill:none;stroke:#ba0f27;stroke-width:2"  />
<polyline points="122.2741935483871,215.45360746311877 130.24193548387098,215.41631150209662" style="fill:none;stroke:#ba0f27;stroke-width:2"  />
<polyline points="130.24193548387098,215.41631150209662 138.20967741935482,215.3881121169335" style="fill:none;stroke:#ba0f27;stroke-width:2"  />
<polyline points="138.20967741935482,215.3881121169335 146.17741935483872,215.36059497495987" style="fill:none;stroke:#ba0f27;stroke-width:2"  />
<polyline points="146.17741935483872,215.36059497495987 154.14516129032256,215.330121445832" style="fill:none;stroke:#ba0f27;stroke-width:2"  />
<polyline points="154.14516129032256,215.330121445832 162.11290322580646,215.3019220606689" style="fill:none;stroke:#ba0f27;stroke-width:2"  />
<polyline points="162.11290322580646,215.3019220606689 170.0806451612903,215.2641712708538" style="fill:none;stroke:#ba0f27;stroke-width:2"  />
<polyline points="170.0806451612903,215.2641712708538 178.0483870967742,215.19753885268617" style="fill:none;stroke:#ba0f27;stroke-width:2"  />
<polyline points="178.0483870967742,215.19753885268617 186.01612903225805,215.03925843273848" style="fill:none;stroke:#ba0f27;stroke-width:2"  />
<polyline points="186.01612903225805,215.03925843273848 193.98387096774195,214.62081594322163" style="fill:none;stroke:#ba0f27;stroke-width:2"  />
<polyline points="193.98387096774195,214.62081594322163 201.9516129032258,214.20191862491183" style="fill:none;stroke:#ba0f27;stroke-width:2"  />
<polyline points="201.9516129032258,214.20191862491183 209.91935483870967,212.13472176094" style="fill:none;stroke:#ba0f27;stroke-width:2"  />
<polyline points="209.91935483870967,212.13472176094 217.88709677419354,209.38300756357376" style="fill:none;stroke:#ba0f27;stroke-width:2"  />
<polyline points="217.88709677419354,209.38300756357376 225.8548387096774,205.35276962921637" style="fill:none;stroke:#ba0f27;stroke-width:2"  />
<polyline points="225.8548387096774,205.35276962921637 233.82258064516128,199.50617291020075" style="fill:none;stroke:#ba0f27;stroke-width:2"  />
<polyline points="233.82258064516128,199.50617291020075 241.79032258064515,193.6736758837667" style="fill:none;stroke:#ba0f27;stroke-width:2"  />
<polyline points="241.79032258064515,193.6736758837667 249.75806451612902,183.3902242894936" style="fill:none;stroke:#ba0f27;stroke-width:2"  />
<polyline points="249.75806451612902,183.3902242894936 257.7258064516129,179.11892709487103" style="fill:none;stroke:#ba0f27;stroke-width:2"  />
<polyline points="257.7258064516129,179.11892709487103 265.69354838709677,173.2545920529303" style="fill:none;stroke:#ba0f27;stroke-width:2"  />
<polyline points="265.69354838709677,173.2545920529303 273.6612903225806,161.58732385609738" style="fill:none;stroke:#ba0f27;stroke-width:2"  />
<polyline points="273.6612903225806,161.58732385609738 281.6290322580645,147.9060737640682" style="fill:none;stroke:#ba0f27;stroke-width:2"  />
<polyline points="281.6290322580645,147.9060737640682 289.5967741935484,132.27338073587373" style="fill:none;stroke:#ba0f27;stroke-width:2"  />
<polyline points="289.5967741935484,132.27338073587373 297.56451612903226,123.16293259862667" style="fill:none;stroke:#ba0f27;stroke-width:2"  />
<polyline points="297.56451612903226,123.16293259862667 305.5322580645161,109.4202806195488" style="fill:none;stroke:#ba0f27;stroke-width:2"  />
<polyline points="305.5322580645161,109.4202806195488 313.5,76.5" style="fill:none;stroke:#ba0f27;stroke-width:2"  />
<circle cx="66.5" cy="215.5" r="1.5" stroke="#F7F7F7" stroke-width="1.5" fill="#F7F7F7" />
<circle cx="66.5" cy="215.5" r="1.5" stroke="#ba0f27" stroke-width="1.5" fill="#ba0f27"  />
<circle cx="74.46774193548387" cy="215.49840809922463" r="1.5" stroke="#F7F7F7" stroke-width="1.5" fill="#F7F7F7" />
<circle cx="74.46774193548387" cy="215.49840809922463" r="1.5" stroke="#ba0f27" stroke-width="1.5" fill="#ba0f27"  />
<circle cx="82.43548387096774" cy="215.49727102724225" r="1.5" stroke="#F7F7F7" stroke-width="1.5" fill="#F7F7F7" />
<circle cx="82.43548387096774" cy="215.49727102724225" r="1.5" stroke="#ba0f27" stroke-width="1.5" fill="#ba0f27"  />
<circle cx="90.40322580645162" cy="215.49545171207043" r="1.5" stroke="#F7F7F7" stroke-width="1.5" fill="#F7F7F7" />
<circle cx="90.40322580645162" cy="215.49545171207043" r="1.5" stroke="#ba0f27" stroke-width="1.5" fill="#ba0f27"  />
<circle cx="98.37096774193549" cy="215.49135825293388" r="1.5" stroke="#F7F7F7" stroke-width="1.5" fill="#F7F7F7" />
<circle cx="98.37096774193549" cy="215.49135825293388" r="1.5" stroke="#ba0f27" stroke-width="1.5" fill="#ba0f27"  />
<circle cx="106.33870967741936" cy="215.48590030741843" r="1.5" stroke="#F7F7F7" stroke-width="1.5" fill="#F7F7F7" />
<circle cx="106.33870967741936" cy="215.48590030741843" r="1.5" stroke="#ba0f27" stroke-width="1.5" fill="#ba0f27"  />
<circle cx="114.30645161290323" cy="215.47816821793825" r="1.5" stroke="#F7F7F7" stroke-width="1.5" fill="#F7F7F7" />
<circle cx="114.30645161290323" cy="215.47816821793825" r="1.5" stroke="#ba0f27" stroke-width="1.5" fill="#ba0f27"  />
<circle cx="122.2741935483871" cy="215.45360746311877" r="1.5" stroke="#F7F7F7" stroke-width="1.5" fill="#F7F7F7" />
<circle cx="122.2741935483871" cy="215.45360746311877" r="1.5" stroke="#ba0f27" stroke-width="1.5" fill="#ba0f27"  />
<circle cx="130.24193548387098" cy="215.41631150209662" r="1.5" stroke="#F7F7F7" stroke-width="1.5" fill="#F7F7F7" />
<circle cx="130.24193548387098" cy="215.41631150209662" r="1.5" stroke="#ba0f27" stroke-width="1.5" fill="#ba0f27"  />
<circle cx="138.20967741935482" cy="215.3881121169335" r="1.5" stroke="#F7F7F7" stroke-width="1.5" fill="#F7F7F7" />
<circle cx="138.20967741935482" cy="215.3881121169335" r="1.5" stroke="#ba0f27" stroke-width="1.5" fill="#ba0f27"  />
<circle cx="146.17741935483872" cy="215.36059497495987" r="1.5" stroke="#F7F7F7" stroke-width="1.5" fill="#F7F7F7" />
<circle cx="146.17741935483872" cy="215.36059497495987" r="1.5" stroke="#ba0f27" stroke-width="1.5" fill="#ba0f27"  />
<circle cx="154.14516129032256" cy="215.330121445832" r="1.5" stroke="#F7F7F7" stroke-width="1.5" fill="#F7F7F7" />
<circle cx="154.14516129032256" cy="215.330121445832" r="1.5" stroke="#ba0f27" stroke-width="1.5" fill="#ba0f27"  />
<circle cx="162.11290322580646" cy="215.3019220606689" r="1.5" stroke="#F7F7F7" stroke-width="1.5" fill="#F7F7F7" />
<circle cx="162.11290322580646" cy="215.3019220606689" r="1.5" stroke="#ba0f27" stroke-width="1.5" fill="#ba0f27"  />
<circle cx="170.0806451612903" cy="215.2641712708538" r="1.5" stroke="#F7F7F7" stroke-width="1.5" fill="#F7F7F7" />
<circle cx="170.0806451612903" cy="215.2641712708538" r="1.5" stroke="#ba0f27" stroke-width="1.5" fill="#ba0f27"  />
<circle cx="178.0483870967742" cy="215.19753885268617" r="1.5" stroke="#F7F7F7" stroke-width="1.5" fill="#F7F7F7" />
<circle cx="178.0483870967742" cy="215.19753885268617" r="1.5" stroke="#ba0f27" stroke-width="1.5" fill="#ba0f27"  />
<circle cx="186.01612903225805" cy="215.03925843273848" r="1.5" stroke="#F7F7F7" stroke-width="1.5" fill="#F7F7F7" />
<circle cx="186.01612903225805" cy="215.03925843273848" r="1.5" stroke="#ba0f27" stroke-width="1.5" fill="#ba0f27"  />
<circle cx="193.98387096774195" cy="214.62081594322163" r="1.5" stroke="#F7F7F7" stroke-width="1.5" fill="#F7F7F7" />
<circle cx="193.98387096774195" cy="214.62081594322163" r="1.5" stroke="#ba0f27" stroke-width="1.5" fill="#ba0f27"  />
<circle cx="201.9516129032258" cy="214.20191862491183" r="1.5" stroke="#F7F7F7" stroke-width="1.5" fill="#F7F7F7" />
<circle cx="201.9516129032258" cy="214.20191862491183" r="1.5" stroke="#ba0f27" stroke-width="1.5" fill="#ba0f27"  />
<circle cx="209.91935483870967" cy="212.13472176094" r="1.5" stroke="#F7F7F7" stroke-width="1.5" fill="#F7F7F7" />
<circle cx="209.91935483870967" cy="212.13472176094" r="1.5" stroke="#ba0f27" stroke-width="1.5" fill="#ba0f27"  />
<circle cx="217.88709677419354" cy="209.38300756357376" r="1.5" stroke="#F7F7F7" stroke-width="1.5" fill="#F7F7F7" />
<circle cx="217.88709677419354" cy="209.38300756357376" r="1.5" stroke="#ba0f27" stroke-width="1.5" fill="#ba0f27"  />
<circle cx="225.8548387096774" cy="205.35276962921637" r="1.5" stroke="#F7F7F7" stroke-width="1.5" fill="#F7F7F7" />
<circle cx="225.8548387096774" cy="205.35276962921637" r="1.5" stroke="#ba0f27" stroke-width="1.5" fill="#ba0f27"  />
<circle cx="233.82258064516128" cy="199.50617291020075" r="1.5" stroke="#F7F7F7" stroke-width="1.5" fill="#F7F7F7" />
<circle cx="233.82258064516128" cy="199.50617291020075" r="1.5" stroke="#ba0f27" stroke-width="1.5" fill="#ba0f27"  />
<circle cx="241.79032258064515" cy="193.6736758837667" r="1.5" stroke="#F7F7F7" stroke-width="1.5" fill="#F7F7F7" />
<circle cx="241.79032258064515" cy="193.6736758837667" r="1.5" stroke="#ba0f27" stroke-width="1.5" fill="#ba0f27"  />
<circle cx="249.75806451612902" cy="183.3902242894936" r="1.5" stroke="#F7F7F7" stroke-width="1.5" fill="#F7F7F7" />
<circle cx="249.75806451612902" cy="183.3902242894936" r="1.5" stroke="#ba0f27" stroke-width="1.5" fill="#ba0f27"  />
<circle cx="257.7258064516129" cy="179.11892709487103" r="1.5" stroke="#F7F7F7" stroke-width="1.5" fill="#F7F7F7" />
<circle cx="257.7258064516129" cy="179.11892709487103" r="1.5" stroke="#ba0f27" stroke-width="1.5" fill="#ba0f27"  />
<circle cx="265.69354838709677" cy="173.2545920529303" r="1.5" stroke="#F7F7F7" stroke-width="1.5" fill="#F7F7F7" />
<circle cx="265.69354838709677" cy="173.2545920529303" r="1.5" stroke="#ba0f27" stroke-width="1.5" fill="#ba0f27"  />
<circle cx="273.6612903225806" cy="161.58732385609738" r="1.5" stroke="#F7F7F7" stroke-width="1.5" fill="#F7F7F7" />
<circle cx="273.6612903225806" cy="161.58732385609738" r="1.5" stroke="#ba0f27" stroke-width="1.5" fill="#ba0f27"  />
<circle cx="281.6290322580645" cy="147.9060737640682" r="1.5" stroke="#F7F7F7" stroke-width="1.5" fill="#F7F7F7" />
<circle cx="281.6290322580645" cy="147.9060737640682" r="1.5" stroke="#ba0f27" stroke-width="1.5" fill="#ba0f27"  />
<circle cx="289.5967741935484" cy="132.27338073587373" r="1.5" stroke="#F7F7F7" stroke-width="1.5" fill="#F7F7F7" />
<circle cx="289.5967741935484" cy="132.27338073587373" r="1.5" stroke="#ba0f27" stroke-width="1.5" fill="#ba0f27"  />
<circle cx="297.56451612903226" cy="123.16293259862667" r="1.5" stroke="#F7F7F7" stroke-width="1.5" fill="#F7F7F7" />
<circle cx="297.56451612903226" cy="123.16293259862667" r="1.5" stroke="#ba0f27" stroke-width="1.5" fill="#ba0f27"  />
<circle cx="305.5322580645161" cy="109.4202806195488" r="1.5" stroke="#F7F7F7" stroke-width="1.5" fill="#F7F7F7" />
<circle cx="305.5322580645161" cy="109.4202806195488" r="1.5" stroke="#ba0f27" stroke-width="1.5" fill="#ba0f27"  />
<circle cx="313.5" cy="76.5" r="1.5" stroke="#F7F7F7" stroke-width="1.5" fill="#F7F7F7" />
<circle cx="313.5" cy="76.5" r="1.5" stroke="#ba0f27" stroke-width="1.5" fill="#ba0f27"  />
<polyline points="66.5,215.25683358845396 74.46774193548387,214.86168816969166" style="fill:none;stroke:#000000;stroke-width:2" stroke-dasharray="3,1"  />
<polyline points="74.46774193548387,214.86168816969166 82.43548387096774,214.58812595670238" style="fill:none;stroke:#000000;stroke-width:2" stroke-dasharray="3,1"  />
<polyline points="82.43548387096774,214.58812595670238 90.40322580645162,215.37841679422698" style="fill:none;stroke:#000000;stroke-width:2" stroke-dasharray="3,1"  />
<polyline points="90.40322580645162,215.37841679422698 98.37096774193549,214.74010496391864" style="fill:none;stroke:#000000;stroke-width:2" stroke-dasharray="3,1"  />
<polyline points="98.37096774193549,214.74010496391864 106.33870967741936,215.37841679422698" style="fill:none;stroke:#000000;stroke-width:2" stroke-dasharray="3,1"  />
<polyline points="106.33870967741936,215.37841679422698 114.30645161290323,214.86168816969166" style="fill:none;stroke:#000000;stroke-width:2" stroke-dasharray="3,1"  />
<polyline points="114.30645161290323,214.86168816969166 122.2741935483871,214.61852175814565" style="fill:none;stroke:#000000;stroke-width:2" stroke-dasharray="3,1"  />
<polyline points="122.2741935483871,214.61852175814565 130.24193548387098,215.34802099278374" style="fill:none;stroke:#000000;stroke-width:2" stroke-dasharray="3,1"  />
<polyline points="130.24193548387098,215.34802099278374 138.20967741935482,215.22643778701072" style="fill:none;stroke:#000000;stroke-width:2" stroke-dasharray="3,1"  />
<polyline points="138.20967741935482,215.22643778701072 146.17741935483872,214.7097091624754" style="fill:none;stroke:#000000;stroke-width:2" stroke-dasharray="3,1"  />
<polyline points="146.17741935483872,214.7097091624754 154.14516129032256,215.5" style="fill:none;stroke:#000000;stroke-width:2" stroke-dasharray="3,1"  />
<polyline points="154.14516129032256,215.5 162.11290322580646,211.76131642247978" style="fill:none;stroke:#000000;stroke-width:2" stroke-dasharray="3,1"  />
<polyline points="162.11290322580646,211.76131642247978 170.0806451612903,212.3996282527881" style="fill:none;stroke:#000000;stroke-width:2" stroke-dasharray="3,1"  />
<polyline points="170.0806451612903,212.3996282527881 178.0483870967742,209.87677673299802" style="fill:none;stroke:#000000;stroke-width:2" stroke-dasharray="3,1"  />
<polyline points="178.0483870967742,209.87677673299802 186.01612903225805,207.597091624754" style="fill:none;stroke:#000000;stroke-width:2" stroke-dasharray="3,1"  />
<polyline points="186.01612903225805,207.597091624754 193.98387096774195,204.52711567898535" style="fill:none;stroke:#000000;stroke-width:2" stroke-dasharray="3,1"  />
<polyline points="193.98387096774195,204.52711567898535 201.9516129032258,203.4328668270282" style="fill:none;stroke:#000000;stroke-width:2" stroke-dasharray="3,1"  />
<polyline points="201.9516129032258,203.4328668270282 209.91935483870967,204.1015744587798" style="fill:none;stroke:#000000;stroke-width:2" stroke-dasharray="3,1"  />
<polyline points="209.91935483870967,204.1015744587798 217.88709677419354,201.36595232888695" style="fill:none;stroke:#000000;stroke-width:2" stroke-dasharray="3,1"  />
<polyline points="217.88709677419354,201.36595232888695 225.8548387096774,198.72151760332386" style="fill:none;stroke:#000000;stroke-width:2" stroke-dasharray="3,1"  />
<polyline points="225.8548387096774,198.72151760332386 233.82258064516128,194.3445221954953" style="fill:none;stroke:#000000;stroke-width:2" stroke-dasharray="3,1"  />
<polyline points="233.82258064516128,194.3445221954953 241.79032258064515,189.17723595014212" style="fill:none;stroke:#000000;stroke-width:2" stroke-dasharray="3,1"  />
<polyline points="241.79032258064515,189.17723595014212 249.75806451612902,181.94303520664772" style="fill:none;stroke:#000000;stroke-width:2" stroke-dasharray="3,1"  />
<polyline points="249.75806451612902,181.94303520664772 257.7258064516129,172.88508637655806" style="fill:none;stroke:#000000;stroke-width:2" stroke-dasharray="3,1"  />
<polyline points="257.7258064516129,172.88508637655806 265.69354838709677,164.83019899409578" style="fill:none;stroke:#000000;stroke-width:2" stroke-dasharray="3,1"  />
<polyline points="265.69354838709677,164.83019899409578 273.6612903225806,155.43789634813032" style="fill:none;stroke:#000000;stroke-width:2" stroke-dasharray="3,1"  />
<polyline points="273.6612903225806,155.43789634813032 281.6290322580645,144.40422042422915" style="fill:none;stroke:#000000;stroke-width:2" stroke-dasharray="3,1"  />
<polyline points="281.6290322580645,144.40422042422915 289.5967741935484,133.49212770610103" style="fill:none;stroke:#000000;stroke-width:2" stroke-dasharray="3,1"  />
<polyline points="289.5967741935484,133.49212770610103 297.56451612903226,113.4005029521102" style="fill:none;stroke:#000000;stroke-width:2" stroke-dasharray="3,1"  />
<polyline points="297.56451612903226,113.4005029521102 305.5322580645161,108.84113273562212" style="fill:none;stroke:#000000;stroke-width:2" stroke-dasharray="3,1"  />
<polyline points="305.5322580645161,108.84113273562212 313.5,76.5" style="fill:none;stroke:#000000;stroke-width:2" stroke-dasharray="3,1"  />
<polygon points="64.7,215.25683358845396 66.5,213.45683358845395 68.3,215.25683358845396 66.5,217.05683358845397" stroke="#F7F7F7" stroke-width="1.5" fill="#F7F7F7"  />
<polygon points="64.7,215.25683358845396 66.5,213.45683358845395 68.3,215.25683358845396 66.5,217.05683358845397" stroke="#000000" stroke-width="1.5" fill="#000000"  />
<polygon points="72.66774193548387,214.86168816969166 74.46774193548387,213.06168816969165 76.26774193548387,214.86168816969166 74.46774193548387,216.66168816969167" stroke="#F7F7F7" stroke-width="1.5" fill="#F7F7F7"  />
<polygon points="72.66774193548387,214.86168816969166 74.46774193548387,213.06168816969165 76.26774193548387,214.86168816969166 74.46774193548387,216.66168816969167" stroke="#000000" stroke-width="1.5" fill="#000000"  />
<polygon points="80.63548387096775,214.58812595670238 82.43548387096774,212.78812595670237 84.23548387096774,214.58812595670238 82.43548387096774,216.3881259567024" stroke="#F7F7F7" stroke-width="1.5" fill="#F7F7F7"  />
<polygon points="80.63548387096775,214.58812595670238 82.43548387096774,212.78812595670237 84.23548387096774,214.58812595670238 82.43548387096774,216.3881259567024" stroke="#000000" stroke-width="1.5" fill="#000000"  />
<polygon points="88.60322580645162,215.37841679422698 90.40322580645162,213.57841679422697 92.20322580645161,215.37841679422698 90.40322580645162,217.178416794227" stroke="#F7F7F7" stroke-width="1.5" fill="#F7F7F7"  />
<polygon points="88.60322580645162,215.37841679422698 90.40322580645162,213.57841679422697 92.20322580645161,215.37841679422698 90.40322580645162,217.178416794227" stroke="#000000" stroke-width="1.5" fill="#000000"  />
<polygon points="96.57096774193549,214.74010496391864 98.37096774193549,212.94010496391863 100.17096774193548,214.74010496391864 98.37096774193549,216.54010496391865" stroke="#F7F7F7" stroke-width="1.5" fill="#F7F7F7"  />
<polygon points="96.57096774193549,214.74010496391864 98.37096774193549,212.94010496391863 100.17096774193548,214.74010496391864 98.37096774193549,216.54010496391865" stroke="#000000" stroke-width="1.5" fill="#000000"  />
<polygon points="104.53870967741936,215.37841679422698 106.33870967741936,213.57841679422697 108.13870967741936,215.37841679422698 106.33870967741936,217.178416794227" stroke="#F7F7F7" stroke-width="1.5" fill="#F7F7F7"  />
<polygon points="104.53870967741936,215.37841679422698 106.33870967741936,213.57841679422697 108.13870967741936,215.37841679422698 106.33870967741936,217.178416794227" stroke="#000000" stroke-width="1.5" fill="#000000"  />
<polygon points="112.50645161290323,214.86168816969166 114.30645161290323,213.06168816969165 116.10645161290323,214.86168816969166 114.30645161290323,216.66168816969167" stroke="#F7F7F7" stroke-width="1.5" fill="#F7F7F7"  />
<polygon points="112.50645161290323,214.86168816969166 114.30645161290323,213.06168816969165 116.10645161290323,214.86168816969166 114.30645161290323,216.66168816969167" stroke="#000000" stroke-width="1.5" fill="#000000"  />
<polygon points="120.4741935483871,214.61852175814565 122.2741935483871,212.81852175814564 124.0741935483871,214.61852175814565 122.2741935483871,216.41852175814566" stroke="#F7F7F7" stroke-width="1.5" fill="#F7F7F7"  />
<polygon points="120.4741935483871,214.61852175814565 122.2741935483871,212.81852175814564 124.0741935483871,214.61852175814565 122.2741935483871,216.41852175814566" stroke="#000000" stroke-width="1.5" fill="#000000"  />
<polygon points="128.44193548387096,215.34802099278374 130.24193548387098,213.54802099278373 132.041935483871,215.34802099278374 130.24193548387098,217.14802099278376" stroke="#F7F7F7" stroke-width="1.5" fill="#F7F7F7"  />
<polygon points="128.44193548387096,215.34802099278374 130.24193548387098,213.54802099278373 132.041935483871,215.34802099278374 130.24193548387098,217.14802099278376" stroke="#000000" stroke-width="1.5" fill="#000000"  />
<polygon points="136.4096774193548,215.22643778701072 138.20967741935482,213.4264377870107 140.00967741935483,215.22643778701072 138.20967741935482,217.02643778701074" stroke="#F7F7F7" stroke-width="1.5" fill="#F7F7F7"  />
<polygon points="136.4096774193548,215.22643778701072 138.20967741935482,213.4264377870107 140.00967741935483,215.22643778701072 138.20967741935482,217.02643778701074" stroke="#000000" stroke-width="1.5" fill="#000000"  />
<polygon points="144.3774193548387,214.7097091624754 146.17741935483872,212.9097091624754 147.97741935483873,214.7097091624754 146.17741935483872,216.50970916247542" stroke="#F7F7F7" stroke-width="1.5" fill="#F7F7F7"  />
<polygon points="144.3774193548387,214.7097091624754 146.17741935483872,212.9097091624754 147.97741935483873,214.7097091624754 146.17741935483872,216.50970916247542" stroke="#000000" stroke-width="1.5" fill="#000000"  />
<polygon points="152.34516129032255,215.5 154.14516129032256,213.7 155.94516129032257,215.5 154.14516129032256,217.3" stroke="#F7F7F7" stroke-width="1.5" fill="#F7F7F7"  />
<polygon points="152.34516129032255,215.5 154.14516129032256,213.7 155.94516129032257,215.5 154.14516129032256,217.3" stroke="#000000" stroke-width="1.5" fill="#000000"  />
<polygon points="160.31290322580645,211.76131642247978 162.11290322580646,209.96131642247977 163.91290322580647,211.76131642247978 162.11290322580646,213.5613164224798" stroke="#F7F7F7" stroke-width="1.5" fill="#F7F7F7"  />
<polygon points="160.31290322580645,211.76131642247978 162.11290322580646,209.96131642247977 163.91290322580647,211.76131642247978 162.11290322580646,213.5613164224798" stroke="#000000" stroke-width="1.5" fill="#000000"  />
<polygon points="168.2806451612903,212.3996282527881 170.0806451612903,210.59962825278808 171.88064516129032,212.3996282527881 170.0806451612903,214.1996282527881" stroke="#F7F7F7" stroke-width="1.5" fill="#F7F7F7"  />
<polygon points="168.2806451612903,212.3996282527881 170.0806451612903,210.59962825278808 171.88064516129032,212.3996282527881 170.0806451612903,214.1996282527881" stroke="#000000" stroke-width="1.5" fill="#000000"  />
<polygon points="176.2483870967742,209.87677673299802 178.0483870967742,208.076776732998 179.84838709677422,209.87677673299802 178.0483870967742,211.67677673299804" stroke="#F7F7F7" stroke-width="1.5" fill="#F7F7F7"  />
<polygon points="176.2483870967742,209.87677673299802 178.0483870967742,208.076776732998 179.84838709677422,209.87677673299802 178.0483870967742,211.67677673299804" stroke="#000000" stroke-width="1.5" fill="#000000"  />
<polygon points="184.21612903225804,207.597091624754 186.01612903225805,205.797091624754 187.81612903225806,207.597091624754 186.01612903225805,209.397091624754" stroke="#F7F7F7" stroke-width="1.5" fill="#F7F7F7"  />
<polygon points="184.21612903225804,207.597091624754 186.01612903225805,205.797091624754 187.81612903225806,207.597091624754 186.01612903225805,209.397091624754" stroke="#000000" stroke-width="1.5" fill="#000000"  />
<polygon points="192.18387096774194,204.52711567898535 193.98387096774195,202.72711567898534 195.78387096774196,204.52711567898535 193.98387096774195,206.32711567898536" stroke="#F7F7F7" stroke-width="1.5" fill="#F7F7F7"  />
<polygon points="192.18387096774194,204.52711567898535 193.98387096774195,202.72711567898534 195.78387096774196,204.52711567898535 193.98387096774195,206.32711567898536" stroke="#000000" stroke-width="1.5" fill="#000000"  />
<polygon points="200.15161290322578,203.4328668270282 201.9516129032258,201.63286682702818 203.7516129032258,203.4328668270282 201.9516129032258,205.2328668270282" stroke="#F7F7F7" stroke-width="1.5" fill="#F7F7F7"  />
<polygon points="200.15161290322578,203.4328668270282 201.9516129032258,201.63286682702818 203.7516129032258,203.4328668270282 201.9516129032258,205.2328668270282" stroke="#000000" stroke-width="1.5" fill="#000000"  />
<polygon points="208.11935483870965,204.1015744587798 209.91935483870967,202.30157445877978 211.71935483870968,204.1015744587798 209.91935483870967,205.9015744587798" stroke="#F7F7F7" stroke-width="1.5" fill="#F7F7F7"  />
<polygon points="208.11935483870965,204.1015744587798 209.91935483870967,202.30157445877978 211.71935483870968,204.1015744587798 209.91935483870967,205.9015744587798" stroke="#000000" stroke-width="1.5" fill="#000000"  />
<polygon points="216.08709677419353,201.36595232888695 217.88709677419354,199.56595232888694 219.68709677419355,201.36595232888695 217.88709677419354,203.16595232888696" stroke="#F7F7F7" stroke-width="1.5" fill="#F7F7F7"  />
<polygon points="216.08709677419353,201.36595232888695 217.88709677419354,199.56595232888694 219.68709677419355,201.36595232888695 217.88709677419354,203.16595232888696" stroke="#000000" stroke-width="1.5" fill="#000000"  />
<polygon points="224.0548387096774,198.72151760332386 225.8548387096774,196.92151760332385 227.65483870967742,198.72151760332386 225.8548387096774,200.52151760332387" stroke="#F7F7F7" stroke-width="1.5" fill="#F7F7F7"  />
<polygon points="224.0548387096774,198.72151760332386 225.8548387096774,196.92151760332385 227.65483870967742,198.72151760332386 225.8548387096774,200.52151760332387" stroke="#000000" stroke-width="1.5" fill="#000000"  />
<polygon points="232.02258064516127,194.3445221954953 233.82258064516128,192.5445221954953 235.6225806451613,194.3445221954953 233.82258064516128,196.1445221954953" stroke="#F7F7F7" stroke-width="1.5" fill="#F7F7F7"  />
<polygon points="232.02258064516127,194.3445221954953 233.82258064516128,192.5445221954953 235.6225806451613,194.3445221954953 233.82258064516128,196.1445221954953" stroke="#000000" stroke-width="1.5" fill="#000000"  />
<polygon points="239.99032258064514,189.17723595014212 241.79032258064515,187.3772359501421 243.59032258064516,189.17723595014212 241.79032258064515,190.97723595014213" stroke="#F7F7F7" stroke-width="1.5" fill="#F7F7F7"  />
<polygon points="239.99032258064514,189.17723595014212 241.79032258064515,187.3772359501421 243.59032258064516,189.17723595014212 241.79032258064515,190.97723595014213" stroke="#000000" stroke-width="1.5" fill="#000000"  />
<polygon points="247.958064516129,181.94303520664772 249.75806451612902,180.1430352066477 251.55806451612904,181.94303520664772 249.75806451612902,183.74303520664773" stroke="#F7F7F7" stroke-width="1.5" fill="#F7F7F7"  />
<polygon points="247.958064516129,181.94303520664772 249.75806451612902,180.1430352066477 251.55806451612904,181.94303520664772 249.75806451612902,183.74303520664773" stroke="#000000" stroke-width="1.5" fill="#000000"  />
<polygon points="255.9258064516129,172.88508637655806 257.7258064516129,171.08508637655805 259.52580645161294,172.88508637655806 257.7258064516129,174.68508637655808" stroke="#F7F7F7" stroke-width="1.5" fill="#F7F7F7"  />
<polygon points="255.9258064516129,172.88508637655806 257.7258064516129,171.08508637655805 259.52580645161294,172.88508637655806 257.7258064516129,174.68508637655808" stroke="#000000" stroke-width="1.5" fill="#000000"  />
<polygon points="263.89354838709676,164.83019899409578 265.69354838709677,163.03019899409577 267.4935483870968,164.83019899409578 265.69354838709677,166.6301989940958" stroke="#F7F7F7" stroke-width="1.5" fill="#F7F7F7"  />
<polygon points="263.89354838709676,164.83019899409578 265.69354838709677,163.03019899409577 267.4935483870968,164.83019899409578 265.69354838709677,166.6301989940958" stroke="#000000" stroke-width="1.5" fill="#000000"  />
<polygon points="271.8612903225806,155.43789634813032 273.6612903225806,153.6378963481303 275.4612903225806,155.43789634813032 273.6612903225806,157.23789634813033" stroke="#F7F7F7" stroke-width="1.5" fill="#F7F7F7"  />
<polygon points="271.8612903225806,155.43789634813032 273.6612903225806,153.6378963481303 275.4612903225806,155.43789634813032 273.6612903225806,157.23789634813033" stroke="#000000" stroke-width="1.5" fill="#000000"  />
<polygon points="279.8290322580645,144.40422042422915 281.6290322580645,142.60422042422914 283.4290322580645,144.40422042422915 281.6290322580645,146.20422042422916" stroke="#F7F7F7" stroke-width="1.5" fill="#F7F7F7"  />
<polygon points="279.8290322580645,144.40422042422915 281.6290322580645,142.60422042422914 283.4290322580645,144.40422042422915 281.6290322580645,146.20422042422916" stroke="#000000" stroke-width="1.5" fill="#000000"  />
<polygon points="287.7967741935484,133.49212770610103 289.5967741935484,131.69212770610102 291.3967741935484,133.49212770610103 289.5967741935484,135.29212770610104" stroke="#F7F7F7" stroke-width="1.5" fill="#F7F7F7"  />
<polygon points="287.7967741935484,133.49212770610103 289.5967741935484,131.69212770610102 291.3967741935484,133.49212770610103 289.5967741935484,135.29212770610104" stroke="#000000" stroke-width="1.5" fill="#000000"  />
<polygon points="295.76451612903224,113.4005029521102 297.56451612903226,111.6005029521102 299.36451612903227,113.4005029521102 297.56451612903226,115.2005029521102" stroke="#F7F7F7" stroke-width="1.5" fill="#F7F7F7"  />
<polygon points="295.76451612903224,113.4005029521102 297.56451612903226,111.6005029521102 299.36451612903227,113.4005029521102 297.56451612903226,115.2005029521102" stroke="#000000" stroke-width="1.5" fill="#000000"  />
<polygon points="303.7322580645161,108.84113273562212 305.5322580645161,107.04113273562213 307.3322580645161,108.84113273562212 305.5322580645161,110.64113273562212" stroke="#F7F7F7" stroke-width="1.5" fill="#F7F7F7"  />
<polygon points="303.7322580645161,108.84113273562212 305.5322580645161,107.04113273562213 307.3322580645161,108.84113273562212 305.5322580645161,110.64113273562212" stroke="#000000" stroke-width="1.5" fill="#000000"  />
<polygon points="311.7,76.5 313.5,74.7 315.3,76.5 313.5,78.3" stroke="#F7F7F7" stroke-width="1.5" fill="#F7F7F7"  />
<polygon points="311.7,76.5 313.5,74.7 315.3,76.5 313.5,78.3" stroke="#000000" stroke-width="1.5" fill="#000000"  />
</svg>