<svg width="600" height="392" xmlns="http://www.w3.org/2000/svg"> <rect width="100%" height="100%" fill="#FEFEFE" />
<line x1="70" y1="252" x2="530" y2="252" stroke="#9f9f9f" stroke-width="1" />
<rect x="70" y="87" width="460" height="165" fill="#FEFEFE" />
<text text-anchor="middle" x="300.0" y="20" font-family="'Helvetica Neue', Arial, sans-serif" font-weight="bold" font-size="22" fill="#000000">Popularity of the first name Waylon</text>
<text text-anchor="middle" x="300.0" y="42" font-family="'Helvetica Neue', Arial, sans-serif" font-size="14" fill="#000000">correlates with</text>
<text text-anchor="middle" x="300.0" y="68" font-family="'Helvetica Neue', Arial, sans-serif" font-weight="bold" font-size="22" fill="#ba0f27">Wind power generated in China</text>
<text text-anchor="start" x="23" y="297.3333333333333" font-family="'Helvetica Neue', Arial, sans-serif" font-size="14" fill="#9f9f9f">Babies of all sexes born in the US named Waylon &#183; Source: US Social Security</text>
<text text-anchor="start" x="23" y="313.3333333333333" font-family="'Helvetica Neue', Arial, sans-serif" font-size="14" fill="#9f9f9f">Administration</text>
<text text-anchor="start" x="23" y="336.66666666666663" font-family="'Helvetica Neue', Arial, sans-serif" font-size="14" fill="#9f9f9f">Total wind power generated in China in billion kWh &#183; Source: Energy</text>
<text text-anchor="start" x="23" y="352.66666666666663" font-family="'Helvetica Neue', Arial, sans-serif" font-size="14" fill="#9f9f9f">Information Administration</text>
<text text-anchor="start" x="23" y="375.99999999999994" font-family="'Helvetica Neue', Arial, sans-serif" font-size="14" fill="#9f9f9f">1990-2021, r=0.995, r&#178;=0.990, p&lt;0.01  &#183;  tylervigen.com/spurious/correlation/3018</text>
<polyline points="5,292.66666666666663 20,292.66666666666663" style="fill:none;stroke:#000000;stroke-width:1.75" stroke-dasharray="3,1" />
<polygon points="3.14,292.66666666666663 5,290.8066666666666 6.859999999999999,292.66666666666663 5,294.52666666666664" stroke="#F7F7F7" stroke-width="1.55" fill="#F7F7F7"  />
<polygon points="3.14,292.66666666666663 5,290.8066666666666 6.859999999999999,292.66666666666663 5,294.52666666666664" stroke="#000000" stroke-width="1.55" fill="#000000"  />
<polyline points="5,331.99999999999994 20,331.99999999999994" style="fill:none;stroke:#ba0f27;stroke-width:1.75" />
<circle cx="5" cy="331.99999999999994" r="1.55" stroke="#F7F7F7" stroke-width="1.55" fill="#F7F7F7" />
<circle cx="5" cy="331.99999999999994" r="1.55" stroke="#ba0f27" stroke-width="1.55" fill="#ba0f27"  />
<text x="5" y="174.5" transform="rotate(270 5 169.5)" text-anchor="middle" fill="#000000" font-family="'Helvetica Neue', Arial, sans-serif" font-size="14" dominant-baseline="central">Babies born</text>
<text x="169.5" y="-389" transform="rotate(90 100 100)" text-anchor="middle" fill="#ba0f27" font-family="'Helvetica Neue', Arial, sans-serif" font-size="14" dominant-baseline="central">Billion kWh</text>
<line x1="71" y1="93.55" x2="528" y2="93.55" stroke="#F3F3F3" stroke-width="1" fill="#FEFEFE" />
<text text-anchor="end" x="62" y="98.21666666666667" font-family="'Helvetica Neue', Arial, sans-serif" font-size="12" fill="#000000">4.7K</text>
<text text-anchor="start" x="538" y="98.21666666666667" font-family="'Helvetica Neue', Arial, sans-serif" font-size="12" fill="#ba0f27">611</text>
<line x1="71" y1="131.525" x2="528" y2="131.525" stroke="#F3F3F3" stroke-width="1" fill="#FEFEFE" />
<text text-anchor="end" x="62" y="136.19166666666666" font-family="'Helvetica Neue', Arial, sans-serif" font-size="12">3.5K</text>
<text text-anchor="start" x="538" y="136.19166666666666" font-family="'Helvetica Neue', Arial, sans-serif" font-size="12" fill="#ba0f27">458</text>
<line x1="71" y1="169.5" x2="528" y2="169.5" stroke="#F3F3F3" stroke-width="1" fill="#FEFEFE" />
<text text-anchor="end" x="62" y="174.16666666666666" font-family="'Helvetica Neue', Arial, sans-serif" font-size="12">2.4K</text>
<text text-anchor="start" x="538" y="174.16666666666666" font-family="'Helvetica Neue', Arial, sans-serif" font-size="12" fill="#ba0f27">306</text>
<line x1="71" y1="207.47500000000002" x2="528" y2="207.47500000000002" stroke="#F3F3F3" stroke-width="1" fill="#FEFEFE" />
<text text-anchor="end" x="62" y="212.14166666666668" font-family="'Helvetica Neue', Arial, sans-serif" font-size="12">1.2K</text>
<text text-anchor="start" x="538" y="212.14166666666668" font-family="'Helvetica Neue', Arial, sans-serif" font-size="12" fill="#ba0f27">153</text>
<line x1="71" y1="245.45" x2="528" y2="245.45" stroke="#F3F3F3" stroke-width="1" fill="#FEFEFE" />
<text text-anchor="end" x="62" y="250.11666666666665" font-family="'Helvetica Neue', Arial, sans-serif" font-size="12">105</text>
<text text-anchor="start" x="538" y="250.11666666666665" font-family="'Helvetica Neue', Arial, sans-serif" font-size="12" fill="#ba0f27">0.0</text>
<polyline points="76.55000000000003,252 76.55000000000003,258" style="fill:none;stroke:#000000;stroke-width:1" />
<polyline points="148.63064516129035,252 148.63064516129035,258" style="fill:none;stroke:#000000;stroke-width:1" />
<polyline points="220.71129032258068,252 220.71129032258068,258" style="fill:none;stroke:#000000;stroke-width:1" />
<polyline points="292.791935483871,252 292.791935483871,258" style="fill:none;stroke:#000000;stroke-width:1" />
<polyline points="364.8725806451613,252 364.8725806451613,258" style="fill:none;stroke:#000000;stroke-width:1" />
<polyline points="436.9532258064516,252 436.9532258064516,258" style="fill:none;stroke:#000000;stroke-width:1" />
<polyline points="509.03387096774196,252 509.03387096774196,258" style="fill:none;stroke:#000000;stroke-width:1" />
<text text-anchor="middle" x="76.55000000000003" y="273" font-weight="bold" font-family="'Helvetica Neue', Arial, sans-serif" font-size="14">1990</text>
<text text-anchor="middle" x="148.63064516129035" y="273" font-weight="bold" font-family="'Helvetica Neue', Arial, sans-serif" font-size="14">1995</text>
<text text-anchor="middle" x="220.71129032258068" y="273" font-weight="bold" font-family="'Helvetica Neue', Arial, sans-serif" font-size="14">2000</text>
<text text-anchor="middle" x="292.791935483871" y="273" font-weight="bold" font-family="'Helvetica Neue', Arial, sans-serif" font-size="14">2005</text>
<text text-anchor="middle" x="364.8725806451613" y="273" font-weight="bold" font-family="'Helvetica Neue', Arial, sans-serif" font-size="14">2010</text>
<text text-anchor="middle" x="436.9532258064516" y="273" font-weight="bold" font-family="'Helvetica Neue', Arial, sans-serif" font-size="14">2015</text>
<text text-anchor="middle" x="509.03387096774196" y="273" font-weight="bold" font-family="'Helvetica Neue', Arial, sans-serif" font-size="14">2020</text>
<polyline points="76.55000000000003,245.45 90.9661290322581,245.4482603616707" style="fill:none;stroke:#ba0f27;stroke-width:1.75"  />
<polyline points="90.9661290322581,245.4482603616707 105.38225806451615,245.44701776286405" style="fill:none;stroke:#ba0f27;stroke-width:1.75"  />
<polyline points="105.38225806451615,245.44701776286405 119.79838709677422,245.44502960477337" style="fill:none;stroke:#ba0f27;stroke-width:1.75"  />
<polyline points="119.79838709677422,245.44502960477337 134.2145161290323,245.44055624906946" style="fill:none;stroke:#ba0f27;stroke-width:1.75"  />
<polyline points="134.2145161290323,245.44055624906946 148.63064516129035,245.43459177479758" style="fill:none;stroke:#ba0f27;stroke-width:1.75"  />
<polyline points="148.63064516129035,245.43459177479758 163.0467741935484,245.42614210291237" style="fill:none;stroke:#ba0f27;stroke-width:1.75"  />
<polyline points="163.0467741935484,245.42614210291237 177.46290322580649,245.3993019686888" style="fill:none;stroke:#ba0f27;stroke-width:1.75"  />
<polyline points="177.46290322580649,245.3993019686888 191.87903225806454,245.35854472783075" style="fill:none;stroke:#ba0f27;stroke-width:1.75"  />
<polyline points="191.87903225806454,245.35854472783075 206.2951612903226,245.32772827742593" style="fill:none;stroke:#ba0f27;stroke-width:1.75"  />
<polyline points="206.2951612903226,245.32772827742593 220.71129032258068,245.29765738630505" style="fill:none;stroke:#ba0f27;stroke-width:1.75"  />
<polyline points="220.71129032258068,245.29765738630505 235.1274193548387,245.2643557382869" style="fill:none;stroke:#ba0f27;stroke-width:1.75"  />
<polyline points="235.1274193548387,245.2643557382869 249.5435483870968,245.23353928788208" style="fill:none;stroke:#ba0f27;stroke-width:1.75"  />
<polyline points="249.5435483870968,245.23353928788208 263.9596774193549,245.19228500750137" style="fill:none;stroke:#ba0f27;stroke-width:1.75"  />
<polyline points="263.9596774193549,245.19228500750137 278.3758064516129,245.11946871743186" style="fill:none;stroke:#ba0f27;stroke-width:1.75"  />
<polyline points="278.3758064516129,245.11946871743186 292.791935483871,244.94649896354662" style="fill:none;stroke:#ba0f27;stroke-width:1.75"  />
<polyline points="292.791935483871,244.94649896354662 307.20806451612907,244.48922260270047" style="fill:none;stroke:#ba0f27;stroke-width:1.75"  />
<polyline points="307.20806451612907,244.48922260270047 321.6241935483871,244.03144920233171" style="fill:none;stroke:#ba0f27;stroke-width:1.75"  />
<polyline points="321.6241935483871,244.03144920233171 336.0403225806452,241.7724045718474" style="fill:none;stroke:#ba0f27;stroke-width:1.75"  />
<polyline points="336.0403225806452,241.7724045718474 350.4564516129032,238.76531545976155" style="fill:none;stroke:#ba0f27;stroke-width:1.75"  />
<polyline points="350.4564516129032,238.76531545976155 364.8725806451613,234.36104824948177" style="fill:none;stroke:#ba0f27;stroke-width:1.75"  />
<polyline points="364.8725806451613,234.36104824948177 379.2887096774194,227.971853705464" style="fill:none;stroke:#ba0f27;stroke-width:1.75"  />
<polyline points="379.2887096774194,227.971853705464 393.7048387096774,221.59806738664867" style="fill:none;stroke:#ba0f27;stroke-width:1.75"  />
<polyline points="393.7048387096774,221.59806738664867 408.1209677419355,210.3602522990941" style="fill:none;stroke:#ba0f27;stroke-width:1.75"  />
<polyline points="408.1209677419355,210.3602522990941 422.53709677419357,205.69255414180515" style="fill:none;stroke:#ba0f27;stroke-width:1.75"  />
<polyline points="422.53709677419357,205.69255414180515 436.9532258064516,199.28397505640368" style="fill:none;stroke:#ba0f27;stroke-width:1.75"  />
<polyline points="436.9532258064516,199.28397505640368 451.3693548387097,186.5339172211597" style="fill:none;stroke:#ba0f27;stroke-width:1.75"  />
<polyline points="451.3693548387097,186.5339172211597 465.78548387096777,171.58296837958244" style="fill:none;stroke:#ba0f27;stroke-width:1.75"  />
<polyline points="465.78548387096777,171.58296837958244 480.2016129032258,154.49947146603753" style="fill:none;stroke:#ba0f27;stroke-width:1.75"  />
<polyline points="480.2016129032258,154.49947146603753 494.6177419354839,144.5435213074201" style="fill:none;stroke:#ba0f27;stroke-width:1.75"  />
<polyline points="494.6177419354839,144.5435213074201 509.03387096774196,129.5254721302839" style="fill:none;stroke:#ba0f27;stroke-width:1.75"  />
<polyline points="509.03387096774196,129.5254721302839 523.45,93.55" style="fill:none;stroke:#ba0f27;stroke-width:1.75"  />
<circle cx="76.55000000000003" cy="245.45" r="1.55" stroke="#F7F7F7" stroke-width="1.55" fill="#F7F7F7" />
<circle cx="76.55000000000003" cy="245.45" r="1.55" stroke="#ba0f27" stroke-width="1.55" fill="#ba0f27"  />
<circle cx="90.9661290322581" cy="245.4482603616707" r="1.55" stroke="#F7F7F7" stroke-width="1.55" fill="#F7F7F7" />
<circle cx="90.9661290322581" cy="245.4482603616707" r="1.55" stroke="#ba0f27" stroke-width="1.55" fill="#ba0f27"  />
<circle cx="105.38225806451615" cy="245.44701776286405" r="1.55" stroke="#F7F7F7" stroke-width="1.55" fill="#F7F7F7" />
<circle cx="105.38225806451615" cy="245.44701776286405" r="1.55" stroke="#ba0f27" stroke-width="1.55" fill="#ba0f27"  />
<circle cx="119.79838709677422" cy="245.44502960477337" r="1.55" stroke="#F7F7F7" stroke-width="1.55" fill="#F7F7F7" />
<circle cx="119.79838709677422" cy="245.44502960477337" r="1.55" stroke="#ba0f27" stroke-width="1.55" fill="#ba0f27"  />
<circle cx="134.2145161290323" cy="245.44055624906946" r="1.55" stroke="#F7F7F7" stroke-width="1.55" fill="#F7F7F7" />
<circle cx="134.2145161290323" cy="245.44055624906946" r="1.55" stroke="#ba0f27" stroke-width="1.55" fill="#ba0f27"  />
<circle cx="148.63064516129035" cy="245.43459177479758" r="1.55" stroke="#F7F7F7" stroke-width="1.55" fill="#F7F7F7" />
<circle cx="148.63064516129035" cy="245.43459177479758" r="1.55" stroke="#ba0f27" stroke-width="1.55" fill="#ba0f27"  />
<circle cx="163.0467741935484" cy="245.42614210291237" r="1.55" stroke="#F7F7F7" stroke-width="1.55" fill="#F7F7F7" />
<circle cx="163.0467741935484" cy="245.42614210291237" r="1.55" stroke="#ba0f27" stroke-width="1.55" fill="#ba0f27"  />
<circle cx="177.46290322580649" cy="245.3993019686888" r="1.55" stroke="#F7F7F7" stroke-width="1.55" fill="#F7F7F7" />
<circle cx="177.46290322580649" cy="245.3993019686888" r="1.55" stroke="#ba0f27" stroke-width="1.55" fill="#ba0f27"  />
<circle cx="191.87903225806454" cy="245.35854472783075" r="1.55" stroke="#F7F7F7" stroke-width="1.55" fill="#F7F7F7" />
<circle cx="191.87903225806454" cy="245.35854472783075" r="1.55" stroke="#ba0f27" stroke-width="1.55" fill="#ba0f27"  />
<circle cx="206.2951612903226" cy="245.32772827742593" r="1.55" stroke="#F7F7F7" stroke-width="1.55" fill="#F7F7F7" />
<circle cx="206.2951612903226" cy="245.32772827742593" r="1.55" stroke="#ba0f27" stroke-width="1.55" fill="#ba0f27"  />
<circle cx="220.71129032258068" cy="245.29765738630505" r="1.55" stroke="#F7F7F7" stroke-width="1.55" fill="#F7F7F7" />
<circle cx="220.71129032258068" cy="245.29765738630505" r="1.55" stroke="#ba0f27" stroke-width="1.55" fill="#ba0f27"  />
<circle cx="235.1274193548387" cy="245.2643557382869" r="1.55" stroke="#F7F7F7" stroke-width="1.55" fill="#F7F7F7" />
<circle cx="235.1274193548387" cy="245.2643557382869" r="1.55" stroke="#ba0f27" stroke-width="1.55" fill="#ba0f27"  />
<circle cx="249.5435483870968" cy="245.23353928788208" r="1.55" stroke="#F7F7F7" stroke-width="1.55" fill="#F7F7F7" />
<circle cx="249.5435483870968" cy="245.23353928788208" r="1.55" stroke="#ba0f27" stroke-width="1.55" fill="#ba0f27"  />
<circle cx="263.9596774193549" cy="245.19228500750137" r="1.55" stroke="#F7F7F7" stroke-width="1.55" fill="#F7F7F7" />
<circle cx="263.9596774193549" cy="245.19228500750137" r="1.55" stroke="#ba0f27" stroke-width="1.55" fill="#ba0f27"  />
<circle cx="278.3758064516129" cy="245.11946871743186" r="1.55" stroke="#F7F7F7" stroke-width="1.55" fill="#F7F7F7" />
<circle cx="278.3758064516129" cy="245.11946871743186" r="1.55" stroke="#ba0f27" stroke-width="1.55" fill="#ba0f27"  />
<circle cx="292.791935483871" cy="244.94649896354662" r="1.55" stroke="#F7F7F7" stroke-width="1.55" fill="#F7F7F7" />
<circle cx="292.791935483871" cy="244.94649896354662" r="1.55" stroke="#ba0f27" stroke-width="1.55" fill="#ba0f27"  />
<circle cx="307.20806451612907" cy="244.48922260270047" r="1.55" stroke="#F7F7F7" stroke-width="1.55" fill="#F7F7F7" />
<circle cx="307.20806451612907" cy="244.48922260270047" r="1.55" stroke="#ba0f27" stroke-width="1.55" fill="#ba0f27"  />
<circle cx="321.6241935483871" cy="244.03144920233171" r="1.55" stroke="#F7F7F7" stroke-width="1.55" fill="#F7F7F7" />
<circle cx="321.6241935483871" cy="244.03144920233171" r="1.55" stroke="#ba0f27" stroke-width="1.55" fill="#ba0f27"  />
<circle cx="336.0403225806452" cy="241.7724045718474" r="1.55" stroke="#F7F7F7" stroke-width="1.55" fill="#F7F7F7" />
<circle cx="336.0403225806452" cy="241.7724045718474" r="1.55" stroke="#ba0f27" stroke-width="1.55" fill="#ba0f27"  />
<circle cx="350.4564516129032" cy="238.76531545976155" r="1.55" stroke="#F7F7F7" stroke-width="1.55" fill="#F7F7F7" />
<circle cx="350.4564516129032" cy="238.76531545976155" r="1.55" stroke="#ba0f27" stroke-width="1.55" fill="#ba0f27"  />
<circle cx="364.8725806451613" cy="234.36104824948177" r="1.55" stroke="#F7F7F7" stroke-width="1.55" fill="#F7F7F7" />
<circle cx="364.8725806451613" cy="234.36104824948177" r="1.55" stroke="#ba0f27" stroke-width="1.55" fill="#ba0f27"  />
<circle cx="379.2887096774194" cy="227.971853705464" r="1.55" stroke="#F7F7F7" stroke-width="1.55" fill="#F7F7F7" />
<circle cx="379.2887096774194" cy="227.971853705464" r="1.55" stroke="#ba0f27" stroke-width="1.55" fill="#ba0f27"  />
<circle cx="393.7048387096774" cy="221.59806738664867" r="1.55" stroke="#F7F7F7" stroke-width="1.55" fill="#F7F7F7" />
<circle cx="393.7048387096774" cy="221.59806738664867" r="1.55" stroke="#ba0f27" stroke-width="1.55" fill="#ba0f27"  />
<circle cx="408.1209677419355" cy="210.3602522990941" r="1.55" stroke="#F7F7F7" stroke-width="1.55" fill="#F7F7F7" />
<circle cx="408.1209677419355" cy="210.3602522990941" r="1.55" stroke="#ba0f27" stroke-width="1.55" fill="#ba0f27"  />
<circle cx="422.53709677419357" cy="205.69255414180515" r="1.55" stroke="#F7F7F7" stroke-width="1.55" fill="#F7F7F7" />
<circle cx="422.53709677419357" cy="205.69255414180515" r="1.55" stroke="#ba0f27" stroke-width="1.55" fill="#ba0f27"  />
<circle cx="436.9532258064516" cy="199.28397505640368" r="1.55" stroke="#F7F7F7" stroke-width="1.55" fill="#F7F7F7" />
<circle cx="436.9532258064516" cy="199.28397505640368" r="1.55" stroke="#ba0f27" stroke-width="1.55" fill="#ba0f27"  />
<circle cx="451.3693548387097" cy="186.5339172211597" r="1.55" stroke="#F7F7F7" stroke-width="1.55" fill="#F7F7F7" />
<circle cx="451.3693548387097" cy="186.5339172211597" r="1.55" stroke="#ba0f27" stroke-width="1.55" fill="#ba0f27"  />
<circle cx="465.78548387096777" cy="171.58296837958244" r="1.55" stroke="#F7F7F7" stroke-width="1.55" fill="#F7F7F7" />
<circle cx="465.78548387096777" cy="171.58296837958244" r="1.55" stroke="#ba0f27" stroke-width="1.55" fill="#ba0f27"  />
<circle cx="480.2016129032258" cy="154.49947146603753" r="1.55" stroke="#F7F7F7" stroke-width="1.55" fill="#F7F7F7" />
<circle cx="480.2016129032258" cy="154.49947146603753" r="1.55" stroke="#ba0f27" stroke-width="1.55" fill="#ba0f27"  />
<circle cx="494.6177419354839" cy="144.5435213074201" r="1.55" stroke="#F7F7F7" stroke-width="1.55" fill="#F7F7F7" />
<circle cx="494.6177419354839" cy="144.5435213074201" r="1.55" stroke="#ba0f27" stroke-width="1.55" fill="#ba0f27"  />
<circle cx="509.03387096774196" cy="129.5254721302839" r="1.55" stroke="#F7F7F7" stroke-width="1.55" fill="#F7F7F7" />
<circle cx="509.03387096774196" cy="129.5254721302839" r="1.55" stroke="#ba0f27" stroke-width="1.55" fill="#ba0f27"  />
<circle cx="523.45" cy="93.55" r="1.55" stroke="#F7F7F7" stroke-width="1.55" fill="#F7F7F7" />
<circle cx="523.45" cy="93.55" r="1.55" stroke="#ba0f27" stroke-width="1.55" fill="#ba0f27"  />
<polyline points="76.55000000000003,245.18426634594357 90.9661290322581,244.7524491581019" style="fill:none;stroke:#000000;stroke-width:1.75" stroke-dasharray="3,1"  />
<polyline points="90.9661290322581,244.7524491581019 105.38225806451615,244.45349879728843" style="fill:none;stroke:#000000;stroke-width:1.75" stroke-dasharray="3,1"  />
<polyline points="105.38225806451615,244.45349879728843 119.79838709677422,245.3171331729718" style="fill:none;stroke:#000000;stroke-width:1.75" stroke-dasharray="3,1"  />
<polyline points="119.79838709677422,245.3171331729718 134.2145161290323,244.61958233107373" style="fill:none;stroke:#000000;stroke-width:1.75" stroke-dasharray="3,1"  />
<polyline points="134.2145161290323,244.61958233107373 148.63064516129035,245.3171331729718" style="fill:none;stroke:#000000;stroke-width:1.75" stroke-dasharray="3,1"  />
<polyline points="148.63064516129035,245.3171331729718 163.0467741935484,244.7524491581019" style="fill:none;stroke:#000000;stroke-width:1.75" stroke-dasharray="3,1"  />
<polyline points="163.0467741935484,244.7524491581019 177.46290322580649,244.4867155040455" style="fill:none;stroke:#000000;stroke-width:1.75" stroke-dasharray="3,1"  />
<polyline points="177.46290322580649,244.4867155040455 191.87903225806454,245.28391646621475" style="fill:none;stroke:#000000;stroke-width:1.75" stroke-dasharray="3,1"  />
<polyline points="191.87903225806454,245.28391646621475 206.2951612903226,245.15104963918657" style="fill:none;stroke:#000000;stroke-width:1.75" stroke-dasharray="3,1"  />
<polyline points="206.2951612903226,245.15104963918657 220.71129032258068,244.58636562431667" style="fill:none;stroke:#000000;stroke-width:1.75" stroke-dasharray="3,1"  />
<polyline points="220.71129032258068,244.58636562431667 235.1274193548387,245.45" style="fill:none;stroke:#000000;stroke-width:1.75" stroke-dasharray="3,1"  />
<polyline points="235.1274193548387,245.45 249.5435483870968,241.36434506888259" style="fill:none;stroke:#000000;stroke-width:1.75" stroke-dasharray="3,1"  />
<polyline points="249.5435483870968,241.36434506888259 263.9596774193549,242.06189591078066" style="fill:none;stroke:#000000;stroke-width:1.75" stroke-dasharray="3,1"  />
<polyline points="263.9596774193549,242.06189591078066 278.3758064516129,239.30490924994535" style="fill:none;stroke:#000000;stroke-width:1.75" stroke-dasharray="3,1"  />
<polyline points="278.3758064516129,239.30490924994535 292.791935483871,236.8136562431664" style="fill:none;stroke:#000000;stroke-width:1.75" stroke-dasharray="3,1"  />
<polyline points="292.791935483871,236.8136562431664 307.20806451612907,233.45876886070414" style="fill:none;stroke:#000000;stroke-width:1.75" stroke-dasharray="3,1"  />
<polyline points="307.20806451612907,233.45876886070414 321.6241935483871,232.26296741745028" style="fill:none;stroke:#000000;stroke-width:1.75" stroke-dasharray="3,1"  />
<polyline points="321.6241935483871,232.26296741745028 336.0403225806452,232.99373496610542" style="fill:none;stroke:#000000;stroke-width:1.75" stroke-dasharray="3,1"  />
<polyline points="336.0403225806452,232.99373496610542 350.4564516129032,230.0042313579707" style="fill:none;stroke:#000000;stroke-width:1.75" stroke-dasharray="3,1"  />
<polyline points="350.4564516129032,230.0042313579707 364.8725806451613,227.11437787010715" style="fill:none;stroke:#000000;stroke-width:1.75" stroke-dasharray="3,1"  />
<polyline points="364.8725806451613,227.11437787010715 379.2887096774194,222.3311720970916" style="fill:none;stroke:#000000;stroke-width:1.75" stroke-dasharray="3,1"  />
<polyline points="379.2887096774194,222.3311720970916 393.7048387096774,216.68433194839275" style="fill:none;stroke:#000000;stroke-width:1.75" stroke-dasharray="3,1"  />
<polyline points="393.7048387096774,216.68433194839275 408.1209677419355,208.7787557402143" style="fill:none;stroke:#000000;stroke-width:1.75" stroke-dasharray="3,1"  />
<polyline points="408.1209677419355,208.7787557402143 422.53709677419357,198.88017712661275" style="fill:none;stroke:#000000;stroke-width:1.75" stroke-dasharray="3,1"  />
<polyline points="422.53709677419357,198.88017712661275 436.9532258064516,190.07774983599387" style="fill:none;stroke:#000000;stroke-width:1.75" stroke-dasharray="3,1"  />
<polyline points="436.9532258064516,190.07774983599387 451.3693548387097,179.81378744806472" style="fill:none;stroke:#000000;stroke-width:1.75" stroke-dasharray="3,1"  />
<polyline points="451.3693548387097,179.81378744806472 465.78548387096777,167.75612289525475" style="fill:none;stroke:#000000;stroke-width:1.75" stroke-dasharray="3,1"  />
<polyline points="465.78548387096777,167.75612289525475 480.2016129032258,155.831325169473" style="fill:none;stroke:#000000;stroke-width:1.75" stroke-dasharray="3,1"  />
<polyline points="480.2016129032258,155.831325169473 494.6177419354839,133.87508200306144" style="fill:none;stroke:#000000;stroke-width:1.75" stroke-dasharray="3,1"  />
<polyline points="494.6177419354839,133.87508200306144 509.03387096774196,128.8925759895036" style="fill:none;stroke:#000000;stroke-width:1.75" stroke-dasharray="3,1"  />
<polyline points="509.03387096774196,128.8925759895036 523.45,93.55" style="fill:none;stroke:#000000;stroke-width:1.75" stroke-dasharray="3,1"  />
<polygon points="74.69000000000003,245.18426634594357 76.55000000000003,243.32426634594356 78.41000000000003,245.18426634594357 76.55000000000003,247.04426634594358" stroke="#F7F7F7" stroke-width="1.55" fill="#F7F7F7"  />
<polygon points="74.69000000000003,245.18426634594357 76.55000000000003,243.32426634594356 78.41000000000003,245.18426634594357 76.55000000000003,247.04426634594358" stroke="#000000" stroke-width="1.55" fill="#000000"  />
<polygon points="89.1061290322581,244.7524491581019 90.9661290322581,242.8924491581019 92.8261290322581,244.7524491581019 90.9661290322581,246.61244915810192" stroke="#F7F7F7" stroke-width="1.55" fill="#F7F7F7"  />
<polygon points="89.1061290322581,244.7524491581019 90.9661290322581,242.8924491581019 92.8261290322581,244.7524491581019 90.9661290322581,246.61244915810192" stroke="#000000" stroke-width="1.55" fill="#000000"  />
<polygon points="103.52225806451615,244.45349879728843 105.38225806451615,242.59349879728842 107.24225806451615,244.45349879728843 105.38225806451615,246.31349879728845" stroke="#F7F7F7" stroke-width="1.55" fill="#F7F7F7"  />
<polygon points="103.52225806451615,244.45349879728843 105.38225806451615,242.59349879728842 107.24225806451615,244.45349879728843 105.38225806451615,246.31349879728845" stroke="#000000" stroke-width="1.55" fill="#000000"  />
<polygon points="117.93838709677422,245.3171331729718 119.79838709677422,243.4571331729718 121.65838709677422,245.3171331729718 119.79838709677422,247.17713317297182" stroke="#F7F7F7" stroke-width="1.55" fill="#F7F7F7"  />
<polygon points="117.93838709677422,245.3171331729718 119.79838709677422,243.4571331729718 121.65838709677422,245.3171331729718 119.79838709677422,247.17713317297182" stroke="#000000" stroke-width="1.55" fill="#000000"  />
<polygon points="132.35451612903228,244.61958233107373 134.2145161290323,242.75958233107372 136.0745161290323,244.61958233107373 134.2145161290323,246.47958233107374" stroke="#F7F7F7" stroke-width="1.55" fill="#F7F7F7"  />
<polygon points="132.35451612903228,244.61958233107373 134.2145161290323,242.75958233107372 136.0745161290323,244.61958233107373 134.2145161290323,246.47958233107374" stroke="#000000" stroke-width="1.55" fill="#000000"  />
<polygon points="146.77064516129033,245.3171331729718 148.63064516129035,243.4571331729718 150.49064516129036,245.3171331729718 148.63064516129035,247.17713317297182" stroke="#F7F7F7" stroke-width="1.55" fill="#F7F7F7"  />
<polygon points="146.77064516129033,245.3171331729718 148.63064516129035,243.4571331729718 150.49064516129036,245.3171331729718 148.63064516129035,247.17713317297182" stroke="#000000" stroke-width="1.55" fill="#000000"  />
<polygon points="161.1867741935484,244.7524491581019 163.0467741935484,242.8924491581019 164.90677419354842,244.7524491581019 163.0467741935484,246.61244915810192" stroke="#F7F7F7" stroke-width="1.55" fill="#F7F7F7"  />
<polygon points="161.1867741935484,244.7524491581019 163.0467741935484,242.8924491581019 164.90677419354842,244.7524491581019 163.0467741935484,246.61244915810192" stroke="#000000" stroke-width="1.55" fill="#000000"  />
<polygon points="175.60290322580647,244.4867155040455 177.46290322580649,242.62671550404548 179.3229032258065,244.4867155040455 177.46290322580649,246.3467155040455" stroke="#F7F7F7" stroke-width="1.55" fill="#F7F7F7"  />
<polygon points="175.60290322580647,244.4867155040455 177.46290322580649,242.62671550404548 179.3229032258065,244.4867155040455 177.46290322580649,246.3467155040455" stroke="#000000" stroke-width="1.55" fill="#000000"  />
<polygon points="190.01903225806453,245.28391646621475 191.87903225806454,243.42391646621473 193.73903225806455,245.28391646621475 191.87903225806454,247.14391646621476" stroke="#F7F7F7" stroke-width="1.55" fill="#F7F7F7"  />
<polygon points="190.01903225806453,245.28391646621475 191.87903225806454,243.42391646621473 193.73903225806455,245.28391646621475 191.87903225806454,247.14391646621476" stroke="#000000" stroke-width="1.55" fill="#000000"  />
<polygon points="204.43516129032258,245.15104963918657 206.2951612903226,243.29104963918655 208.1551612903226,245.15104963918657 206.2951612903226,247.01104963918658" stroke="#F7F7F7" stroke-width="1.55" fill="#F7F7F7"  />
<polygon points="204.43516129032258,245.15104963918657 206.2951612903226,243.29104963918655 208.1551612903226,245.15104963918657 206.2951612903226,247.01104963918658" stroke="#000000" stroke-width="1.55" fill="#000000"  />
<polygon points="218.85129032258067,244.58636562431667 220.71129032258068,242.72636562431666 222.5712903225807,244.58636562431667 220.71129032258068,246.44636562431668" stroke="#F7F7F7" stroke-width="1.55" fill="#F7F7F7"  />
<polygon points="218.85129032258067,244.58636562431667 220.71129032258068,242.72636562431666 222.5712903225807,244.58636562431667 220.71129032258068,246.44636562431668" stroke="#000000" stroke-width="1.55" fill="#000000"  />
<polygon points="233.2674193548387,245.45 235.1274193548387,243.58999999999997 236.98741935483872,245.45 235.1274193548387,247.31" stroke="#F7F7F7" stroke-width="1.55" fill="#F7F7F7"  />
<polygon points="233.2674193548387,245.45 235.1274193548387,243.58999999999997 236.98741935483872,245.45 235.1274193548387,247.31" stroke="#000000" stroke-width="1.55" fill="#000000"  />
<polygon points="247.68354838709678,241.36434506888259 249.5435483870968,239.50434506888257 251.4035483870968,241.36434506888259 249.5435483870968,243.2243450688826" stroke="#F7F7F7" stroke-width="1.55" fill="#F7F7F7"  />
<polygon points="247.68354838709678,241.36434506888259 249.5435483870968,239.50434506888257 251.4035483870968,241.36434506888259 249.5435483870968,243.2243450688826" stroke="#000000" stroke-width="1.55" fill="#000000"  />
<polygon points="262.09967741935486,242.06189591078066 263.9596774193549,240.20189591078065 265.8196774193549,242.06189591078066 263.9596774193549,243.92189591078068" stroke="#F7F7F7" stroke-width="1.55" fill="#F7F7F7"  />
<polygon points="262.09967741935486,242.06189591078066 263.9596774193549,240.20189591078065 265.8196774193549,242.06189591078066 263.9596774193549,243.92189591078068" stroke="#000000" stroke-width="1.55" fill="#000000"  />
<polygon points="276.5158064516129,239.30490924994535 278.3758064516129,237.44490924994534 280.2358064516129,239.30490924994535 278.3758064516129,241.16490924994537" stroke="#F7F7F7" stroke-width="1.55" fill="#F7F7F7"  />
<polygon points="276.5158064516129,239.30490924994535 278.3758064516129,237.44490924994534 280.2358064516129,239.30490924994535 278.3758064516129,241.16490924994537" stroke="#000000" stroke-width="1.55" fill="#000000"  />
<polygon points="290.931935483871,236.8136562431664 292.791935483871,234.9536562431664 294.651935483871,236.8136562431664 292.791935483871,238.67365624316642" stroke="#F7F7F7" stroke-width="1.55" fill="#F7F7F7"  />
<polygon points="290.931935483871,236.8136562431664 292.791935483871,234.9536562431664 294.651935483871,236.8136562431664 292.791935483871,238.67365624316642" stroke="#000000" stroke-width="1.55" fill="#000000"  />
<polygon points="305.34806451612906,233.45876886070414 307.20806451612907,231.59876886070413 309.0680645161291,233.45876886070414 307.20806451612907,235.31876886070415" stroke="#F7F7F7" stroke-width="1.55" fill="#F7F7F7"  />
<polygon points="305.34806451612906,233.45876886070414 307.20806451612907,231.59876886070413 309.0680645161291,233.45876886070414 307.20806451612907,235.31876886070415" stroke="#000000" stroke-width="1.55" fill="#000000"  />
<polygon points="319.7641935483871,232.26296741745028 321.6241935483871,230.40296741745027 323.4841935483871,232.26296741745028 321.6241935483871,234.1229674174503" stroke="#F7F7F7" stroke-width="1.55" fill="#F7F7F7"  />
<polygon points="319.7641935483871,232.26296741745028 321.6241935483871,230.40296741745027 323.4841935483871,232.26296741745028 321.6241935483871,234.1229674174503" stroke="#000000" stroke-width="1.55" fill="#000000"  />
<polygon points="334.18032258064517,232.99373496610542 336.0403225806452,231.1337349661054 337.9003225806452,232.99373496610542 336.0403225806452,234.85373496610543" stroke="#F7F7F7" stroke-width="1.55" fill="#F7F7F7"  />
<polygon points="334.18032258064517,232.99373496610542 336.0403225806452,231.1337349661054 337.9003225806452,232.99373496610542 336.0403225806452,234.85373496610543" stroke="#000000" stroke-width="1.55" fill="#000000"  />
<polygon points="348.5964516129032,230.0042313579707 350.4564516129032,228.14423135797068 352.3164516129032,230.0042313579707 350.4564516129032,231.8642313579707" stroke="#F7F7F7" stroke-width="1.55" fill="#F7F7F7"  />
<polygon points="348.5964516129032,230.0042313579707 350.4564516129032,228.14423135797068 352.3164516129032,230.0042313579707 350.4564516129032,231.8642313579707" stroke="#000000" stroke-width="1.55" fill="#000000"  />
<polygon points="363.0125806451613,227.11437787010715 364.8725806451613,225.25437787010713 366.7325806451613,227.11437787010715 364.8725806451613,228.97437787010716" stroke="#F7F7F7" stroke-width="1.55" fill="#F7F7F7"  />
<polygon points="363.0125806451613,227.11437787010715 364.8725806451613,225.25437787010713 366.7325806451613,227.11437787010715 364.8725806451613,228.97437787010716" stroke="#000000" stroke-width="1.55" fill="#000000"  />
<polygon points="377.42870967741936,222.3311720970916 379.2887096774194,220.4711720970916 381.1487096774194,222.3311720970916 379.2887096774194,224.19117209709162" stroke="#F7F7F7" stroke-width="1.55" fill="#F7F7F7"  />
<polygon points="377.42870967741936,222.3311720970916 379.2887096774194,220.4711720970916 381.1487096774194,222.3311720970916 379.2887096774194,224.19117209709162" stroke="#000000" stroke-width="1.55" fill="#000000"  />
<polygon points="391.8448387096774,216.68433194839275 393.7048387096774,214.82433194839274 395.5648387096774,216.68433194839275 393.7048387096774,218.54433194839277" stroke="#F7F7F7" stroke-width="1.55" fill="#F7F7F7"  />
<polygon points="391.8448387096774,216.68433194839275 393.7048387096774,214.82433194839274 395.5648387096774,216.68433194839275 393.7048387096774,218.54433194839277" stroke="#000000" stroke-width="1.55" fill="#000000"  />
<polygon points="406.2609677419355,208.7787557402143 408.1209677419355,206.9187557402143 409.9809677419355,208.7787557402143 408.1209677419355,210.63875574021432" stroke="#F7F7F7" stroke-width="1.55" fill="#F7F7F7"  />
<polygon points="406.2609677419355,208.7787557402143 408.1209677419355,206.9187557402143 409.9809677419355,208.7787557402143 408.1209677419355,210.63875574021432" stroke="#000000" stroke-width="1.55" fill="#000000"  />
<polygon points="420.67709677419356,198.88017712661275 422.53709677419357,197.02017712661274 424.3970967741936,198.88017712661275 422.53709677419357,200.74017712661276" stroke="#F7F7F7" stroke-width="1.55" fill="#F7F7F7"  />
<polygon points="420.67709677419356,198.88017712661275 422.53709677419357,197.02017712661274 424.3970967741936,198.88017712661275 422.53709677419357,200.74017712661276" stroke="#000000" stroke-width="1.55" fill="#000000"  />
<polygon points="435.0932258064516,190.07774983599387 436.9532258064516,188.21774983599386 438.8132258064516,190.07774983599387 436.9532258064516,191.93774983599388" stroke="#F7F7F7" stroke-width="1.55" fill="#F7F7F7"  />
<polygon points="435.0932258064516,190.07774983599387 436.9532258064516,188.21774983599386 438.8132258064516,190.07774983599387 436.9532258064516,191.93774983599388" stroke="#000000" stroke-width="1.55" fill="#000000"  />
<polygon points="449.50935483870967,179.81378744806472 451.3693548387097,177.9537874480647 453.2293548387097,179.81378744806472 451.3693548387097,181.67378744806473" stroke="#F7F7F7" stroke-width="1.55" fill="#F7F7F7"  />
<polygon points="449.50935483870967,179.81378744806472 451.3693548387097,177.9537874480647 453.2293548387097,179.81378744806472 451.3693548387097,181.67378744806473" stroke="#000000" stroke-width="1.55" fill="#000000"  />
<polygon points="463.92548387096775,167.75612289525475 465.78548387096777,165.89612289525473 467.6454838709678,167.75612289525475 465.78548387096777,169.61612289525476" stroke="#F7F7F7" stroke-width="1.55" fill="#F7F7F7"  />
<polygon points="463.92548387096775,167.75612289525475 465.78548387096777,165.89612289525473 467.6454838709678,167.75612289525475 465.78548387096777,169.61612289525476" stroke="#000000" stroke-width="1.55" fill="#000000"  />
<polygon points="478.3416129032258,155.831325169473 480.2016129032258,153.97132516947298 482.0616129032258,155.831325169473 480.2016129032258,157.691325169473" stroke="#F7F7F7" stroke-width="1.55" fill="#F7F7F7"  />
<polygon points="478.3416129032258,155.831325169473 480.2016129032258,153.97132516947298 482.0616129032258,155.831325169473 480.2016129032258,157.691325169473" stroke="#000000" stroke-width="1.55" fill="#000000"  />
<polygon points="492.75774193548386,133.87508200306144 494.6177419354839,132.01508200306142 496.4777419354839,133.87508200306144 494.6177419354839,135.73508200306145" stroke="#F7F7F7" stroke-width="1.55" fill="#F7F7F7"  />
<polygon points="492.75774193548386,133.87508200306144 494.6177419354839,132.01508200306142 496.4777419354839,133.87508200306144 494.6177419354839,135.73508200306145" stroke="#000000" stroke-width="1.55" fill="#000000"  />
<polygon points="507.17387096774195,128.8925759895036 509.03387096774196,127.0325759895036 510.893870967742,128.8925759895036 509.03387096774196,130.7525759895036" stroke="#F7F7F7" stroke-width="1.55" fill="#F7F7F7"  />
<polygon points="507.17387096774195,128.8925759895036 509.03387096774196,127.0325759895036 510.893870967742,128.8925759895036 509.03387096774196,130.7525759895036" stroke="#000000" stroke-width="1.55" fill="#000000"  />
<polygon points="521.59,93.55 523.45,91.69 525.3100000000001,93.55 523.45,95.41" stroke="#F7F7F7" stroke-width="1.55" fill="#F7F7F7"  />
<polygon points="521.59,93.55 523.45,91.69 525.3100000000001,93.55 523.45,95.41" stroke="#000000" stroke-width="1.55" fill="#000000"  />
</svg>