<svg width="380" height="390" xmlns="http://www.w3.org/2000/svg"> <rect width="100%" height="100%" fill="#FEFEFE" />
<line x1="60" y1="240" x2="320" y2="240" stroke="#9f9f9f" stroke-width="1" />
<rect x="60" y="88" width="260" height="152" fill="#FEFEFE" />
<text text-anchor="middle" x="190.0" y="18" font-family="'Helvetica Neue', Arial, sans-serif" font-weight="bold" font-size="18" fill="#000000">UFO sightings in Rhode Island</text>
<text text-anchor="middle" x="190.0" y="36" font-family="'Helvetica Neue', Arial, sans-serif" font-size="14" fill="#000000">correlates with</text>
<text text-anchor="middle" x="190.0" y="58" font-family="'Helvetica Neue', Arial, sans-serif" font-weight="bold" font-size="18" fill="#ba0f27">Total Number of Successful</text>
<text text-anchor="middle" x="190.0" y="76" font-family="'Helvetica Neue', Arial, sans-serif" font-weight="bold" font-size="18" fill="#ba0f27">Mount Everest Climbs</text>
<text text-anchor="start" x="20" y="285.3333333333333" font-family="'Helvetica Neue', Arial, sans-serif" font-size="14" fill="#9f9f9f">UFO sightings reported in Rhode Island &#183; Source:</text>
<text text-anchor="start" x="20" y="301.3333333333333" font-family="'Helvetica Neue', Arial, sans-serif" font-size="14" fill="#9f9f9f">National UFO Reporting Center</text>
<text text-anchor="start" x="20" y="324.66666666666663" font-family="'Helvetica Neue', Arial, sans-serif" font-size="14" fill="#9f9f9f">Total Number of Successful Mount Everest Climbs &#183;</text>
<text text-anchor="start" x="20" y="340.66666666666663" font-family="'Helvetica Neue', Arial, sans-serif" font-size="14" fill="#9f9f9f">Source: CBC</text>
<text text-anchor="start" x="20" y="363.99999999999994" font-family="'Helvetica Neue', Arial, sans-serif" font-size="14" fill="#9f9f9f">1975-2011, r=0.917, r&#178;=0.841, p&lt;0.01</text>
<text text-anchor="start" x="20" y="387.33333333333326" font-family="'Helvetica Neue', Arial, sans-serif" font-size="14" fill="#9f9f9f">tylervigen.com/spurious/correlation/3965</text>
<polyline points="5,280.66666666666663 17,280.66666666666663" style="fill:none;stroke:#000000;stroke-width:2" stroke-dasharray="3,1" />
<polygon points="3.2,280.66666666666663 5,278.8666666666666 6.8,280.66666666666663 5,282.46666666666664" stroke="#F7F7F7" stroke-width="1.5" fill="#F7F7F7"  />
<polygon points="3.2,280.66666666666663 5,278.8666666666666 6.8,280.66666666666663 5,282.46666666666664" stroke="#000000" stroke-width="1.5" fill="#000000"  />
<polyline points="5,319.99999999999994 17,319.99999999999994" style="fill:none;stroke:#ba0f27;stroke-width:2" />
<circle cx="5" cy="319.99999999999994" r="1.5" stroke="#F7F7F7" stroke-width="1.5" fill="#F7F7F7" />
<circle cx="5" cy="319.99999999999994" r="1.5" stroke="#ba0f27" stroke-width="1.5" fill="#ba0f27"  />
<text x="5" y="166.0" transform="rotate(270 5 164.0)" text-anchor="middle" fill="#000000" font-family="'Helvetica Neue', Arial, sans-serif" font-size="14" dominant-baseline="central">UFO sightings</text>
<text x="164.0" y="-174" transform="rotate(90 100 100)" text-anchor="middle" fill="#ba0f27" font-family="'Helvetica Neue', Arial, sans-serif" font-size="14" dominant-baseline="central">Climbers</text>
<line x1="61" y1="94.5" x2="318" y2="94.5" stroke="#F3F3F3" stroke-width="1" fill="#FEFEFE" />
<text text-anchor="end" x="52" y="99.16666666666667" font-family="'Helvetica Neue', Arial, sans-serif" font-size="12" fill="#000000">20</text>
<text text-anchor="start" x="328" y="99.16666666666667" font-family="'Helvetica Neue', Arial, sans-serif" font-size="12" fill="#ba0f27">633</text>
<line x1="61" y1="129.25" x2="318" y2="129.25" stroke="#F3F3F3" stroke-width="1" fill="#FEFEFE" />
<text text-anchor="end" x="52" y="133.91666666666666" font-family="'Helvetica Neue', Arial, sans-serif" font-size="12">15</text>
<text text-anchor="start" x="328" y="133.91666666666666" font-family="'Helvetica Neue', Arial, sans-serif" font-size="12" fill="#ba0f27">475</text>
<line x1="61" y1="164.0" x2="318" y2="164.0" stroke="#F3F3F3" stroke-width="1" fill="#FEFEFE" />
<text text-anchor="end" x="52" y="168.66666666666666" font-family="'Helvetica Neue', Arial, sans-serif" font-size="12">10</text>
<text text-anchor="start" x="328" y="168.66666666666666" font-family="'Helvetica Neue', Arial, sans-serif" font-size="12" fill="#ba0f27">316</text>
<line x1="61" y1="198.75" x2="318" y2="198.75" stroke="#F3F3F3" stroke-width="1" fill="#FEFEFE" />
<text text-anchor="end" x="52" y="203.41666666666666" font-family="'Helvetica Neue', Arial, sans-serif" font-size="12">5</text>
<text text-anchor="start" x="328" y="203.41666666666666" font-family="'Helvetica Neue', Arial, sans-serif" font-size="12" fill="#ba0f27">158</text>
<line x1="61" y1="233.5" x2="318" y2="233.5" stroke="#F3F3F3" stroke-width="1" fill="#FEFEFE" />
<text text-anchor="end" x="52" y="238.16666666666666" font-family="'Helvetica Neue', Arial, sans-serif" font-size="12">0</text>
<text text-anchor="start" x="328" y="238.16666666666666" font-family="'Helvetica Neue', Arial, sans-serif" font-size="12" fill="#ba0f27">0</text>
<polyline points="66.5,240 66.5,246" style="fill:none;stroke:#000000;stroke-width:1" />
<polyline points="107.66666666666666,240 107.66666666666666,246" style="fill:none;stroke:#000000;stroke-width:1" />
<polyline points="148.83333333333331,240 148.83333333333331,246" style="fill:none;stroke:#000000;stroke-width:1" />
<polyline points="190.0,240 190.0,246" style="fill:none;stroke:#000000;stroke-width:1" />
<polyline points="231.16666666666666,240 231.16666666666666,246" style="fill:none;stroke:#000000;stroke-width:1" />
<polyline points="272.3333333333333,240 272.3333333333333,246" style="fill:none;stroke:#000000;stroke-width:1" />
<polyline points="313.5,240 313.5,246" style="fill:none;stroke:#000000;stroke-width:1" />
<text text-anchor="middle" x="66.5" y="261" font-weight="bold" font-family="'Helvetica Neue', Arial, sans-serif" font-size="14">1975</text>
<text text-anchor="middle" x="107.66666666666666" y="261" font-weight="bold" font-family="'Helvetica Neue', Arial, sans-serif" font-size="14">1981</text>
<text text-anchor="middle" x="148.83333333333331" y="261" font-weight="bold" font-family="'Helvetica Neue', Arial, sans-serif" font-size="14">1987</text>
<text text-anchor="middle" x="190.0" y="261" font-weight="bold" font-family="'Helvetica Neue', Arial, sans-serif" font-size="14">1993</text>
<text text-anchor="middle" x="231.16666666666666" y="261" font-weight="bold" font-family="'Helvetica Neue', Arial, sans-serif" font-size="14">1999</text>
<text text-anchor="middle" x="272.3333333333333" y="261" font-weight="bold" font-family="'Helvetica Neue', Arial, sans-serif" font-size="14">2005</text>
<text text-anchor="middle" x="313.5" y="261" font-weight="bold" font-family="'Helvetica Neue', Arial, sans-serif" font-size="14">2011</text>
<polyline points="66.5,230.20616113744074 73.36111111111111,232.6216429699842" style="fill:none;stroke:#ba0f27;stroke-width:2"  />
<polyline points="73.36111111111111,232.6216429699842 80.22222222222223,233.5" style="fill:none;stroke:#ba0f27;stroke-width:2"  />
<polyline points="80.22222222222223,233.5 87.08333333333333,228.01026856240125" style="fill:none;stroke:#ba0f27;stroke-width:2"  />
<polyline points="87.08333333333333,228.01026856240125 93.94444444444444,229.54739336492892" style="fill:none;stroke:#ba0f27;stroke-width:2"  />
<polyline points="93.94444444444444,229.54739336492892 100.80555555555556,231.3041074249605" style="fill:none;stroke:#ba0f27;stroke-width:2"  />
<polyline points="100.80555555555556,231.3041074249605 107.66666666666666,232.40205371248027" style="fill:none;stroke:#ba0f27;stroke-width:2"  />
<polyline points="107.66666666666666,232.40205371248027 114.52777777777777,229.54739336492892" style="fill:none;stroke:#ba0f27;stroke-width:2"  />
<polyline points="114.52777777777777,229.54739336492892 121.38888888888889,228.44944707740916" style="fill:none;stroke:#ba0f27;stroke-width:2"  />
<polyline points="121.38888888888889,228.44944707740916 128.25,229.9865718799368" style="fill:none;stroke:#ba0f27;stroke-width:2"  />
<polyline points="128.25,229.9865718799368 135.11111111111111,226.91232227488152" style="fill:none;stroke:#ba0f27;stroke-width:2"  />
<polyline points="135.11111111111111,226.91232227488152 141.97222222222223,232.6216429699842" style="fill:none;stroke:#ba0f27;stroke-width:2"  />
<polyline points="141.97222222222223,232.6216429699842 148.83333333333331,233.5" style="fill:none;stroke:#ba0f27;stroke-width:2"  />
<polyline points="148.83333333333331,233.5 155.69444444444446,222.52053712480253" style="fill:none;stroke:#ba0f27;stroke-width:2"  />
<polyline points="155.69444444444446,222.52053712480253 162.55555555555554,228.01026856240125" style="fill:none;stroke:#ba0f27;stroke-width:2"  />
<polyline points="162.55555555555554,228.01026856240125 169.41666666666666,217.68957345971563" style="fill:none;stroke:#ba0f27;stroke-width:2"  />
<polyline points="169.41666666666666,217.68957345971563 176.27777777777777,226.91232227488152" style="fill:none;stroke:#ba0f27;stroke-width:2"  />
<polyline points="176.27777777777777,226.91232227488152 183.13888888888889,213.73696682464455" style="fill:none;stroke:#ba0f27;stroke-width:2"  />
<polyline points="183.13888888888889,213.73696682464455 190.0,205.17298578199052" style="fill:none;stroke:#ba0f27;stroke-width:2"  />
<polyline points="190.0,205.17298578199052 196.86111111111111,222.3009478672986" style="fill:none;stroke:#ba0f27;stroke-width:2"  />
<polyline points="196.86111111111111,222.3009478672986 203.72222222222223,215.2740916271722" style="fill:none;stroke:#ba0f27;stroke-width:2"  />
<polyline points="203.72222222222223,215.2740916271722 210.58333333333331,212.6390205371248" style="fill:none;stroke:#ba0f27;stroke-width:2"  />
<polyline points="210.58333333333331,212.6390205371248 217.44444444444443,214.83491311216432" style="fill:none;stroke:#ba0f27;stroke-width:2"  />
<polyline points="217.44444444444443,214.83491311216432 224.30555555555554,206.9296998420221" style="fill:none;stroke:#ba0f27;stroke-width:2"  />
<polyline points="224.30555555555554,206.9296998420221 231.16666666666666,207.58846761453395" style="fill:none;stroke:#ba0f27;stroke-width:2"  />
<polyline points="231.16666666666666,207.58846761453395 238.02777777777777,201.65955766192735" style="fill:none;stroke:#ba0f27;stroke-width:2"  />
<polyline points="238.02777777777777,201.65955766192735 244.88888888888889,193.5347551342812" style="fill:none;stroke:#ba0f27;stroke-width:2"  />
<polyline points="244.88888888888889,193.5347551342812 251.75,198.58530805687204" style="fill:none;stroke:#ba0f27;stroke-width:2"  />
<polyline points="251.75,198.58530805687204 258.6111111111111,174.86966824644549" style="fill:none;stroke:#ba0f27;stroke-width:2"  />
<polyline points="258.6111111111111,174.86966824644549 265.4722222222222,159.49842022116906" style="fill:none;stroke:#ba0f27;stroke-width:2"  />
<polyline points="265.4722222222222,159.49842022116906 272.3333333333333,166.0860979462875" style="fill:none;stroke:#ba0f27;stroke-width:2"  />
<polyline points="272.3333333333333,166.0860979462875 279.19444444444446,125.24249605055292" style="fill:none;stroke:#ba0f27;stroke-width:2"  />
<polyline points="279.19444444444446,125.24249605055292 286.05555555555554,94.5" style="fill:none;stroke:#ba0f27;stroke-width:2"  />
<polyline points="286.05555555555554,94.5 292.91666666666663,140.61374407582937" style="fill:none;stroke:#ba0f27;stroke-width:2"  />
<polyline points="292.91666666666663,140.61374407582937 299.77777777777777,133.1477093206951" style="fill:none;stroke:#ba0f27;stroke-width:2"  />
<polyline points="299.77777777777777,133.1477093206951 306.6388888888889,114.26303317535545" style="fill:none;stroke:#ba0f27;stroke-width:2"  />
<polyline points="306.6388888888889,114.26303317535545 313.5,114.4826224328594" style="fill:none;stroke:#ba0f27;stroke-width:2"  />
<circle cx="66.5" cy="230.20616113744074" r="1.5" stroke="#F7F7F7" stroke-width="1.5" fill="#F7F7F7" />
<circle cx="66.5" cy="230.20616113744074" r="1.5" stroke="#ba0f27" stroke-width="1.5" fill="#ba0f27"  />
<circle cx="73.36111111111111" cy="232.6216429699842" r="1.5" stroke="#F7F7F7" stroke-width="1.5" fill="#F7F7F7" />
<circle cx="73.36111111111111" cy="232.6216429699842" r="1.5" stroke="#ba0f27" stroke-width="1.5" fill="#ba0f27"  />
<circle cx="80.22222222222223" cy="233.5" r="1.5" stroke="#F7F7F7" stroke-width="1.5" fill="#F7F7F7" />
<circle cx="80.22222222222223" cy="233.5" r="1.5" stroke="#ba0f27" stroke-width="1.5" fill="#ba0f27"  />
<circle cx="87.08333333333333" cy="228.01026856240125" r="1.5" stroke="#F7F7F7" stroke-width="1.5" fill="#F7F7F7" />
<circle cx="87.08333333333333" cy="228.01026856240125" r="1.5" stroke="#ba0f27" stroke-width="1.5" fill="#ba0f27"  />
<circle cx="93.94444444444444" cy="229.54739336492892" r="1.5" stroke="#F7F7F7" stroke-width="1.5" fill="#F7F7F7" />
<circle cx="93.94444444444444" cy="229.54739336492892" r="1.5" stroke="#ba0f27" stroke-width="1.5" fill="#ba0f27"  />
<circle cx="100.80555555555556" cy="231.3041074249605" r="1.5" stroke="#F7F7F7" stroke-width="1.5" fill="#F7F7F7" />
<circle cx="100.80555555555556" cy="231.3041074249605" r="1.5" stroke="#ba0f27" stroke-width="1.5" fill="#ba0f27"  />
<circle cx="107.66666666666666" cy="232.40205371248027" r="1.5" stroke="#F7F7F7" stroke-width="1.5" fill="#F7F7F7" />
<circle cx="107.66666666666666" cy="232.40205371248027" r="1.5" stroke="#ba0f27" stroke-width="1.5" fill="#ba0f27"  />
<circle cx="114.52777777777777" cy="229.54739336492892" r="1.5" stroke="#F7F7F7" stroke-width="1.5" fill="#F7F7F7" />
<circle cx="114.52777777777777" cy="229.54739336492892" r="1.5" stroke="#ba0f27" stroke-width="1.5" fill="#ba0f27"  />
<circle cx="121.38888888888889" cy="228.44944707740916" r="1.5" stroke="#F7F7F7" stroke-width="1.5" fill="#F7F7F7" />
<circle cx="121.38888888888889" cy="228.44944707740916" r="1.5" stroke="#ba0f27" stroke-width="1.5" fill="#ba0f27"  />
<circle cx="128.25" cy="229.9865718799368" r="1.5" stroke="#F7F7F7" stroke-width="1.5" fill="#F7F7F7" />
<circle cx="128.25" cy="229.9865718799368" r="1.5" stroke="#ba0f27" stroke-width="1.5" fill="#ba0f27"  />
<circle cx="135.11111111111111" cy="226.91232227488152" r="1.5" stroke="#F7F7F7" stroke-width="1.5" fill="#F7F7F7" />
<circle cx="135.11111111111111" cy="226.91232227488152" r="1.5" stroke="#ba0f27" stroke-width="1.5" fill="#ba0f27"  />
<circle cx="141.97222222222223" cy="232.6216429699842" r="1.5" stroke="#F7F7F7" stroke-width="1.5" fill="#F7F7F7" />
<circle cx="141.97222222222223" cy="232.6216429699842" r="1.5" stroke="#ba0f27" stroke-width="1.5" fill="#ba0f27"  />
<circle cx="148.83333333333331" cy="233.5" r="1.5" stroke="#F7F7F7" stroke-width="1.5" fill="#F7F7F7" />
<circle cx="148.83333333333331" cy="233.5" r="1.5" stroke="#ba0f27" stroke-width="1.5" fill="#ba0f27"  />
<circle cx="155.69444444444446" cy="222.52053712480253" r="1.5" stroke="#F7F7F7" stroke-width="1.5" fill="#F7F7F7" />
<circle cx="155.69444444444446" cy="222.52053712480253" r="1.5" stroke="#ba0f27" stroke-width="1.5" fill="#ba0f27"  />
<circle cx="162.55555555555554" cy="228.01026856240125" r="1.5" stroke="#F7F7F7" stroke-width="1.5" fill="#F7F7F7" />
<circle cx="162.55555555555554" cy="228.01026856240125" r="1.5" stroke="#ba0f27" stroke-width="1.5" fill="#ba0f27"  />
<circle cx="169.41666666666666" cy="217.68957345971563" r="1.5" stroke="#F7F7F7" stroke-width="1.5" fill="#F7F7F7" />
<circle cx="169.41666666666666" cy="217.68957345971563" r="1.5" stroke="#ba0f27" stroke-width="1.5" fill="#ba0f27"  />
<circle cx="176.27777777777777" cy="226.91232227488152" r="1.5" stroke="#F7F7F7" stroke-width="1.5" fill="#F7F7F7" />
<circle cx="176.27777777777777" cy="226.91232227488152" r="1.5" stroke="#ba0f27" stroke-width="1.5" fill="#ba0f27"  />
<circle cx="183.13888888888889" cy="213.73696682464455" r="1.5" stroke="#F7F7F7" stroke-width="1.5" fill="#F7F7F7" />
<circle cx="183.13888888888889" cy="213.73696682464455" r="1.5" stroke="#ba0f27" stroke-width="1.5" fill="#ba0f27"  />
<circle cx="190.0" cy="205.17298578199052" r="1.5" stroke="#F7F7F7" stroke-width="1.5" fill="#F7F7F7" />
<circle cx="190.0" cy="205.17298578199052" r="1.5" stroke="#ba0f27" stroke-width="1.5" fill="#ba0f27"  />
<circle cx="196.86111111111111" cy="222.3009478672986" r="1.5" stroke="#F7F7F7" stroke-width="1.5" fill="#F7F7F7" />
<circle cx="196.86111111111111" cy="222.3009478672986" r="1.5" stroke="#ba0f27" stroke-width="1.5" fill="#ba0f27"  />
<circle cx="203.72222222222223" cy="215.2740916271722" r="1.5" stroke="#F7F7F7" stroke-width="1.5" fill="#F7F7F7" />
<circle cx="203.72222222222223" cy="215.2740916271722" r="1.5" stroke="#ba0f27" stroke-width="1.5" fill="#ba0f27"  />
<circle cx="210.58333333333331" cy="212.6390205371248" r="1.5" stroke="#F7F7F7" stroke-width="1.5" fill="#F7F7F7" />
<circle cx="210.58333333333331" cy="212.6390205371248" r="1.5" stroke="#ba0f27" stroke-width="1.5" fill="#ba0f27"  />
<circle cx="217.44444444444443" cy="214.83491311216432" r="1.5" stroke="#F7F7F7" stroke-width="1.5" fill="#F7F7F7" />
<circle cx="217.44444444444443" cy="214.83491311216432" r="1.5" stroke="#ba0f27" stroke-width="1.5" fill="#ba0f27"  />
<circle cx="224.30555555555554" cy="206.9296998420221" r="1.5" stroke="#F7F7F7" stroke-width="1.5" fill="#F7F7F7" />
<circle cx="224.30555555555554" cy="206.9296998420221" r="1.5" stroke="#ba0f27" stroke-width="1.5" fill="#ba0f27"  />
<circle cx="231.16666666666666" cy="207.58846761453395" r="1.5" stroke="#F7F7F7" stroke-width="1.5" fill="#F7F7F7" />
<circle cx="231.16666666666666" cy="207.58846761453395" r="1.5" stroke="#ba0f27" stroke-width="1.5" fill="#ba0f27"  />
<circle cx="238.02777777777777" cy="201.65955766192735" r="1.5" stroke="#F7F7F7" stroke-width="1.5" fill="#F7F7F7" />
<circle cx="238.02777777777777" cy="201.65955766192735" r="1.5" stroke="#ba0f27" stroke-width="1.5" fill="#ba0f27"  />
<circle cx="244.88888888888889" cy="193.5347551342812" r="1.5" stroke="#F7F7F7" stroke-width="1.5" fill="#F7F7F7" />
<circle cx="244.88888888888889" cy="193.5347551342812" r="1.5" stroke="#ba0f27" stroke-width="1.5" fill="#ba0f27"  />
<circle cx="251.75" cy="198.58530805687204" r="1.5" stroke="#F7F7F7" stroke-width="1.5" fill="#F7F7F7" />
<circle cx="251.75" cy="198.58530805687204" r="1.5" stroke="#ba0f27" stroke-width="1.5" fill="#ba0f27"  />
<circle cx="258.6111111111111" cy="174.86966824644549" r="1.5" stroke="#F7F7F7" stroke-width="1.5" fill="#F7F7F7" />
<circle cx="258.6111111111111" cy="174.86966824644549" r="1.5" stroke="#ba0f27" stroke-width="1.5" fill="#ba0f27"  />
<circle cx="265.4722222222222" cy="159.49842022116906" r="1.5" stroke="#F7F7F7" stroke-width="1.5" fill="#F7F7F7" />
<circle cx="265.4722222222222" cy="159.49842022116906" r="1.5" stroke="#ba0f27" stroke-width="1.5" fill="#ba0f27"  />
<circle cx="272.3333333333333" cy="166.0860979462875" r="1.5" stroke="#F7F7F7" stroke-width="1.5" fill="#F7F7F7" />
<circle cx="272.3333333333333" cy="166.0860979462875" r="1.5" stroke="#ba0f27" stroke-width="1.5" fill="#ba0f27"  />
<circle cx="279.19444444444446" cy="125.24249605055292" r="1.5" stroke="#F7F7F7" stroke-width="1.5" fill="#F7F7F7" />
<circle cx="279.19444444444446" cy="125.24249605055292" r="1.5" stroke="#ba0f27" stroke-width="1.5" fill="#ba0f27"  />
<circle cx="286.05555555555554" cy="94.5" r="1.5" stroke="#F7F7F7" stroke-width="1.5" fill="#F7F7F7" />
<circle cx="286.05555555555554" cy="94.5" r="1.5" stroke="#ba0f27" stroke-width="1.5" fill="#ba0f27"  />
<circle cx="292.91666666666663" cy="140.61374407582937" r="1.5" stroke="#F7F7F7" stroke-width="1.5" fill="#F7F7F7" />
<circle cx="292.91666666666663" cy="140.61374407582937" r="1.5" stroke="#ba0f27" stroke-width="1.5" fill="#ba0f27"  />
<circle cx="299.77777777777777" cy="133.1477093206951" r="1.5" stroke="#F7F7F7" stroke-width="1.5" fill="#F7F7F7" />
<circle cx="299.77777777777777" cy="133.1477093206951" r="1.5" stroke="#ba0f27" stroke-width="1.5" fill="#ba0f27"  />
<circle cx="306.6388888888889" cy="114.26303317535545" r="1.5" stroke="#F7F7F7" stroke-width="1.5" fill="#F7F7F7" />
<circle cx="306.6388888888889" cy="114.26303317535545" r="1.5" stroke="#ba0f27" stroke-width="1.5" fill="#ba0f27"  />
<circle cx="313.5" cy="114.4826224328594" r="1.5" stroke="#F7F7F7" stroke-width="1.5" fill="#F7F7F7" />
<circle cx="313.5" cy="114.4826224328594" r="1.5" stroke="#ba0f27" stroke-width="1.5" fill="#ba0f27"  />
<polyline points="66.5,212.65 73.36111111111111,212.65" style="fill:none;stroke:#000000;stroke-width:2" stroke-dasharray="3,1"  />
<polyline points="73.36111111111111,212.65 80.22222222222223,212.65" style="fill:none;stroke:#000000;stroke-width:2" stroke-dasharray="3,1"  />
<polyline points="80.22222222222223,212.65 87.08333333333333,226.55" style="fill:none;stroke:#000000;stroke-width:2" stroke-dasharray="3,1"  />
<polyline points="87.08333333333333,226.55 93.94444444444444,219.60000000000002" style="fill:none;stroke:#000000;stroke-width:2" stroke-dasharray="3,1"  />
<polyline points="93.94444444444444,219.60000000000002 100.80555555555556,233.5" style="fill:none;stroke:#000000;stroke-width:2" stroke-dasharray="3,1"  />
<polyline points="100.80555555555556,233.5 107.66666666666666,226.55" style="fill:none;stroke:#000000;stroke-width:2" stroke-dasharray="3,1"  />
<polyline points="107.66666666666666,226.55 114.52777777777777,212.65" style="fill:none;stroke:#000000;stroke-width:2" stroke-dasharray="3,1"  />
<polyline points="114.52777777777777,212.65 121.38888888888889,226.55" style="fill:none;stroke:#000000;stroke-width:2" stroke-dasharray="3,1"  />
<polyline points="121.38888888888889,226.55 128.25,233.5" style="fill:none;stroke:#000000;stroke-width:2" stroke-dasharray="3,1"  />
<polyline points="128.25,233.5 135.11111111111111,233.5" style="fill:none;stroke:#000000;stroke-width:2" stroke-dasharray="3,1"  />
<polyline points="135.11111111111111,233.5 141.97222222222223,233.5" style="fill:none;stroke:#000000;stroke-width:2" stroke-dasharray="3,1"  />
<polyline points="141.97222222222223,233.5 148.83333333333331,226.55" style="fill:none;stroke:#000000;stroke-width:2" stroke-dasharray="3,1"  />
<polyline points="148.83333333333331,226.55 155.69444444444446,233.5" style="fill:none;stroke:#000000;stroke-width:2" stroke-dasharray="3,1"  />
<polyline points="155.69444444444446,233.5 162.55555555555554,226.55" style="fill:none;stroke:#000000;stroke-width:2" stroke-dasharray="3,1"  />
<polyline points="162.55555555555554,226.55 169.41666666666666,226.55" style="fill:none;stroke:#000000;stroke-width:2" stroke-dasharray="3,1"  />
<polyline points="169.41666666666666,226.55 176.27777777777777,233.5" style="fill:none;stroke:#000000;stroke-width:2" stroke-dasharray="3,1"  />
<polyline points="176.27777777777777,233.5 183.13888888888889,233.5" style="fill:none;stroke:#000000;stroke-width:2" stroke-dasharray="3,1"  />
<polyline points="183.13888888888889,233.5 190.0,226.55" style="fill:none;stroke:#000000;stroke-width:2" stroke-dasharray="3,1"  />
<polyline points="190.0,226.55 196.86111111111111,233.5" style="fill:none;stroke:#000000;stroke-width:2" stroke-dasharray="3,1"  />
<polyline points="196.86111111111111,233.5 203.72222222222223,233.5" style="fill:none;stroke:#000000;stroke-width:2" stroke-dasharray="3,1"  />
<polyline points="203.72222222222223,233.5 210.58333333333331,205.7" style="fill:none;stroke:#000000;stroke-width:2" stroke-dasharray="3,1"  />
<polyline points="210.58333333333331,205.7 217.44444444444443,198.75" style="fill:none;stroke:#000000;stroke-width:2" stroke-dasharray="3,1"  />
<polyline points="217.44444444444443,198.75 224.30555555555554,177.9" style="fill:none;stroke:#000000;stroke-width:2" stroke-dasharray="3,1"  />
<polyline points="224.30555555555554,177.9 231.16666666666666,205.7" style="fill:none;stroke:#000000;stroke-width:2" stroke-dasharray="3,1"  />
<polyline points="231.16666666666666,205.7 238.02777777777777,177.9" style="fill:none;stroke:#000000;stroke-width:2" stroke-dasharray="3,1"  />
<polyline points="238.02777777777777,177.9 244.88888888888889,164.0" style="fill:none;stroke:#000000;stroke-width:2" stroke-dasharray="3,1"  />
<polyline points="244.88888888888889,164.0 251.75,191.8" style="fill:none;stroke:#000000;stroke-width:2" stroke-dasharray="3,1"  />
<polyline points="251.75,191.8 258.6111111111111,157.05" style="fill:none;stroke:#000000;stroke-width:2" stroke-dasharray="3,1"  />
<polyline points="258.6111111111111,157.05 265.4722222222222,101.45" style="fill:none;stroke:#000000;stroke-width:2" stroke-dasharray="3,1"  />
<polyline points="265.4722222222222,101.45 272.3333333333333,129.25" style="fill:none;stroke:#000000;stroke-width:2" stroke-dasharray="3,1"  />
<polyline points="272.3333333333333,129.25 279.19444444444446,129.25" style="fill:none;stroke:#000000;stroke-width:2" stroke-dasharray="3,1"  />
<polyline points="279.19444444444446,129.25 286.05555555555554,136.2" style="fill:none;stroke:#000000;stroke-width:2" stroke-dasharray="3,1"  />
<polyline points="286.05555555555554,136.2 292.91666666666663,115.35" style="fill:none;stroke:#000000;stroke-width:2" stroke-dasharray="3,1"  />
<polyline points="292.91666666666663,115.35 299.77777777777777,115.35" style="fill:none;stroke:#000000;stroke-width:2" stroke-dasharray="3,1"  />
<polyline points="299.77777777777777,115.35 306.6388888888889,101.45" style="fill:none;stroke:#000000;stroke-width:2" stroke-dasharray="3,1"  />
<polyline points="306.6388888888889,101.45 313.5,94.5" style="fill:none;stroke:#000000;stroke-width:2" stroke-dasharray="3,1"  />
<polygon points="64.7,212.65 66.5,210.85 68.3,212.65 66.5,214.45000000000002" stroke="#F7F7F7" stroke-width="1.5" fill="#F7F7F7"  />
<polygon points="64.7,212.65 66.5,210.85 68.3,212.65 66.5,214.45000000000002" stroke="#000000" stroke-width="1.5" fill="#000000"  />
<polygon points="71.56111111111112,212.65 73.36111111111111,210.85 75.16111111111111,212.65 73.36111111111111,214.45000000000002" stroke="#F7F7F7" stroke-width="1.5" fill="#F7F7F7"  />
<polygon points="71.56111111111112,212.65 73.36111111111111,210.85 75.16111111111111,212.65 73.36111111111111,214.45000000000002" stroke="#000000" stroke-width="1.5" fill="#000000"  />
<polygon points="78.42222222222223,212.65 80.22222222222223,210.85 82.02222222222223,212.65 80.22222222222223,214.45000000000002" stroke="#F7F7F7" stroke-width="1.5" fill="#F7F7F7"  />
<polygon points="78.42222222222223,212.65 80.22222222222223,210.85 82.02222222222223,212.65 80.22222222222223,214.45000000000002" stroke="#000000" stroke-width="1.5" fill="#000000"  />
<polygon points="85.28333333333333,226.55 87.08333333333333,224.75 88.88333333333333,226.55 87.08333333333333,228.35000000000002" stroke="#F7F7F7" stroke-width="1.5" fill="#F7F7F7"  />
<polygon points="85.28333333333333,226.55 87.08333333333333,224.75 88.88333333333333,226.55 87.08333333333333,228.35000000000002" stroke="#000000" stroke-width="1.5" fill="#000000"  />
<polygon points="92.14444444444445,219.60000000000002 93.94444444444444,217.8 95.74444444444444,219.60000000000002 93.94444444444444,221.40000000000003" stroke="#F7F7F7" stroke-width="1.5" fill="#F7F7F7"  />
<polygon points="92.14444444444445,219.60000000000002 93.94444444444444,217.8 95.74444444444444,219.60000000000002 93.94444444444444,221.40000000000003" stroke="#000000" stroke-width="1.5" fill="#000000"  />
<polygon points="99.00555555555556,233.5 100.80555555555556,231.7 102.60555555555555,233.5 100.80555555555556,235.3" stroke="#F7F7F7" stroke-width="1.5" fill="#F7F7F7"  />
<polygon points="99.00555555555556,233.5 100.80555555555556,231.7 102.60555555555555,233.5 100.80555555555556,235.3" stroke="#000000" stroke-width="1.5" fill="#000000"  />
<polygon points="105.86666666666666,226.55 107.66666666666666,224.75 109.46666666666665,226.55 107.66666666666666,228.35000000000002" stroke="#F7F7F7" stroke-width="1.5" fill="#F7F7F7"  />
<polygon points="105.86666666666666,226.55 107.66666666666666,224.75 109.46666666666665,226.55 107.66666666666666,228.35000000000002" stroke="#000000" stroke-width="1.5" fill="#000000"  />
<polygon points="112.72777777777777,212.65 114.52777777777777,210.85 116.32777777777777,212.65 114.52777777777777,214.45000000000002" stroke="#F7F7F7" stroke-width="1.5" fill="#F7F7F7"  />
<polygon points="112.72777777777777,212.65 114.52777777777777,210.85 116.32777777777777,212.65 114.52777777777777,214.45000000000002" stroke="#000000" stroke-width="1.5" fill="#000000"  />
<polygon points="119.58888888888889,226.55 121.38888888888889,224.75 123.18888888888888,226.55 121.38888888888889,228.35000000000002" stroke="#F7F7F7" stroke-width="1.5" fill="#F7F7F7"  />
<polygon points="119.58888888888889,226.55 121.38888888888889,224.75 123.18888888888888,226.55 121.38888888888889,228.35000000000002" stroke="#000000" stroke-width="1.5" fill="#000000"  />
<polygon points="126.45,233.5 128.25,231.7 130.05,233.5 128.25,235.3" stroke="#F7F7F7" stroke-width="1.5" fill="#F7F7F7"  />
<polygon points="126.45,233.5 128.25,231.7 130.05,233.5 128.25,235.3" stroke="#000000" stroke-width="1.5" fill="#000000"  />
<polygon points="133.3111111111111,233.5 135.11111111111111,231.7 136.91111111111113,233.5 135.11111111111111,235.3" stroke="#F7F7F7" stroke-width="1.5" fill="#F7F7F7"  />
<polygon points="133.3111111111111,233.5 135.11111111111111,231.7 136.91111111111113,233.5 135.11111111111111,235.3" stroke="#000000" stroke-width="1.5" fill="#000000"  />
<polygon points="140.17222222222222,233.5 141.97222222222223,231.7 143.77222222222224,233.5 141.97222222222223,235.3" stroke="#F7F7F7" stroke-width="1.5" fill="#F7F7F7"  />
<polygon points="140.17222222222222,233.5 141.97222222222223,231.7 143.77222222222224,233.5 141.97222222222223,235.3" stroke="#000000" stroke-width="1.5" fill="#000000"  />
<polygon points="147.0333333333333,226.55 148.83333333333331,224.75 150.63333333333333,226.55 148.83333333333331,228.35000000000002" stroke="#F7F7F7" stroke-width="1.5" fill="#F7F7F7"  />
<polygon points="147.0333333333333,226.55 148.83333333333331,224.75 150.63333333333333,226.55 148.83333333333331,228.35000000000002" stroke="#000000" stroke-width="1.5" fill="#000000"  />
<polygon points="153.89444444444445,233.5 155.69444444444446,231.7 157.49444444444447,233.5 155.69444444444446,235.3" stroke="#F7F7F7" stroke-width="1.5" fill="#F7F7F7"  />
<polygon points="153.89444444444445,233.5 155.69444444444446,231.7 157.49444444444447,233.5 155.69444444444446,235.3" stroke="#000000" stroke-width="1.5" fill="#000000"  />
<polygon points="160.75555555555553,226.55 162.55555555555554,224.75 164.35555555555555,226.55 162.55555555555554,228.35000000000002" stroke="#F7F7F7" stroke-width="1.5" fill="#F7F7F7"  />
<polygon points="160.75555555555553,226.55 162.55555555555554,224.75 164.35555555555555,226.55 162.55555555555554,228.35000000000002" stroke="#000000" stroke-width="1.5" fill="#000000"  />
<polygon points="167.61666666666665,226.55 169.41666666666666,224.75 171.21666666666667,226.55 169.41666666666666,228.35000000000002" stroke="#F7F7F7" stroke-width="1.5" fill="#F7F7F7"  />
<polygon points="167.61666666666665,226.55 169.41666666666666,224.75 171.21666666666667,226.55 169.41666666666666,228.35000000000002" stroke="#000000" stroke-width="1.5" fill="#000000"  />
<polygon points="174.47777777777776,233.5 176.27777777777777,231.7 178.07777777777778,233.5 176.27777777777777,235.3" stroke="#F7F7F7" stroke-width="1.5" fill="#F7F7F7"  />
<polygon points="174.47777777777776,233.5 176.27777777777777,231.7 178.07777777777778,233.5 176.27777777777777,235.3" stroke="#000000" stroke-width="1.5" fill="#000000"  />
<polygon points="181.33888888888887,233.5 183.13888888888889,231.7 184.9388888888889,233.5 183.13888888888889,235.3" stroke="#F7F7F7" stroke-width="1.5" fill="#F7F7F7"  />
<polygon points="181.33888888888887,233.5 183.13888888888889,231.7 184.9388888888889,233.5 183.13888888888889,235.3" stroke="#000000" stroke-width="1.5" fill="#000000"  />
<polygon points="188.2,226.55 190.0,224.75 191.8,226.55 190.0,228.35000000000002" stroke="#F7F7F7" stroke-width="1.5" fill="#F7F7F7"  />
<polygon points="188.2,226.55 190.0,224.75 191.8,226.55 190.0,228.35000000000002" stroke="#000000" stroke-width="1.5" fill="#000000"  />
<polygon points="195.0611111111111,233.5 196.86111111111111,231.7 198.66111111111113,233.5 196.86111111111111,235.3" stroke="#F7F7F7" stroke-width="1.5" fill="#F7F7F7"  />
<polygon points="195.0611111111111,233.5 196.86111111111111,231.7 198.66111111111113,233.5 196.86111111111111,235.3" stroke="#000000" stroke-width="1.5" fill="#000000"  />
<polygon points="201.92222222222222,233.5 203.72222222222223,231.7 205.52222222222224,233.5 203.72222222222223,235.3" stroke="#F7F7F7" stroke-width="1.5" fill="#F7F7F7"  />
<polygon points="201.92222222222222,233.5 203.72222222222223,231.7 205.52222222222224,233.5 203.72222222222223,235.3" stroke="#000000" stroke-width="1.5" fill="#000000"  />
<polygon points="208.7833333333333,205.7 210.58333333333331,203.89999999999998 212.38333333333333,205.7 210.58333333333331,207.5" stroke="#F7F7F7" stroke-width="1.5" fill="#F7F7F7"  />
<polygon points="208.7833333333333,205.7 210.58333333333331,203.89999999999998 212.38333333333333,205.7 210.58333333333331,207.5" stroke="#000000" stroke-width="1.5" fill="#000000"  />
<polygon points="215.64444444444442,198.75 217.44444444444443,196.95 219.24444444444444,198.75 217.44444444444443,200.55" stroke="#F7F7F7" stroke-width="1.5" fill="#F7F7F7"  />
<polygon points="215.64444444444442,198.75 217.44444444444443,196.95 219.24444444444444,198.75 217.44444444444443,200.55" stroke="#000000" stroke-width="1.5" fill="#000000"  />
<polygon points="222.50555555555553,177.9 224.30555555555554,176.1 226.10555555555555,177.9 224.30555555555554,179.70000000000002" stroke="#F7F7F7" stroke-width="1.5" fill="#F7F7F7"  />
<polygon points="222.50555555555553,177.9 224.30555555555554,176.1 226.10555555555555,177.9 224.30555555555554,179.70000000000002" stroke="#000000" stroke-width="1.5" fill="#000000"  />
<polygon points="229.36666666666665,205.7 231.16666666666666,203.89999999999998 232.96666666666667,205.7 231.16666666666666,207.5" stroke="#F7F7F7" stroke-width="1.5" fill="#F7F7F7"  />
<polygon points="229.36666666666665,205.7 231.16666666666666,203.89999999999998 232.96666666666667,205.7 231.16666666666666,207.5" stroke="#000000" stroke-width="1.5" fill="#000000"  />
<polygon points="236.22777777777776,177.9 238.02777777777777,176.1 239.82777777777778,177.9 238.02777777777777,179.70000000000002" stroke="#F7F7F7" stroke-width="1.5" fill="#F7F7F7"  />
<polygon points="236.22777777777776,177.9 238.02777777777777,176.1 239.82777777777778,177.9 238.02777777777777,179.70000000000002" stroke="#000000" stroke-width="1.5" fill="#000000"  />
<polygon points="243.08888888888887,164.0 244.88888888888889,162.2 246.6888888888889,164.0 244.88888888888889,165.8" stroke="#F7F7F7" stroke-width="1.5" fill="#F7F7F7"  />
<polygon points="243.08888888888887,164.0 244.88888888888889,162.2 246.6888888888889,164.0 244.88888888888889,165.8" stroke="#000000" stroke-width="1.5" fill="#000000"  />
<polygon points="249.95,191.8 251.75,190.0 253.55,191.8 251.75,193.60000000000002" stroke="#F7F7F7" stroke-width="1.5" fill="#F7F7F7"  />
<polygon points="249.95,191.8 251.75,190.0 253.55,191.8 251.75,193.60000000000002" stroke="#000000" stroke-width="1.5" fill="#000000"  />
<polygon points="256.8111111111111,157.05 258.6111111111111,155.25 260.4111111111111,157.05 258.6111111111111,158.85000000000002" stroke="#F7F7F7" stroke-width="1.5" fill="#F7F7F7"  />
<polygon points="256.8111111111111,157.05 258.6111111111111,155.25 260.4111111111111,157.05 258.6111111111111,158.85000000000002" stroke="#000000" stroke-width="1.5" fill="#000000"  />
<polygon points="263.67222222222216,101.45 265.4722222222222,99.65 267.2722222222222,101.45 265.4722222222222,103.25" stroke="#F7F7F7" stroke-width="1.5" fill="#F7F7F7"  />
<polygon points="263.67222222222216,101.45 265.4722222222222,99.65 267.2722222222222,101.45 265.4722222222222,103.25" stroke="#000000" stroke-width="1.5" fill="#000000"  />
<polygon points="270.5333333333333,129.25 272.3333333333333,127.45 274.1333333333333,129.25 272.3333333333333,131.05" stroke="#F7F7F7" stroke-width="1.5" fill="#F7F7F7"  />
<polygon points="270.5333333333333,129.25 272.3333333333333,127.45 274.1333333333333,129.25 272.3333333333333,131.05" stroke="#000000" stroke-width="1.5" fill="#000000"  />
<polygon points="277.39444444444445,129.25 279.19444444444446,127.45 280.99444444444447,129.25 279.19444444444446,131.05" stroke="#F7F7F7" stroke-width="1.5" fill="#F7F7F7"  />
<polygon points="277.39444444444445,129.25 279.19444444444446,127.45 280.99444444444447,129.25 279.19444444444446,131.05" stroke="#000000" stroke-width="1.5" fill="#000000"  />
<polygon points="284.25555555555553,136.2 286.05555555555554,134.39999999999998 287.85555555555555,136.2 286.05555555555554,138.0" stroke="#F7F7F7" stroke-width="1.5" fill="#F7F7F7"  />
<polygon points="284.25555555555553,136.2 286.05555555555554,134.39999999999998 287.85555555555555,136.2 286.05555555555554,138.0" stroke="#000000" stroke-width="1.5" fill="#000000"  />
<polygon points="291.1166666666666,115.35 292.91666666666663,113.55 294.71666666666664,115.35 292.91666666666663,117.14999999999999" stroke="#F7F7F7" stroke-width="1.5" fill="#F7F7F7"  />
<polygon points="291.1166666666666,115.35 292.91666666666663,113.55 294.71666666666664,115.35 292.91666666666663,117.14999999999999" stroke="#000000" stroke-width="1.5" fill="#000000"  />
<polygon points="297.97777777777776,115.35 299.77777777777777,113.55 301.5777777777778,115.35 299.77777777777777,117.14999999999999" stroke="#F7F7F7" stroke-width="1.5" fill="#F7F7F7"  />
<polygon points="297.97777777777776,115.35 299.77777777777777,113.55 301.5777777777778,115.35 299.77777777777777,117.14999999999999" stroke="#000000" stroke-width="1.5" fill="#000000"  />
<polygon points="304.8388888888889,101.45 306.6388888888889,99.65 308.4388888888889,101.45 306.6388888888889,103.25" stroke="#F7F7F7" stroke-width="1.5" fill="#F7F7F7"  />
<polygon points="304.8388888888889,101.45 306.6388888888889,99.65 308.4388888888889,101.45 306.6388888888889,103.25" stroke="#000000" stroke-width="1.5" fill="#000000"  />
<polygon points="311.7,94.5 313.5,92.7 315.3,94.5 313.5,96.3" stroke="#F7F7F7" stroke-width="1.5" fill="#F7F7F7"  />
<polygon points="311.7,94.5 313.5,92.7 315.3,94.5 313.5,96.3" stroke="#000000" stroke-width="1.5" fill="#000000"  />
</svg>