<svg width="600" height="414" xmlns="http://www.w3.org/2000/svg"> <rect width="100%" height="100%" fill="#FEFEFE" />
<line x1="70" y1="274" x2="530" y2="274" stroke="#9f9f9f" stroke-width="1" />
<rect x="70" y="109" width="460" height="165" fill="#FEFEFE" />
<text text-anchor="middle" x="300.0" y="20" font-family="'Helvetica Neue', Arial, sans-serif" font-weight="bold" font-size="22" fill="#000000">How &apos;hip and with it&apos; Matt Parker&apos;s</text>
<text text-anchor="middle" x="300.0" y="42" font-family="'Helvetica Neue', Arial, sans-serif" font-weight="bold" font-size="22" fill="#000000">YouTube video titles are</text>
<text text-anchor="middle" x="300.0" y="64" font-family="'Helvetica Neue', Arial, sans-serif" font-size="14" fill="#000000">correlates with</text>
<text text-anchor="middle" x="300.0" y="90" font-family="'Helvetica Neue', Arial, sans-serif" font-weight="bold" font-size="22" fill="#ba0f27">The number of zoologists in Nevada</text>
<text text-anchor="start" x="23" y="319.3333333333333" font-family="'Helvetica Neue', Arial, sans-serif" font-size="14" fill="#9f9f9f">How &apos;hip and with it&apos; Stand-up Maths YouTube video titles are, as rated</text>
<text text-anchor="start" x="23" y="335.3333333333333" font-family="'Helvetica Neue', Arial, sans-serif" font-size="14" fill="#9f9f9f">by an AI. &#183; Source: AI analysis of Stand-up Maths YouTube video titles</text>
<text text-anchor="start" x="23" y="358.66666666666663" font-family="'Helvetica Neue', Arial, sans-serif" font-size="14" fill="#9f9f9f">BLS estimate of zoologists and wildlife biologists in Nevada &#183; Source:</text>
<text text-anchor="start" x="23" y="374.66666666666663" font-family="'Helvetica Neue', Arial, sans-serif" font-size="14" fill="#9f9f9f">Bureau of Larbor Statistics</text>
<text text-anchor="start" x="23" y="397.99999999999994" font-family="'Helvetica Neue', Arial, sans-serif" font-size="14" fill="#9f9f9f">2011-2021, r=0.917, r&#178;=0.840, p&lt;0.01  &#183;  tylervigen.com/spurious/correlation/4878</text>
<polyline points="5,314.66666666666663 20,314.66666666666663" style="fill:none;stroke:#000000;stroke-width:2.8" stroke-dasharray="3,1" />
<polygon points="1.7000000000000002,314.66666666666663 5,311.3666666666666 8.3,314.66666666666663 5,317.96666666666664" stroke="#F7F7F7" stroke-width="2.75" fill="#F7F7F7"  />
<polygon points="1.7000000000000002,314.66666666666663 5,311.3666666666666 8.3,314.66666666666663 5,317.96666666666664" stroke="#000000" stroke-width="2.75" fill="#000000"  />
<polyline points="5,353.99999999999994 20,353.99999999999994" style="fill:none;stroke:#ba0f27;stroke-width:2.8" />
<circle cx="5" cy="353.99999999999994" r="2.75" stroke="#F7F7F7" stroke-width="2.75" fill="#F7F7F7" />
<circle cx="5" cy="353.99999999999994" r="2.75" stroke="#ba0f27" stroke-width="2.75" fill="#ba0f27"  />
<text x="5" y="196.5" transform="rotate(270 5 191.5)" text-anchor="middle" fill="#000000" font-family="'Helvetica Neue', Arial, sans-serif" font-size="14" dominant-baseline="central">Hip' score (out of 10)</text>
<text x="191.5" y="-389" transform="rotate(90 100 100)" text-anchor="middle" fill="#ba0f27" font-family="'Helvetica Neue', Arial, sans-serif" font-size="14" dominant-baseline="central">Laborers</text>
<line x1="71" y1="116.75" x2="528" y2="116.75" stroke="#F3F3F3" stroke-width="1" fill="#FEFEFE" />
<text text-anchor="end" x="62" y="121.41666666666667" font-family="'Helvetica Neue', Arial, sans-serif" font-size="12" fill="#000000">7.0</text>
<text text-anchor="start" x="538" y="121.41666666666667" font-family="'Helvetica Neue', Arial, sans-serif" font-size="12" fill="#ba0f27">300</text>
<line x1="71" y1="154.125" x2="528" y2="154.125" stroke="#F3F3F3" stroke-width="1" fill="#FEFEFE" />
<text text-anchor="end" x="62" y="158.79166666666666" font-family="'Helvetica Neue', Arial, sans-serif" font-size="12">6.6</text>
<text text-anchor="start" x="538" y="158.79166666666666" font-family="'Helvetica Neue', Arial, sans-serif" font-size="12" fill="#ba0f27">262</text>
<line x1="71" y1="191.5" x2="528" y2="191.5" stroke="#F3F3F3" stroke-width="1" fill="#FEFEFE" />
<text text-anchor="end" x="62" y="196.16666666666666" font-family="'Helvetica Neue', Arial, sans-serif" font-size="12">6.21</text>
<text text-anchor="start" x="538" y="196.16666666666666" font-family="'Helvetica Neue', Arial, sans-serif" font-size="12" fill="#ba0f27">225</text>
<line x1="71" y1="228.875" x2="528" y2="228.875" stroke="#F3F3F3" stroke-width="1" fill="#FEFEFE" />
<text text-anchor="end" x="62" y="233.54166666666666" font-family="'Helvetica Neue', Arial, sans-serif" font-size="12">5.81</text>
<text text-anchor="start" x="538" y="233.54166666666666" font-family="'Helvetica Neue', Arial, sans-serif" font-size="12" fill="#ba0f27">188</text>
<line x1="71" y1="266.25" x2="528" y2="266.25" stroke="#F3F3F3" stroke-width="1" fill="#FEFEFE" />
<text text-anchor="end" x="62" y="270.9166666666667" font-family="'Helvetica Neue', Arial, sans-serif" font-size="12">5.42</text>
<text text-anchor="start" x="538" y="270.9166666666667" font-family="'Helvetica Neue', Arial, sans-serif" font-size="12" fill="#ba0f27">150</text>
<polyline points="77.75,274 77.75,280" style="fill:none;stroke:#000000;stroke-width:1" />
<polyline points="122.2,274 122.2,280" style="fill:none;stroke:#000000;stroke-width:1" />
<polyline points="166.65,274 166.65,280" style="fill:none;stroke:#000000;stroke-width:1" />
<polyline points="211.10000000000002,274 211.10000000000002,280" style="fill:none;stroke:#000000;stroke-width:1" />
<polyline points="255.55,274 255.55,280" style="fill:none;stroke:#000000;stroke-width:1" />
<polyline points="300.0,274 300.0,280" style="fill:none;stroke:#000000;stroke-width:1" />
<polyline points="344.45000000000005,274 344.45000000000005,280" style="fill:none;stroke:#000000;stroke-width:1" />
<polyline points="388.90000000000003,274 388.90000000000003,280" style="fill:none;stroke:#000000;stroke-width:1" />
<polyline points="433.35,274 433.35,280" style="fill:none;stroke:#000000;stroke-width:1" />
<polyline points="477.8,274 477.8,280" style="fill:none;stroke:#000000;stroke-width:1" />
<polyline points="522.25,274 522.25,280" style="fill:none;stroke:#000000;stroke-width:1" />
<text text-anchor="middle" x="77.75" y="295" font-weight="bold" font-family="'Helvetica Neue', Arial, sans-serif" font-size="14">2011</text>
<text text-anchor="middle" x="122.2" y="295" font-weight="bold" font-family="'Helvetica Neue', Arial, sans-serif" font-size="14">2012</text>
<text text-anchor="middle" x="166.65" y="295" font-weight="bold" font-family="'Helvetica Neue', Arial, sans-serif" font-size="14">2013</text>
<text text-anchor="middle" x="211.10000000000002" y="295" font-weight="bold" font-family="'Helvetica Neue', Arial, sans-serif" font-size="14">2014</text>
<text text-anchor="middle" x="255.55" y="295" font-weight="bold" font-family="'Helvetica Neue', Arial, sans-serif" font-size="14">2015</text>
<text text-anchor="middle" x="300.0" y="295" font-weight="bold" font-family="'Helvetica Neue', Arial, sans-serif" font-size="14">2016</text>
<text text-anchor="middle" x="344.45000000000005" y="295" font-weight="bold" font-family="'Helvetica Neue', Arial, sans-serif" font-size="14">2017</text>
<text text-anchor="middle" x="388.90000000000003" y="295" font-weight="bold" font-family="'Helvetica Neue', Arial, sans-serif" font-size="14">2018</text>
<text text-anchor="middle" x="433.35" y="295" font-weight="bold" font-family="'Helvetica Neue', Arial, sans-serif" font-size="14">2019</text>
<text text-anchor="middle" x="477.8" y="295" font-weight="bold" font-family="'Helvetica Neue', Arial, sans-serif" font-size="14">2020</text>
<text text-anchor="middle" x="522.25" y="295" font-weight="bold" font-family="'Helvetica Neue', Arial, sans-serif" font-size="14">2021</text>
<polyline points="77.75,176.55 122.2,136.68333333333334" style="fill:none;stroke:#ba0f27;stroke-width:2.8"  />
<polyline points="122.2,136.68333333333334 166.65,116.75" style="fill:none;stroke:#ba0f27;stroke-width:2.8"  />
<polyline points="166.65,116.75 211.10000000000002,166.58333333333334" style="fill:none;stroke:#ba0f27;stroke-width:2.8"  />
<polyline points="211.10000000000002,166.58333333333334 255.55,246.31666666666666" style="fill:none;stroke:#ba0f27;stroke-width:2.8"  />
<polyline points="255.55,246.31666666666666 300.0,226.38333333333333" style="fill:none;stroke:#ba0f27;stroke-width:2.8"  />
<polyline points="300.0,226.38333333333333 344.45000000000005,236.35000000000002" style="fill:none;stroke:#ba0f27;stroke-width:2.8"  />
<polyline points="344.45000000000005,236.35000000000002 388.90000000000003,246.31666666666666" style="fill:none;stroke:#ba0f27;stroke-width:2.8"  />
<polyline points="388.90000000000003,246.31666666666666 433.35,236.35000000000002" style="fill:none;stroke:#ba0f27;stroke-width:2.8"  />
<polyline points="433.35,236.35000000000002 477.8,266.25" style="fill:none;stroke:#ba0f27;stroke-width:2.8"  />
<polyline points="477.8,266.25 522.25,266.25" style="fill:none;stroke:#ba0f27;stroke-width:2.8"  />
<circle cx="77.75" cy="176.55" r="2.75" stroke="#F7F7F7" stroke-width="2.75" fill="#F7F7F7" />
<circle cx="77.75" cy="176.55" r="2.75" stroke="#ba0f27" stroke-width="2.75" fill="#ba0f27"  />
<circle cx="122.2" cy="136.68333333333334" r="2.75" stroke="#F7F7F7" stroke-width="2.75" fill="#F7F7F7" />
<circle cx="122.2" cy="136.68333333333334" r="2.75" stroke="#ba0f27" stroke-width="2.75" fill="#ba0f27"  />
<circle cx="166.65" cy="116.75" r="2.75" stroke="#F7F7F7" stroke-width="2.75" fill="#F7F7F7" />
<circle cx="166.65" cy="116.75" r="2.75" stroke="#ba0f27" stroke-width="2.75" fill="#ba0f27"  />
<circle cx="211.10000000000002" cy="166.58333333333334" r="2.75" stroke="#F7F7F7" stroke-width="2.75" fill="#F7F7F7" />
<circle cx="211.10000000000002" cy="166.58333333333334" r="2.75" stroke="#ba0f27" stroke-width="2.75" fill="#ba0f27"  />
<circle cx="255.55" cy="246.31666666666666" r="2.75" stroke="#F7F7F7" stroke-width="2.75" fill="#F7F7F7" />
<circle cx="255.55" cy="246.31666666666666" r="2.75" stroke="#ba0f27" stroke-width="2.75" fill="#ba0f27"  />
<circle cx="300.0" cy="226.38333333333333" r="2.75" stroke="#F7F7F7" stroke-width="2.75" fill="#F7F7F7" />
<circle cx="300.0" cy="226.38333333333333" r="2.75" stroke="#ba0f27" stroke-width="2.75" fill="#ba0f27"  />
<circle cx="344.45000000000005" cy="236.35000000000002" r="2.75" stroke="#F7F7F7" stroke-width="2.75" fill="#F7F7F7" />
<circle cx="344.45000000000005" cy="236.35000000000002" r="2.75" stroke="#ba0f27" stroke-width="2.75" fill="#ba0f27"  />
<circle cx="388.90000000000003" cy="246.31666666666666" r="2.75" stroke="#F7F7F7" stroke-width="2.75" fill="#F7F7F7" />
<circle cx="388.90000000000003" cy="246.31666666666666" r="2.75" stroke="#ba0f27" stroke-width="2.75" fill="#ba0f27"  />
<circle cx="433.35" cy="236.35000000000002" r="2.75" stroke="#F7F7F7" stroke-width="2.75" fill="#F7F7F7" />
<circle cx="433.35" cy="236.35000000000002" r="2.75" stroke="#ba0f27" stroke-width="2.75" fill="#ba0f27"  />
<circle cx="477.8" cy="266.25" r="2.75" stroke="#F7F7F7" stroke-width="2.75" fill="#F7F7F7" />
<circle cx="477.8" cy="266.25" r="2.75" stroke="#ba0f27" stroke-width="2.75" fill="#ba0f27"  />
<circle cx="522.25" cy="266.25" r="2.75" stroke="#F7F7F7" stroke-width="2.75" fill="#F7F7F7" />
<circle cx="522.25" cy="266.25" r="2.75" stroke="#ba0f27" stroke-width="2.75" fill="#ba0f27"  />
<polyline points="77.75,163.9615202425314 122.2,148.22119939367147" style="fill:none;stroke:#000000;stroke-width:2.8" stroke-dasharray="3,1"  />
<polyline points="122.2,148.22119939367147 166.65,116.75" style="fill:none;stroke:#000000;stroke-width:2.8" stroke-dasharray="3,1"  />
<polyline points="166.65,116.75 211.10000000000002,163.9615202425314" style="fill:none;stroke:#000000;stroke-width:2.8" stroke-dasharray="3,1"  />
<polyline points="211.10000000000002,163.9615202425314 255.55,244.2211046548348" style="fill:none;stroke:#000000;stroke-width:2.8" stroke-dasharray="3,1"  />
<polyline points="255.55,244.2211046548348 300.0,228.51855302216887" style="fill:none;stroke:#000000;stroke-width:2.8" stroke-dasharray="3,1"  />
<polyline points="300.0,228.51855302216887 344.45000000000005,192.28843238805024" style="fill:none;stroke:#000000;stroke-width:2.8" stroke-dasharray="3,1"  />
<polyline points="344.45000000000005,192.28843238805024 388.90000000000003,266.25" style="fill:none;stroke:#000000;stroke-width:2.8" stroke-dasharray="3,1"  />
<polyline points="388.90000000000003,266.25 433.35,207.9154455883281" style="fill:none;stroke:#000000;stroke-width:2.8" stroke-dasharray="3,1"  />
<polyline points="433.35,207.9154455883281 477.8,221.9655940125055" style="fill:none;stroke:#000000;stroke-width:2.8" stroke-dasharray="3,1"  />
<polyline points="477.8,221.9655940125055 522.25,260.27302153729545" style="fill:none;stroke:#000000;stroke-width:2.8" stroke-dasharray="3,1"  />
<polygon points="74.45,163.9615202425314 77.75,160.6615202425314 81.05,163.9615202425314 77.75,167.26152024253142" stroke="#F7F7F7" stroke-width="2.75" fill="#F7F7F7"  />
<polygon points="74.45,163.9615202425314 77.75,160.6615202425314 81.05,163.9615202425314 77.75,167.26152024253142" stroke="#000000" stroke-width="2.75" fill="#000000"  />
<polygon points="118.9,148.22119939367147 122.2,144.92119939367146 125.5,148.22119939367147 122.2,151.52119939367148" stroke="#F7F7F7" stroke-width="2.75" fill="#F7F7F7"  />
<polygon points="118.9,148.22119939367147 122.2,144.92119939367146 125.5,148.22119939367147 122.2,151.52119939367148" stroke="#000000" stroke-width="2.75" fill="#000000"  />
<polygon points="163.35,116.75 166.65,113.45 169.95000000000002,116.75 166.65,120.05" stroke="#F7F7F7" stroke-width="2.75" fill="#F7F7F7"  />
<polygon points="163.35,116.75 166.65,113.45 169.95000000000002,116.75 166.65,120.05" stroke="#000000" stroke-width="2.75" fill="#000000"  />
<polygon points="207.8,163.9615202425314 211.10000000000002,160.6615202425314 214.40000000000003,163.9615202425314 211.10000000000002,167.26152024253142" stroke="#F7F7F7" stroke-width="2.75" fill="#F7F7F7"  />
<polygon points="207.8,163.9615202425314 211.10000000000002,160.6615202425314 214.40000000000003,163.9615202425314 211.10000000000002,167.26152024253142" stroke="#000000" stroke-width="2.75" fill="#000000"  />
<polygon points="252.25,244.2211046548348 255.55,240.92110465483478 258.85,244.2211046548348 255.55,247.5211046548348" stroke="#F7F7F7" stroke-width="2.75" fill="#F7F7F7"  />
<polygon points="252.25,244.2211046548348 255.55,240.92110465483478 258.85,244.2211046548348 255.55,247.5211046548348" stroke="#000000" stroke-width="2.75" fill="#000000"  />
<polygon points="296.7,228.51855302216887 300.0,225.21855302216886 303.3,228.51855302216887 300.0,231.81855302216889" stroke="#F7F7F7" stroke-width="2.75" fill="#F7F7F7"  />
<polygon points="296.7,228.51855302216887 300.0,225.21855302216886 303.3,228.51855302216887 300.0,231.81855302216889" stroke="#000000" stroke-width="2.75" fill="#000000"  />
<polygon points="341.15000000000003,192.28843238805024 344.45000000000005,188.98843238805023 347.75000000000006,192.28843238805024 344.45000000000005,195.58843238805025" stroke="#F7F7F7" stroke-width="2.75" fill="#F7F7F7"  />
<polygon points="341.15000000000003,192.28843238805024 344.45000000000005,188.98843238805023 347.75000000000006,192.28843238805024 344.45000000000005,195.58843238805025" stroke="#000000" stroke-width="2.75" fill="#000000"  />
<polygon points="385.6,266.25 388.90000000000003,262.95 392.20000000000005,266.25 388.90000000000003,269.55" stroke="#F7F7F7" stroke-width="2.75" fill="#F7F7F7"  />
<polygon points="385.6,266.25 388.90000000000003,262.95 392.20000000000005,266.25 388.90000000000003,269.55" stroke="#000000" stroke-width="2.75" fill="#000000"  />
<polygon points="430.05,207.9154455883281 433.35,204.6154455883281 436.65000000000003,207.9154455883281 433.35,211.21544558832812" stroke="#F7F7F7" stroke-width="2.75" fill="#F7F7F7"  />
<polygon points="430.05,207.9154455883281 433.35,204.6154455883281 436.65000000000003,207.9154455883281 433.35,211.21544558832812" stroke="#000000" stroke-width="2.75" fill="#000000"  />
<polygon points="474.5,221.9655940125055 477.8,218.6655940125055 481.1,221.9655940125055 477.8,225.26559401250552" stroke="#F7F7F7" stroke-width="2.75" fill="#F7F7F7"  />
<polygon points="474.5,221.9655940125055 477.8,218.6655940125055 481.1,221.9655940125055 477.8,225.26559401250552" stroke="#000000" stroke-width="2.75" fill="#000000"  />
<polygon points="518.95,260.27302153729545 522.25,256.97302153729544 525.55,260.27302153729545 522.25,263.57302153729546" stroke="#F7F7F7" stroke-width="2.75" fill="#F7F7F7"  />
<polygon points="518.95,260.27302153729545 522.25,256.97302153729544 525.55,260.27302153729545 522.25,263.57302153729546" stroke="#000000" stroke-width="2.75" fill="#000000"  />
</svg>