<svg width="600" height="398" xmlns="http://www.w3.org/2000/svg"> <rect width="100%" height="100%" fill="#FEFEFE" />
<line x1="70" y1="278" x2="530" y2="278" stroke="#9f9f9f" stroke-width="1" />
<rect x="70" y="109" width="460" height="169" fill="#FEFEFE" />
<text text-anchor="middle" x="300.0" y="20" font-family="'Helvetica Neue', Arial, sans-serif" font-weight="bold" font-size="22" fill="#000000">Popularity of the &apos;one</text>
<text text-anchor="middle" x="300.0" y="42" font-family="'Helvetica Neue', Arial, sans-serif" font-weight="bold" font-size="22" fill="#000000">does not simply&apos; meme</text>
<text text-anchor="middle" x="300.0" y="64" font-family="'Helvetica Neue', Arial, sans-serif" font-size="14" fill="#000000">correlates with</text>
<text text-anchor="middle" x="300.0" y="90" font-family="'Helvetica Neue', Arial, sans-serif" font-weight="bold" font-size="22" fill="#ba0f27">Total comments on Numberphile YouTube videos</text>
<text text-anchor="start" x="23" y="323.3333333333333" font-family="'Helvetica Neue', Arial, sans-serif" font-size="14" fill="#9f9f9f">Relative volume of Google searches for &apos;one does not simply meme&apos;</text>
<text text-anchor="start" x="23" y="339.3333333333333" font-family="'Helvetica Neue', Arial, sans-serif" font-size="14" fill="#9f9f9f">(without quotes, in the United States) &#183; Source: Google Trends</text>
<text text-anchor="start" x="23" y="362.66666666666663" font-family="'Helvetica Neue', Arial, sans-serif" font-size="14" fill="#9f9f9f">Total comments on Numberphile  YouTube videos. &#183; Source: Numberphile YouTube</text>
<text text-anchor="start" x="23" y="385.99999999999994" font-family="'Helvetica Neue', Arial, sans-serif" font-size="14" fill="#9f9f9f">2011-2023, r=0.969, r&#178;=0.939, p&lt;0.01  &#183;  tylervigen.com/spurious/correlation/4995</text>
<polyline points="5,318.66666666666663 20,318.66666666666663" style="fill:none;stroke:#000000;stroke-width:2.8" stroke-dasharray="3,1" />
<polygon points="1.7000000000000002,318.66666666666663 5,315.3666666666666 8.3,318.66666666666663 5,321.96666666666664" stroke="#F7F7F7" stroke-width="2.75" fill="#F7F7F7"  />
<polygon points="1.7000000000000002,318.66666666666663 5,315.3666666666666 8.3,318.66666666666663 5,321.96666666666664" stroke="#000000" stroke-width="2.75" fill="#000000"  />
<polyline points="5,357.99999999999994 20,357.99999999999994" style="fill:none;stroke:#ba0f27;stroke-width:2.8" />
<circle cx="5" cy="357.99999999999994" r="2.75" stroke="#F7F7F7" stroke-width="2.75" fill="#F7F7F7" />
<circle cx="5" cy="357.99999999999994" r="2.75" stroke="#ba0f27" stroke-width="2.75" fill="#ba0f27"  />
<text x="5" y="198.5" transform="rotate(270 5 193.5)" text-anchor="middle" fill="#000000" font-family="'Helvetica Neue', Arial, sans-serif" font-size="14" dominant-baseline="central">Relative popularity</text>
<text x="193.5" y="-389" transform="rotate(90 100 100)" text-anchor="middle" fill="#ba0f27" font-family="'Helvetica Neue', Arial, sans-serif" font-size="14" dominant-baseline="central">Total comments</text>
<line x1="71" y1="116.75" x2="528" y2="116.75" stroke="#F3F3F3" stroke-width="1" fill="#FEFEFE" />
<text text-anchor="end" x="62" y="121.41666666666667" font-family="'Helvetica Neue', Arial, sans-serif" font-size="12" fill="#000000">67</text>
<text text-anchor="start" x="538" y="121.41666666666667" font-family="'Helvetica Neue', Arial, sans-serif" font-size="12" fill="#ba0f27">555K</text>
<line x1="71" y1="155.125" x2="528" y2="155.125" stroke="#F3F3F3" stroke-width="1" fill="#FEFEFE" />
<text text-anchor="end" x="62" y="159.79166666666666" font-family="'Helvetica Neue', Arial, sans-serif" font-size="12">51</text>
<text text-anchor="start" x="538" y="159.79166666666666" font-family="'Helvetica Neue', Arial, sans-serif" font-size="12" fill="#ba0f27">421K</text>
<line x1="71" y1="193.5" x2="528" y2="193.5" stroke="#F3F3F3" stroke-width="1" fill="#FEFEFE" />
<text text-anchor="end" x="62" y="198.16666666666666" font-family="'Helvetica Neue', Arial, sans-serif" font-size="12">34</text>
<text text-anchor="start" x="538" y="198.16666666666666" font-family="'Helvetica Neue', Arial, sans-serif" font-size="12" fill="#ba0f27">286K</text>
<line x1="71" y1="231.875" x2="528" y2="231.875" stroke="#F3F3F3" stroke-width="1" fill="#FEFEFE" />
<text text-anchor="end" x="62" y="236.54166666666666" font-family="'Helvetica Neue', Arial, sans-serif" font-size="12">18</text>
<text text-anchor="start" x="538" y="236.54166666666666" font-family="'Helvetica Neue', Arial, sans-serif" font-size="12" fill="#ba0f27">151K</text>
<line x1="71" y1="270.25" x2="528" y2="270.25" stroke="#F3F3F3" stroke-width="1" fill="#FEFEFE" />
<text text-anchor="end" x="62" y="274.9166666666667" font-family="'Helvetica Neue', Arial, sans-serif" font-size="12">2</text>
<text text-anchor="start" x="538" y="274.9166666666667" font-family="'Helvetica Neue', Arial, sans-serif" font-size="12" fill="#ba0f27">16K</text>
<polyline points="77.75,278 77.75,284" style="fill:none;stroke:#000000;stroke-width:1" />
<polyline points="151.83333333333331,278 151.83333333333331,284" style="fill:none;stroke:#000000;stroke-width:1" />
<polyline points="225.91666666666666,278 225.91666666666666,284" style="fill:none;stroke:#000000;stroke-width:1" />
<polyline points="300.0,278 300.0,284" style="fill:none;stroke:#000000;stroke-width:1" />
<polyline points="374.0833333333333,278 374.0833333333333,284" style="fill:none;stroke:#000000;stroke-width:1" />
<polyline points="448.16666666666663,278 448.16666666666663,284" style="fill:none;stroke:#000000;stroke-width:1" />
<polyline points="522.25,278 522.25,284" style="fill:none;stroke:#000000;stroke-width:1" />
<text text-anchor="middle" x="77.75" y="299" font-weight="bold" font-family="'Helvetica Neue', Arial, sans-serif" font-size="14">2011</text>
<text text-anchor="middle" x="151.83333333333331" y="299" font-weight="bold" font-family="'Helvetica Neue', Arial, sans-serif" font-size="14">2013</text>
<text text-anchor="middle" x="225.91666666666666" y="299" font-weight="bold" font-family="'Helvetica Neue', Arial, sans-serif" font-size="14">2015</text>
<text text-anchor="middle" x="300.0" y="299" font-weight="bold" font-family="'Helvetica Neue', Arial, sans-serif" font-size="14">2017</text>
<text text-anchor="middle" x="374.0833333333333" y="299" font-weight="bold" font-family="'Helvetica Neue', Arial, sans-serif" font-size="14">2019</text>
<text text-anchor="middle" x="448.16666666666663" y="299" font-weight="bold" font-family="'Helvetica Neue', Arial, sans-serif" font-size="14">2021</text>
<text text-anchor="middle" x="522.25" y="299" font-weight="bold" font-family="'Helvetica Neue', Arial, sans-serif" font-size="14">2023</text>
<polyline points="77.75,270.25 114.79166666666666,116.75" style="fill:none;stroke:#ba0f27;stroke-width:2.8"  />
<polyline points="114.79166666666666,116.75 151.83333333333331,215.19276547950892" style="fill:none;stroke:#ba0f27;stroke-width:2.8"  />
<polyline points="151.83333333333331,215.19276547950892 188.875,240.18937470345767" style="fill:none;stroke:#ba0f27;stroke-width:2.8"  />
<polyline points="188.875,240.18937470345767 225.91666666666666,245.89265168139494" style="fill:none;stroke:#ba0f27;stroke-width:2.8"  />
<polyline points="225.91666666666666,245.89265168139494 262.9583333333333,247.80218403416166" style="fill:none;stroke:#ba0f27;stroke-width:2.8"  />
<polyline points="262.9583333333333,247.80218403416166 300.0,253.3822745537038" style="fill:none;stroke:#ba0f27;stroke-width:2.8"  />
<polyline points="300.0,253.3822745537038 337.04166666666663,259.0027634037127" style="fill:none;stroke:#ba0f27;stroke-width:2.8"  />
<polyline points="337.04166666666663,259.0027634037127 374.0833333333333,258.84885145454007" style="fill:none;stroke:#ba0f27;stroke-width:2.8"  />
<polyline points="374.0833333333333,258.84885145454007 411.125,262.9441610817863" style="fill:none;stroke:#ba0f27;stroke-width:2.8"  />
<polyline points="411.125,262.9441610817863 448.16666666666663,263.59224134096434" style="fill:none;stroke:#ba0f27;stroke-width:2.8"  />
<polyline points="448.16666666666663,263.59224134096434 485.2083333333333,265.82012391762055" style="fill:none;stroke:#ba0f27;stroke-width:2.8"  />
<polyline points="485.2083333333333,265.82012391762055 522.25,269.7709099400985" style="fill:none;stroke:#ba0f27;stroke-width:2.8"  />
<circle cx="77.75" cy="270.25" r="2.75" stroke="#F7F7F7" stroke-width="2.75" fill="#F7F7F7" />
<circle cx="77.75" cy="270.25" r="2.75" stroke="#ba0f27" stroke-width="2.75" fill="#ba0f27"  />
<circle cx="114.79166666666666" cy="116.75" r="2.75" stroke="#F7F7F7" stroke-width="2.75" fill="#F7F7F7" />
<circle cx="114.79166666666666" cy="116.75" r="2.75" stroke="#ba0f27" stroke-width="2.75" fill="#ba0f27"  />
<circle cx="151.83333333333331" cy="215.19276547950892" r="2.75" stroke="#F7F7F7" stroke-width="2.75" fill="#F7F7F7" />
<circle cx="151.83333333333331" cy="215.19276547950892" r="2.75" stroke="#ba0f27" stroke-width="2.75" fill="#ba0f27"  />
<circle cx="188.875" cy="240.18937470345767" r="2.75" stroke="#F7F7F7" stroke-width="2.75" fill="#F7F7F7" />
<circle cx="188.875" cy="240.18937470345767" r="2.75" stroke="#ba0f27" stroke-width="2.75" fill="#ba0f27"  />
<circle cx="225.91666666666666" cy="245.89265168139494" r="2.75" stroke="#F7F7F7" stroke-width="2.75" fill="#F7F7F7" />
<circle cx="225.91666666666666" cy="245.89265168139494" r="2.75" stroke="#ba0f27" stroke-width="2.75" fill="#ba0f27"  />
<circle cx="262.9583333333333" cy="247.80218403416166" r="2.75" stroke="#F7F7F7" stroke-width="2.75" fill="#F7F7F7" />
<circle cx="262.9583333333333" cy="247.80218403416166" r="2.75" stroke="#ba0f27" stroke-width="2.75" fill="#ba0f27"  />
<circle cx="300.0" cy="253.3822745537038" r="2.75" stroke="#F7F7F7" stroke-width="2.75" fill="#F7F7F7" />
<circle cx="300.0" cy="253.3822745537038" r="2.75" stroke="#ba0f27" stroke-width="2.75" fill="#ba0f27"  />
<circle cx="337.04166666666663" cy="259.0027634037127" r="2.75" stroke="#F7F7F7" stroke-width="2.75" fill="#F7F7F7" />
<circle cx="337.04166666666663" cy="259.0027634037127" r="2.75" stroke="#ba0f27" stroke-width="2.75" fill="#ba0f27"  />
<circle cx="374.0833333333333" cy="258.84885145454007" r="2.75" stroke="#F7F7F7" stroke-width="2.75" fill="#F7F7F7" />
<circle cx="374.0833333333333" cy="258.84885145454007" r="2.75" stroke="#ba0f27" stroke-width="2.75" fill="#ba0f27"  />
<circle cx="411.125" cy="262.9441610817863" r="2.75" stroke="#F7F7F7" stroke-width="2.75" fill="#F7F7F7" />
<circle cx="411.125" cy="262.9441610817863" r="2.75" stroke="#ba0f27" stroke-width="2.75" fill="#ba0f27"  />
<circle cx="448.16666666666663" cy="263.59224134096434" r="2.75" stroke="#F7F7F7" stroke-width="2.75" fill="#F7F7F7" />
<circle cx="448.16666666666663" cy="263.59224134096434" r="2.75" stroke="#ba0f27" stroke-width="2.75" fill="#ba0f27"  />
<circle cx="485.2083333333333" cy="265.82012391762055" r="2.75" stroke="#F7F7F7" stroke-width="2.75" fill="#F7F7F7" />
<circle cx="485.2083333333333" cy="265.82012391762055" r="2.75" stroke="#ba0f27" stroke-width="2.75" fill="#ba0f27"  />
<circle cx="522.25" cy="269.7709099400985" r="2.75" stroke="#F7F7F7" stroke-width="2.75" fill="#F7F7F7" />
<circle cx="522.25" cy="269.7709099400985" r="2.75" stroke="#ba0f27" stroke-width="2.75" fill="#ba0f27"  />
<polyline points="77.75,270.25 114.79166666666666,116.75" style="fill:none;stroke:#000000;stroke-width:2.8" stroke-dasharray="3,1"  />
<polyline points="114.79166666666666,116.75 151.83333333333331,191.88940171545016" style="fill:none;stroke:#000000;stroke-width:2.8" stroke-dasharray="3,1"  />
<polyline points="151.83333333333331,191.88940171545016 188.875,221.6689807266635" style="fill:none;stroke:#000000;stroke-width:2.8" stroke-dasharray="3,1"  />
<polyline points="188.875,221.6689807266635 225.91666666666666,211.01930174337133" style="fill:none;stroke:#000000;stroke-width:2.8" stroke-dasharray="3,1"  />
<polyline points="225.91666666666666,211.01930174337133 262.9583333333333,237.24922441968693" style="fill:none;stroke:#000000;stroke-width:2.8" stroke-dasharray="3,1"  />
<polyline points="262.9583333333333,237.24922441968693 300.0,240.79911741411763" style="fill:none;stroke:#000000;stroke-width:2.8" stroke-dasharray="3,1"  />
<polyline points="300.0,240.79911741411763 337.04166666666663,243.75736157614324" style="fill:none;stroke:#000000;stroke-width:2.8" stroke-dasharray="3,1"  />
<polyline points="337.04166666666663,243.75736157614324 374.0833333333333,250.06812468210921" style="fill:none;stroke:#000000;stroke-width:2.8" stroke-dasharray="3,1"  />
<polyline points="374.0833333333333,250.06812468210921 411.125,256.1819160587909" style="fill:none;stroke:#000000;stroke-width:2.8" stroke-dasharray="3,1"  />
<polyline points="411.125,256.1819160587909 448.16666666666663,261.9011723280715" style="fill:none;stroke:#000000;stroke-width:2.8" stroke-dasharray="3,1"  />
<polyline points="448.16666666666663,261.9011723280715 485.2083333333333,264.26776765769193" style="fill:none;stroke:#000000;stroke-width:2.8" stroke-dasharray="3,1"  />
<polyline points="485.2083333333333,264.26776765769193 522.25,265.6482973772728" style="fill:none;stroke:#000000;stroke-width:2.8" stroke-dasharray="3,1"  />
<polygon points="74.45,270.25 77.75,266.95 81.05,270.25 77.75,273.55" stroke="#F7F7F7" stroke-width="2.75" fill="#F7F7F7"  />
<polygon points="74.45,270.25 77.75,266.95 81.05,270.25 77.75,273.55" stroke="#000000" stroke-width="2.75" fill="#000000"  />
<polygon points="111.49166666666666,116.75 114.79166666666666,113.45 118.09166666666665,116.75 114.79166666666666,120.05" stroke="#F7F7F7" stroke-width="2.75" fill="#F7F7F7"  />
<polygon points="111.49166666666666,116.75 114.79166666666666,113.45 118.09166666666665,116.75 114.79166666666666,120.05" stroke="#000000" stroke-width="2.75" fill="#000000"  />
<polygon points="148.5333333333333,191.88940171545016 151.83333333333331,188.58940171545015 155.13333333333333,191.88940171545016 151.83333333333331,195.18940171545017" stroke="#F7F7F7" stroke-width="2.75" fill="#F7F7F7"  />
<polygon points="148.5333333333333,191.88940171545016 151.83333333333331,188.58940171545015 155.13333333333333,191.88940171545016 151.83333333333331,195.18940171545017" stroke="#000000" stroke-width="2.75" fill="#000000"  />
<polygon points="185.575,221.6689807266635 188.875,218.3689807266635 192.175,221.6689807266635 188.875,224.96898072666352" stroke="#F7F7F7" stroke-width="2.75" fill="#F7F7F7"  />
<polygon points="185.575,221.6689807266635 188.875,218.3689807266635 192.175,221.6689807266635 188.875,224.96898072666352" stroke="#000000" stroke-width="2.75" fill="#000000"  />
<polygon points="222.61666666666665,211.01930174337133 225.91666666666666,207.71930174337132 229.21666666666667,211.01930174337133 225.91666666666666,214.31930174337134" stroke="#F7F7F7" stroke-width="2.75" fill="#F7F7F7"  />
<polygon points="222.61666666666665,211.01930174337133 225.91666666666666,207.71930174337132 229.21666666666667,211.01930174337133 225.91666666666666,214.31930174337134" stroke="#000000" stroke-width="2.75" fill="#000000"  />
<polygon points="259.6583333333333,237.24922441968693 262.9583333333333,233.9492244196869 266.2583333333333,237.24922441968693 262.9583333333333,240.54922441968694" stroke="#F7F7F7" stroke-width="2.75" fill="#F7F7F7"  />
<polygon points="259.6583333333333,237.24922441968693 262.9583333333333,233.9492244196869 266.2583333333333,237.24922441968693 262.9583333333333,240.54922441968694" stroke="#000000" stroke-width="2.75" fill="#000000"  />
<polygon points="296.7,240.79911741411763 300.0,237.49911741411762 303.3,240.79911741411763 300.0,244.09911741411764" stroke="#F7F7F7" stroke-width="2.75" fill="#F7F7F7"  />
<polygon points="296.7,240.79911741411763 300.0,237.49911741411762 303.3,240.79911741411763 300.0,244.09911741411764" stroke="#000000" stroke-width="2.75" fill="#000000"  />
<polygon points="333.7416666666666,243.75736157614324 337.04166666666663,240.45736157614323 340.34166666666664,243.75736157614324 337.04166666666663,247.05736157614325" stroke="#F7F7F7" stroke-width="2.75" fill="#F7F7F7"  />
<polygon points="333.7416666666666,243.75736157614324 337.04166666666663,240.45736157614323 340.34166666666664,243.75736157614324 337.04166666666663,247.05736157614325" stroke="#000000" stroke-width="2.75" fill="#000000"  />
<polygon points="370.7833333333333,250.06812468210921 374.0833333333333,246.7681246821092 377.3833333333333,250.06812468210921 374.0833333333333,253.36812468210923" stroke="#F7F7F7" stroke-width="2.75" fill="#F7F7F7"  />
<polygon points="370.7833333333333,250.06812468210921 374.0833333333333,246.7681246821092 377.3833333333333,250.06812468210921 374.0833333333333,253.36812468210923" stroke="#000000" stroke-width="2.75" fill="#000000"  />
<polygon points="407.825,256.1819160587909 411.125,252.88191605879086 414.425,256.1819160587909 411.125,259.4819160587909" stroke="#F7F7F7" stroke-width="2.75" fill="#F7F7F7"  />
<polygon points="407.825,256.1819160587909 411.125,252.88191605879086 414.425,256.1819160587909 411.125,259.4819160587909" stroke="#000000" stroke-width="2.75" fill="#000000"  />
<polygon points="444.8666666666666,261.9011723280715 448.16666666666663,258.60117232807147 451.46666666666664,261.9011723280715 448.16666666666663,265.2011723280715" stroke="#F7F7F7" stroke-width="2.75" fill="#F7F7F7"  />
<polygon points="444.8666666666666,261.9011723280715 448.16666666666663,258.60117232807147 451.46666666666664,261.9011723280715 448.16666666666663,265.2011723280715" stroke="#000000" stroke-width="2.75" fill="#000000"  />
<polygon points="481.9083333333333,264.26776765769193 485.2083333333333,260.9677676576919 488.5083333333333,264.26776765769193 485.2083333333333,267.56776765769195" stroke="#F7F7F7" stroke-width="2.75" fill="#F7F7F7"  />
<polygon points="481.9083333333333,264.26776765769193 485.2083333333333,260.9677676576919 488.5083333333333,264.26776765769193 485.2083333333333,267.56776765769195" stroke="#000000" stroke-width="2.75" fill="#000000"  />
<polygon points="518.95,265.6482973772728 522.25,262.3482973772728 525.55,265.6482973772728 522.25,268.9482973772728" stroke="#F7F7F7" stroke-width="2.75" fill="#F7F7F7"  />
<polygon points="518.95,265.6482973772728 522.25,262.3482973772728 525.55,265.6482973772728 522.25,268.9482973772728" stroke="#000000" stroke-width="2.75" fill="#000000"  />
</svg>