<svg width="600" height="392" xmlns="http://www.w3.org/2000/svg"> <rect width="100%" height="100%" fill="#FEFEFE" />
<line x1="70" y1="252" x2="530" y2="252" stroke="#9f9f9f" stroke-width="1" />
<rect x="70" y="87" width="460" height="165" fill="#FEFEFE" />
<text text-anchor="middle" x="300.0" y="20" font-family="'Helvetica Neue', Arial, sans-serif" font-weight="bold" font-size="22" fill="#000000">Popularity of the first name Kendrick</text>
<text text-anchor="middle" x="300.0" y="42" font-family="'Helvetica Neue', Arial, sans-serif" font-size="14" fill="#000000">correlates with</text>
<text text-anchor="middle" x="300.0" y="68" font-family="'Helvetica Neue', Arial, sans-serif" font-weight="bold" font-size="22" fill="#ba0f27">Popularity of the &apos;doge&apos; meme</text>
<text text-anchor="start" x="23" y="297.3333333333333" font-family="'Helvetica Neue', Arial, sans-serif" font-size="14" fill="#9f9f9f">Babies of all sexes born in the US named Kendrick &#183; Source: US Social</text>
<text text-anchor="start" x="23" y="313.3333333333333" font-family="'Helvetica Neue', Arial, sans-serif" font-size="14" fill="#9f9f9f">Security Administration</text>
<text text-anchor="start" x="23" y="336.66666666666663" font-family="'Helvetica Neue', Arial, sans-serif" font-size="14" fill="#9f9f9f">Relative volume of Google searches for &apos;doge meme&apos; (without quotes, in</text>
<text text-anchor="start" x="23" y="352.66666666666663" font-family="'Helvetica Neue', Arial, sans-serif" font-size="14" fill="#9f9f9f">the United States) &#183; Source: Google Trends</text>
<text text-anchor="start" x="23" y="375.99999999999994" font-family="'Helvetica Neue', Arial, sans-serif" font-size="14" fill="#9f9f9f">2006-2022, r=0.977, r&#178;=0.954, p&lt;0.01  &#183;  tylervigen.com/spurious/correlation/5107</text>
<polyline points="5,292.66666666666663 20,292.66666666666663" style="fill:none;stroke:#000000;stroke-width:2.7" stroke-dasharray="3,1" />
<polygon points="2.12,292.66666666666663 5,289.78666666666663 7.88,292.66666666666663 5,295.5466666666666" stroke="#F7F7F7" stroke-width="2.4" fill="#F7F7F7"  />
<polygon points="2.12,292.66666666666663 5,289.78666666666663 7.88,292.66666666666663 5,295.5466666666666" stroke="#000000" stroke-width="2.4" fill="#000000"  />
<polyline points="5,331.99999999999994 20,331.99999999999994" style="fill:none;stroke:#ba0f27;stroke-width:2.7" />
<circle cx="5" cy="331.99999999999994" r="2.4" stroke="#F7F7F7" stroke-width="2.4" fill="#F7F7F7" />
<circle cx="5" cy="331.99999999999994" r="2.4" stroke="#ba0f27" stroke-width="2.4" fill="#ba0f27"  />
<text x="5" y="174.5" transform="rotate(270 5 169.5)" text-anchor="middle" fill="#000000" font-family="'Helvetica Neue', Arial, sans-serif" font-size="14" dominant-baseline="central">Babies born</text>
<text x="169.5" y="-389" transform="rotate(90 100 100)" text-anchor="middle" fill="#ba0f27" font-family="'Helvetica Neue', Arial, sans-serif" font-size="14" dominant-baseline="central">Relative popularity</text>
<line x1="71" y1="94.4" x2="528" y2="94.4" stroke="#F3F3F3" stroke-width="1" fill="#FEFEFE" />
<text text-anchor="end" x="62" y="99.06666666666668" font-family="'Helvetica Neue', Arial, sans-serif" font-size="12" fill="#000000">1.1K</text>
<text text-anchor="start" x="538" y="99.06666666666668" font-family="'Helvetica Neue', Arial, sans-serif" font-size="12" fill="#ba0f27">30</text>
<line x1="71" y1="131.95" x2="528" y2="131.95" stroke="#F3F3F3" stroke-width="1" fill="#FEFEFE" />
<text text-anchor="end" x="62" y="136.61666666666665" font-family="'Helvetica Neue', Arial, sans-serif" font-size="12">909</text>
<text text-anchor="start" x="538" y="136.61666666666665" font-family="'Helvetica Neue', Arial, sans-serif" font-size="12" fill="#ba0f27">23</text>
<line x1="71" y1="169.5" x2="528" y2="169.5" stroke="#F3F3F3" stroke-width="1" fill="#FEFEFE" />
<text text-anchor="end" x="62" y="174.16666666666666" font-family="'Helvetica Neue', Arial, sans-serif" font-size="12">765</text>
<text text-anchor="start" x="538" y="174.16666666666666" font-family="'Helvetica Neue', Arial, sans-serif" font-size="12" fill="#ba0f27">15</text>
<line x1="71" y1="207.05" x2="528" y2="207.05" stroke="#F3F3F3" stroke-width="1" fill="#FEFEFE" />
<text text-anchor="end" x="62" y="211.71666666666667" font-family="'Helvetica Neue', Arial, sans-serif" font-size="12">621</text>
<text text-anchor="start" x="538" y="211.71666666666667" font-family="'Helvetica Neue', Arial, sans-serif" font-size="12" fill="#ba0f27">8</text>
<line x1="71" y1="244.6" x2="528" y2="244.6" stroke="#F3F3F3" stroke-width="1" fill="#FEFEFE" />
<text text-anchor="end" x="62" y="249.26666666666665" font-family="'Helvetica Neue', Arial, sans-serif" font-size="12">477</text>
<text text-anchor="start" x="538" y="249.26666666666665" font-family="'Helvetica Neue', Arial, sans-serif" font-size="12" fill="#ba0f27">0</text>
<polyline points="77.4,252 77.4,258" style="fill:none;stroke:#000000;stroke-width:1" />
<polyline points="133.05,252 133.05,258" style="fill:none;stroke:#000000;stroke-width:1" />
<polyline points="188.7,252 188.7,258" style="fill:none;stroke:#000000;stroke-width:1" />
<polyline points="244.35,252 244.35,258" style="fill:none;stroke:#000000;stroke-width:1" />
<polyline points="300.0,252 300.0,258" style="fill:none;stroke:#000000;stroke-width:1" />
<polyline points="355.65,252 355.65,258" style="fill:none;stroke:#000000;stroke-width:1" />
<polyline points="411.29999999999995,252 411.29999999999995,258" style="fill:none;stroke:#000000;stroke-width:1" />
<polyline points="466.95000000000005,252 466.95000000000005,258" style="fill:none;stroke:#000000;stroke-width:1" />
<polyline points="522.6,252 522.6,258" style="fill:none;stroke:#000000;stroke-width:1" />
<text text-anchor="middle" x="77.4" y="273" font-weight="bold" font-family="'Helvetica Neue', Arial, sans-serif" font-size="14">2006</text>
<text text-anchor="middle" x="133.05" y="273" font-weight="bold" font-family="'Helvetica Neue', Arial, sans-serif" font-size="14">2008</text>
<text text-anchor="middle" x="188.7" y="273" font-weight="bold" font-family="'Helvetica Neue', Arial, sans-serif" font-size="14">2010</text>
<text text-anchor="middle" x="244.35" y="273" font-weight="bold" font-family="'Helvetica Neue', Arial, sans-serif" font-size="14">2012</text>
<text text-anchor="middle" x="300.0" y="273" font-weight="bold" font-family="'Helvetica Neue', Arial, sans-serif" font-size="14">2014</text>
<text text-anchor="middle" x="355.65" y="273" font-weight="bold" font-family="'Helvetica Neue', Arial, sans-serif" font-size="14">2016</text>
<text text-anchor="middle" x="411.29999999999995" y="273" font-weight="bold" font-family="'Helvetica Neue', Arial, sans-serif" font-size="14">2018</text>
<text text-anchor="middle" x="466.95000000000005" y="273" font-weight="bold" font-family="'Helvetica Neue', Arial, sans-serif" font-size="14">2020</text>
<text text-anchor="middle" x="522.6" y="273" font-weight="bold" font-family="'Helvetica Neue', Arial, sans-serif" font-size="14">2022</text>
<polyline points="77.4,239.66192321981018 105.22500000000001,243.18912233082483" style="fill:none;stroke:#ba0f27;stroke-width:2.7"  />
<polyline points="105.22500000000001,243.18912233082483 133.05,243.7769855572761" style="fill:none;stroke:#ba0f27;stroke-width:2.7"  />
<polyline points="133.05,243.7769855572761 160.875,242.4053014035053" style="fill:none;stroke:#ba0f27;stroke-width:2.7"  />
<polyline points="160.875,242.4053014035053 188.7,244.6" style="fill:none;stroke:#ba0f27;stroke-width:2.7"  />
<polyline points="188.7,244.6 216.525,244.6" style="fill:none;stroke:#ba0f27;stroke-width:2.7"  />
<polyline points="216.525,244.6 244.35,244.6" style="fill:none;stroke:#ba0f27;stroke-width:2.7"  />
<polyline points="244.35,244.6 272.175,112.36916759543277" style="fill:none;stroke:#ba0f27;stroke-width:2.7"  />
<polyline points="272.175,112.36916759543277 300.0,94.4" style="fill:none;stroke:#ba0f27;stroke-width:2.7"  />
<polyline points="300.0,94.4 327.825,161.0640365325627" style="fill:none;stroke:#ba0f27;stroke-width:2.7"  />
<polyline points="327.825,161.0640365325627 355.65,160.6526947367729" style="fill:none;stroke:#ba0f27;stroke-width:2.7"  />
<polyline points="355.65,160.6526947367729 383.475,177.52462167164748" style="fill:none;stroke:#ba0f27;stroke-width:2.7"  />
<polyline points="383.475,177.52462167164748 411.29999999999995,198.09976052628983" style="fill:none;stroke:#ba0f27;stroke-width:2.7"  />
<polyline points="411.29999999999995,198.09976052628983 439.125,200.15730897829152" style="fill:none;stroke:#ba0f27;stroke-width:2.7"  />
<polyline points="439.125,200.15730897829152 466.95000000000005,192.33885201221696" style="fill:none;stroke:#ba0f27;stroke-width:2.7"  />
<polyline points="466.95000000000005,192.33885201221696 494.775,175.05558328155257" style="fill:none;stroke:#ba0f27;stroke-width:2.7"  />
<polyline points="494.775,175.05558328155257 522.6,207.56442414857628" style="fill:none;stroke:#ba0f27;stroke-width:2.7"  />
<circle cx="77.4" cy="239.66192321981018" r="2.4" stroke="#F7F7F7" stroke-width="2.4" fill="#F7F7F7" />
<circle cx="77.4" cy="239.66192321981018" r="2.4" stroke="#ba0f27" stroke-width="2.4" fill="#ba0f27"  />
<circle cx="105.22500000000001" cy="243.18912233082483" r="2.4" stroke="#F7F7F7" stroke-width="2.4" fill="#F7F7F7" />
<circle cx="105.22500000000001" cy="243.18912233082483" r="2.4" stroke="#ba0f27" stroke-width="2.4" fill="#ba0f27"  />
<circle cx="133.05" cy="243.7769855572761" r="2.4" stroke="#F7F7F7" stroke-width="2.4" fill="#F7F7F7" />
<circle cx="133.05" cy="243.7769855572761" r="2.4" stroke="#ba0f27" stroke-width="2.4" fill="#ba0f27"  />
<circle cx="160.875" cy="242.4053014035053" r="2.4" stroke="#F7F7F7" stroke-width="2.4" fill="#F7F7F7" />
<circle cx="160.875" cy="242.4053014035053" r="2.4" stroke="#ba0f27" stroke-width="2.4" fill="#ba0f27"  />
<circle cx="188.7" cy="244.6" r="2.4" stroke="#F7F7F7" stroke-width="2.4" fill="#F7F7F7" />
<circle cx="188.7" cy="244.6" r="2.4" stroke="#ba0f27" stroke-width="2.4" fill="#ba0f27"  />
<circle cx="216.525" cy="244.6" r="2.4" stroke="#F7F7F7" stroke-width="2.4" fill="#F7F7F7" />
<circle cx="216.525" cy="244.6" r="2.4" stroke="#ba0f27" stroke-width="2.4" fill="#ba0f27"  />
<circle cx="244.35" cy="244.6" r="2.4" stroke="#F7F7F7" stroke-width="2.4" fill="#F7F7F7" />
<circle cx="244.35" cy="244.6" r="2.4" stroke="#ba0f27" stroke-width="2.4" fill="#ba0f27"  />
<circle cx="272.175" cy="112.36916759543277" r="2.4" stroke="#F7F7F7" stroke-width="2.4" fill="#F7F7F7" />
<circle cx="272.175" cy="112.36916759543277" r="2.4" stroke="#ba0f27" stroke-width="2.4" fill="#ba0f27"  />
<circle cx="300.0" cy="94.4" r="2.4" stroke="#F7F7F7" stroke-width="2.4" fill="#F7F7F7" />
<circle cx="300.0" cy="94.4" r="2.4" stroke="#ba0f27" stroke-width="2.4" fill="#ba0f27"  />
<circle cx="327.825" cy="161.0640365325627" r="2.4" stroke="#F7F7F7" stroke-width="2.4" fill="#F7F7F7" />
<circle cx="327.825" cy="161.0640365325627" r="2.4" stroke="#ba0f27" stroke-width="2.4" fill="#ba0f27"  />
<circle cx="355.65" cy="160.6526947367729" r="2.4" stroke="#F7F7F7" stroke-width="2.4" fill="#F7F7F7" />
<circle cx="355.65" cy="160.6526947367729" r="2.4" stroke="#ba0f27" stroke-width="2.4" fill="#ba0f27"  />
<circle cx="383.475" cy="177.52462167164748" r="2.4" stroke="#F7F7F7" stroke-width="2.4" fill="#F7F7F7" />
<circle cx="383.475" cy="177.52462167164748" r="2.4" stroke="#ba0f27" stroke-width="2.4" fill="#ba0f27"  />
<circle cx="411.29999999999995" cy="198.09976052628983" r="2.4" stroke="#F7F7F7" stroke-width="2.4" fill="#F7F7F7" />
<circle cx="411.29999999999995" cy="198.09976052628983" r="2.4" stroke="#ba0f27" stroke-width="2.4" fill="#ba0f27"  />
<circle cx="439.125" cy="200.15730897829152" r="2.4" stroke="#F7F7F7" stroke-width="2.4" fill="#F7F7F7" />
<circle cx="439.125" cy="200.15730897829152" r="2.4" stroke="#ba0f27" stroke-width="2.4" fill="#ba0f27"  />
<circle cx="466.95000000000005" cy="192.33885201221696" r="2.4" stroke="#F7F7F7" stroke-width="2.4" fill="#F7F7F7" />
<circle cx="466.95000000000005" cy="192.33885201221696" r="2.4" stroke="#ba0f27" stroke-width="2.4" fill="#ba0f27"  />
<circle cx="494.775" cy="175.05558328155257" r="2.4" stroke="#F7F7F7" stroke-width="2.4" fill="#F7F7F7" />
<circle cx="494.775" cy="175.05558328155257" r="2.4" stroke="#ba0f27" stroke-width="2.4" fill="#ba0f27"  />
<circle cx="522.6" cy="207.56442414857628" r="2.4" stroke="#F7F7F7" stroke-width="2.4" fill="#F7F7F7" />
<circle cx="522.6" cy="207.56442414857628" r="2.4" stroke="#ba0f27" stroke-width="2.4" fill="#ba0f27"  />
<polyline points="77.4,241.9923611111111 105.22500000000001,244.6" style="fill:none;stroke:#000000;stroke-width:2.7" stroke-dasharray="3,1"  />
<polyline points="105.22500000000001,244.6 133.05,233.64791666666665" style="fill:none;stroke:#000000;stroke-width:2.7" stroke-dasharray="3,1"  />
<polyline points="133.05,233.64791666666665 160.875,240.16701388888887" style="fill:none;stroke:#000000;stroke-width:2.7" stroke-dasharray="3,1"  />
<polyline points="160.875,240.16701388888887 188.7,237.0378472222222" style="fill:none;stroke:#000000;stroke-width:2.7" stroke-dasharray="3,1"  />
<polyline points="188.7,237.0378472222222 216.525,238.86319444444442" style="fill:none;stroke:#000000;stroke-width:2.7" stroke-dasharray="3,1"  />
<polyline points="216.525,238.86319444444442 244.35,218.5236111111111" style="fill:none;stroke:#000000;stroke-width:2.7" stroke-dasharray="3,1"  />
<polyline points="244.35,218.5236111111111 272.175,94.4" style="fill:none;stroke:#000000;stroke-width:2.7" stroke-dasharray="3,1"  />
<polyline points="272.175,94.4 300.0,102.48368055555557" style="fill:none;stroke:#000000;stroke-width:2.7" stroke-dasharray="3,1"  />
<polyline points="300.0,102.48368055555557 327.825,137.94756944444444" style="fill:none;stroke:#000000;stroke-width:2.7" stroke-dasharray="3,1"  />
<polyline points="327.825,137.94756944444444 355.65,150.98576388888887" style="fill:none;stroke:#000000;stroke-width:2.7" stroke-dasharray="3,1"  />
<polyline points="355.65,150.98576388888887 383.475,163.76319444444442" style="fill:none;stroke:#000000;stroke-width:2.7" stroke-dasharray="3,1"  />
<polyline points="383.475,163.76319444444442 411.29999999999995,173.15069444444444" style="fill:none;stroke:#000000;stroke-width:2.7" stroke-dasharray="3,1"  />
<polyline points="411.29999999999995,173.15069444444444 439.125,180.19131944444445" style="fill:none;stroke:#000000;stroke-width:2.7" stroke-dasharray="3,1"  />
<polyline points="439.125,180.19131944444445 466.95000000000005,186.44965277777777" style="fill:none;stroke:#000000;stroke-width:2.7" stroke-dasharray="3,1"  />
<polyline points="466.95000000000005,186.44965277777777 494.775,178.8875" style="fill:none;stroke:#000000;stroke-width:2.7" stroke-dasharray="3,1"  />
<polyline points="494.775,178.8875 522.6,194.7940972222222" style="fill:none;stroke:#000000;stroke-width:2.7" stroke-dasharray="3,1"  />
<polygon points="74.52000000000001,241.9923611111111 77.4,239.1123611111111 80.28,241.9923611111111 77.4,244.8723611111111" stroke="#F7F7F7" stroke-width="2.4" fill="#F7F7F7"  />
<polygon points="74.52000000000001,241.9923611111111 77.4,239.1123611111111 80.28,241.9923611111111 77.4,244.8723611111111" stroke="#000000" stroke-width="2.4" fill="#000000"  />
<polygon points="102.34500000000001,244.6 105.22500000000001,241.72 108.105,244.6 105.22500000000001,247.48" stroke="#F7F7F7" stroke-width="2.4" fill="#F7F7F7"  />
<polygon points="102.34500000000001,244.6 105.22500000000001,241.72 108.105,244.6 105.22500000000001,247.48" stroke="#000000" stroke-width="2.4" fill="#000000"  />
<polygon points="130.17000000000002,233.64791666666665 133.05,230.76791666666665 135.93,233.64791666666665 133.05,236.52791666666664" stroke="#F7F7F7" stroke-width="2.4" fill="#F7F7F7"  />
<polygon points="130.17000000000002,233.64791666666665 133.05,230.76791666666665 135.93,233.64791666666665 133.05,236.52791666666664" stroke="#000000" stroke-width="2.4" fill="#000000"  />
<polygon points="157.995,240.16701388888887 160.875,237.28701388888888 163.755,240.16701388888887 160.875,243.04701388888887" stroke="#F7F7F7" stroke-width="2.4" fill="#F7F7F7"  />
<polygon points="157.995,240.16701388888887 160.875,237.28701388888888 163.755,240.16701388888887 160.875,243.04701388888887" stroke="#000000" stroke-width="2.4" fill="#000000"  />
<polygon points="185.82,237.0378472222222 188.7,234.15784722222222 191.57999999999998,237.0378472222222 188.7,239.9178472222222" stroke="#F7F7F7" stroke-width="2.4" fill="#F7F7F7"  />
<polygon points="185.82,237.0378472222222 188.7,234.15784722222222 191.57999999999998,237.0378472222222 188.7,239.9178472222222" stroke="#000000" stroke-width="2.4" fill="#000000"  />
<polygon points="213.645,238.86319444444442 216.525,235.98319444444442 219.405,238.86319444444442 216.525,241.7431944444444" stroke="#F7F7F7" stroke-width="2.4" fill="#F7F7F7"  />
<polygon points="213.645,238.86319444444442 216.525,235.98319444444442 219.405,238.86319444444442 216.525,241.7431944444444" stroke="#000000" stroke-width="2.4" fill="#000000"  />
<polygon points="241.47,218.5236111111111 244.35,215.6436111111111 247.23,218.5236111111111 244.35,221.4036111111111" stroke="#F7F7F7" stroke-width="2.4" fill="#F7F7F7"  />
<polygon points="241.47,218.5236111111111 244.35,215.6436111111111 247.23,218.5236111111111 244.35,221.4036111111111" stroke="#000000" stroke-width="2.4" fill="#000000"  />
<polygon points="269.295,94.4 272.175,91.52000000000001 275.055,94.4 272.175,97.28" stroke="#F7F7F7" stroke-width="2.4" fill="#F7F7F7"  />
<polygon points="269.295,94.4 272.175,91.52000000000001 275.055,94.4 272.175,97.28" stroke="#000000" stroke-width="2.4" fill="#000000"  />
<polygon points="297.12,102.48368055555557 300.0,99.60368055555557 302.88,102.48368055555557 300.0,105.36368055555556" stroke="#F7F7F7" stroke-width="2.4" fill="#F7F7F7"  />
<polygon points="297.12,102.48368055555557 300.0,99.60368055555557 302.88,102.48368055555557 300.0,105.36368055555556" stroke="#000000" stroke-width="2.4" fill="#000000"  />
<polygon points="324.945,137.94756944444444 327.825,135.06756944444444 330.705,137.94756944444444 327.825,140.82756944444444" stroke="#F7F7F7" stroke-width="2.4" fill="#F7F7F7"  />
<polygon points="324.945,137.94756944444444 327.825,135.06756944444444 330.705,137.94756944444444 327.825,140.82756944444444" stroke="#000000" stroke-width="2.4" fill="#000000"  />
<polygon points="352.77,150.98576388888887 355.65,148.10576388888887 358.53,150.98576388888887 355.65,153.86576388888886" stroke="#F7F7F7" stroke-width="2.4" fill="#F7F7F7"  />
<polygon points="352.77,150.98576388888887 355.65,148.10576388888887 358.53,150.98576388888887 355.65,153.86576388888886" stroke="#000000" stroke-width="2.4" fill="#000000"  />
<polygon points="380.595,163.76319444444442 383.475,160.88319444444443 386.355,163.76319444444442 383.475,166.64319444444442" stroke="#F7F7F7" stroke-width="2.4" fill="#F7F7F7"  />
<polygon points="380.595,163.76319444444442 383.475,160.88319444444443 386.355,163.76319444444442 383.475,166.64319444444442" stroke="#000000" stroke-width="2.4" fill="#000000"  />
<polygon points="408.41999999999996,173.15069444444444 411.29999999999995,170.27069444444444 414.17999999999995,173.15069444444444 411.29999999999995,176.03069444444444" stroke="#F7F7F7" stroke-width="2.4" fill="#F7F7F7"  />
<polygon points="408.41999999999996,173.15069444444444 411.29999999999995,170.27069444444444 414.17999999999995,173.15069444444444 411.29999999999995,176.03069444444444" stroke="#000000" stroke-width="2.4" fill="#000000"  />
<polygon points="436.245,180.19131944444445 439.125,177.31131944444445 442.005,180.19131944444445 439.125,183.07131944444444" stroke="#F7F7F7" stroke-width="2.4" fill="#F7F7F7"  />
<polygon points="436.245,180.19131944444445 439.125,177.31131944444445 442.005,180.19131944444445 439.125,183.07131944444444" stroke="#000000" stroke-width="2.4" fill="#000000"  />
<polygon points="464.07000000000005,186.44965277777777 466.95000000000005,183.56965277777778 469.83000000000004,186.44965277777777 466.95000000000005,189.32965277777777" stroke="#F7F7F7" stroke-width="2.4" fill="#F7F7F7"  />
<polygon points="464.07000000000005,186.44965277777777 466.95000000000005,183.56965277777778 469.83000000000004,186.44965277777777 466.95000000000005,189.32965277777777" stroke="#000000" stroke-width="2.4" fill="#000000"  />
<polygon points="491.895,178.8875 494.775,176.0075 497.655,178.8875 494.775,181.76749999999998" stroke="#F7F7F7" stroke-width="2.4" fill="#F7F7F7"  />
<polygon points="491.895,178.8875 494.775,176.0075 497.655,178.8875 494.775,181.76749999999998" stroke="#000000" stroke-width="2.4" fill="#000000"  />
<polygon points="519.72,194.7940972222222 522.6,191.9140972222222 525.48,194.7940972222222 522.6,197.6740972222222" stroke="#F7F7F7" stroke-width="2.4" fill="#F7F7F7"  />
<polygon points="519.72,194.7940972222222 522.6,191.9140972222222 525.48,194.7940972222222 522.6,197.6740972222222" stroke="#000000" stroke-width="2.4" fill="#000000"  />
</svg>