<svg width="380" height="388" xmlns="http://www.w3.org/2000/svg"> <rect width="100%" height="100%" fill="#FEFEFE" />
<line x1="60" y1="222" x2="320" y2="222" stroke="#9f9f9f" stroke-width="1" />
<rect x="60" y="70" width="260" height="152" fill="#FEFEFE" />
<text text-anchor="middle" x="190.0" y="18" font-family="'Helvetica Neue', Arial, sans-serif" font-weight="bold" font-size="18" fill="#000000">Frozen yogurt consumption</text>
<text text-anchor="middle" x="190.0" y="36" font-family="'Helvetica Neue', Arial, sans-serif" font-size="14" fill="#000000">correlates with</text>
<text text-anchor="middle" x="190.0" y="58" font-family="'Helvetica Neue', Arial, sans-serif" font-weight="bold" font-size="18" fill="#ba0f27">Violent crime rates</text>
<text text-anchor="start" x="20" y="267.3333333333333" font-family="'Helvetica Neue', Arial, sans-serif" font-size="14" fill="#9f9f9f">Per capita consumption of Frozen yogurt in the US</text>
<text text-anchor="start" x="20" y="283.3333333333333" font-family="'Helvetica Neue', Arial, sans-serif" font-size="14" fill="#9f9f9f">&#183; Source: USDA</text>
<text text-anchor="start" x="20" y="306.66666666666663" font-family="'Helvetica Neue', Arial, sans-serif" font-size="14" fill="#9f9f9f">The violent crime rate per 100,000 residents in United</text>
<text text-anchor="start" x="20" y="322.66666666666663" font-family="'Helvetica Neue', Arial, sans-serif" font-size="14" fill="#9f9f9f">States &#183; Source: FBI Criminal Justice Information</text>
<text text-anchor="start" x="20" y="338.66666666666663" font-family="'Helvetica Neue', Arial, sans-serif" font-size="14" fill="#9f9f9f">Services</text>
<text text-anchor="start" x="20" y="361.99999999999994" font-family="'Helvetica Neue', Arial, sans-serif" font-size="14" fill="#9f9f9f">1990-2021, r=0.947, r&#178;=0.896, p&lt;0.01</text>
<text text-anchor="start" x="20" y="385.33333333333326" font-family="'Helvetica Neue', Arial, sans-serif" font-size="14" fill="#9f9f9f">tylervigen.com/spurious/correlation/5905</text>
<polyline points="5,262.66666666666663 17,262.66666666666663" style="fill:none;stroke:#000000;stroke-width:2" stroke-dasharray="3,1" />
<polygon points="3.2,262.66666666666663 5,260.8666666666666 6.8,262.66666666666663 5,264.46666666666664" stroke="#F7F7F7" stroke-width="1.5" fill="#F7F7F7"  />
<polygon points="3.2,262.66666666666663 5,260.8666666666666 6.8,262.66666666666663 5,264.46666666666664" stroke="#000000" stroke-width="1.5" fill="#000000"  />
<polyline points="5,301.99999999999994 17,301.99999999999994" style="fill:none;stroke:#ba0f27;stroke-width:2" />
<circle cx="5" cy="301.99999999999994" r="1.5" stroke="#F7F7F7" stroke-width="1.5" fill="#F7F7F7" />
<circle cx="5" cy="301.99999999999994" r="1.5" stroke="#ba0f27" stroke-width="1.5" fill="#ba0f27"  />
<text x="5" y="148.0" transform="rotate(270 5 146.0)" text-anchor="middle" fill="#000000" font-family="'Helvetica Neue', Arial, sans-serif" font-size="14" dominant-baseline="central">Pounds per person</text>
<text x="146.0" y="-174" transform="rotate(90 100 100)" text-anchor="middle" fill="#ba0f27" font-family="'Helvetica Neue', Arial, sans-serif" font-size="14" dominant-baseline="central">Violent crime</text>
<line x1="61" y1="76.5" x2="318" y2="76.5" stroke="#F3F3F3" stroke-width="1" fill="#FEFEFE" />
<text text-anchor="end" x="52" y="81.16666666666667" font-family="'Helvetica Neue', Arial, sans-serif" font-size="12" fill="#000000">3.5</text>
<text text-anchor="start" x="328" y="81.16666666666667" font-family="'Helvetica Neue', Arial, sans-serif" font-size="12" fill="#ba0f27">758</text>
<line x1="61" y1="111.25" x2="318" y2="111.25" stroke="#F3F3F3" stroke-width="1" fill="#FEFEFE" />
<text text-anchor="end" x="52" y="115.91666666666667" font-family="'Helvetica Neue', Arial, sans-serif" font-size="12">2.8</text>
<text text-anchor="start" x="328" y="115.91666666666667" font-family="'Helvetica Neue', Arial, sans-serif" font-size="12" fill="#ba0f27">659</text>
<line x1="61" y1="146.0" x2="318" y2="146.0" stroke="#F3F3F3" stroke-width="1" fill="#FEFEFE" />
<text text-anchor="end" x="52" y="150.66666666666666" font-family="'Helvetica Neue', Arial, sans-serif" font-size="12">2.0</text>
<text text-anchor="start" x="328" y="150.66666666666666" font-family="'Helvetica Neue', Arial, sans-serif" font-size="12" fill="#ba0f27">560</text>
<line x1="61" y1="180.75" x2="318" y2="180.75" stroke="#F3F3F3" stroke-width="1" fill="#FEFEFE" />
<text text-anchor="end" x="52" y="185.41666666666666" font-family="'Helvetica Neue', Arial, sans-serif" font-size="12">1.3</text>
<text text-anchor="start" x="328" y="185.41666666666666" font-family="'Helvetica Neue', Arial, sans-serif" font-size="12" fill="#ba0f27">461</text>
<line x1="61" y1="215.5" x2="318" y2="215.5" stroke="#F3F3F3" stroke-width="1" fill="#FEFEFE" />
<text text-anchor="end" x="52" y="220.16666666666666" font-family="'Helvetica Neue', Arial, sans-serif" font-size="12">0.6</text>
<text text-anchor="start" x="328" y="220.16666666666666" font-family="'Helvetica Neue', Arial, sans-serif" font-size="12" fill="#ba0f27">362</text>
<polyline points="66.5,222 66.5,228" style="fill:none;stroke:#000000;stroke-width:1" />
<polyline points="146.17741935483872,222 146.17741935483872,228" style="fill:none;stroke:#000000;stroke-width:1" />
<polyline points="225.8548387096774,222 225.8548387096774,228" style="fill:none;stroke:#000000;stroke-width:1" />
<polyline points="305.5322580645161,222 305.5322580645161,228" style="fill:none;stroke:#000000;stroke-width:1" />
<text text-anchor="middle" x="66.5" y="243" font-weight="bold" font-family="'Helvetica Neue', Arial, sans-serif" font-size="14">1990</text>
<text text-anchor="middle" x="146.17741935483872" y="243" font-weight="bold" font-family="'Helvetica Neue', Arial, sans-serif" font-size="14">2000</text>
<text text-anchor="middle" x="225.8548387096774" y="243" font-weight="bold" font-family="'Helvetica Neue', Arial, sans-serif" font-size="14">2010</text>
<text text-anchor="middle" x="305.5322580645161" y="243" font-weight="bold" font-family="'Helvetica Neue', Arial, sans-serif" font-size="14">2020</text>
<polyline points="66.5,86.52370146243067 74.46774193548387,76.5" style="fill:none;stroke:#ba0f27;stroke-width:2"  />
<polyline points="74.46774193548387,76.5 82.43548387096774,76.67523953605648" style="fill:none;stroke:#ba0f27;stroke-width:2"  />
<polyline points="82.43548387096774,76.67523953605648 90.40322580645162,80.39031770045386" style="fill:none;stroke:#ba0f27;stroke-width:2"  />
<polyline points="90.40322580645162,80.39031770045386 98.37096774193549,92.13136661623803" style="fill:none;stroke:#ba0f27;stroke-width:2"  />
<polyline points="98.37096774193549,92.13136661623803 106.33870967741936,102.33030761472517" style="fill:none;stroke:#ba0f27;stroke-width:2"  />
<polyline points="106.33870967741936,102.33030761472517 114.30645161290323,119.11825516893596" style="fill:none;stroke:#ba0f27;stroke-width:2"  />
<polyline points="114.30645161290323,119.11825516893596 122.2741935483871,128.09051941502776" style="fill:none;stroke:#ba0f27;stroke-width:2"  />
<polyline points="122.2741935483871,128.09051941502776 130.24193548387098,143.30131114473022" style="fill:none;stroke:#ba0f27;stroke-width:2"  />
<polyline points="130.24193548387098,143.30131114473022 138.20967741935482,158.93267776096826" style="fill:none;stroke:#ba0f27;stroke-width:2"  />
<polyline points="138.20967741935482,158.93267776096826 146.17741935483872,164.71558245083207" style="fill:none;stroke:#ba0f27;stroke-width:2"  />
<polyline points="146.17741935483872,164.71558245083207 154.14516129032256,165.416540595058" style="fill:none;stroke:#ba0f27;stroke-width:2"  />
<polyline points="154.14516129032256,165.416540595058 162.11290322580646,168.95637922339893" style="fill:none;stroke:#ba0f27;stroke-width:2"  />
<polyline points="162.11290322580646,168.95637922339893 170.0806451612903,175.47528996469995" style="fill:none;stroke:#ba0f27;stroke-width:2"  />
<polyline points="170.0806451612903,175.47528996469995 178.0483870967742,179.89132627332327" style="fill:none;stroke:#ba0f27;stroke-width:2"  />
<polyline points="178.0483870967742,179.89132627332327 186.01612903225805,177.8585476550681" style="fill:none;stroke:#ba0f27;stroke-width:2"  />
<polyline points="186.01612903225805,177.8585476550681 193.98387096774195,174.24861321230458" style="fill:none;stroke:#ba0f27;stroke-width:2"  />
<polyline points="193.98387096774195,174.24861321230458 201.9516129032258,176.8772062531518" style="fill:none;stroke:#ba0f27;stroke-width:2"  />
<polyline points="201.9516129032258,176.8772062531518 209.91935483870967,181.50353000504288" style="fill:none;stroke:#ba0f27;stroke-width:2"  />
<polyline points="209.91935483870967,181.50353000504288 217.88709677419354,190.8613212304589" style="fill:none;stroke:#ba0f27;stroke-width:2"  />
<polyline points="217.88709677419354,190.8613212304589 225.8548387096774,200.46444780635403" style="fill:none;stroke:#ba0f27;stroke-width:2"  />
<polyline points="225.8548387096774,200.46444780635403 233.82258064516128,206.5627836611195" style="fill:none;stroke:#ba0f27;stroke-width:2"  />
<polyline points="233.82258064516128,206.5627836611195 241.79032258064515,206.31744831064046" style="fill:none;stroke:#ba0f27;stroke-width:2"  />
<polyline points="241.79032258064515,206.31744831064046 249.75806451612902,212.8714069591528" style="fill:none;stroke:#ba0f27;stroke-width:2"  />
<polyline points="249.75806451612902,212.8714069591528 257.7258064516129,215.5" style="fill:none;stroke:#ba0f27;stroke-width:2"  />
<polyline points="257.7258064516129,215.5 265.69354838709677,211.2592032274332" style="fill:none;stroke:#ba0f27;stroke-width:2"  />
<polyline points="265.69354838709677,211.2592032274332 273.6612903225806,202.91780131114473" style="fill:none;stroke:#ba0f27;stroke-width:2"  />
<polyline points="273.6612903225806,202.91780131114473 281.6290322580645,203.82904689863844" style="fill:none;stroke:#ba0f27;stroke-width:2"  />
<polyline points="281.6290322580645,203.82904689863844 289.5967741935484,207.85955622793747" style="fill:none;stroke:#ba0f27;stroke-width:2"  />
<polyline points="289.5967741935484,207.85955622793747 297.56451612903226,208.77080181543118" style="fill:none;stroke:#ba0f27;stroke-width:2"  />
<polyline points="297.56451612903226,208.77080181543118 305.5322580645161,202.5673222390318" style="fill:none;stroke:#ba0f27;stroke-width:2"  />
<polyline points="305.5322580645161,202.5673222390318 313.5,206.59783156833083" style="fill:none;stroke:#ba0f27;stroke-width:2"  />
<circle cx="66.5" cy="86.52370146243067" r="1.5" stroke="#F7F7F7" stroke-width="1.5" fill="#F7F7F7" />
<circle cx="66.5" cy="86.52370146243067" r="1.5" stroke="#ba0f27" stroke-width="1.5" fill="#ba0f27"  />
<circle cx="74.46774193548387" cy="76.5" r="1.5" stroke="#F7F7F7" stroke-width="1.5" fill="#F7F7F7" />
<circle cx="74.46774193548387" cy="76.5" r="1.5" stroke="#ba0f27" stroke-width="1.5" fill="#ba0f27"  />
<circle cx="82.43548387096774" cy="76.67523953605648" r="1.5" stroke="#F7F7F7" stroke-width="1.5" fill="#F7F7F7" />
<circle cx="82.43548387096774" cy="76.67523953605648" r="1.5" stroke="#ba0f27" stroke-width="1.5" fill="#ba0f27"  />
<circle cx="90.40322580645162" cy="80.39031770045386" r="1.5" stroke="#F7F7F7" stroke-width="1.5" fill="#F7F7F7" />
<circle cx="90.40322580645162" cy="80.39031770045386" r="1.5" stroke="#ba0f27" stroke-width="1.5" fill="#ba0f27"  />
<circle cx="98.37096774193549" cy="92.13136661623803" r="1.5" stroke="#F7F7F7" stroke-width="1.5" fill="#F7F7F7" />
<circle cx="98.37096774193549" cy="92.13136661623803" r="1.5" stroke="#ba0f27" stroke-width="1.5" fill="#ba0f27"  />
<circle cx="106.33870967741936" cy="102.33030761472517" r="1.5" stroke="#F7F7F7" stroke-width="1.5" fill="#F7F7F7" />
<circle cx="106.33870967741936" cy="102.33030761472517" r="1.5" stroke="#ba0f27" stroke-width="1.5" fill="#ba0f27"  />
<circle cx="114.30645161290323" cy="119.11825516893596" r="1.5" stroke="#F7F7F7" stroke-width="1.5" fill="#F7F7F7" />
<circle cx="114.30645161290323" cy="119.11825516893596" r="1.5" stroke="#ba0f27" stroke-width="1.5" fill="#ba0f27"  />
<circle cx="122.2741935483871" cy="128.09051941502776" r="1.5" stroke="#F7F7F7" stroke-width="1.5" fill="#F7F7F7" />
<circle cx="122.2741935483871" cy="128.09051941502776" r="1.5" stroke="#ba0f27" stroke-width="1.5" fill="#ba0f27"  />
<circle cx="130.24193548387098" cy="143.30131114473022" r="1.5" stroke="#F7F7F7" stroke-width="1.5" fill="#F7F7F7" />
<circle cx="130.24193548387098" cy="143.30131114473022" r="1.5" stroke="#ba0f27" stroke-width="1.5" fill="#ba0f27"  />
<circle cx="138.20967741935482" cy="158.93267776096826" r="1.5" stroke="#F7F7F7" stroke-width="1.5" fill="#F7F7F7" />
<circle cx="138.20967741935482" cy="158.93267776096826" r="1.5" stroke="#ba0f27" stroke-width="1.5" fill="#ba0f27"  />
<circle cx="146.17741935483872" cy="164.71558245083207" r="1.5" stroke="#F7F7F7" stroke-width="1.5" fill="#F7F7F7" />
<circle cx="146.17741935483872" cy="164.71558245083207" r="1.5" stroke="#ba0f27" stroke-width="1.5" fill="#ba0f27"  />
<circle cx="154.14516129032256" cy="165.416540595058" r="1.5" stroke="#F7F7F7" stroke-width="1.5" fill="#F7F7F7" />
<circle cx="154.14516129032256" cy="165.416540595058" r="1.5" stroke="#ba0f27" stroke-width="1.5" fill="#ba0f27"  />
<circle cx="162.11290322580646" cy="168.95637922339893" r="1.5" stroke="#F7F7F7" stroke-width="1.5" fill="#F7F7F7" />
<circle cx="162.11290322580646" cy="168.95637922339893" r="1.5" stroke="#ba0f27" stroke-width="1.5" fill="#ba0f27"  />
<circle cx="170.0806451612903" cy="175.47528996469995" r="1.5" stroke="#F7F7F7" stroke-width="1.5" fill="#F7F7F7" />
<circle cx="170.0806451612903" cy="175.47528996469995" r="1.5" stroke="#ba0f27" stroke-width="1.5" fill="#ba0f27"  />
<circle cx="178.0483870967742" cy="179.89132627332327" r="1.5" stroke="#F7F7F7" stroke-width="1.5" fill="#F7F7F7" />
<circle cx="178.0483870967742" cy="179.89132627332327" r="1.5" stroke="#ba0f27" stroke-width="1.5" fill="#ba0f27"  />
<circle cx="186.01612903225805" cy="177.8585476550681" r="1.5" stroke="#F7F7F7" stroke-width="1.5" fill="#F7F7F7" />
<circle cx="186.01612903225805" cy="177.8585476550681" r="1.5" stroke="#ba0f27" stroke-width="1.5" fill="#ba0f27"  />
<circle cx="193.98387096774195" cy="174.24861321230458" r="1.5" stroke="#F7F7F7" stroke-width="1.5" fill="#F7F7F7" />
<circle cx="193.98387096774195" cy="174.24861321230458" r="1.5" stroke="#ba0f27" stroke-width="1.5" fill="#ba0f27"  />
<circle cx="201.9516129032258" cy="176.8772062531518" r="1.5" stroke="#F7F7F7" stroke-width="1.5" fill="#F7F7F7" />
<circle cx="201.9516129032258" cy="176.8772062531518" r="1.5" stroke="#ba0f27" stroke-width="1.5" fill="#ba0f27"  />
<circle cx="209.91935483870967" cy="181.50353000504288" r="1.5" stroke="#F7F7F7" stroke-width="1.5" fill="#F7F7F7" />
<circle cx="209.91935483870967" cy="181.50353000504288" r="1.5" stroke="#ba0f27" stroke-width="1.5" fill="#ba0f27"  />
<circle cx="217.88709677419354" cy="190.8613212304589" r="1.5" stroke="#F7F7F7" stroke-width="1.5" fill="#F7F7F7" />
<circle cx="217.88709677419354" cy="190.8613212304589" r="1.5" stroke="#ba0f27" stroke-width="1.5" fill="#ba0f27"  />
<circle cx="225.8548387096774" cy="200.46444780635403" r="1.5" stroke="#F7F7F7" stroke-width="1.5" fill="#F7F7F7" />
<circle cx="225.8548387096774" cy="200.46444780635403" r="1.5" stroke="#ba0f27" stroke-width="1.5" fill="#ba0f27"  />
<circle cx="233.82258064516128" cy="206.5627836611195" r="1.5" stroke="#F7F7F7" stroke-width="1.5" fill="#F7F7F7" />
<circle cx="233.82258064516128" cy="206.5627836611195" r="1.5" stroke="#ba0f27" stroke-width="1.5" fill="#ba0f27"  />
<circle cx="241.79032258064515" cy="206.31744831064046" r="1.5" stroke="#F7F7F7" stroke-width="1.5" fill="#F7F7F7" />
<circle cx="241.79032258064515" cy="206.31744831064046" r="1.5" stroke="#ba0f27" stroke-width="1.5" fill="#ba0f27"  />
<circle cx="249.75806451612902" cy="212.8714069591528" r="1.5" stroke="#F7F7F7" stroke-width="1.5" fill="#F7F7F7" />
<circle cx="249.75806451612902" cy="212.8714069591528" r="1.5" stroke="#ba0f27" stroke-width="1.5" fill="#ba0f27"  />
<circle cx="257.7258064516129" cy="215.5" r="1.5" stroke="#F7F7F7" stroke-width="1.5" fill="#F7F7F7" />
<circle cx="257.7258064516129" cy="215.5" r="1.5" stroke="#ba0f27" stroke-width="1.5" fill="#ba0f27"  />
<circle cx="265.69354838709677" cy="211.2592032274332" r="1.5" stroke="#F7F7F7" stroke-width="1.5" fill="#F7F7F7" />
<circle cx="265.69354838709677" cy="211.2592032274332" r="1.5" stroke="#ba0f27" stroke-width="1.5" fill="#ba0f27"  />
<circle cx="273.6612903225806" cy="202.91780131114473" r="1.5" stroke="#F7F7F7" stroke-width="1.5" fill="#F7F7F7" />
<circle cx="273.6612903225806" cy="202.91780131114473" r="1.5" stroke="#ba0f27" stroke-width="1.5" fill="#ba0f27"  />
<circle cx="281.6290322580645" cy="203.82904689863844" r="1.5" stroke="#F7F7F7" stroke-width="1.5" fill="#F7F7F7" />
<circle cx="281.6290322580645" cy="203.82904689863844" r="1.5" stroke="#ba0f27" stroke-width="1.5" fill="#ba0f27"  />
<circle cx="289.5967741935484" cy="207.85955622793747" r="1.5" stroke="#F7F7F7" stroke-width="1.5" fill="#F7F7F7" />
<circle cx="289.5967741935484" cy="207.85955622793747" r="1.5" stroke="#ba0f27" stroke-width="1.5" fill="#ba0f27"  />
<circle cx="297.56451612903226" cy="208.77080181543118" r="1.5" stroke="#F7F7F7" stroke-width="1.5" fill="#F7F7F7" />
<circle cx="297.56451612903226" cy="208.77080181543118" r="1.5" stroke="#ba0f27" stroke-width="1.5" fill="#ba0f27"  />
<circle cx="305.5322580645161" cy="202.5673222390318" r="1.5" stroke="#F7F7F7" stroke-width="1.5" fill="#F7F7F7" />
<circle cx="305.5322580645161" cy="202.5673222390318" r="1.5" stroke="#ba0f27" stroke-width="1.5" fill="#ba0f27"  />
<circle cx="313.5" cy="206.59783156833083" r="1.5" stroke="#F7F7F7" stroke-width="1.5" fill="#F7F7F7" />
<circle cx="313.5" cy="206.59783156833083" r="1.5" stroke="#ba0f27" stroke-width="1.5" fill="#ba0f27"  />
<polyline points="66.5,110.05172413793105 74.46774193548387,76.5" style="fill:none;stroke:#000000;stroke-width:2" stroke-dasharray="3,1"  />
<polyline points="74.46774193548387,76.5 82.43548387096774,95.67241379310344" style="fill:none;stroke:#000000;stroke-width:2" stroke-dasharray="3,1"  />
<polyline points="82.43548387096774,95.67241379310344 90.40322580645162,81.29310344827587" style="fill:none;stroke:#000000;stroke-width:2" stroke-dasharray="3,1"  />
<polyline points="90.40322580645162,81.29310344827587 98.37096774193549,81.29310344827587" style="fill:none;stroke:#000000;stroke-width:2" stroke-dasharray="3,1"  />
<polyline points="98.37096774193549,81.29310344827587 106.33870967741936,81.29310344827587" style="fill:none;stroke:#000000;stroke-width:2" stroke-dasharray="3,1"  />
<polyline points="106.33870967741936,81.29310344827587 114.30645161290323,124.43103448275862" style="fill:none;stroke:#000000;stroke-width:2" stroke-dasharray="3,1"  />
<polyline points="114.30645161290323,124.43103448275862 122.2741935483871,148.39655172413794" style="fill:none;stroke:#000000;stroke-width:2" stroke-dasharray="3,1"  />
<polyline points="122.2741935483871,148.39655172413794 130.24193548387098,143.60344827586206" style="fill:none;stroke:#000000;stroke-width:2" stroke-dasharray="3,1"  />
<polyline points="130.24193548387098,143.60344827586206 138.20967741935482,148.39655172413794" style="fill:none;stroke:#000000;stroke-width:2" stroke-dasharray="3,1"  />
<polyline points="138.20967741935482,148.39655172413794 146.17741935483872,148.39655172413794" style="fill:none;stroke:#000000;stroke-width:2" stroke-dasharray="3,1"  />
<polyline points="146.17741935483872,148.39655172413794 154.14516129032256,172.36206896551724" style="fill:none;stroke:#000000;stroke-width:2" stroke-dasharray="3,1"  />
<polyline points="154.14516129032256,172.36206896551724 162.11290322580646,172.36206896551724" style="fill:none;stroke:#000000;stroke-width:2" stroke-dasharray="3,1"  />
<polyline points="162.11290322580646,172.36206896551724 170.0806451612903,172.36206896551724" style="fill:none;stroke:#000000;stroke-width:2" stroke-dasharray="3,1"  />
<polyline points="170.0806451612903,172.36206896551724 178.0483870967742,181.94827586206895" style="fill:none;stroke:#000000;stroke-width:2" stroke-dasharray="3,1"  />
<polyline points="178.0483870967742,181.94827586206895 186.01612903225805,181.94827586206895" style="fill:none;stroke:#000000;stroke-width:2" stroke-dasharray="3,1"  />
<polyline points="186.01612903225805,181.94827586206895 193.98387096774195,181.94827586206895" style="fill:none;stroke:#000000;stroke-width:2" stroke-dasharray="3,1"  />
<polyline points="193.98387096774195,181.94827586206895 201.9516129032258,172.36206896551724" style="fill:none;stroke:#000000;stroke-width:2" stroke-dasharray="3,1"  />
<polyline points="201.9516129032258,172.36206896551724 209.91935483870967,172.36206896551724" style="fill:none;stroke:#000000;stroke-width:2" stroke-dasharray="3,1"  />
<polyline points="209.91935483870967,172.36206896551724 217.88709677419354,201.1206896551724" style="fill:none;stroke:#000000;stroke-width:2" stroke-dasharray="3,1"  />
<polyline points="217.88709677419354,201.1206896551724 225.8548387096774,196.32758620689654" style="fill:none;stroke:#000000;stroke-width:2" stroke-dasharray="3,1"  />
<polyline points="225.8548387096774,196.32758620689654 233.82258064516128,186.74137931034483" style="fill:none;stroke:#000000;stroke-width:2" stroke-dasharray="3,1"  />
<polyline points="233.82258064516128,186.74137931034483 241.79032258064515,191.5344827586207" style="fill:none;stroke:#000000;stroke-width:2" stroke-dasharray="3,1"  />
<polyline points="241.79032258064515,191.5344827586207 249.75806451612902,177.1551724137931" style="fill:none;stroke:#000000;stroke-width:2" stroke-dasharray="3,1"  />
<polyline points="249.75806451612902,177.1551724137931 257.7258064516129,181.94827586206895" style="fill:none;stroke:#000000;stroke-width:2" stroke-dasharray="3,1"  />
<polyline points="257.7258064516129,181.94827586206895 265.69354838709677,177.1551724137931" style="fill:none;stroke:#000000;stroke-width:2" stroke-dasharray="3,1"  />
<polyline points="265.69354838709677,177.1551724137931 273.6612903225806,186.74137931034483" style="fill:none;stroke:#000000;stroke-width:2" stroke-dasharray="3,1"  />
<polyline points="273.6612903225806,186.74137931034483 281.6290322580645,186.74137931034483" style="fill:none;stroke:#000000;stroke-width:2" stroke-dasharray="3,1"  />
<polyline points="281.6290322580645,186.74137931034483 289.5967741935484,196.32758620689654" style="fill:none;stroke:#000000;stroke-width:2" stroke-dasharray="3,1"  />
<polyline points="289.5967741935484,196.32758620689654 297.56451612903226,196.32758620689654" style="fill:none;stroke:#000000;stroke-width:2" stroke-dasharray="3,1"  />
<polyline points="297.56451612903226,196.32758620689654 305.5322580645161,215.5" style="fill:none;stroke:#000000;stroke-width:2" stroke-dasharray="3,1"  />
<polyline points="305.5322580645161,215.5 313.5,201.1206896551724" style="fill:none;stroke:#000000;stroke-width:2" stroke-dasharray="3,1"  />
<polygon points="64.7,110.05172413793105 66.5,108.25172413793105 68.3,110.05172413793105 66.5,111.85172413793104" stroke="#F7F7F7" stroke-width="1.5" fill="#F7F7F7"  />
<polygon points="64.7,110.05172413793105 66.5,108.25172413793105 68.3,110.05172413793105 66.5,111.85172413793104" stroke="#000000" stroke-width="1.5" fill="#000000"  />
<polygon points="72.66774193548387,76.5 74.46774193548387,74.7 76.26774193548387,76.5 74.46774193548387,78.3" stroke="#F7F7F7" stroke-width="1.5" fill="#F7F7F7"  />
<polygon points="72.66774193548387,76.5 74.46774193548387,74.7 76.26774193548387,76.5 74.46774193548387,78.3" stroke="#000000" stroke-width="1.5" fill="#000000"  />
<polygon points="80.63548387096775,95.67241379310344 82.43548387096774,93.87241379310345 84.23548387096774,95.67241379310344 82.43548387096774,97.47241379310344" stroke="#F7F7F7" stroke-width="1.5" fill="#F7F7F7"  />
<polygon points="80.63548387096775,95.67241379310344 82.43548387096774,93.87241379310345 84.23548387096774,95.67241379310344 82.43548387096774,97.47241379310344" stroke="#000000" stroke-width="1.5" fill="#000000"  />
<polygon points="88.60322580645162,81.29310344827587 90.40322580645162,79.49310344827587 92.20322580645161,81.29310344827587 90.40322580645162,83.09310344827587" stroke="#F7F7F7" stroke-width="1.5" fill="#F7F7F7"  />
<polygon points="88.60322580645162,81.29310344827587 90.40322580645162,79.49310344827587 92.20322580645161,81.29310344827587 90.40322580645162,83.09310344827587" stroke="#000000" stroke-width="1.5" fill="#000000"  />
<polygon points="96.57096774193549,81.29310344827587 98.37096774193549,79.49310344827587 100.17096774193548,81.29310344827587 98.37096774193549,83.09310344827587" stroke="#F7F7F7" stroke-width="1.5" fill="#F7F7F7"  />
<polygon points="96.57096774193549,81.29310344827587 98.37096774193549,79.49310344827587 100.17096774193548,81.29310344827587 98.37096774193549,83.09310344827587" stroke="#000000" stroke-width="1.5" fill="#000000"  />
<polygon points="104.53870967741936,81.29310344827587 106.33870967741936,79.49310344827587 108.13870967741936,81.29310344827587 106.33870967741936,83.09310344827587" stroke="#F7F7F7" stroke-width="1.5" fill="#F7F7F7"  />
<polygon points="104.53870967741936,81.29310344827587 106.33870967741936,79.49310344827587 108.13870967741936,81.29310344827587 106.33870967741936,83.09310344827587" stroke="#000000" stroke-width="1.5" fill="#000000"  />
<polygon points="112.50645161290323,124.43103448275862 114.30645161290323,122.63103448275862 116.10645161290323,124.43103448275862 114.30645161290323,126.23103448275862" stroke="#F7F7F7" stroke-width="1.5" fill="#F7F7F7"  />
<polygon points="112.50645161290323,124.43103448275862 114.30645161290323,122.63103448275862 116.10645161290323,124.43103448275862 114.30645161290323,126.23103448275862" stroke="#000000" stroke-width="1.5" fill="#000000"  />
<polygon points="120.4741935483871,148.39655172413794 122.2741935483871,146.59655172413792 124.0741935483871,148.39655172413794 122.2741935483871,150.19655172413795" stroke="#F7F7F7" stroke-width="1.5" fill="#F7F7F7"  />
<polygon points="120.4741935483871,148.39655172413794 122.2741935483871,146.59655172413792 124.0741935483871,148.39655172413794 122.2741935483871,150.19655172413795" stroke="#000000" stroke-width="1.5" fill="#000000"  />
<polygon points="128.44193548387096,143.60344827586206 130.24193548387098,141.80344827586205 132.041935483871,143.60344827586206 130.24193548387098,145.40344827586208" stroke="#F7F7F7" stroke-width="1.5" fill="#F7F7F7"  />
<polygon points="128.44193548387096,143.60344827586206 130.24193548387098,141.80344827586205 132.041935483871,143.60344827586206 130.24193548387098,145.40344827586208" stroke="#000000" stroke-width="1.5" fill="#000000"  />
<polygon points="136.4096774193548,148.39655172413794 138.20967741935482,146.59655172413792 140.00967741935483,148.39655172413794 138.20967741935482,150.19655172413795" stroke="#F7F7F7" stroke-width="1.5" fill="#F7F7F7"  />
<polygon points="136.4096774193548,148.39655172413794 138.20967741935482,146.59655172413792 140.00967741935483,148.39655172413794 138.20967741935482,150.19655172413795" stroke="#000000" stroke-width="1.5" fill="#000000"  />
<polygon points="144.3774193548387,148.39655172413794 146.17741935483872,146.59655172413792 147.97741935483873,148.39655172413794 146.17741935483872,150.19655172413795" stroke="#F7F7F7" stroke-width="1.5" fill="#F7F7F7"  />
<polygon points="144.3774193548387,148.39655172413794 146.17741935483872,146.59655172413792 147.97741935483873,148.39655172413794 146.17741935483872,150.19655172413795" stroke="#000000" stroke-width="1.5" fill="#000000"  />
<polygon points="152.34516129032255,172.36206896551724 154.14516129032256,170.56206896551723 155.94516129032257,172.36206896551724 154.14516129032256,174.16206896551725" stroke="#F7F7F7" stroke-width="1.5" fill="#F7F7F7"  />
<polygon points="152.34516129032255,172.36206896551724 154.14516129032256,170.56206896551723 155.94516129032257,172.36206896551724 154.14516129032256,174.16206896551725" stroke="#000000" stroke-width="1.5" fill="#000000"  />
<polygon points="160.31290322580645,172.36206896551724 162.11290322580646,170.56206896551723 163.91290322580647,172.36206896551724 162.11290322580646,174.16206896551725" stroke="#F7F7F7" stroke-width="1.5" fill="#F7F7F7"  />
<polygon points="160.31290322580645,172.36206896551724 162.11290322580646,170.56206896551723 163.91290322580647,172.36206896551724 162.11290322580646,174.16206896551725" stroke="#000000" stroke-width="1.5" fill="#000000"  />
<polygon points="168.2806451612903,172.36206896551724 170.0806451612903,170.56206896551723 171.88064516129032,172.36206896551724 170.0806451612903,174.16206896551725" stroke="#F7F7F7" stroke-width="1.5" fill="#F7F7F7"  />
<polygon points="168.2806451612903,172.36206896551724 170.0806451612903,170.56206896551723 171.88064516129032,172.36206896551724 170.0806451612903,174.16206896551725" stroke="#000000" stroke-width="1.5" fill="#000000"  />
<polygon points="176.2483870967742,181.94827586206895 178.0483870967742,180.14827586206894 179.84838709677422,181.94827586206895 178.0483870967742,183.74827586206897" stroke="#F7F7F7" stroke-width="1.5" fill="#F7F7F7"  />
<polygon points="176.2483870967742,181.94827586206895 178.0483870967742,180.14827586206894 179.84838709677422,181.94827586206895 178.0483870967742,183.74827586206897" stroke="#000000" stroke-width="1.5" fill="#000000"  />
<polygon points="184.21612903225804,181.94827586206895 186.01612903225805,180.14827586206894 187.81612903225806,181.94827586206895 186.01612903225805,183.74827586206897" stroke="#F7F7F7" stroke-width="1.5" fill="#F7F7F7"  />
<polygon points="184.21612903225804,181.94827586206895 186.01612903225805,180.14827586206894 187.81612903225806,181.94827586206895 186.01612903225805,183.74827586206897" stroke="#000000" stroke-width="1.5" fill="#000000"  />
<polygon points="192.18387096774194,181.94827586206895 193.98387096774195,180.14827586206894 195.78387096774196,181.94827586206895 193.98387096774195,183.74827586206897" stroke="#F7F7F7" stroke-width="1.5" fill="#F7F7F7"  />
<polygon points="192.18387096774194,181.94827586206895 193.98387096774195,180.14827586206894 195.78387096774196,181.94827586206895 193.98387096774195,183.74827586206897" stroke="#000000" stroke-width="1.5" fill="#000000"  />
<polygon points="200.15161290322578,172.36206896551724 201.9516129032258,170.56206896551723 203.7516129032258,172.36206896551724 201.9516129032258,174.16206896551725" stroke="#F7F7F7" stroke-width="1.5" fill="#F7F7F7"  />
<polygon points="200.15161290322578,172.36206896551724 201.9516129032258,170.56206896551723 203.7516129032258,172.36206896551724 201.9516129032258,174.16206896551725" stroke="#000000" stroke-width="1.5" fill="#000000"  />
<polygon points="208.11935483870965,172.36206896551724 209.91935483870967,170.56206896551723 211.71935483870968,172.36206896551724 209.91935483870967,174.16206896551725" stroke="#F7F7F7" stroke-width="1.5" fill="#F7F7F7"  />
<polygon points="208.11935483870965,172.36206896551724 209.91935483870967,170.56206896551723 211.71935483870968,172.36206896551724 209.91935483870967,174.16206896551725" stroke="#000000" stroke-width="1.5" fill="#000000"  />
<polygon points="216.08709677419353,201.1206896551724 217.88709677419354,199.3206896551724 219.68709677419355,201.1206896551724 217.88709677419354,202.92068965517242" stroke="#F7F7F7" stroke-width="1.5" fill="#F7F7F7"  />
<polygon points="216.08709677419353,201.1206896551724 217.88709677419354,199.3206896551724 219.68709677419355,201.1206896551724 217.88709677419354,202.92068965517242" stroke="#000000" stroke-width="1.5" fill="#000000"  />
<polygon points="224.0548387096774,196.32758620689654 225.8548387096774,194.52758620689653 227.65483870967742,196.32758620689654 225.8548387096774,198.12758620689655" stroke="#F7F7F7" stroke-width="1.5" fill="#F7F7F7"  />
<polygon points="224.0548387096774,196.32758620689654 225.8548387096774,194.52758620689653 227.65483870967742,196.32758620689654 225.8548387096774,198.12758620689655" stroke="#000000" stroke-width="1.5" fill="#000000"  />
<polygon points="232.02258064516127,186.74137931034483 233.82258064516128,184.94137931034481 235.6225806451613,186.74137931034483 233.82258064516128,188.54137931034484" stroke="#F7F7F7" stroke-width="1.5" fill="#F7F7F7"  />
<polygon points="232.02258064516127,186.74137931034483 233.82258064516128,184.94137931034481 235.6225806451613,186.74137931034483 233.82258064516128,188.54137931034484" stroke="#000000" stroke-width="1.5" fill="#000000"  />
<polygon points="239.99032258064514,191.5344827586207 241.79032258064515,189.7344827586207 243.59032258064516,191.5344827586207 241.79032258064515,193.3344827586207" stroke="#F7F7F7" stroke-width="1.5" fill="#F7F7F7"  />
<polygon points="239.99032258064514,191.5344827586207 241.79032258064515,189.7344827586207 243.59032258064516,191.5344827586207 241.79032258064515,193.3344827586207" stroke="#000000" stroke-width="1.5" fill="#000000"  />
<polygon points="247.958064516129,177.1551724137931 249.75806451612902,175.3551724137931 251.55806451612904,177.1551724137931 249.75806451612902,178.95517241379312" stroke="#F7F7F7" stroke-width="1.5" fill="#F7F7F7"  />
<polygon points="247.958064516129,177.1551724137931 249.75806451612902,175.3551724137931 251.55806451612904,177.1551724137931 249.75806451612902,178.95517241379312" stroke="#000000" stroke-width="1.5" fill="#000000"  />
<polygon points="255.9258064516129,181.94827586206895 257.7258064516129,180.14827586206894 259.52580645161294,181.94827586206895 257.7258064516129,183.74827586206897" stroke="#F7F7F7" stroke-width="1.5" fill="#F7F7F7"  />
<polygon points="255.9258064516129,181.94827586206895 257.7258064516129,180.14827586206894 259.52580645161294,181.94827586206895 257.7258064516129,183.74827586206897" stroke="#000000" stroke-width="1.5" fill="#000000"  />
<polygon points="263.89354838709676,177.1551724137931 265.69354838709677,175.3551724137931 267.4935483870968,177.1551724137931 265.69354838709677,178.95517241379312" stroke="#F7F7F7" stroke-width="1.5" fill="#F7F7F7"  />
<polygon points="263.89354838709676,177.1551724137931 265.69354838709677,175.3551724137931 267.4935483870968,177.1551724137931 265.69354838709677,178.95517241379312" stroke="#000000" stroke-width="1.5" fill="#000000"  />
<polygon points="271.8612903225806,186.74137931034483 273.6612903225806,184.94137931034481 275.4612903225806,186.74137931034483 273.6612903225806,188.54137931034484" stroke="#F7F7F7" stroke-width="1.5" fill="#F7F7F7"  />
<polygon points="271.8612903225806,186.74137931034483 273.6612903225806,184.94137931034481 275.4612903225806,186.74137931034483 273.6612903225806,188.54137931034484" stroke="#000000" stroke-width="1.5" fill="#000000"  />
<polygon points="279.8290322580645,186.74137931034483 281.6290322580645,184.94137931034481 283.4290322580645,186.74137931034483 281.6290322580645,188.54137931034484" stroke="#F7F7F7" stroke-width="1.5" fill="#F7F7F7"  />
<polygon points="279.8290322580645,186.74137931034483 281.6290322580645,184.94137931034481 283.4290322580645,186.74137931034483 281.6290322580645,188.54137931034484" stroke="#000000" stroke-width="1.5" fill="#000000"  />
<polygon points="287.7967741935484,196.32758620689654 289.5967741935484,194.52758620689653 291.3967741935484,196.32758620689654 289.5967741935484,198.12758620689655" stroke="#F7F7F7" stroke-width="1.5" fill="#F7F7F7"  />
<polygon points="287.7967741935484,196.32758620689654 289.5967741935484,194.52758620689653 291.3967741935484,196.32758620689654 289.5967741935484,198.12758620689655" stroke="#000000" stroke-width="1.5" fill="#000000"  />
<polygon points="295.76451612903224,196.32758620689654 297.56451612903226,194.52758620689653 299.36451612903227,196.32758620689654 297.56451612903226,198.12758620689655" stroke="#F7F7F7" stroke-width="1.5" fill="#F7F7F7"  />
<polygon points="295.76451612903224,196.32758620689654 297.56451612903226,194.52758620689653 299.36451612903227,196.32758620689654 297.56451612903226,198.12758620689655" stroke="#000000" stroke-width="1.5" fill="#000000"  />
<polygon points="303.7322580645161,215.5 305.5322580645161,213.7 307.3322580645161,215.5 305.5322580645161,217.3" stroke="#F7F7F7" stroke-width="1.5" fill="#F7F7F7"  />
<polygon points="303.7322580645161,215.5 305.5322580645161,213.7 307.3322580645161,215.5 305.5322580645161,217.3" stroke="#000000" stroke-width="1.5" fill="#000000"  />
<polygon points="311.7,201.1206896551724 313.5,199.3206896551724 315.3,201.1206896551724 313.5,202.92068965517242" stroke="#F7F7F7" stroke-width="1.5" fill="#F7F7F7"  />
<polygon points="311.7,201.1206896551724 313.5,199.3206896551724 315.3,201.1206896551724 313.5,202.92068965517242" stroke="#000000" stroke-width="1.5" fill="#000000"  />
</svg>