<svg width="600" height="376" xmlns="http://www.w3.org/2000/svg"> <rect width="100%" height="100%" fill="#FEFEFE" />
<line x1="70" y1="256" x2="530" y2="256" stroke="#9f9f9f" stroke-width="1" />
<rect x="70" y="87" width="460" height="169" fill="#FEFEFE" />
<text text-anchor="middle" x="300.0" y="20" font-family="'Helvetica Neue', Arial, sans-serif" font-weight="bold" font-size="22" fill="#000000">Frozen yogurt consumption</text>
<text text-anchor="middle" x="300.0" y="42" font-family="'Helvetica Neue', Arial, sans-serif" font-size="14" fill="#000000">correlates with</text>
<text text-anchor="middle" x="300.0" y="68" font-family="'Helvetica Neue', Arial, sans-serif" font-weight="bold" font-size="22" fill="#ba0f27">Violent crime rates</text>
<text text-anchor="start" x="23" y="301.3333333333333" font-family="'Helvetica Neue', Arial, sans-serif" font-size="14" fill="#9f9f9f">Per capita consumption of Frozen yogurt in the US &#183; Source: USDA</text>
<text text-anchor="start" x="23" y="324.66666666666663" font-family="'Helvetica Neue', Arial, sans-serif" font-size="14" fill="#9f9f9f">The violent crime rate per 100,000 residents in United States &#183; Source: FBI</text>
<text text-anchor="start" x="23" y="340.66666666666663" font-family="'Helvetica Neue', Arial, sans-serif" font-size="14" fill="#9f9f9f">Criminal Justice Information Services</text>
<text text-anchor="start" x="23" y="363.99999999999994" font-family="'Helvetica Neue', Arial, sans-serif" font-size="14" fill="#9f9f9f">1990-2021, r=0.947, r&#178;=0.896, p&lt;0.01  &#183;  tylervigen.com/spurious/correlation/5905</text>
<polyline points="5,296.66666666666663 20,296.66666666666663" style="fill:none;stroke:#000000;stroke-width:1.75" stroke-dasharray="3,1" />
<polygon points="3.14,296.66666666666663 5,294.8066666666666 6.859999999999999,296.66666666666663 5,298.52666666666664" stroke="#F7F7F7" stroke-width="1.55" fill="#F7F7F7"  />
<polygon points="3.14,296.66666666666663 5,294.8066666666666 6.859999999999999,296.66666666666663 5,298.52666666666664" stroke="#000000" stroke-width="1.55" fill="#000000"  />
<polyline points="5,319.99999999999994 20,319.99999999999994" style="fill:none;stroke:#ba0f27;stroke-width:1.75" />
<circle cx="5" cy="319.99999999999994" r="1.55" stroke="#F7F7F7" stroke-width="1.55" fill="#F7F7F7" />
<circle cx="5" cy="319.99999999999994" r="1.55" stroke="#ba0f27" stroke-width="1.55" fill="#ba0f27"  />
<text x="5" y="176.5" transform="rotate(270 5 171.5)" text-anchor="middle" fill="#000000" font-family="'Helvetica Neue', Arial, sans-serif" font-size="14" dominant-baseline="central">Pounds per person</text>
<text x="171.5" y="-389" transform="rotate(90 100 100)" text-anchor="middle" fill="#ba0f27" font-family="'Helvetica Neue', Arial, sans-serif" font-size="14" dominant-baseline="central">Violent crime</text>
<line x1="71" y1="93.55" x2="528" y2="93.55" stroke="#F3F3F3" stroke-width="1" fill="#FEFEFE" />
<text text-anchor="end" x="62" y="98.21666666666667" font-family="'Helvetica Neue', Arial, sans-serif" font-size="12" fill="#000000">3.5</text>
<text text-anchor="start" x="538" y="98.21666666666667" font-family="'Helvetica Neue', Arial, sans-serif" font-size="12" fill="#ba0f27">758</text>
<line x1="71" y1="132.525" x2="528" y2="132.525" stroke="#F3F3F3" stroke-width="1" fill="#FEFEFE" />
<text text-anchor="end" x="62" y="137.19166666666666" font-family="'Helvetica Neue', Arial, sans-serif" font-size="12">2.8</text>
<text text-anchor="start" x="538" y="137.19166666666666" font-family="'Helvetica Neue', Arial, sans-serif" font-size="12" fill="#ba0f27">659</text>
<line x1="71" y1="171.5" x2="528" y2="171.5" stroke="#F3F3F3" stroke-width="1" fill="#FEFEFE" />
<text text-anchor="end" x="62" y="176.16666666666666" font-family="'Helvetica Neue', Arial, sans-serif" font-size="12">2.0</text>
<text text-anchor="start" x="538" y="176.16666666666666" font-family="'Helvetica Neue', Arial, sans-serif" font-size="12" fill="#ba0f27">560</text>
<line x1="71" y1="210.47500000000002" x2="528" y2="210.47500000000002" stroke="#F3F3F3" stroke-width="1" fill="#FEFEFE" />
<text text-anchor="end" x="62" y="215.14166666666668" font-family="'Helvetica Neue', Arial, sans-serif" font-size="12">1.3</text>
<text text-anchor="start" x="538" y="215.14166666666668" font-family="'Helvetica Neue', Arial, sans-serif" font-size="12" fill="#ba0f27">461</text>
<line x1="71" y1="249.45" x2="528" y2="249.45" stroke="#F3F3F3" stroke-width="1" fill="#FEFEFE" />
<text text-anchor="end" x="62" y="254.11666666666665" font-family="'Helvetica Neue', Arial, sans-serif" font-size="12">0.6</text>
<text text-anchor="start" x="538" y="254.11666666666665" font-family="'Helvetica Neue', Arial, sans-serif" font-size="12" fill="#ba0f27">362</text>
<polyline points="76.55000000000003,256 76.55000000000003,262" style="fill:none;stroke:#000000;stroke-width:1" />
<polyline points="148.63064516129035,256 148.63064516129035,262" style="fill:none;stroke:#000000;stroke-width:1" />
<polyline points="220.71129032258068,256 220.71129032258068,262" style="fill:none;stroke:#000000;stroke-width:1" />
<polyline points="292.791935483871,256 292.791935483871,262" style="fill:none;stroke:#000000;stroke-width:1" />
<polyline points="364.8725806451613,256 364.8725806451613,262" style="fill:none;stroke:#000000;stroke-width:1" />
<polyline points="436.9532258064516,256 436.9532258064516,262" style="fill:none;stroke:#000000;stroke-width:1" />
<polyline points="509.03387096774196,256 509.03387096774196,262" style="fill:none;stroke:#000000;stroke-width:1" />
<text text-anchor="middle" x="76.55000000000003" y="277" font-weight="bold" font-family="'Helvetica Neue', Arial, sans-serif" font-size="14">1990</text>
<text text-anchor="middle" x="148.63064516129035" y="277" font-weight="bold" font-family="'Helvetica Neue', Arial, sans-serif" font-size="14">1995</text>
<text text-anchor="middle" x="220.71129032258068" y="277" font-weight="bold" font-family="'Helvetica Neue', Arial, sans-serif" font-size="14">2000</text>
<text text-anchor="middle" x="292.791935483871" y="277" font-weight="bold" font-family="'Helvetica Neue', Arial, sans-serif" font-size="14">2005</text>
<text text-anchor="middle" x="364.8725806451613" y="277" font-weight="bold" font-family="'Helvetica Neue', Arial, sans-serif" font-size="14">2010</text>
<text text-anchor="middle" x="436.9532258064516" y="277" font-weight="bold" font-family="'Helvetica Neue', Arial, sans-serif" font-size="14">2015</text>
<text text-anchor="middle" x="509.03387096774196" y="277" font-weight="bold" font-family="'Helvetica Neue', Arial, sans-serif" font-size="14">2020</text>
<polyline points="76.55000000000003,104.79241048915785 90.9661290322581,93.55" style="fill:none;stroke:#ba0f27;stroke-width:1.75"  />
<polyline points="90.9661290322581,93.55 105.38225806451615,93.74654563792234" style="fill:none;stroke:#ba0f27;stroke-width:1.75"  />
<polyline points="105.38225806451615,93.74654563792234 119.79838709677422,97.91331316187595" style="fill:none;stroke:#ba0f27;stroke-width:1.75"  />
<polyline points="119.79838709677422,97.91331316187595 134.2145161290323,111.08187090267273" style="fill:none;stroke:#ba0f27;stroke-width:1.75"  />
<polyline points="134.2145161290323,111.08187090267273 148.63064516129035,122.52082702975292" style="fill:none;stroke:#ba0f27;stroke-width:1.75"  />
<polyline points="148.63064516129035,122.52082702975292 163.0467741935484,141.34989914271307" style="fill:none;stroke:#ba0f27;stroke-width:1.75"  />
<polyline points="163.0467741935484,141.34989914271307 177.46290322580649,151.4130358043369" style="fill:none;stroke:#ba0f27;stroke-width:1.75"  />
<polyline points="177.46290322580649,151.4130358043369 191.87903225806454,168.47319717599598" style="fill:none;stroke:#ba0f27;stroke-width:1.75"  />
<polyline points="191.87903225806454,168.47319717599598 206.2951612903226,186.0050680786687" style="fill:none;stroke:#ba0f27;stroke-width:1.75"  />
<polyline points="206.2951612903226,186.0050680786687 220.71129032258068,192.49107413010591" style="fill:none;stroke:#ba0f27;stroke-width:1.75"  />
<polyline points="220.71129032258068,192.49107413010591 235.1274193548387,193.27725668179528" style="fill:none;stroke:#ba0f27;stroke-width:1.75"  />
<polyline points="235.1274193548387,193.27725668179528 249.5435483870968,197.24747856782653" style="fill:none;stroke:#ba0f27;stroke-width:1.75"  />
<polyline points="249.5435483870968,197.24747856782653 263.9596774193549,204.55897629853757" style="fill:none;stroke:#ba0f27;stroke-width:1.75"  />
<polyline points="263.9596774193549,204.55897629853757 278.3758064516129,209.51192637418058" style="fill:none;stroke:#ba0f27;stroke-width:1.75"  />
<polyline points="278.3758064516129,209.51192637418058 292.791935483871,207.2319969742814" style="fill:none;stroke:#ba0f27;stroke-width:1.75"  />
<polyline points="292.791935483871,207.2319969742814 307.20806451612907,203.1831568330812" style="fill:none;stroke:#ba0f27;stroke-width:1.75"  />
<polyline points="307.20806451612907,203.1831568330812 321.6241935483871,206.1313414019163" style="fill:none;stroke:#ba0f27;stroke-width:1.75"  />
<polyline points="321.6241935483871,206.1313414019163 336.0403225806452,211.32014624306606" style="fill:none;stroke:#ba0f27;stroke-width:1.75"  />
<polyline points="336.0403225806452,211.32014624306606 350.4564516129032,221.81568330811905" style="fill:none;stroke:#ba0f27;stroke-width:1.75"  />
<polyline points="350.4564516129032,221.81568330811905 364.8725806451613,232.58638426626328" style="fill:none;stroke:#ba0f27;stroke-width:1.75"  />
<polyline points="364.8725806451613,232.58638426626328 379.2887096774194,239.4261724659607" style="fill:none;stroke:#ba0f27;stroke-width:1.75"  />
<polyline points="379.2887096774194,239.4261724659607 393.7048387096774,239.1510085728694" style="fill:none;stroke:#ba0f27;stroke-width:1.75"  />
<polyline points="393.7048387096774,239.1510085728694 408.1209677419355,246.5018154311649" style="fill:none;stroke:#ba0f27;stroke-width:1.75"  />
<polyline points="408.1209677419355,246.5018154311649 422.53709677419357,249.45" style="fill:none;stroke:#ba0f27;stroke-width:1.75"  />
<polyline points="422.53709677419357,249.45 436.9532258064516,244.69359556227937" style="fill:none;stroke:#ba0f27;stroke-width:1.75"  />
<polyline points="436.9532258064516,244.69359556227937 451.3693548387097,235.33802319717603" style="fill:none;stroke:#ba0f27;stroke-width:1.75"  />
<polyline points="451.3693548387097,235.33802319717603 465.78548387096777,236.3600605143722" style="fill:none;stroke:#ba0f27;stroke-width:1.75"  />
<polyline points="465.78548387096777,236.3600605143722 480.2016129032258,240.880610186586" style="fill:none;stroke:#ba0f27;stroke-width:1.75"  />
<polyline points="480.2016129032258,240.880610186586 494.6177419354839,241.9026475037822" style="fill:none;stroke:#ba0f27;stroke-width:1.75"  />
<polyline points="494.6177419354839,241.9026475037822 509.03387096774196,234.94493192133132" style="fill:none;stroke:#ba0f27;stroke-width:1.75"  />
<polyline points="509.03387096774196,234.94493192133132 523.45,239.46548159354518" style="fill:none;stroke:#ba0f27;stroke-width:1.75"  />
<circle cx="76.55000000000003" cy="104.79241048915785" r="1.55" stroke="#F7F7F7" stroke-width="1.55" fill="#F7F7F7" />
<circle cx="76.55000000000003" cy="104.79241048915785" r="1.55" stroke="#ba0f27" stroke-width="1.55" fill="#ba0f27"  />
<circle cx="90.9661290322581" cy="93.55" r="1.55" stroke="#F7F7F7" stroke-width="1.55" fill="#F7F7F7" />
<circle cx="90.9661290322581" cy="93.55" r="1.55" stroke="#ba0f27" stroke-width="1.55" fill="#ba0f27"  />
<circle cx="105.38225806451615" cy="93.74654563792234" r="1.55" stroke="#F7F7F7" stroke-width="1.55" fill="#F7F7F7" />
<circle cx="105.38225806451615" cy="93.74654563792234" r="1.55" stroke="#ba0f27" stroke-width="1.55" fill="#ba0f27"  />
<circle cx="119.79838709677422" cy="97.91331316187595" r="1.55" stroke="#F7F7F7" stroke-width="1.55" fill="#F7F7F7" />
<circle cx="119.79838709677422" cy="97.91331316187595" r="1.55" stroke="#ba0f27" stroke-width="1.55" fill="#ba0f27"  />
<circle cx="134.2145161290323" cy="111.08187090267273" r="1.55" stroke="#F7F7F7" stroke-width="1.55" fill="#F7F7F7" />
<circle cx="134.2145161290323" cy="111.08187090267273" r="1.55" stroke="#ba0f27" stroke-width="1.55" fill="#ba0f27"  />
<circle cx="148.63064516129035" cy="122.52082702975292" r="1.55" stroke="#F7F7F7" stroke-width="1.55" fill="#F7F7F7" />
<circle cx="148.63064516129035" cy="122.52082702975292" r="1.55" stroke="#ba0f27" stroke-width="1.55" fill="#ba0f27"  />
<circle cx="163.0467741935484" cy="141.34989914271307" r="1.55" stroke="#F7F7F7" stroke-width="1.55" fill="#F7F7F7" />
<circle cx="163.0467741935484" cy="141.34989914271307" r="1.55" stroke="#ba0f27" stroke-width="1.55" fill="#ba0f27"  />
<circle cx="177.46290322580649" cy="151.4130358043369" r="1.55" stroke="#F7F7F7" stroke-width="1.55" fill="#F7F7F7" />
<circle cx="177.46290322580649" cy="151.4130358043369" r="1.55" stroke="#ba0f27" stroke-width="1.55" fill="#ba0f27"  />
<circle cx="191.87903225806454" cy="168.47319717599598" r="1.55" stroke="#F7F7F7" stroke-width="1.55" fill="#F7F7F7" />
<circle cx="191.87903225806454" cy="168.47319717599598" r="1.55" stroke="#ba0f27" stroke-width="1.55" fill="#ba0f27"  />
<circle cx="206.2951612903226" cy="186.0050680786687" r="1.55" stroke="#F7F7F7" stroke-width="1.55" fill="#F7F7F7" />
<circle cx="206.2951612903226" cy="186.0050680786687" r="1.55" stroke="#ba0f27" stroke-width="1.55" fill="#ba0f27"  />
<circle cx="220.71129032258068" cy="192.49107413010591" r="1.55" stroke="#F7F7F7" stroke-width="1.55" fill="#F7F7F7" />
<circle cx="220.71129032258068" cy="192.49107413010591" r="1.55" stroke="#ba0f27" stroke-width="1.55" fill="#ba0f27"  />
<circle cx="235.1274193548387" cy="193.27725668179528" r="1.55" stroke="#F7F7F7" stroke-width="1.55" fill="#F7F7F7" />
<circle cx="235.1274193548387" cy="193.27725668179528" r="1.55" stroke="#ba0f27" stroke-width="1.55" fill="#ba0f27"  />
<circle cx="249.5435483870968" cy="197.24747856782653" r="1.55" stroke="#F7F7F7" stroke-width="1.55" fill="#F7F7F7" />
<circle cx="249.5435483870968" cy="197.24747856782653" r="1.55" stroke="#ba0f27" stroke-width="1.55" fill="#ba0f27"  />
<circle cx="263.9596774193549" cy="204.55897629853757" r="1.55" stroke="#F7F7F7" stroke-width="1.55" fill="#F7F7F7" />
<circle cx="263.9596774193549" cy="204.55897629853757" r="1.55" stroke="#ba0f27" stroke-width="1.55" fill="#ba0f27"  />
<circle cx="278.3758064516129" cy="209.51192637418058" r="1.55" stroke="#F7F7F7" stroke-width="1.55" fill="#F7F7F7" />
<circle cx="278.3758064516129" cy="209.51192637418058" r="1.55" stroke="#ba0f27" stroke-width="1.55" fill="#ba0f27"  />
<circle cx="292.791935483871" cy="207.2319969742814" r="1.55" stroke="#F7F7F7" stroke-width="1.55" fill="#F7F7F7" />
<circle cx="292.791935483871" cy="207.2319969742814" r="1.55" stroke="#ba0f27" stroke-width="1.55" fill="#ba0f27"  />
<circle cx="307.20806451612907" cy="203.1831568330812" r="1.55" stroke="#F7F7F7" stroke-width="1.55" fill="#F7F7F7" />
<circle cx="307.20806451612907" cy="203.1831568330812" r="1.55" stroke="#ba0f27" stroke-width="1.55" fill="#ba0f27"  />
<circle cx="321.6241935483871" cy="206.1313414019163" r="1.55" stroke="#F7F7F7" stroke-width="1.55" fill="#F7F7F7" />
<circle cx="321.6241935483871" cy="206.1313414019163" r="1.55" stroke="#ba0f27" stroke-width="1.55" fill="#ba0f27"  />
<circle cx="336.0403225806452" cy="211.32014624306606" r="1.55" stroke="#F7F7F7" stroke-width="1.55" fill="#F7F7F7" />
<circle cx="336.0403225806452" cy="211.32014624306606" r="1.55" stroke="#ba0f27" stroke-width="1.55" fill="#ba0f27"  />
<circle cx="350.4564516129032" cy="221.81568330811905" r="1.55" stroke="#F7F7F7" stroke-width="1.55" fill="#F7F7F7" />
<circle cx="350.4564516129032" cy="221.81568330811905" r="1.55" stroke="#ba0f27" stroke-width="1.55" fill="#ba0f27"  />
<circle cx="364.8725806451613" cy="232.58638426626328" r="1.55" stroke="#F7F7F7" stroke-width="1.55" fill="#F7F7F7" />
<circle cx="364.8725806451613" cy="232.58638426626328" r="1.55" stroke="#ba0f27" stroke-width="1.55" fill="#ba0f27"  />
<circle cx="379.2887096774194" cy="239.4261724659607" r="1.55" stroke="#F7F7F7" stroke-width="1.55" fill="#F7F7F7" />
<circle cx="379.2887096774194" cy="239.4261724659607" r="1.55" stroke="#ba0f27" stroke-width="1.55" fill="#ba0f27"  />
<circle cx="393.7048387096774" cy="239.1510085728694" r="1.55" stroke="#F7F7F7" stroke-width="1.55" fill="#F7F7F7" />
<circle cx="393.7048387096774" cy="239.1510085728694" r="1.55" stroke="#ba0f27" stroke-width="1.55" fill="#ba0f27"  />
<circle cx="408.1209677419355" cy="246.5018154311649" r="1.55" stroke="#F7F7F7" stroke-width="1.55" fill="#F7F7F7" />
<circle cx="408.1209677419355" cy="246.5018154311649" r="1.55" stroke="#ba0f27" stroke-width="1.55" fill="#ba0f27"  />
<circle cx="422.53709677419357" cy="249.45" r="1.55" stroke="#F7F7F7" stroke-width="1.55" fill="#F7F7F7" />
<circle cx="422.53709677419357" cy="249.45" r="1.55" stroke="#ba0f27" stroke-width="1.55" fill="#ba0f27"  />
<circle cx="436.9532258064516" cy="244.69359556227937" r="1.55" stroke="#F7F7F7" stroke-width="1.55" fill="#F7F7F7" />
<circle cx="436.9532258064516" cy="244.69359556227937" r="1.55" stroke="#ba0f27" stroke-width="1.55" fill="#ba0f27"  />
<circle cx="451.3693548387097" cy="235.33802319717603" r="1.55" stroke="#F7F7F7" stroke-width="1.55" fill="#F7F7F7" />
<circle cx="451.3693548387097" cy="235.33802319717603" r="1.55" stroke="#ba0f27" stroke-width="1.55" fill="#ba0f27"  />
<circle cx="465.78548387096777" cy="236.3600605143722" r="1.55" stroke="#F7F7F7" stroke-width="1.55" fill="#F7F7F7" />
<circle cx="465.78548387096777" cy="236.3600605143722" r="1.55" stroke="#ba0f27" stroke-width="1.55" fill="#ba0f27"  />
<circle cx="480.2016129032258" cy="240.880610186586" r="1.55" stroke="#F7F7F7" stroke-width="1.55" fill="#F7F7F7" />
<circle cx="480.2016129032258" cy="240.880610186586" r="1.55" stroke="#ba0f27" stroke-width="1.55" fill="#ba0f27"  />
<circle cx="494.6177419354839" cy="241.9026475037822" r="1.55" stroke="#F7F7F7" stroke-width="1.55" fill="#F7F7F7" />
<circle cx="494.6177419354839" cy="241.9026475037822" r="1.55" stroke="#ba0f27" stroke-width="1.55" fill="#ba0f27"  />
<circle cx="509.03387096774196" cy="234.94493192133132" r="1.55" stroke="#F7F7F7" stroke-width="1.55" fill="#F7F7F7" />
<circle cx="509.03387096774196" cy="234.94493192133132" r="1.55" stroke="#ba0f27" stroke-width="1.55" fill="#ba0f27"  />
<circle cx="523.45" cy="239.46548159354518" r="1.55" stroke="#F7F7F7" stroke-width="1.55" fill="#F7F7F7" />
<circle cx="523.45" cy="239.46548159354518" r="1.55" stroke="#ba0f27" stroke-width="1.55" fill="#ba0f27"  />
<polyline points="76.55000000000003,131.18103448275863 90.9661290322581,93.55" style="fill:none;stroke:#000000;stroke-width:1.75" stroke-dasharray="3,1"  />
<polyline points="90.9661290322581,93.55 105.38225806451615,115.05344827586207" style="fill:none;stroke:#000000;stroke-width:1.75" stroke-dasharray="3,1"  />
<polyline points="105.38225806451615,115.05344827586207 119.79838709677422,98.92586206896551" style="fill:none;stroke:#000000;stroke-width:1.75" stroke-dasharray="3,1"  />
<polyline points="119.79838709677422,98.92586206896551 134.2145161290323,98.92586206896551" style="fill:none;stroke:#000000;stroke-width:1.75" stroke-dasharray="3,1"  />
<polyline points="134.2145161290323,98.92586206896551 148.63064516129035,98.92586206896551" style="fill:none;stroke:#000000;stroke-width:1.75" stroke-dasharray="3,1"  />
<polyline points="148.63064516129035,98.92586206896551 163.0467741935484,147.30862068965519" style="fill:none;stroke:#000000;stroke-width:1.75" stroke-dasharray="3,1"  />
<polyline points="163.0467741935484,147.30862068965519 177.46290322580649,174.18793103448274" style="fill:none;stroke:#000000;stroke-width:1.75" stroke-dasharray="3,1"  />
<polyline points="177.46290322580649,174.18793103448274 191.87903225806454,168.81206896551726" style="fill:none;stroke:#000000;stroke-width:1.75" stroke-dasharray="3,1"  />
<polyline points="191.87903225806454,168.81206896551726 206.2951612903226,174.18793103448274" style="fill:none;stroke:#000000;stroke-width:1.75" stroke-dasharray="3,1"  />
<polyline points="206.2951612903226,174.18793103448274 220.71129032258068,174.18793103448274" style="fill:none;stroke:#000000;stroke-width:1.75" stroke-dasharray="3,1"  />
<polyline points="220.71129032258068,174.18793103448274 235.1274193548387,201.06724137931036" style="fill:none;stroke:#000000;stroke-width:1.75" stroke-dasharray="3,1"  />
<polyline points="235.1274193548387,201.06724137931036 249.5435483870968,201.06724137931036" style="fill:none;stroke:#000000;stroke-width:1.75" stroke-dasharray="3,1"  />
<polyline points="249.5435483870968,201.06724137931036 263.9596774193549,201.06724137931036" style="fill:none;stroke:#000000;stroke-width:1.75" stroke-dasharray="3,1"  />
<polyline points="263.9596774193549,201.06724137931036 278.3758064516129,211.8189655172414" style="fill:none;stroke:#000000;stroke-width:1.75" stroke-dasharray="3,1"  />
<polyline points="278.3758064516129,211.8189655172414 292.791935483871,211.8189655172414" style="fill:none;stroke:#000000;stroke-width:1.75" stroke-dasharray="3,1"  />
<polyline points="292.791935483871,211.8189655172414 307.20806451612907,211.8189655172414" style="fill:none;stroke:#000000;stroke-width:1.75" stroke-dasharray="3,1"  />
<polyline points="307.20806451612907,211.8189655172414 321.6241935483871,201.06724137931036" style="fill:none;stroke:#000000;stroke-width:1.75" stroke-dasharray="3,1"  />
<polyline points="321.6241935483871,201.06724137931036 336.0403225806452,201.06724137931036" style="fill:none;stroke:#000000;stroke-width:1.75" stroke-dasharray="3,1"  />
<polyline points="336.0403225806452,201.06724137931036 350.4564516129032,233.32241379310346" style="fill:none;stroke:#000000;stroke-width:1.75" stroke-dasharray="3,1"  />
<polyline points="350.4564516129032,233.32241379310346 364.8725806451613,227.94655172413792" style="fill:none;stroke:#000000;stroke-width:1.75" stroke-dasharray="3,1"  />
<polyline points="364.8725806451613,227.94655172413792 379.2887096774194,217.19482758620688" style="fill:none;stroke:#000000;stroke-width:1.75" stroke-dasharray="3,1"  />
<polyline points="379.2887096774194,217.19482758620688 393.7048387096774,222.57068965517243" style="fill:none;stroke:#000000;stroke-width:1.75" stroke-dasharray="3,1"  />
<polyline points="393.7048387096774,222.57068965517243 408.1209677419355,206.44310344827585" style="fill:none;stroke:#000000;stroke-width:1.75" stroke-dasharray="3,1"  />
<polyline points="408.1209677419355,206.44310344827585 422.53709677419357,211.8189655172414" style="fill:none;stroke:#000000;stroke-width:1.75" stroke-dasharray="3,1"  />
<polyline points="422.53709677419357,211.8189655172414 436.9532258064516,206.44310344827585" style="fill:none;stroke:#000000;stroke-width:1.75" stroke-dasharray="3,1"  />
<polyline points="436.9532258064516,206.44310344827585 451.3693548387097,217.19482758620688" style="fill:none;stroke:#000000;stroke-width:1.75" stroke-dasharray="3,1"  />
<polyline points="451.3693548387097,217.19482758620688 465.78548387096777,217.19482758620688" style="fill:none;stroke:#000000;stroke-width:1.75" stroke-dasharray="3,1"  />
<polyline points="465.78548387096777,217.19482758620688 480.2016129032258,227.94655172413792" style="fill:none;stroke:#000000;stroke-width:1.75" stroke-dasharray="3,1"  />
<polyline points="480.2016129032258,227.94655172413792 494.6177419354839,227.94655172413792" style="fill:none;stroke:#000000;stroke-width:1.75" stroke-dasharray="3,1"  />
<polyline points="494.6177419354839,227.94655172413792 509.03387096774196,249.45" style="fill:none;stroke:#000000;stroke-width:1.75" stroke-dasharray="3,1"  />
<polyline points="509.03387096774196,249.45 523.45,233.32241379310346" style="fill:none;stroke:#000000;stroke-width:1.75" stroke-dasharray="3,1"  />
<polygon points="74.69000000000003,131.18103448275863 76.55000000000003,129.32103448275862 78.41000000000003,131.18103448275863 76.55000000000003,133.04103448275865" stroke="#F7F7F7" stroke-width="1.55" fill="#F7F7F7"  />
<polygon points="74.69000000000003,131.18103448275863 76.55000000000003,129.32103448275862 78.41000000000003,131.18103448275863 76.55000000000003,133.04103448275865" stroke="#000000" stroke-width="1.55" fill="#000000"  />
<polygon points="89.1061290322581,93.55 90.9661290322581,91.69 92.8261290322581,93.55 90.9661290322581,95.41" stroke="#F7F7F7" stroke-width="1.55" fill="#F7F7F7"  />
<polygon points="89.1061290322581,93.55 90.9661290322581,91.69 92.8261290322581,93.55 90.9661290322581,95.41" stroke="#000000" stroke-width="1.55" fill="#000000"  />
<polygon points="103.52225806451615,115.05344827586207 105.38225806451615,113.19344827586207 107.24225806451615,115.05344827586207 105.38225806451615,116.91344827586207" stroke="#F7F7F7" stroke-width="1.55" fill="#F7F7F7"  />
<polygon points="103.52225806451615,115.05344827586207 105.38225806451615,113.19344827586207 107.24225806451615,115.05344827586207 105.38225806451615,116.91344827586207" stroke="#000000" stroke-width="1.55" fill="#000000"  />
<polygon points="117.93838709677422,98.92586206896551 119.79838709677422,97.06586206896552 121.65838709677422,98.92586206896551 119.79838709677422,100.78586206896551" stroke="#F7F7F7" stroke-width="1.55" fill="#F7F7F7"  />
<polygon points="117.93838709677422,98.92586206896551 119.79838709677422,97.06586206896552 121.65838709677422,98.92586206896551 119.79838709677422,100.78586206896551" stroke="#000000" stroke-width="1.55" fill="#000000"  />
<polygon points="132.35451612903228,98.92586206896551 134.2145161290323,97.06586206896552 136.0745161290323,98.92586206896551 134.2145161290323,100.78586206896551" stroke="#F7F7F7" stroke-width="1.55" fill="#F7F7F7"  />
<polygon points="132.35451612903228,98.92586206896551 134.2145161290323,97.06586206896552 136.0745161290323,98.92586206896551 134.2145161290323,100.78586206896551" stroke="#000000" stroke-width="1.55" fill="#000000"  />
<polygon points="146.77064516129033,98.92586206896551 148.63064516129035,97.06586206896552 150.49064516129036,98.92586206896551 148.63064516129035,100.78586206896551" stroke="#F7F7F7" stroke-width="1.55" fill="#F7F7F7"  />
<polygon points="146.77064516129033,98.92586206896551 148.63064516129035,97.06586206896552 150.49064516129036,98.92586206896551 148.63064516129035,100.78586206896551" stroke="#000000" stroke-width="1.55" fill="#000000"  />
<polygon points="161.1867741935484,147.30862068965519 163.0467741935484,145.44862068965517 164.90677419354842,147.30862068965519 163.0467741935484,149.1686206896552" stroke="#F7F7F7" stroke-width="1.55" fill="#F7F7F7"  />
<polygon points="161.1867741935484,147.30862068965519 163.0467741935484,145.44862068965517 164.90677419354842,147.30862068965519 163.0467741935484,149.1686206896552" stroke="#000000" stroke-width="1.55" fill="#000000"  />
<polygon points="175.60290322580647,174.18793103448274 177.46290322580649,172.32793103448273 179.3229032258065,174.18793103448274 177.46290322580649,176.04793103448276" stroke="#F7F7F7" stroke-width="1.55" fill="#F7F7F7"  />
<polygon points="175.60290322580647,174.18793103448274 177.46290322580649,172.32793103448273 179.3229032258065,174.18793103448274 177.46290322580649,176.04793103448276" stroke="#000000" stroke-width="1.55" fill="#000000"  />
<polygon points="190.01903225806453,168.81206896551726 191.87903225806454,166.95206896551724 193.73903225806455,168.81206896551726 191.87903225806454,170.67206896551727" stroke="#F7F7F7" stroke-width="1.55" fill="#F7F7F7"  />
<polygon points="190.01903225806453,168.81206896551726 191.87903225806454,166.95206896551724 193.73903225806455,168.81206896551726 191.87903225806454,170.67206896551727" stroke="#000000" stroke-width="1.55" fill="#000000"  />
<polygon points="204.43516129032258,174.18793103448274 206.2951612903226,172.32793103448273 208.1551612903226,174.18793103448274 206.2951612903226,176.04793103448276" stroke="#F7F7F7" stroke-width="1.55" fill="#F7F7F7"  />
<polygon points="204.43516129032258,174.18793103448274 206.2951612903226,172.32793103448273 208.1551612903226,174.18793103448274 206.2951612903226,176.04793103448276" stroke="#000000" stroke-width="1.55" fill="#000000"  />
<polygon points="218.85129032258067,174.18793103448274 220.71129032258068,172.32793103448273 222.5712903225807,174.18793103448274 220.71129032258068,176.04793103448276" stroke="#F7F7F7" stroke-width="1.55" fill="#F7F7F7"  />
<polygon points="218.85129032258067,174.18793103448274 220.71129032258068,172.32793103448273 222.5712903225807,174.18793103448274 220.71129032258068,176.04793103448276" stroke="#000000" stroke-width="1.55" fill="#000000"  />
<polygon points="233.2674193548387,201.06724137931036 235.1274193548387,199.20724137931035 236.98741935483872,201.06724137931036 235.1274193548387,202.92724137931037" stroke="#F7F7F7" stroke-width="1.55" fill="#F7F7F7"  />
<polygon points="233.2674193548387,201.06724137931036 235.1274193548387,199.20724137931035 236.98741935483872,201.06724137931036 235.1274193548387,202.92724137931037" stroke="#000000" stroke-width="1.55" fill="#000000"  />
<polygon points="247.68354838709678,201.06724137931036 249.5435483870968,199.20724137931035 251.4035483870968,201.06724137931036 249.5435483870968,202.92724137931037" stroke="#F7F7F7" stroke-width="1.55" fill="#F7F7F7"  />
<polygon points="247.68354838709678,201.06724137931036 249.5435483870968,199.20724137931035 251.4035483870968,201.06724137931036 249.5435483870968,202.92724137931037" stroke="#000000" stroke-width="1.55" fill="#000000"  />
<polygon points="262.09967741935486,201.06724137931036 263.9596774193549,199.20724137931035 265.8196774193549,201.06724137931036 263.9596774193549,202.92724137931037" stroke="#F7F7F7" stroke-width="1.55" fill="#F7F7F7"  />
<polygon points="262.09967741935486,201.06724137931036 263.9596774193549,199.20724137931035 265.8196774193549,201.06724137931036 263.9596774193549,202.92724137931037" stroke="#000000" stroke-width="1.55" fill="#000000"  />
<polygon points="276.5158064516129,211.8189655172414 278.3758064516129,209.95896551724138 280.2358064516129,211.8189655172414 278.3758064516129,213.6789655172414" stroke="#F7F7F7" stroke-width="1.55" fill="#F7F7F7"  />
<polygon points="276.5158064516129,211.8189655172414 278.3758064516129,209.95896551724138 280.2358064516129,211.8189655172414 278.3758064516129,213.6789655172414" stroke="#000000" stroke-width="1.55" fill="#000000"  />
<polygon points="290.931935483871,211.8189655172414 292.791935483871,209.95896551724138 294.651935483871,211.8189655172414 292.791935483871,213.6789655172414" stroke="#F7F7F7" stroke-width="1.55" fill="#F7F7F7"  />
<polygon points="290.931935483871,211.8189655172414 292.791935483871,209.95896551724138 294.651935483871,211.8189655172414 292.791935483871,213.6789655172414" stroke="#000000" stroke-width="1.55" fill="#000000"  />
<polygon points="305.34806451612906,211.8189655172414 307.20806451612907,209.95896551724138 309.0680645161291,211.8189655172414 307.20806451612907,213.6789655172414" stroke="#F7F7F7" stroke-width="1.55" fill="#F7F7F7"  />
<polygon points="305.34806451612906,211.8189655172414 307.20806451612907,209.95896551724138 309.0680645161291,211.8189655172414 307.20806451612907,213.6789655172414" stroke="#000000" stroke-width="1.55" fill="#000000"  />
<polygon points="319.7641935483871,201.06724137931036 321.6241935483871,199.20724137931035 323.4841935483871,201.06724137931036 321.6241935483871,202.92724137931037" stroke="#F7F7F7" stroke-width="1.55" fill="#F7F7F7"  />
<polygon points="319.7641935483871,201.06724137931036 321.6241935483871,199.20724137931035 323.4841935483871,201.06724137931036 321.6241935483871,202.92724137931037" stroke="#000000" stroke-width="1.55" fill="#000000"  />
<polygon points="334.18032258064517,201.06724137931036 336.0403225806452,199.20724137931035 337.9003225806452,201.06724137931036 336.0403225806452,202.92724137931037" stroke="#F7F7F7" stroke-width="1.55" fill="#F7F7F7"  />
<polygon points="334.18032258064517,201.06724137931036 336.0403225806452,199.20724137931035 337.9003225806452,201.06724137931036 336.0403225806452,202.92724137931037" stroke="#000000" stroke-width="1.55" fill="#000000"  />
<polygon points="348.5964516129032,233.32241379310346 350.4564516129032,231.46241379310345 352.3164516129032,233.32241379310346 350.4564516129032,235.18241379310348" stroke="#F7F7F7" stroke-width="1.55" fill="#F7F7F7"  />
<polygon points="348.5964516129032,233.32241379310346 350.4564516129032,231.46241379310345 352.3164516129032,233.32241379310346 350.4564516129032,235.18241379310348" stroke="#000000" stroke-width="1.55" fill="#000000"  />
<polygon points="363.0125806451613,227.94655172413792 364.8725806451613,226.0865517241379 366.7325806451613,227.94655172413792 364.8725806451613,229.80655172413793" stroke="#F7F7F7" stroke-width="1.55" fill="#F7F7F7"  />
<polygon points="363.0125806451613,227.94655172413792 364.8725806451613,226.0865517241379 366.7325806451613,227.94655172413792 364.8725806451613,229.80655172413793" stroke="#000000" stroke-width="1.55" fill="#000000"  />
<polygon points="377.42870967741936,217.19482758620688 379.2887096774194,215.33482758620687 381.1487096774194,217.19482758620688 379.2887096774194,219.0548275862069" stroke="#F7F7F7" stroke-width="1.55" fill="#F7F7F7"  />
<polygon points="377.42870967741936,217.19482758620688 379.2887096774194,215.33482758620687 381.1487096774194,217.19482758620688 379.2887096774194,219.0548275862069" stroke="#000000" stroke-width="1.55" fill="#000000"  />
<polygon points="391.8448387096774,222.57068965517243 393.7048387096774,220.71068965517242 395.5648387096774,222.57068965517243 393.7048387096774,224.43068965517244" stroke="#F7F7F7" stroke-width="1.55" fill="#F7F7F7"  />
<polygon points="391.8448387096774,222.57068965517243 393.7048387096774,220.71068965517242 395.5648387096774,222.57068965517243 393.7048387096774,224.43068965517244" stroke="#000000" stroke-width="1.55" fill="#000000"  />
<polygon points="406.2609677419355,206.44310344827585 408.1209677419355,204.58310344827584 409.9809677419355,206.44310344827585 408.1209677419355,208.30310344827586" stroke="#F7F7F7" stroke-width="1.55" fill="#F7F7F7"  />
<polygon points="406.2609677419355,206.44310344827585 408.1209677419355,204.58310344827584 409.9809677419355,206.44310344827585 408.1209677419355,208.30310344827586" stroke="#000000" stroke-width="1.55" fill="#000000"  />
<polygon points="420.67709677419356,211.8189655172414 422.53709677419357,209.95896551724138 424.3970967741936,211.8189655172414 422.53709677419357,213.6789655172414" stroke="#F7F7F7" stroke-width="1.55" fill="#F7F7F7"  />
<polygon points="420.67709677419356,211.8189655172414 422.53709677419357,209.95896551724138 424.3970967741936,211.8189655172414 422.53709677419357,213.6789655172414" stroke="#000000" stroke-width="1.55" fill="#000000"  />
<polygon points="435.0932258064516,206.44310344827585 436.9532258064516,204.58310344827584 438.8132258064516,206.44310344827585 436.9532258064516,208.30310344827586" stroke="#F7F7F7" stroke-width="1.55" fill="#F7F7F7"  />
<polygon points="435.0932258064516,206.44310344827585 436.9532258064516,204.58310344827584 438.8132258064516,206.44310344827585 436.9532258064516,208.30310344827586" stroke="#000000" stroke-width="1.55" fill="#000000"  />
<polygon points="449.50935483870967,217.19482758620688 451.3693548387097,215.33482758620687 453.2293548387097,217.19482758620688 451.3693548387097,219.0548275862069" stroke="#F7F7F7" stroke-width="1.55" fill="#F7F7F7"  />
<polygon points="449.50935483870967,217.19482758620688 451.3693548387097,215.33482758620687 453.2293548387097,217.19482758620688 451.3693548387097,219.0548275862069" stroke="#000000" stroke-width="1.55" fill="#000000"  />
<polygon points="463.92548387096775,217.19482758620688 465.78548387096777,215.33482758620687 467.6454838709678,217.19482758620688 465.78548387096777,219.0548275862069" stroke="#F7F7F7" stroke-width="1.55" fill="#F7F7F7"  />
<polygon points="463.92548387096775,217.19482758620688 465.78548387096777,215.33482758620687 467.6454838709678,217.19482758620688 465.78548387096777,219.0548275862069" stroke="#000000" stroke-width="1.55" fill="#000000"  />
<polygon points="478.3416129032258,227.94655172413792 480.2016129032258,226.0865517241379 482.0616129032258,227.94655172413792 480.2016129032258,229.80655172413793" stroke="#F7F7F7" stroke-width="1.55" fill="#F7F7F7"  />
<polygon points="478.3416129032258,227.94655172413792 480.2016129032258,226.0865517241379 482.0616129032258,227.94655172413792 480.2016129032258,229.80655172413793" stroke="#000000" stroke-width="1.55" fill="#000000"  />
<polygon points="492.75774193548386,227.94655172413792 494.6177419354839,226.0865517241379 496.4777419354839,227.94655172413792 494.6177419354839,229.80655172413793" stroke="#F7F7F7" stroke-width="1.55" fill="#F7F7F7"  />
<polygon points="492.75774193548386,227.94655172413792 494.6177419354839,226.0865517241379 496.4777419354839,227.94655172413792 494.6177419354839,229.80655172413793" stroke="#000000" stroke-width="1.55" fill="#000000"  />
<polygon points="507.17387096774195,249.45 509.03387096774196,247.58999999999997 510.893870967742,249.45 509.03387096774196,251.31" stroke="#F7F7F7" stroke-width="1.55" fill="#F7F7F7"  />
<polygon points="507.17387096774195,249.45 509.03387096774196,247.58999999999997 510.893870967742,249.45 509.03387096774196,251.31" stroke="#000000" stroke-width="1.55" fill="#000000"  />
<polygon points="521.59,233.32241379310346 523.45,231.46241379310345 525.3100000000001,233.32241379310346 523.45,235.18241379310348" stroke="#F7F7F7" stroke-width="1.55" fill="#F7F7F7"  />
<polygon points="521.59,233.32241379310346 523.45,231.46241379310345 525.3100000000001,233.32241379310346 523.45,235.18241379310348" stroke="#000000" stroke-width="1.55" fill="#000000"  />
</svg>