<svg width="600" height="376" xmlns="http://www.w3.org/2000/svg"> <rect width="100%" height="100%" fill="#FEFEFE" />
<line x1="70" y1="256" x2="530" y2="256" stroke="#9f9f9f" stroke-width="1" />
<rect x="70" y="87" width="460" height="169" fill="#FEFEFE" />
<text text-anchor="middle" x="300.0" y="20" font-family="'Helvetica Neue', Arial, sans-serif" font-weight="bold" font-size="22" fill="#000000">London Gold Prices</text>
<text text-anchor="middle" x="300.0" y="42" font-family="'Helvetica Neue', Arial, sans-serif" font-size="14" fill="#000000">correlates with</text>
<text text-anchor="middle" x="300.0" y="68" font-family="'Helvetica Neue', Arial, sans-serif" font-weight="bold" font-size="22" fill="#ba0f27">Customer satisfaction with Whole Foods </text>
<text text-anchor="start" x="23" y="301.3333333333333" font-family="'Helvetica Neue', Arial, sans-serif" font-size="14" fill="#9f9f9f">London Gold Prices &#183; Source: About.com</text>
<text text-anchor="start" x="23" y="324.66666666666663" font-family="'Helvetica Neue', Arial, sans-serif" font-size="14" fill="#9f9f9f">Customer satisfaction with Whole Foods  &#183; Source: American Customer</text>
<text text-anchor="start" x="23" y="340.66666666666663" font-family="'Helvetica Neue', Arial, sans-serif" font-size="14" fill="#9f9f9f">Satisfaction Index</text>
<text text-anchor="start" x="23" y="363.99999999999994" font-family="'Helvetica Neue', Arial, sans-serif" font-size="14" fill="#9f9f9f">2007-2012, r=0.974, r&#178;=0.949, p&lt;0.01  &#183;  tylervigen.com/spurious/correlation/5942</text>
<polyline points="5,296.66666666666663 20,296.66666666666663" style="fill:none;stroke:#000000;stroke-width:2.8" stroke-dasharray="3,1" />
<polygon points="1.7000000000000002,296.66666666666663 5,293.3666666666666 8.3,296.66666666666663 5,299.96666666666664" stroke="#F7F7F7" stroke-width="2.75" fill="#F7F7F7"  />
<polygon points="1.7000000000000002,296.66666666666663 5,293.3666666666666 8.3,296.66666666666663 5,299.96666666666664" stroke="#000000" stroke-width="2.75" fill="#000000"  />
<polyline points="5,319.99999999999994 20,319.99999999999994" style="fill:none;stroke:#ba0f27;stroke-width:2.8" />
<circle cx="5" cy="319.99999999999994" r="2.75" stroke="#F7F7F7" stroke-width="2.75" fill="#F7F7F7" />
<circle cx="5" cy="319.99999999999994" r="2.75" stroke="#ba0f27" stroke-width="2.75" fill="#ba0f27"  />
<text x="5" y="176.5" transform="rotate(270 5 171.5)" text-anchor="middle" fill="#000000" font-family="'Helvetica Neue', Arial, sans-serif" font-size="14" dominant-baseline="central">Dollars per Ounce</text>
<text x="171.5" y="-389" transform="rotate(90 100 100)" text-anchor="middle" fill="#ba0f27" font-family="'Helvetica Neue', Arial, sans-serif" font-size="14" dominant-baseline="central">Consumer Satisfaction</text>
<line x1="71" y1="94.75" x2="528" y2="94.75" stroke="#F3F3F3" stroke-width="1" fill="#FEFEFE" />
<text text-anchor="end" x="62" y="99.41666666666667" font-family="'Helvetica Neue', Arial, sans-serif" font-size="12" fill="#000000">$1.7K</text>
<text text-anchor="start" x="538" y="99.41666666666667" font-family="'Helvetica Neue', Arial, sans-serif" font-size="12" fill="#ba0f27">80.0</text>
<line x1="71" y1="133.125" x2="528" y2="133.125" stroke="#F3F3F3" stroke-width="1" fill="#FEFEFE" />
<text text-anchor="end" x="62" y="137.79166666666666" font-family="'Helvetica Neue', Arial, sans-serif" font-size="12">$1.5K</text>
<text text-anchor="start" x="538" y="137.79166666666666" font-family="'Helvetica Neue', Arial, sans-serif" font-size="12" fill="#ba0f27">78.2</text>
<line x1="71" y1="171.5" x2="528" y2="171.5" stroke="#F3F3F3" stroke-width="1" fill="#FEFEFE" />
<text text-anchor="end" x="62" y="176.16666666666666" font-family="'Helvetica Neue', Arial, sans-serif" font-size="12">$1.2K</text>
<text text-anchor="start" x="538" y="176.16666666666666" font-family="'Helvetica Neue', Arial, sans-serif" font-size="12" fill="#ba0f27">76.5</text>
<line x1="71" y1="209.875" x2="528" y2="209.875" stroke="#F3F3F3" stroke-width="1" fill="#FEFEFE" />
<text text-anchor="end" x="62" y="214.54166666666666" font-family="'Helvetica Neue', Arial, sans-serif" font-size="12">$1.0K</text>
<text text-anchor="start" x="538" y="214.54166666666666" font-family="'Helvetica Neue', Arial, sans-serif" font-size="12" fill="#ba0f27">74.8</text>
<line x1="71" y1="248.25" x2="528" y2="248.25" stroke="#F3F3F3" stroke-width="1" fill="#FEFEFE" />
<text text-anchor="end" x="62" y="252.91666666666666" font-family="'Helvetica Neue', Arial, sans-serif" font-size="12">$834</text>
<text text-anchor="start" x="538" y="252.91666666666666" font-family="'Helvetica Neue', Arial, sans-serif" font-size="12" fill="#ba0f27">73.0</text>
<polyline points="77.75,256 77.75,262" style="fill:none;stroke:#000000;stroke-width:1" />
<polyline points="166.65,256 166.65,262" style="fill:none;stroke:#000000;stroke-width:1" />
<polyline points="255.55,256 255.55,262" style="fill:none;stroke:#000000;stroke-width:1" />
<polyline points="344.45000000000005,256 344.45000000000005,262" style="fill:none;stroke:#000000;stroke-width:1" />
<polyline points="433.35,256 433.35,262" style="fill:none;stroke:#000000;stroke-width:1" />
<polyline points="522.25,256 522.25,262" style="fill:none;stroke:#000000;stroke-width:1" />
<text text-anchor="middle" x="77.75" y="277" font-weight="bold" font-family="'Helvetica Neue', Arial, sans-serif" font-size="14">2007</text>
<text text-anchor="middle" x="166.65" y="277" font-weight="bold" font-family="'Helvetica Neue', Arial, sans-serif" font-size="14">2008</text>
<text text-anchor="middle" x="255.55" y="277" font-weight="bold" font-family="'Helvetica Neue', Arial, sans-serif" font-size="14">2009</text>
<text text-anchor="middle" x="344.45000000000005" y="277" font-weight="bold" font-family="'Helvetica Neue', Arial, sans-serif" font-size="14">2010</text>
<text text-anchor="middle" x="433.35" y="277" font-weight="bold" font-family="'Helvetica Neue', Arial, sans-serif" font-size="14">2011</text>
<text text-anchor="middle" x="522.25" y="277" font-weight="bold" font-family="'Helvetica Neue', Arial, sans-serif" font-size="14">2012</text>
<polyline points="77.75,248.25 166.65,204.39285714285714" style="fill:none;stroke:#ba0f27;stroke-width:2.8"  />
<polyline points="166.65,204.39285714285714 255.55,182.46428571428572" style="fill:none;stroke:#ba0f27;stroke-width:2.8"  />
<polyline points="255.55,182.46428571428572 344.45000000000005,116.67857142857143" style="fill:none;stroke:#ba0f27;stroke-width:2.8"  />
<polyline points="344.45000000000005,116.67857142857143 433.35,94.75" style="fill:none;stroke:#ba0f27;stroke-width:2.8"  />
<polyline points="433.35,94.75 522.25,94.75" style="fill:none;stroke:#ba0f27;stroke-width:2.8"  />
<circle cx="77.75" cy="248.25" r="2.75" stroke="#F7F7F7" stroke-width="2.75" fill="#F7F7F7" />
<circle cx="77.75" cy="248.25" r="2.75" stroke="#ba0f27" stroke-width="2.75" fill="#ba0f27"  />
<circle cx="166.65" cy="204.39285714285714" r="2.75" stroke="#F7F7F7" stroke-width="2.75" fill="#F7F7F7" />
<circle cx="166.65" cy="204.39285714285714" r="2.75" stroke="#ba0f27" stroke-width="2.75" fill="#ba0f27"  />
<circle cx="255.55" cy="182.46428571428572" r="2.75" stroke="#F7F7F7" stroke-width="2.75" fill="#F7F7F7" />
<circle cx="255.55" cy="182.46428571428572" r="2.75" stroke="#ba0f27" stroke-width="2.75" fill="#ba0f27"  />
<circle cx="344.45000000000005" cy="116.67857142857143" r="2.75" stroke="#F7F7F7" stroke-width="2.75" fill="#F7F7F7" />
<circle cx="344.45000000000005" cy="116.67857142857143" r="2.75" stroke="#ba0f27" stroke-width="2.75" fill="#ba0f27"  />
<circle cx="433.35" cy="94.75" r="2.75" stroke="#F7F7F7" stroke-width="2.75" fill="#F7F7F7" />
<circle cx="433.35" cy="94.75" r="2.75" stroke="#ba0f27" stroke-width="2.75" fill="#ba0f27"  />
<circle cx="522.25" cy="94.75" r="2.75" stroke="#F7F7F7" stroke-width="2.75" fill="#F7F7F7" />
<circle cx="522.25" cy="94.75" r="2.75" stroke="#ba0f27" stroke-width="2.75" fill="#ba0f27"  />
<polyline points="77.75,248.25 166.65,241.54246828913028" style="fill:none;stroke:#000000;stroke-width:2.8" stroke-dasharray="3,1"  />
<polyline points="166.65,241.54246828913028 255.55,200.97121745463372" style="fill:none;stroke:#000000;stroke-width:2.8" stroke-dasharray="3,1"  />
<polyline points="255.55,200.97121745463372 344.45000000000005,141.72135400861805" style="fill:none;stroke:#000000;stroke-width:2.8" stroke-dasharray="3,1"  />
<polyline points="344.45000000000005,141.72135400861805 433.35,118.33815318322509" style="fill:none;stroke:#000000;stroke-width:2.8" stroke-dasharray="3,1"  />
<polyline points="433.35,118.33815318322509 522.25,94.75" style="fill:none;stroke:#000000;stroke-width:2.8" stroke-dasharray="3,1"  />
<polygon points="74.45,248.25 77.75,244.95 81.05,248.25 77.75,251.55" stroke="#F7F7F7" stroke-width="2.75" fill="#F7F7F7"  />
<polygon points="74.45,248.25 77.75,244.95 81.05,248.25 77.75,251.55" stroke="#000000" stroke-width="2.75" fill="#000000"  />
<polygon points="163.35,241.54246828913028 166.65,238.24246828913027 169.95000000000002,241.54246828913028 166.65,244.8424682891303" stroke="#F7F7F7" stroke-width="2.75" fill="#F7F7F7"  />
<polygon points="163.35,241.54246828913028 166.65,238.24246828913027 169.95000000000002,241.54246828913028 166.65,244.8424682891303" stroke="#000000" stroke-width="2.75" fill="#000000"  />
<polygon points="252.25,200.97121745463372 255.55,197.6712174546337 258.85,200.97121745463372 255.55,204.27121745463373" stroke="#F7F7F7" stroke-width="2.75" fill="#F7F7F7"  />
<polygon points="252.25,200.97121745463372 255.55,197.6712174546337 258.85,200.97121745463372 255.55,204.27121745463373" stroke="#000000" stroke-width="2.75" fill="#000000"  />
<polygon points="341.15000000000003,141.72135400861805 344.45000000000005,138.42135400861804 347.75000000000006,141.72135400861805 344.45000000000005,145.02135400861806" stroke="#F7F7F7" stroke-width="2.75" fill="#F7F7F7"  />
<polygon points="341.15000000000003,141.72135400861805 344.45000000000005,138.42135400861804 347.75000000000006,141.72135400861805 344.45000000000005,145.02135400861806" stroke="#000000" stroke-width="2.75" fill="#000000"  />
<polygon points="430.05,118.33815318322509 433.35,115.03815318322509 436.65000000000003,118.33815318322509 433.35,121.63815318322509" stroke="#F7F7F7" stroke-width="2.75" fill="#F7F7F7"  />
<polygon points="430.05,118.33815318322509 433.35,115.03815318322509 436.65000000000003,118.33815318322509 433.35,121.63815318322509" stroke="#000000" stroke-width="2.75" fill="#000000"  />
<polygon points="518.95,94.75 522.25,91.45 525.55,94.75 522.25,98.05" stroke="#F7F7F7" stroke-width="2.75" fill="#F7F7F7"  />
<polygon points="518.95,94.75 522.25,91.45 525.55,94.75 522.25,98.05" stroke="#000000" stroke-width="2.75" fill="#000000"  />
</svg>