<svg width="600" height="414" xmlns="http://www.w3.org/2000/svg"> <rect width="100%" height="100%" fill="#FEFEFE" />
<line x1="70" y1="274" x2="530" y2="274" stroke="#9f9f9f" stroke-width="1" />
<rect x="70" y="109" width="460" height="165" fill="#FEFEFE" />
<text text-anchor="middle" x="300.0" y="20" font-family="'Helvetica Neue', Arial, sans-serif" font-weight="bold" font-size="22" fill="#000000">Popularity of the first name Hanna</text>
<text text-anchor="middle" x="300.0" y="42" font-family="'Helvetica Neue', Arial, sans-serif" font-size="14" fill="#000000">correlates with</text>
<text text-anchor="middle" x="300.0" y="68" font-family="'Helvetica Neue', Arial, sans-serif" font-weight="bold" font-size="22" fill="#ba0f27">Popularity of the &apos;what</text>
<text text-anchor="middle" x="300.0" y="90" font-family="'Helvetica Neue', Arial, sans-serif" font-weight="bold" font-size="22" fill="#ba0f27">does the fox say&apos; meme</text>
<text text-anchor="start" x="23" y="319.3333333333333" font-family="'Helvetica Neue', Arial, sans-serif" font-size="14" fill="#9f9f9f">Babies of all sexes born in the US named Hanna &#183; Source: US Social Security</text>
<text text-anchor="start" x="23" y="335.3333333333333" font-family="'Helvetica Neue', Arial, sans-serif" font-size="14" fill="#9f9f9f">Administration</text>
<text text-anchor="start" x="23" y="358.66666666666663" font-family="'Helvetica Neue', Arial, sans-serif" font-size="14" fill="#9f9f9f">Relative volume of Google searches for &apos;what does the fox say&apos; (without</text>
<text text-anchor="start" x="23" y="374.66666666666663" font-family="'Helvetica Neue', Arial, sans-serif" font-size="14" fill="#9f9f9f">quotes, in the United States) &#183; Source: Google Trends</text>
<text text-anchor="start" x="23" y="397.99999999999994" font-family="'Helvetica Neue', Arial, sans-serif" font-size="14" fill="#9f9f9f">2013-2022, r=0.980, r&#178;=0.960, p&lt;0.01  &#183;  tylervigen.com/spurious/correlation/5956</text>
<polyline points="5,314.66666666666663 20,314.66666666666663" style="fill:none;stroke:#000000;stroke-width:2.8" stroke-dasharray="3,1" />
<polygon points="1.7000000000000002,314.66666666666663 5,311.3666666666666 8.3,314.66666666666663 5,317.96666666666664" stroke="#F7F7F7" stroke-width="2.75" fill="#F7F7F7"  />
<polygon points="1.7000000000000002,314.66666666666663 5,311.3666666666666 8.3,314.66666666666663 5,317.96666666666664" stroke="#000000" stroke-width="2.75" fill="#000000"  />
<polyline points="5,353.99999999999994 20,353.99999999999994" style="fill:none;stroke:#ba0f27;stroke-width:2.8" />
<circle cx="5" cy="353.99999999999994" r="2.75" stroke="#F7F7F7" stroke-width="2.75" fill="#F7F7F7" />
<circle cx="5" cy="353.99999999999994" r="2.75" stroke="#ba0f27" stroke-width="2.75" fill="#ba0f27"  />
<text x="5" y="196.5" transform="rotate(270 5 191.5)" text-anchor="middle" fill="#000000" font-family="'Helvetica Neue', Arial, sans-serif" font-size="14" dominant-baseline="central">Babies born</text>
<text x="191.5" y="-389" transform="rotate(90 100 100)" text-anchor="middle" fill="#ba0f27" font-family="'Helvetica Neue', Arial, sans-serif" font-size="14" dominant-baseline="central">Relative popularity</text>
<line x1="71" y1="116.75" x2="528" y2="116.75" stroke="#F3F3F3" stroke-width="1" fill="#FEFEFE" />
<text text-anchor="end" x="62" y="121.41666666666667" font-family="'Helvetica Neue', Arial, sans-serif" font-size="12" fill="#000000">825</text>
<text text-anchor="start" x="538" y="121.41666666666667" font-family="'Helvetica Neue', Arial, sans-serif" font-size="12" fill="#ba0f27">67</text>
<line x1="71" y1="154.125" x2="528" y2="154.125" stroke="#F3F3F3" stroke-width="1" fill="#FEFEFE" />
<text text-anchor="end" x="62" y="158.79166666666666" font-family="'Helvetica Neue', Arial, sans-serif" font-size="12">756</text>
<text text-anchor="start" x="538" y="158.79166666666666" font-family="'Helvetica Neue', Arial, sans-serif" font-size="12" fill="#ba0f27">51</text>
<line x1="71" y1="191.5" x2="528" y2="191.5" stroke="#F3F3F3" stroke-width="1" fill="#FEFEFE" />
<text text-anchor="end" x="62" y="196.16666666666666" font-family="'Helvetica Neue', Arial, sans-serif" font-size="12">688</text>
<text text-anchor="start" x="538" y="196.16666666666666" font-family="'Helvetica Neue', Arial, sans-serif" font-size="12" fill="#ba0f27">34</text>
<line x1="71" y1="228.875" x2="528" y2="228.875" stroke="#F3F3F3" stroke-width="1" fill="#FEFEFE" />
<text text-anchor="end" x="62" y="233.54166666666666" font-family="'Helvetica Neue', Arial, sans-serif" font-size="12">619</text>
<text text-anchor="start" x="538" y="233.54166666666666" font-family="'Helvetica Neue', Arial, sans-serif" font-size="12" fill="#ba0f27">18</text>
<line x1="71" y1="266.25" x2="528" y2="266.25" stroke="#F3F3F3" stroke-width="1" fill="#FEFEFE" />
<text text-anchor="end" x="62" y="270.9166666666667" font-family="'Helvetica Neue', Arial, sans-serif" font-size="12">550</text>
<text text-anchor="start" x="538" y="270.9166666666667" font-family="'Helvetica Neue', Arial, sans-serif" font-size="12" fill="#ba0f27">1</text>
<polyline points="77.75,274 77.75,280" style="fill:none;stroke:#000000;stroke-width:1" />
<polyline points="127.13888888888889,274 127.13888888888889,280" style="fill:none;stroke:#000000;stroke-width:1" />
<polyline points="176.52777777777777,274 176.52777777777777,280" style="fill:none;stroke:#000000;stroke-width:1" />
<polyline points="225.91666666666666,274 225.91666666666666,280" style="fill:none;stroke:#000000;stroke-width:1" />
<polyline points="275.30555555555554,274 275.30555555555554,280" style="fill:none;stroke:#000000;stroke-width:1" />
<polyline points="324.69444444444446,274 324.69444444444446,280" style="fill:none;stroke:#000000;stroke-width:1" />
<polyline points="374.0833333333333,274 374.0833333333333,280" style="fill:none;stroke:#000000;stroke-width:1" />
<polyline points="423.4722222222222,274 423.4722222222222,280" style="fill:none;stroke:#000000;stroke-width:1" />
<polyline points="472.8611111111111,274 472.8611111111111,280" style="fill:none;stroke:#000000;stroke-width:1" />
<polyline points="522.25,274 522.25,280" style="fill:none;stroke:#000000;stroke-width:1" />
<text text-anchor="middle" x="77.75" y="295" font-weight="bold" font-family="'Helvetica Neue', Arial, sans-serif" font-size="14">2013</text>
<text text-anchor="middle" x="127.13888888888889" y="295" font-weight="bold" font-family="'Helvetica Neue', Arial, sans-serif" font-size="14">2014</text>
<text text-anchor="middle" x="176.52777777777777" y="295" font-weight="bold" font-family="'Helvetica Neue', Arial, sans-serif" font-size="14">2015</text>
<text text-anchor="middle" x="225.91666666666666" y="295" font-weight="bold" font-family="'Helvetica Neue', Arial, sans-serif" font-size="14">2016</text>
<text text-anchor="middle" x="275.30555555555554" y="295" font-weight="bold" font-family="'Helvetica Neue', Arial, sans-serif" font-size="14">2017</text>
<text text-anchor="middle" x="324.69444444444446" y="295" font-weight="bold" font-family="'Helvetica Neue', Arial, sans-serif" font-size="14">2018</text>
<text text-anchor="middle" x="374.0833333333333" y="295" font-weight="bold" font-family="'Helvetica Neue', Arial, sans-serif" font-size="14">2019</text>
<text text-anchor="middle" x="423.4722222222222" y="295" font-weight="bold" font-family="'Helvetica Neue', Arial, sans-serif" font-size="14">2020</text>
<text text-anchor="middle" x="472.8611111111111" y="295" font-weight="bold" font-family="'Helvetica Neue', Arial, sans-serif" font-size="14">2021</text>
<text text-anchor="middle" x="522.25" y="295" font-weight="bold" font-family="'Helvetica Neue', Arial, sans-serif" font-size="14">2022</text>
<polyline points="77.75,116.75 127.13888888888889,239.73490566037736" style="fill:none;stroke:#ba0f27;stroke-width:2.8"  />
<polyline points="127.13888888888889,239.73490566037736 176.52777777777777,257.59969305660377" style="fill:none;stroke:#ba0f27;stroke-width:2.8"  />
<polyline points="176.52777777777777,257.59969305660377 225.91666666666666,262.8650943396226" style="fill:none;stroke:#ba0f27;stroke-width:2.8"  />
<polyline points="225.91666666666666,262.8650943396226 275.30555555555554,264.5575471698113" style="fill:none;stroke:#ba0f27;stroke-width:2.8"  />
<polyline points="275.30555555555554,264.5575471698113 324.69444444444446,265.3097409056604" style="fill:none;stroke:#ba0f27;stroke-width:2.8"  />
<polyline points="324.69444444444446,265.3097409056604 374.0833333333333,266.25" style="fill:none;stroke:#ba0f27;stroke-width:2.8"  />
<polyline points="374.0833333333333,266.25 423.4722222222222,266.25" style="fill:none;stroke:#ba0f27;stroke-width:2.8"  />
<polyline points="423.4722222222222,266.25 472.8611111111111,266.25" style="fill:none;stroke:#ba0f27;stroke-width:2.8"  />
<polyline points="472.8611111111111,266.25 522.25,266.25" style="fill:none;stroke:#ba0f27;stroke-width:2.8"  />
<circle cx="77.75" cy="116.75" r="2.75" stroke="#F7F7F7" stroke-width="2.75" fill="#F7F7F7" />
<circle cx="77.75" cy="116.75" r="2.75" stroke="#ba0f27" stroke-width="2.75" fill="#ba0f27"  />
<circle cx="127.13888888888889" cy="239.73490566037736" r="2.75" stroke="#F7F7F7" stroke-width="2.75" fill="#F7F7F7" />
<circle cx="127.13888888888889" cy="239.73490566037736" r="2.75" stroke="#ba0f27" stroke-width="2.75" fill="#ba0f27"  />
<circle cx="176.52777777777777" cy="257.59969305660377" r="2.75" stroke="#F7F7F7" stroke-width="2.75" fill="#F7F7F7" />
<circle cx="176.52777777777777" cy="257.59969305660377" r="2.75" stroke="#ba0f27" stroke-width="2.75" fill="#ba0f27"  />
<circle cx="225.91666666666666" cy="262.8650943396226" r="2.75" stroke="#F7F7F7" stroke-width="2.75" fill="#F7F7F7" />
<circle cx="225.91666666666666" cy="262.8650943396226" r="2.75" stroke="#ba0f27" stroke-width="2.75" fill="#ba0f27"  />
<circle cx="275.30555555555554" cy="264.5575471698113" r="2.75" stroke="#F7F7F7" stroke-width="2.75" fill="#F7F7F7" />
<circle cx="275.30555555555554" cy="264.5575471698113" r="2.75" stroke="#ba0f27" stroke-width="2.75" fill="#ba0f27"  />
<circle cx="324.69444444444446" cy="265.3097409056604" r="2.75" stroke="#F7F7F7" stroke-width="2.75" fill="#F7F7F7" />
<circle cx="324.69444444444446" cy="265.3097409056604" r="2.75" stroke="#ba0f27" stroke-width="2.75" fill="#ba0f27"  />
<circle cx="374.0833333333333" cy="266.25" r="2.75" stroke="#F7F7F7" stroke-width="2.75" fill="#F7F7F7" />
<circle cx="374.0833333333333" cy="266.25" r="2.75" stroke="#ba0f27" stroke-width="2.75" fill="#ba0f27"  />
<circle cx="423.4722222222222" cy="266.25" r="2.75" stroke="#F7F7F7" stroke-width="2.75" fill="#F7F7F7" />
<circle cx="423.4722222222222" cy="266.25" r="2.75" stroke="#ba0f27" stroke-width="2.75" fill="#ba0f27"  />
<circle cx="472.8611111111111" cy="266.25" r="2.75" stroke="#F7F7F7" stroke-width="2.75" fill="#F7F7F7" />
<circle cx="472.8611111111111" cy="266.25" r="2.75" stroke="#ba0f27" stroke-width="2.75" fill="#ba0f27"  />
<circle cx="522.25" cy="266.25" r="2.75" stroke="#F7F7F7" stroke-width="2.75" fill="#F7F7F7" />
<circle cx="522.25" cy="266.25" r="2.75" stroke="#ba0f27" stroke-width="2.75" fill="#ba0f27"  />
<polyline points="77.75,116.75 127.13888888888889,212.97363636363636" style="fill:none;stroke:#000000;stroke-width:2.8" stroke-dasharray="3,1"  />
<polyline points="127.13888888888889,212.97363636363636 176.52777777777777,236.89363636363635" style="fill:none;stroke:#000000;stroke-width:2.8" stroke-dasharray="3,1"  />
<polyline points="176.52777777777777,236.89363636363635 225.91666666666666,245.0481818181818" style="fill:none;stroke:#000000;stroke-width:2.8" stroke-dasharray="3,1"  />
<polyline points="225.91666666666666,245.0481818181818 275.30555555555554,249.9409090909091" style="fill:none;stroke:#000000;stroke-width:2.8" stroke-dasharray="3,1"  />
<polyline points="275.30555555555554,249.9409090909091 324.69444444444446,265.16272727272724" style="fill:none;stroke:#000000;stroke-width:2.8" stroke-dasharray="3,1"  />
<polyline points="324.69444444444446,265.16272727272724 374.0833333333333,256.46454545454543" style="fill:none;stroke:#000000;stroke-width:2.8" stroke-dasharray="3,1"  />
<polyline points="374.0833333333333,256.46454545454543 423.4722222222222,254.83363636363634" style="fill:none;stroke:#000000;stroke-width:2.8" stroke-dasharray="3,1"  />
<polyline points="423.4722222222222,254.83363636363634 472.8611111111111,266.25" style="fill:none;stroke:#000000;stroke-width:2.8" stroke-dasharray="3,1"  />
<polyline points="472.8611111111111,266.25 522.25,259.1827272727272" style="fill:none;stroke:#000000;stroke-width:2.8" stroke-dasharray="3,1"  />
<polygon points="74.45,116.75 77.75,113.45 81.05,116.75 77.75,120.05" stroke="#F7F7F7" stroke-width="2.75" fill="#F7F7F7"  />
<polygon points="74.45,116.75 77.75,113.45 81.05,116.75 77.75,120.05" stroke="#000000" stroke-width="2.75" fill="#000000"  />
<polygon points="123.83888888888889,212.97363636363636 127.13888888888889,209.67363636363635 130.4388888888889,212.97363636363636 127.13888888888889,216.27363636363637" stroke="#F7F7F7" stroke-width="2.75" fill="#F7F7F7"  />
<polygon points="123.83888888888889,212.97363636363636 127.13888888888889,209.67363636363635 130.4388888888889,212.97363636363636 127.13888888888889,216.27363636363637" stroke="#000000" stroke-width="2.75" fill="#000000"  />
<polygon points="173.22777777777776,236.89363636363635 176.52777777777777,233.59363636363634 179.82777777777778,236.89363636363635 176.52777777777777,240.19363636363636" stroke="#F7F7F7" stroke-width="2.75" fill="#F7F7F7"  />
<polygon points="173.22777777777776,236.89363636363635 176.52777777777777,233.59363636363634 179.82777777777778,236.89363636363635 176.52777777777777,240.19363636363636" stroke="#000000" stroke-width="2.75" fill="#000000"  />
<polygon points="222.61666666666665,245.0481818181818 225.91666666666666,241.7481818181818 229.21666666666667,245.0481818181818 225.91666666666666,248.3481818181818" stroke="#F7F7F7" stroke-width="2.75" fill="#F7F7F7"  />
<polygon points="222.61666666666665,245.0481818181818 225.91666666666666,241.7481818181818 229.21666666666667,245.0481818181818 225.91666666666666,248.3481818181818" stroke="#000000" stroke-width="2.75" fill="#000000"  />
<polygon points="272.00555555555553,249.9409090909091 275.30555555555554,246.64090909090908 278.60555555555555,249.9409090909091 275.30555555555554,253.2409090909091" stroke="#F7F7F7" stroke-width="2.75" fill="#F7F7F7"  />
<polygon points="272.00555555555553,249.9409090909091 275.30555555555554,246.64090909090908 278.60555555555555,249.9409090909091 275.30555555555554,253.2409090909091" stroke="#000000" stroke-width="2.75" fill="#000000"  />
<polygon points="321.39444444444445,265.16272727272724 324.69444444444446,261.8627272727272 327.99444444444447,265.16272727272724 324.69444444444446,268.46272727272725" stroke="#F7F7F7" stroke-width="2.75" fill="#F7F7F7"  />
<polygon points="321.39444444444445,265.16272727272724 324.69444444444446,261.8627272727272 327.99444444444447,265.16272727272724 324.69444444444446,268.46272727272725" stroke="#000000" stroke-width="2.75" fill="#000000"  />
<polygon points="370.7833333333333,256.46454545454543 374.0833333333333,253.16454545454542 377.3833333333333,256.46454545454543 374.0833333333333,259.76454545454544" stroke="#F7F7F7" stroke-width="2.75" fill="#F7F7F7"  />
<polygon points="370.7833333333333,256.46454545454543 374.0833333333333,253.16454545454542 377.3833333333333,256.46454545454543 374.0833333333333,259.76454545454544" stroke="#000000" stroke-width="2.75" fill="#000000"  />
<polygon points="420.17222222222216,254.83363636363634 423.4722222222222,251.53363636363633 426.7722222222222,254.83363636363634 423.4722222222222,258.13363636363636" stroke="#F7F7F7" stroke-width="2.75" fill="#F7F7F7"  />
<polygon points="420.17222222222216,254.83363636363634 423.4722222222222,251.53363636363633 426.7722222222222,254.83363636363634 423.4722222222222,258.13363636363636" stroke="#000000" stroke-width="2.75" fill="#000000"  />
<polygon points="469.5611111111111,266.25 472.8611111111111,262.95 476.1611111111111,266.25 472.8611111111111,269.55" stroke="#F7F7F7" stroke-width="2.75" fill="#F7F7F7"  />
<polygon points="469.5611111111111,266.25 472.8611111111111,262.95 476.1611111111111,266.25 472.8611111111111,269.55" stroke="#000000" stroke-width="2.75" fill="#000000"  />
<polygon points="518.95,259.1827272727272 522.25,255.8827272727272 525.55,259.1827272727272 522.25,262.48272727272723" stroke="#F7F7F7" stroke-width="2.75" fill="#F7F7F7"  />
<polygon points="518.95,259.1827272727272 522.25,255.8827272727272 525.55,259.1827272727272 522.25,262.48272727272723" stroke="#000000" stroke-width="2.75" fill="#000000"  />
</svg>